%TF.GenerationSoftware,KiCad,Pcbnew,(6.0.0)*%
%TF.CreationDate,2022-02-22T05:40:17+01:00*%
%TF.ProjectId,Programmer,50726f67-7261-46d6-9d65-722e6b696361,rev?*%
%TF.SameCoordinates,Original*%
%TF.FileFunction,Soldermask,Bot*%
%TF.FilePolarity,Negative*%
%FSLAX46Y46*%
G04 Gerber Fmt 4.6, Leading zero omitted, Abs format (unit mm)*
G04 Created by KiCad (PCBNEW (6.0.0)) date 2022-02-22 05:40:17*
%MOMM*%
%LPD*%
G01*
G04 APERTURE LIST*
%ADD10R,1.600000X1.600000*%
%ADD11O,1.600000X1.600000*%
%ADD12C,3.500000*%
%ADD13R,1.700000X1.700000*%
%ADD14O,1.700000X1.700000*%
G04 APERTURE END LIST*
D10*
%TO.C,U1*%
X91430000Y-106680000D03*
D11*
X91430000Y-104140000D03*
X91430000Y-101600000D03*
X91430000Y-99060000D03*
X91430000Y-96520000D03*
X91430000Y-93980000D03*
X91430000Y-91440000D03*
X91430000Y-88900000D03*
X91430000Y-86360000D03*
X91430000Y-83820000D03*
X91430000Y-81280000D03*
X91430000Y-78740000D03*
X91430000Y-76200000D03*
X91430000Y-73660000D03*
X91430000Y-71120000D03*
X76190000Y-71120000D03*
X76190000Y-73660000D03*
X76190000Y-76200000D03*
X76190000Y-78740000D03*
X76190000Y-81280000D03*
X76190000Y-83820000D03*
X76190000Y-86360000D03*
X76190000Y-88900000D03*
X76190000Y-91440000D03*
X76190000Y-93980000D03*
X76190000Y-96520000D03*
X76190000Y-99060000D03*
X76190000Y-101600000D03*
X76190000Y-104140000D03*
X76190000Y-106680000D03*
%TD*%
D12*
%TO.C,J1*%
X195580000Y-67330000D03*
X127000000Y-110510000D03*
X127000000Y-67330000D03*
X195580000Y-110510000D03*
D13*
X182880000Y-86494300D03*
D14*
X182880000Y-91345700D03*
X180340000Y-86494300D03*
X180340000Y-91345700D03*
X177800000Y-86494300D03*
X177800000Y-91345700D03*
X175260000Y-86494300D03*
X175260000Y-91345700D03*
X172720000Y-86494300D03*
X172720000Y-91345700D03*
X170180000Y-86494300D03*
X170180000Y-91345700D03*
X167640000Y-86494300D03*
X167640000Y-91345700D03*
X165100000Y-86494300D03*
X165100000Y-91345700D03*
X162560000Y-86494300D03*
X162560000Y-91345700D03*
X160020000Y-86494300D03*
X160020000Y-91345700D03*
X157480000Y-86494300D03*
X157480000Y-91345700D03*
X154940000Y-86494300D03*
X154940000Y-91345700D03*
X152400000Y-86494300D03*
X152400000Y-91345700D03*
X149860000Y-86494300D03*
X149860000Y-91345700D03*
X147320000Y-86494300D03*
X147320000Y-91345700D03*
X144780000Y-86494300D03*
X144780000Y-91345700D03*
X142240000Y-86494300D03*
X142240000Y-91345700D03*
X139700000Y-86494300D03*
X139700000Y-91345700D03*
%TD*%
M02*
