M48
; DRILL file {KiCad (6.0.0)} date Tue Feb 22 05:40:20 2022
; FORMAT={-:-/ absolute / inch / decimal}
; #@! TF.CreationDate,2022-02-22T05:40:20+01:00
; #@! TF.GenerationSoftware,Kicad,Pcbnew,(6.0.0)
; #@! TF.FileFunction,Plated,1,2,PTH
FMAT,2
INCH
; #@! TA.AperFunction,Plated,PTH,ViaDrill
T1C0.0157
; #@! TA.AperFunction,Plated,PTH,ComponentDrill
T2C0.0394
%
G90
G05
T1
X2.9Y-2.3
X2.9Y-4.6
X3.325Y-2.8
X3.325Y-3.05
X3.325Y-3.45
X3.325Y-4.0
X3.45Y-4.1
X3.5Y-4.15
X3.685Y-2.78
X3.685Y-3.2
X3.7Y-3.7
X3.855Y-2.78
X3.9Y-3.3
X3.975Y-3.2
X3.975Y-3.7
X3.975Y-3.925
X4.025Y-2.8
X4.2Y-3.575
X4.2Y-3.675
X4.2Y-3.725
X4.2Y-3.775
X4.2Y-3.825
X4.2Y-3.875
X4.2Y-3.925
X4.2Y-3.975
X4.2Y-4.025
X4.2Y-4.075
X4.225Y-3.475
X4.3Y-2.675
X4.3Y-2.925
X4.3Y-4.2
X4.375Y-3.325
X4.375Y-3.575
X4.575Y-3.2
X4.7Y-3.25
X4.775Y-3.325
X4.775Y-3.575
X5.375Y-3.325
X5.375Y-3.575
X5.5Y-2.3
X5.5Y-4.6
X8.0Y-2.3
X8.0Y-4.6
T2
X2.9996Y-2.8
X2.9996Y-2.9
X2.9996Y-3.0
X2.9996Y-3.1
X2.9996Y-3.2
X2.9996Y-3.3
X2.9996Y-3.4
X2.9996Y-3.5
X2.9996Y-3.6
X2.9996Y-3.7
X2.9996Y-3.8
X2.9996Y-3.9
X2.9996Y-4.0
X2.9996Y-4.1
X2.9996Y-4.2
X3.5996Y-2.8
X3.5996Y-2.9
X3.5996Y-3.0
X3.5996Y-3.1
X3.5996Y-3.2
X3.5996Y-3.3
X3.5996Y-3.4
X3.5996Y-3.5
X3.5996Y-3.6
X3.5996Y-3.7
X3.5996Y-3.8
X3.5996Y-3.9
X3.5996Y-4.0
X3.5996Y-4.1
X3.5996Y-4.2
X5.5Y-3.4053
X5.5Y-3.5963
X5.6Y-3.4053
X5.6Y-3.5963
X5.7Y-3.4053
X5.7Y-3.5963
X5.8Y-3.4053
X5.8Y-3.5963
X5.9Y-3.4053
X5.9Y-3.5963
X6.0Y-3.4053
X6.0Y-3.5963
X6.1Y-3.4053
X6.1Y-3.5963
X6.2Y-3.4053
X6.2Y-3.5963
X6.3Y-3.4053
X6.3Y-3.5963
X6.4Y-3.4053
X6.4Y-3.5963
X6.5Y-3.4053
X6.5Y-3.5963
X6.6Y-3.4053
X6.6Y-3.5963
X6.7Y-3.4053
X6.7Y-3.5963
X6.8Y-3.4053
X6.8Y-3.5963
X6.9Y-3.4053
X6.9Y-3.5963
X7.0Y-3.4053
X7.0Y-3.5963
X7.1Y-3.4053
X7.1Y-3.5963
X7.2Y-3.4053
X7.2Y-3.5963
T0
M30
