%TF.GenerationSoftware,KiCad,Pcbnew,(6.0.0)*%
%TF.CreationDate,2022-02-22T05:40:17+01:00*%
%TF.ProjectId,Programmer,50726f67-7261-46d6-9d65-722e6b696361,rev?*%
%TF.SameCoordinates,Original*%
%TF.FileFunction,Copper,L1,Top*%
%TF.FilePolarity,Positive*%
%FSLAX46Y46*%
G04 Gerber Fmt 4.6, Leading zero omitted, Abs format (unit mm)*
G04 Created by KiCad (PCBNEW (6.0.0)) date 2022-02-22 05:40:17*
%MOMM*%
%LPD*%
G01*
G04 APERTURE LIST*
G04 Aperture macros list*
%AMRoundRect*
0 Rectangle with rounded corners*
0 $1 Rounding radius*
0 $2 $3 $4 $5 $6 $7 $8 $9 X,Y pos of 4 corners*
0 Add a 4 corners polygon primitive as box body*
4,1,4,$2,$3,$4,$5,$6,$7,$8,$9,$2,$3,0*
0 Add four circle primitives for the rounded corners*
1,1,$1+$1,$2,$3*
1,1,$1+$1,$4,$5*
1,1,$1+$1,$6,$7*
1,1,$1+$1,$8,$9*
0 Add four rect primitives between the rounded corners*
20,1,$1+$1,$2,$3,$4,$5,0*
20,1,$1+$1,$4,$5,$6,$7,0*
20,1,$1+$1,$6,$7,$8,$9,0*
20,1,$1+$1,$8,$9,$2,$3,0*%
G04 Aperture macros list end*
%TA.AperFunction,SMDPad,CuDef*%
%ADD10RoundRect,0.250000X-0.262500X-0.450000X0.262500X-0.450000X0.262500X0.450000X-0.262500X0.450000X0*%
%TD*%
%TA.AperFunction,SMDPad,CuDef*%
%ADD11RoundRect,0.150000X-0.875000X-0.150000X0.875000X-0.150000X0.875000X0.150000X-0.875000X0.150000X0*%
%TD*%
%TA.AperFunction,SMDPad,CuDef*%
%ADD12RoundRect,0.250000X0.250000X0.475000X-0.250000X0.475000X-0.250000X-0.475000X0.250000X-0.475000X0*%
%TD*%
%TA.AperFunction,SMDPad,CuDef*%
%ADD13RoundRect,0.250000X0.475000X-0.250000X0.475000X0.250000X-0.475000X0.250000X-0.475000X-0.250000X0*%
%TD*%
%TA.AperFunction,ComponentPad*%
%ADD14R,1.600000X1.600000*%
%TD*%
%TA.AperFunction,ComponentPad*%
%ADD15O,1.600000X1.600000*%
%TD*%
%TA.AperFunction,ComponentPad*%
%ADD16R,1.700000X1.700000*%
%TD*%
%TA.AperFunction,ComponentPad*%
%ADD17O,1.700000X1.700000*%
%TD*%
%TA.AperFunction,ViaPad*%
%ADD18C,0.800000*%
%TD*%
%TA.AperFunction,Conductor*%
%ADD19C,0.600000*%
%TD*%
%TA.AperFunction,Conductor*%
%ADD20C,0.300000*%
%TD*%
G04 APERTURE END LIST*
D10*
%TO.P,R5,1*%
%TO.N,Net-(R5-Pad1)*%
X79732500Y-71120000D03*
%TO.P,R5,2*%
%TO.N,/SCK*%
X81557500Y-71120000D03*
%TD*%
D11*
%TO.P,U2,1,VSS*%
%TO.N,GND*%
X104570000Y-90805000D03*
%TO.P,U2,2,NC*%
%TO.N,unconnected-(U2-Pad2)*%
X104570000Y-92075000D03*
%TO.P,U2,3,GPB0*%
%TO.N,Net-(J1-Pad17)*%
X104570000Y-93345000D03*
%TO.P,U2,4,GPB1*%
%TO.N,Net-(J1-Pad15)*%
X104570000Y-94615000D03*
%TO.P,U2,5,GPB2*%
%TO.N,Net-(J1-Pad13)*%
X104570000Y-95885000D03*
%TO.P,U2,6,GPB3*%
%TO.N,Net-(J1-Pad11)*%
X104570000Y-97155000D03*
%TO.P,U2,7,GPB4*%
%TO.N,Net-(J1-Pad9)*%
X104570000Y-98425000D03*
%TO.P,U2,8,GPB5*%
%TO.N,Net-(J1-Pad7)*%
X104570000Y-99695000D03*
%TO.P,U2,9,GPB6*%
%TO.N,Net-(J1-Pad5)*%
X104570000Y-100965000D03*
%TO.P,U2,10,GPB7*%
%TO.N,Net-(J1-Pad3)*%
X104570000Y-102235000D03*
%TO.P,U2,11,VDD*%
%TO.N,+5V*%
X104570000Y-103505000D03*
%TO.P,U2,12,~{CS}*%
%TO.N,/~{CS_A}*%
X104570000Y-104775000D03*
%TO.P,U2,13,SCK*%
%TO.N,/SCK*%
X104570000Y-106045000D03*
%TO.P,U2,14,SI*%
%TO.N,/MOSI*%
X104570000Y-107315000D03*
%TO.P,U2,15,SO*%
%TO.N,Net-(R7-Pad2)*%
X113870000Y-107315000D03*
%TO.P,U2,16,~{RESET}*%
%TO.N,/~{RESET}*%
X113870000Y-106045000D03*
%TO.P,U2,17,NC*%
%TO.N,unconnected-(U2-Pad17)*%
X113870000Y-104775000D03*
%TO.P,U2,18,INTB*%
%TO.N,unconnected-(U2-Pad18)*%
X113870000Y-103505000D03*
%TO.P,U2,19,INTA*%
%TO.N,unconnected-(U2-Pad19)*%
X113870000Y-102235000D03*
%TO.P,U2,20,GPA0*%
%TO.N,Net-(J1-Pad6)*%
X113870000Y-100965000D03*
%TO.P,U2,21,GPA1*%
%TO.N,Net-(J1-Pad8)*%
X113870000Y-99695000D03*
%TO.P,U2,22,GPA2*%
%TO.N,Net-(J1-Pad14)*%
X113870000Y-98425000D03*
%TO.P,U2,23,GPA3*%
%TO.N,Net-(J1-Pad10)*%
X113870000Y-97155000D03*
%TO.P,U2,24,GPA4*%
%TO.N,Net-(J1-Pad29)*%
X113870000Y-95885000D03*
%TO.P,U2,25,GPA5*%
%TO.N,Net-(J1-Pad31)*%
X113870000Y-94615000D03*
%TO.P,U2,26,GPA6*%
%TO.N,Net-(J1-Pad33)*%
X113870000Y-93345000D03*
%TO.P,U2,27,GPA7*%
%TO.N,unconnected-(U2-Pad27)*%
X113870000Y-92075000D03*
%TO.P,U2,28,NC*%
%TO.N,unconnected-(U2-Pad28)*%
X113870000Y-90805000D03*
%TD*%
D12*
%TO.P,C1,1*%
%TO.N,+5V*%
X101280000Y-71120000D03*
%TO.P,C1,2*%
%TO.N,GND*%
X99380000Y-71120000D03*
%TD*%
D13*
%TO.P,C2,1*%
%TO.N,+5V*%
X100965000Y-103185000D03*
%TO.P,C2,2*%
%TO.N,GND*%
X100965000Y-101285000D03*
%TD*%
D14*
%TO.P,U1,1,D1/TX*%
%TO.N,unconnected-(U1-Pad1)*%
X91430000Y-106680000D03*
D15*
%TO.P,U1,2,D0/RX*%
%TO.N,unconnected-(U1-Pad2)*%
X91430000Y-104140000D03*
%TO.P,U1,3,~{RESET}*%
%TO.N,unconnected-(U1-Pad3)*%
X91430000Y-101600000D03*
%TO.P,U1,4,GND*%
%TO.N,GND*%
X91430000Y-99060000D03*
%TO.P,U1,5,D2*%
%TO.N,Net-(U1-Pad5)*%
X91430000Y-96520000D03*
%TO.P,U1,6,D3*%
%TO.N,unconnected-(U1-Pad6)*%
X91430000Y-93980000D03*
%TO.P,U1,7,D4*%
%TO.N,PB6*%
X91430000Y-91440000D03*
%TO.P,U1,8,D5*%
%TO.N,~{CE}*%
X91430000Y-88900000D03*
%TO.P,U1,9,D6*%
%TO.N,~{OE}*%
X91430000Y-86360000D03*
%TO.P,U1,10,D7*%
%TO.N,Net-(R1-Pad1)*%
X91430000Y-83820000D03*
%TO.P,U1,11,D8*%
%TO.N,unconnected-(U1-Pad11)*%
X91430000Y-81280000D03*
%TO.P,U1,12,D9*%
%TO.N,/~{RESET}*%
X91430000Y-78740000D03*
%TO.P,U1,13,D10*%
%TO.N,Net-(R3-Pad1)*%
X91430000Y-76200000D03*
%TO.P,U1,14,D11*%
%TO.N,Net-(R4-Pad1)*%
X91430000Y-73660000D03*
%TO.P,U1,15,D12*%
%TO.N,/MISO*%
X91430000Y-71120000D03*
%TO.P,U1,16,D13*%
%TO.N,Net-(R5-Pad1)*%
X76190000Y-71120000D03*
%TO.P,U1,17,3V3*%
%TO.N,unconnected-(U1-Pad17)*%
X76190000Y-73660000D03*
%TO.P,U1,18,AREF*%
%TO.N,unconnected-(U1-Pad18)*%
X76190000Y-76200000D03*
%TO.P,U1,19,A0*%
%TO.N,unconnected-(U1-Pad19)*%
X76190000Y-78740000D03*
%TO.P,U1,20,A1*%
%TO.N,unconnected-(U1-Pad20)*%
X76190000Y-81280000D03*
%TO.P,U1,21,A2*%
%TO.N,unconnected-(U1-Pad21)*%
X76190000Y-83820000D03*
%TO.P,U1,22,A3*%
%TO.N,unconnected-(U1-Pad22)*%
X76190000Y-86360000D03*
%TO.P,U1,23,A4*%
%TO.N,unconnected-(U1-Pad23)*%
X76190000Y-88900000D03*
%TO.P,U1,24,A5*%
%TO.N,unconnected-(U1-Pad24)*%
X76190000Y-91440000D03*
%TO.P,U1,25,A6*%
%TO.N,unconnected-(U1-Pad25)*%
X76190000Y-93980000D03*
%TO.P,U1,26,A7*%
%TO.N,unconnected-(U1-Pad26)*%
X76190000Y-96520000D03*
%TO.P,U1,27,+5V*%
%TO.N,+5V*%
X76190000Y-99060000D03*
%TO.P,U1,28,~{RESET}*%
%TO.N,unconnected-(U1-Pad28)*%
X76190000Y-101600000D03*
%TO.P,U1,29,GND*%
%TO.N,GND*%
X76190000Y-104140000D03*
%TO.P,U1,30,VIN*%
%TO.N,unconnected-(U1-Pad30)*%
X76190000Y-106680000D03*
%TD*%
D10*
%TO.P,R3,1*%
%TO.N,Net-(R3-Pad1)*%
X94972500Y-72390000D03*
%TO.P,R3,2*%
%TO.N,/~{CS_D}*%
X96797500Y-72390000D03*
%TD*%
%TO.P,R4,1*%
%TO.N,Net-(R4-Pad1)*%
X94972500Y-74930000D03*
%TO.P,R4,2*%
%TO.N,/MOSI*%
X96797500Y-74930000D03*
%TD*%
%TO.P,R6,1*%
%TO.N,/MISO*%
X99417500Y-77470000D03*
%TO.P,R6,2*%
%TO.N,Net-(R6-Pad2)*%
X101242500Y-77470000D03*
%TD*%
%TO.P,R7,1*%
%TO.N,/MISO*%
X111482500Y-110490000D03*
%TO.P,R7,2*%
%TO.N,Net-(R7-Pad2)*%
X113307500Y-110490000D03*
%TD*%
%TO.P,R2,1*%
%TO.N,Net-(U1-Pad5)*%
X94972500Y-96520000D03*
%TO.P,R2,2*%
%TO.N,/~{CS_A}*%
X96797500Y-96520000D03*
%TD*%
D16*
%TO.P,J1,1,HALT*%
%TO.N,~{RW}*%
X182880000Y-86494300D03*
D17*
%TO.P,J1,2,VCC*%
%TO.N,+5V*%
X182880000Y-91345700D03*
%TO.P,J1,3,A7*%
%TO.N,Net-(J1-Pad3)*%
X180340000Y-86494300D03*
%TO.P,J1,4,VCC2*%
%TO.N,+5V*%
X180340000Y-91345700D03*
%TO.P,J1,5,A6*%
%TO.N,Net-(J1-Pad5)*%
X177800000Y-86494300D03*
%TO.P,J1,6,A8*%
%TO.N,Net-(J1-Pad6)*%
X177800000Y-91345700D03*
%TO.P,J1,7,A5*%
%TO.N,Net-(J1-Pad7)*%
X175260000Y-86494300D03*
%TO.P,J1,8,A9*%
%TO.N,Net-(J1-Pad8)*%
X175260000Y-91345700D03*
%TO.P,J1,9,A4*%
%TO.N,Net-(J1-Pad9)*%
X172720000Y-86494300D03*
%TO.P,J1,10,A11*%
%TO.N,Net-(J1-Pad10)*%
X172720000Y-91345700D03*
%TO.P,J1,11,A3*%
%TO.N,Net-(J1-Pad11)*%
X170180000Y-86494300D03*
%TO.P,J1,12,OE*%
%TO.N,~{OE}*%
X170180000Y-91345700D03*
%TO.P,J1,13,A2*%
%TO.N,Net-(J1-Pad13)*%
X167640000Y-86494300D03*
%TO.P,J1,14,A10*%
%TO.N,Net-(J1-Pad14)*%
X167640000Y-91345700D03*
%TO.P,J1,15,A1*%
%TO.N,Net-(J1-Pad15)*%
X165100000Y-86494300D03*
%TO.P,J1,16,CE*%
%TO.N,~{CE}*%
X165100000Y-91345700D03*
%TO.P,J1,17,A0*%
%TO.N,Net-(J1-Pad17)*%
X162560000Y-86494300D03*
%TO.P,J1,18,D7*%
%TO.N,Net-(J1-Pad18)*%
X162560000Y-91345700D03*
%TO.P,J1,19,D0*%
%TO.N,Net-(J1-Pad19)*%
X160020000Y-86494300D03*
%TO.P,J1,20,D6*%
%TO.N,Net-(J1-Pad20)*%
X160020000Y-91345700D03*
%TO.P,J1,21,D1*%
%TO.N,Net-(J1-Pad21)*%
X157480000Y-86494300D03*
%TO.P,J1,22,D5*%
%TO.N,Net-(J1-Pad22)*%
X157480000Y-91345700D03*
%TO.P,J1,23,D2*%
%TO.N,Net-(J1-Pad23)*%
X154940000Y-86494300D03*
%TO.P,J1,24,D4*%
%TO.N,Net-(J1-Pad24)*%
X154940000Y-91345700D03*
%TO.P,J1,25,GND*%
%TO.N,GND*%
X152400000Y-86494300D03*
%TO.P,J1,26,D3*%
%TO.N,Net-(J1-Pad26)*%
X152400000Y-91345700D03*
%TO.P,J1,27,GND1*%
%TO.N,GND*%
X149860000Y-86494300D03*
%TO.P,J1,28,GND2*%
X149860000Y-91345700D03*
%TO.P,J1,29,A12*%
%TO.N,Net-(J1-Pad29)*%
X147320000Y-86494300D03*
%TO.P,J1,30,RW*%
%TO.N,unconnected-(J1-Pad30)*%
X147320000Y-91345700D03*
%TO.P,J1,31,A13*%
%TO.N,Net-(J1-Pad31)*%
X144780000Y-86494300D03*
%TO.P,J1,32,CART*%
%TO.N,unconnected-(J1-Pad32)*%
X144780000Y-91345700D03*
%TO.P,J1,33,A14*%
%TO.N,Net-(J1-Pad33)*%
X142240000Y-86494300D03*
%TO.P,J1,34,NMI*%
%TO.N,unconnected-(J1-Pad34)*%
X142240000Y-91345700D03*
%TO.P,J1,35,PB6*%
%TO.N,PB6*%
X139700000Y-86494300D03*
%TO.P,J1,36,IRQ*%
%TO.N,unconnected-(J1-Pad36)*%
X139700000Y-91345700D03*
%TD*%
D11*
%TO.P,U3,1,VDD*%
%TO.N,+5V*%
X104570000Y-71120000D03*
%TO.P,U3,2,NC*%
%TO.N,unconnected-(U3-Pad2)*%
X104570000Y-72390000D03*
%TO.P,U3,3,~{CS}*%
%TO.N,/~{CS_D}*%
X104570000Y-73660000D03*
%TO.P,U3,4,SCK*%
%TO.N,/SCK*%
X104570000Y-74930000D03*
%TO.P,U3,5,SI*%
%TO.N,/MOSI*%
X104570000Y-76200000D03*
%TO.P,U3,6,SO*%
%TO.N,Net-(R6-Pad2)*%
X104570000Y-77470000D03*
%TO.P,U3,7,~{RESET}*%
%TO.N,/~{RESET}*%
X104570000Y-78740000D03*
%TO.P,U3,8,INT*%
%TO.N,unconnected-(U3-Pad8)*%
X104570000Y-80010000D03*
%TO.P,U3,9,GP0*%
%TO.N,Net-(J1-Pad19)*%
X104570000Y-81280000D03*
%TO.P,U3,10,GP1*%
%TO.N,Net-(J1-Pad21)*%
X113870000Y-81280000D03*
%TO.P,U3,11,GP2*%
%TO.N,Net-(J1-Pad23)*%
X113870000Y-80010000D03*
%TO.P,U3,12,GP3*%
%TO.N,Net-(J1-Pad26)*%
X113870000Y-78740000D03*
%TO.P,U3,13,GP4*%
%TO.N,Net-(J1-Pad24)*%
X113870000Y-77470000D03*
%TO.P,U3,14,GP5*%
%TO.N,Net-(J1-Pad22)*%
X113870000Y-76200000D03*
%TO.P,U3,15,GP6*%
%TO.N,Net-(J1-Pad20)*%
X113870000Y-74930000D03*
%TO.P,U3,16,GP7*%
%TO.N,Net-(J1-Pad18)*%
X113870000Y-73660000D03*
%TO.P,U3,17,NC*%
%TO.N,unconnected-(U3-Pad17)*%
X113870000Y-72390000D03*
%TO.P,U3,18,VSS*%
%TO.N,GND*%
X113870000Y-71120000D03*
%TD*%
D10*
%TO.P,R1,1*%
%TO.N,Net-(R1-Pad1)*%
X94972500Y-83820000D03*
%TO.P,R1,2*%
%TO.N,~{RW}*%
X96797500Y-83820000D03*
%TD*%
D18*
%TO.N,+5V*%
X102235000Y-71120000D03*
X106680000Y-103505000D03*
%TO.N,Net-(J1-Pad3)*%
X106680000Y-102235000D03*
%TO.N,~{RW}*%
X99060000Y-83820000D03*
%TO.N,Net-(J1-Pad5)*%
X106680000Y-100965000D03*
%TO.N,Net-(J1-Pad7)*%
X106680000Y-99695000D03*
%TO.N,Net-(J1-Pad9)*%
X106680000Y-98425000D03*
%TO.N,Net-(J1-Pad11)*%
X106680000Y-97155000D03*
%TO.N,Net-(J1-Pad13)*%
X106680000Y-95885000D03*
%TO.N,Net-(J1-Pad15)*%
X106680000Y-94615000D03*
%TO.N,Net-(J1-Pad17)*%
X106680000Y-93345000D03*
%TO.N,Net-(J1-Pad19)*%
X107315000Y-88265000D03*
%TO.N,Net-(J1-Pad21)*%
X116205000Y-81280000D03*
%TO.N,Net-(J1-Pad23)*%
X119380000Y-82550000D03*
%TO.N,GND*%
X139700000Y-58420000D03*
X121285000Y-90805000D03*
X111125000Y-84455000D03*
X84455000Y-77470000D03*
X93599000Y-70612000D03*
X203200000Y-116840000D03*
X73660000Y-116840000D03*
X100965000Y-99695000D03*
X109220000Y-74295000D03*
X136525000Y-90805000D03*
X136525000Y-84455000D03*
X97917000Y-70612000D03*
X203200000Y-58420000D03*
X84455000Y-71120000D03*
X84455000Y-87630000D03*
X100965000Y-93980000D03*
X100965000Y-81280000D03*
X93980000Y-93980000D03*
X106680000Y-90805000D03*
X93599000Y-81280000D03*
X84455000Y-101600000D03*
X73660000Y-58420000D03*
X109220000Y-106680000D03*
X139700000Y-116840000D03*
X121285000Y-84455000D03*
X111125000Y-90805000D03*
X109220000Y-67945000D03*
%TO.N,/MISO*%
X87630000Y-104140000D03*
%TO.N,/~{RESET}*%
X88900000Y-105410000D03*
%TD*%
D19*
%TO.N,+5V*%
X102552500Y-103187500D02*
X102550000Y-103185000D01*
X102550000Y-103185000D02*
X100965000Y-103185000D01*
X104570000Y-71120000D02*
X102235000Y-71120000D01*
X104570000Y-103505000D02*
X106680000Y-103505000D01*
X104570000Y-103505000D02*
X102870000Y-103505000D01*
X102235000Y-71120000D02*
X101280000Y-71120000D01*
X102870000Y-103505000D02*
X102552500Y-103187500D01*
D20*
%TO.N,Net-(J1-Pad3)*%
X104570000Y-102235000D02*
X106680000Y-102235000D01*
%TO.N,~{RW}*%
X99060000Y-83820000D02*
X96797500Y-83820000D01*
%TO.N,Net-(J1-Pad5)*%
X104570000Y-100965000D02*
X106680000Y-100965000D01*
%TO.N,Net-(J1-Pad6)*%
X177800000Y-95250000D02*
X172085000Y-100965000D01*
X113870000Y-100965000D02*
X172085000Y-100965000D01*
X177800000Y-91345700D02*
X177800000Y-95250000D01*
%TO.N,Net-(J1-Pad7)*%
X104570000Y-99695000D02*
X106680000Y-99695000D01*
%TO.N,Net-(J1-Pad8)*%
X170815000Y-99695000D02*
X113870000Y-99695000D01*
X175260000Y-95250000D02*
X170815000Y-99695000D01*
X175260000Y-91345700D02*
X175260000Y-95250000D01*
%TO.N,Net-(J1-Pad9)*%
X104570000Y-98425000D02*
X106680000Y-98425000D01*
%TO.N,Net-(J1-Pad10)*%
X168275000Y-97155000D02*
X113870000Y-97155000D01*
X172720000Y-92710000D02*
X168275000Y-97155000D01*
X172720000Y-91345700D02*
X172720000Y-92710000D01*
%TO.N,Net-(J1-Pad11)*%
X104570000Y-97155000D02*
X106680000Y-97155000D01*
%TO.N,Net-(J1-Pad13)*%
X104570000Y-95885000D02*
X106680000Y-95885000D01*
%TO.N,Net-(J1-Pad14)*%
X173990000Y-90170000D02*
X173990000Y-93980000D01*
X167640000Y-90170000D02*
X168275000Y-89535000D01*
X113870000Y-98425000D02*
X169545000Y-98425000D01*
X167640000Y-91345700D02*
X167640000Y-90170000D01*
X168275000Y-89535000D02*
X173355000Y-89535000D01*
X173990000Y-93980000D02*
X169545000Y-98425000D01*
X173355000Y-89535000D02*
X173990000Y-90170000D01*
%TO.N,Net-(J1-Pad15)*%
X104570000Y-94615000D02*
X106680000Y-94615000D01*
%TO.N,Net-(J1-Pad17)*%
X104570000Y-93345000D02*
X106680000Y-93345000D01*
%TO.N,Net-(J1-Pad18)*%
X163830000Y-88265000D02*
X163830000Y-82550000D01*
X162560000Y-89535000D02*
X163830000Y-88265000D01*
X162560000Y-91345700D02*
X162560000Y-89535000D01*
X113870000Y-73660000D02*
X154940000Y-73660000D01*
X163830000Y-82550000D02*
X154940000Y-73660000D01*
%TO.N,Net-(J1-Pad19)*%
X107315000Y-82550000D02*
X106045000Y-81280000D01*
X106045000Y-81280000D02*
X104570000Y-81280000D01*
X107315000Y-88265000D02*
X107315000Y-82550000D01*
%TO.N,Net-(J1-Pad20)*%
X160020000Y-91345700D02*
X160020000Y-89535000D01*
X161290000Y-82550000D02*
X153670000Y-74930000D01*
X161290000Y-88265000D02*
X161290000Y-82550000D01*
X160020000Y-89535000D02*
X161290000Y-88265000D01*
X153670000Y-74930000D02*
X113870000Y-74930000D01*
%TO.N,Net-(J1-Pad21)*%
X113870000Y-81280000D02*
X116205000Y-81280000D01*
%TO.N,Net-(J1-Pad22)*%
X113870000Y-76200000D02*
X152400000Y-76200000D01*
X157480000Y-91345700D02*
X157480000Y-89535000D01*
X157480000Y-89535000D02*
X158750000Y-88265000D01*
X158750000Y-88265000D02*
X158750000Y-82550000D01*
X158750000Y-82550000D02*
X152400000Y-76200000D01*
%TO.N,Net-(J1-Pad23)*%
X119380000Y-82550000D02*
X116840000Y-80010000D01*
X116840000Y-80010000D02*
X113870000Y-80010000D01*
%TO.N,Net-(J1-Pad24)*%
X156210000Y-82550000D02*
X151130000Y-77470000D01*
X156210000Y-88265000D02*
X156210000Y-82550000D01*
X154940000Y-91345700D02*
X154940000Y-89535000D01*
X154940000Y-89535000D02*
X156210000Y-88265000D01*
X151130000Y-77470000D02*
X113870000Y-77470000D01*
%TO.N,GND*%
X92710000Y-95250000D02*
X90170000Y-95250000D01*
X90170000Y-80010000D02*
X92710000Y-80010000D01*
%TO.N,Net-(J1-Pad26)*%
X113870000Y-78740000D02*
X149860000Y-78740000D01*
X152400000Y-91345700D02*
X152400000Y-89535000D01*
X153670000Y-82550000D02*
X149860000Y-78740000D01*
X152400000Y-89535000D02*
X153670000Y-88265000D01*
X153670000Y-88265000D02*
X153670000Y-82550000D01*
%TO.N,Net-(J1-Pad29)*%
X147320000Y-86494300D02*
X147320000Y-88265000D01*
X146050000Y-89535000D02*
X146050000Y-92710000D01*
X146050000Y-92710000D02*
X142875000Y-95885000D01*
X142875000Y-95885000D02*
X113870000Y-95885000D01*
X147320000Y-88265000D02*
X146050000Y-89535000D01*
%TO.N,Net-(J1-Pad31)*%
X143510000Y-92710000D02*
X141605000Y-94615000D01*
X143510000Y-89535000D02*
X143510000Y-92710000D01*
X144780000Y-86494300D02*
X144780000Y-88265000D01*
X144780000Y-88265000D02*
X143510000Y-89535000D01*
X113870000Y-94615000D02*
X141605000Y-94615000D01*
%TO.N,Net-(J1-Pad33)*%
X142240000Y-88265000D02*
X140970000Y-89535000D01*
X140335000Y-93345000D02*
X113870000Y-93345000D01*
X142240000Y-86494300D02*
X142240000Y-88265000D01*
X140970000Y-89535000D02*
X140970000Y-92710000D01*
X140970000Y-92710000D02*
X140335000Y-93345000D01*
%TO.N,/~{CS_D}*%
X97790000Y-72390000D02*
X99060000Y-73660000D01*
X96797500Y-72390000D02*
X97790000Y-72390000D01*
X99060000Y-73660000D02*
X104570000Y-73660000D01*
%TO.N,Net-(R4-Pad1)*%
X92710000Y-73660000D02*
X91430000Y-73660000D01*
X94972500Y-74930000D02*
X93980000Y-74930000D01*
X93980000Y-74930000D02*
X92710000Y-73660000D01*
%TO.N,Net-(R1-Pad1)*%
X94972500Y-83820000D02*
X91430000Y-83820000D01*
%TO.N,Net-(R5-Pad1)*%
X79732500Y-71120000D02*
X76190000Y-71120000D01*
%TO.N,Net-(R6-Pad2)*%
X104570000Y-77470000D02*
X101242500Y-77470000D01*
%TO.N,Net-(R7-Pad2)*%
X113870000Y-108585000D02*
X113307500Y-109147500D01*
X113870000Y-107315000D02*
X113870000Y-108585000D01*
X113307500Y-109147500D02*
X113307500Y-110490000D01*
%TO.N,/MOSI*%
X106045000Y-107315000D02*
X108585000Y-104775000D01*
X104570000Y-107315000D02*
X106045000Y-107315000D01*
X96797500Y-74930000D02*
X101600000Y-74930000D01*
X108585000Y-78740000D02*
X106045000Y-76200000D01*
X106045000Y-76200000D02*
X104570000Y-76200000D01*
X108585000Y-104775000D02*
X108585000Y-78740000D01*
X101600000Y-74930000D02*
X102870000Y-76200000D01*
X102870000Y-76200000D02*
X104570000Y-76200000D01*
%TO.N,/SCK*%
X105410000Y-69215000D02*
X83462500Y-69215000D01*
X106045000Y-74930000D02*
X106680000Y-74295000D01*
X81557500Y-71120000D02*
X81557500Y-70842500D01*
X104570000Y-74930000D02*
X106045000Y-74930000D01*
X90170000Y-102870000D02*
X92710000Y-102870000D01*
X86360000Y-75922500D02*
X86360000Y-99060000D01*
X106680000Y-74295000D02*
X106680000Y-70485000D01*
X106680000Y-70485000D02*
X105410000Y-69215000D01*
X81557500Y-71120000D02*
X86360000Y-75922500D01*
X86360000Y-99060000D02*
X90170000Y-102870000D01*
X95885000Y-106045000D02*
X104570000Y-106045000D01*
X83462500Y-69215000D02*
X81557500Y-71120000D01*
X92710000Y-102870000D02*
X95885000Y-106045000D01*
%TO.N,/MISO*%
X89535000Y-77470000D02*
X88265000Y-76200000D01*
X99417500Y-77470000D02*
X89535000Y-77470000D01*
X88265000Y-72390000D02*
X89535000Y-71120000D01*
X89535000Y-110490000D02*
X111482500Y-110490000D01*
X88265000Y-76200000D02*
X88265000Y-72390000D01*
X87630000Y-104140000D02*
X87630000Y-108585000D01*
X89535000Y-71120000D02*
X91430000Y-71120000D01*
X87630000Y-108585000D02*
X89535000Y-110490000D01*
%TO.N,/~{RESET}*%
X109291069Y-109148931D02*
X112395000Y-106045000D01*
X104570000Y-78740000D02*
X91430000Y-78740000D01*
X112395000Y-106045000D02*
X113870000Y-106045000D01*
X88900000Y-105410000D02*
X88900000Y-107950000D01*
X88900000Y-107950000D02*
X90098931Y-109148931D01*
X90098931Y-109148931D02*
X109291069Y-109148931D01*
%TO.N,Net-(R3-Pad1)*%
X89535000Y-75565000D02*
X89535000Y-73025000D01*
X91430000Y-76200000D02*
X90170000Y-76200000D01*
X90170000Y-76200000D02*
X89535000Y-75565000D01*
X89535000Y-73025000D02*
X90170000Y-72390000D01*
X90170000Y-72390000D02*
X94972500Y-72390000D01*
%TO.N,/~{CS_A}*%
X99695000Y-104775000D02*
X104570000Y-104775000D01*
X96797500Y-101877500D02*
X99695000Y-104775000D01*
X96797500Y-96520000D02*
X96797500Y-101877500D01*
%TO.N,Net-(U1-Pad5)*%
X91430000Y-96520000D02*
X94972500Y-96520000D01*
%TD*%
%TA.AperFunction,Conductor*%
%TO.N,GND*%
G36*
X207467343Y-54059707D02*
G01*
X207536584Y-54114926D01*
X207575011Y-54194718D01*
X207580000Y-54239000D01*
X207580000Y-121021000D01*
X207560293Y-121107343D01*
X207505074Y-121176584D01*
X207425282Y-121215011D01*
X207381000Y-121220000D01*
X69479000Y-121220000D01*
X69392657Y-121200293D01*
X69323416Y-121145074D01*
X69284989Y-121065282D01*
X69280000Y-121021000D01*
X69280000Y-106643214D01*
X74684806Y-106643214D01*
X74685276Y-106651367D01*
X74685276Y-106651373D01*
X74692770Y-106781331D01*
X74699010Y-106889545D01*
X74753255Y-107130249D01*
X74846084Y-107358861D01*
X74850351Y-107365824D01*
X74850352Y-107365826D01*
X74970739Y-107562279D01*
X74970743Y-107562284D01*
X74975006Y-107569241D01*
X74980352Y-107575412D01*
X74980353Y-107575414D01*
X75017823Y-107618670D01*
X75136557Y-107755741D01*
X75326399Y-107913351D01*
X75539433Y-108037838D01*
X75547063Y-108040752D01*
X75547066Y-108040753D01*
X75656701Y-108082618D01*
X75769939Y-108125859D01*
X75853879Y-108142937D01*
X76003728Y-108173425D01*
X76003731Y-108173425D01*
X76011726Y-108175052D01*
X76113741Y-108178793D01*
X76250139Y-108183794D01*
X76250142Y-108183794D01*
X76258300Y-108184093D01*
X76266393Y-108183056D01*
X76266398Y-108183056D01*
X76494941Y-108153779D01*
X76494945Y-108153778D01*
X76503041Y-108152741D01*
X76521481Y-108147209D01*
X76731558Y-108084183D01*
X76731559Y-108084183D01*
X76739374Y-108081838D01*
X76746703Y-108078248D01*
X76746707Y-108078246D01*
X76953622Y-107976879D01*
X76953623Y-107976879D01*
X76960954Y-107973287D01*
X76981381Y-107958717D01*
X77120467Y-107859507D01*
X77161829Y-107830004D01*
X77336605Y-107655837D01*
X77480588Y-107455463D01*
X77484209Y-107448137D01*
X77586296Y-107241579D01*
X77586297Y-107241576D01*
X77589911Y-107234264D01*
X77592283Y-107226457D01*
X77659267Y-107005988D01*
X77659268Y-107005985D01*
X77661639Y-106998180D01*
X77674892Y-106897517D01*
X77691879Y-106768482D01*
X77693845Y-106753550D01*
X77694962Y-106707844D01*
X77695514Y-106685282D01*
X77695514Y-106685280D01*
X77695643Y-106680000D01*
X77693696Y-106656312D01*
X77676094Y-106442225D01*
X77676094Y-106442224D01*
X77675425Y-106434089D01*
X77673438Y-106426179D01*
X77673437Y-106426172D01*
X77617306Y-106202706D01*
X77615316Y-106194783D01*
X77600238Y-106160104D01*
X77520186Y-105976000D01*
X77516928Y-105968507D01*
X77426397Y-105828568D01*
X77387340Y-105768194D01*
X77387338Y-105768192D01*
X77382905Y-105761339D01*
X77362771Y-105739212D01*
X77222347Y-105584887D01*
X77222344Y-105584884D01*
X77216846Y-105578842D01*
X77185496Y-105554083D01*
X77029613Y-105430974D01*
X77029607Y-105430970D01*
X77023210Y-105425918D01*
X76976285Y-105400014D01*
X76910219Y-105341033D01*
X76876286Y-105259229D01*
X76881208Y-105170802D01*
X76924009Y-105093268D01*
X76945210Y-105072798D01*
X77035146Y-104997999D01*
X77047999Y-104985146D01*
X77177349Y-104829620D01*
X77187647Y-104814637D01*
X77286496Y-104638130D01*
X77293882Y-104621540D01*
X77358912Y-104429970D01*
X77363151Y-104412312D01*
X77370419Y-104362189D01*
X77368856Y-104342796D01*
X77368318Y-104342434D01*
X77355255Y-104340000D01*
X75025033Y-104340000D01*
X75008199Y-104343842D01*
X75008430Y-104362918D01*
X75051738Y-104533442D01*
X75057803Y-104550567D01*
X75142497Y-104734283D01*
X75151586Y-104750025D01*
X75268339Y-104915226D01*
X75280135Y-104929039D01*
X75425050Y-105070209D01*
X75426905Y-105071711D01*
X75427923Y-105073008D01*
X75431580Y-105076570D01*
X75431104Y-105077058D01*
X75481603Y-105141365D01*
X75500662Y-105227853D01*
X75480309Y-105314045D01*
X75424573Y-105382871D01*
X75401712Y-105397615D01*
X75401836Y-105397811D01*
X75394927Y-105402162D01*
X75387679Y-105405935D01*
X75190364Y-105554083D01*
X75184720Y-105559989D01*
X75184719Y-105559990D01*
X75136216Y-105610746D01*
X75019896Y-105732468D01*
X75015298Y-105739208D01*
X75015295Y-105739212D01*
X74885454Y-105929552D01*
X74880851Y-105936300D01*
X74776965Y-106160104D01*
X74711026Y-106397871D01*
X74684806Y-106643214D01*
X69280000Y-106643214D01*
X69280000Y-101563214D01*
X74684806Y-101563214D01*
X74685276Y-101571367D01*
X74685276Y-101571373D01*
X74691969Y-101687434D01*
X74699010Y-101809545D01*
X74753255Y-102050249D01*
X74846084Y-102278861D01*
X74850351Y-102285824D01*
X74850352Y-102285826D01*
X74970739Y-102482279D01*
X74970743Y-102482284D01*
X74975006Y-102489241D01*
X74980352Y-102495412D01*
X74980353Y-102495414D01*
X75009452Y-102529007D01*
X75136557Y-102675741D01*
X75326399Y-102833351D01*
X75408076Y-102881079D01*
X75472681Y-102941656D01*
X75504605Y-103024266D01*
X75497524Y-103112546D01*
X75452842Y-103189011D01*
X75438886Y-103202510D01*
X75322682Y-103304420D01*
X75310175Y-103317599D01*
X75184932Y-103476469D01*
X75175037Y-103491706D01*
X75080840Y-103670745D01*
X75073891Y-103687520D01*
X75013901Y-103880719D01*
X75010121Y-103898502D01*
X75007845Y-103917736D01*
X75009915Y-103937079D01*
X75011609Y-103938157D01*
X75022274Y-103940000D01*
X77354341Y-103940000D01*
X77373311Y-103935670D01*
X77374768Y-103932645D01*
X77375195Y-103926222D01*
X77372485Y-103911602D01*
X77317572Y-103716895D01*
X77311061Y-103699934D01*
X77221588Y-103518500D01*
X77212092Y-103503004D01*
X77091054Y-103340915D01*
X77078891Y-103327407D01*
X76942095Y-103200954D01*
X76892068Y-103127873D01*
X76878705Y-103040324D01*
X76904651Y-102955647D01*
X76961616Y-102892815D01*
X77126435Y-102775250D01*
X77161829Y-102750004D01*
X77336605Y-102575837D01*
X77480588Y-102375463D01*
X77524039Y-102287546D01*
X77586296Y-102161579D01*
X77586297Y-102161576D01*
X77589911Y-102154264D01*
X77592456Y-102145888D01*
X77659267Y-101925988D01*
X77659268Y-101925985D01*
X77661639Y-101918180D01*
X77671706Y-101841717D01*
X77693155Y-101678791D01*
X77693845Y-101673550D01*
X77694974Y-101627358D01*
X77695514Y-101605282D01*
X77695514Y-101605280D01*
X77695643Y-101600000D01*
X77693593Y-101575059D01*
X77676094Y-101362225D01*
X77676094Y-101362224D01*
X77675425Y-101354089D01*
X77673438Y-101346179D01*
X77673437Y-101346172D01*
X77617306Y-101122706D01*
X77615316Y-101114783D01*
X77606991Y-101095635D01*
X77520186Y-100896000D01*
X77516928Y-100888507D01*
X77436398Y-100764027D01*
X77387340Y-100688194D01*
X77387338Y-100688192D01*
X77382905Y-100681339D01*
X77362771Y-100659212D01*
X77222347Y-100504887D01*
X77222344Y-100504884D01*
X77216846Y-100498842D01*
X77210434Y-100493778D01*
X77210431Y-100493775D01*
X77200355Y-100485818D01*
X77144808Y-100416840D01*
X77124691Y-100330592D01*
X77143988Y-100244156D01*
X77183220Y-100188688D01*
X77336605Y-100035837D01*
X77480588Y-99835463D01*
X77523014Y-99749620D01*
X77586296Y-99621579D01*
X77586297Y-99621576D01*
X77589911Y-99614264D01*
X77612006Y-99541540D01*
X77659267Y-99385988D01*
X77659268Y-99385985D01*
X77661639Y-99378180D01*
X77674892Y-99277517D01*
X77693155Y-99138791D01*
X77693845Y-99133550D01*
X77694962Y-99087844D01*
X77695514Y-99065282D01*
X77695514Y-99065280D01*
X77695643Y-99060000D01*
X77693385Y-99032529D01*
X77676094Y-98822225D01*
X77676094Y-98822224D01*
X77675425Y-98814089D01*
X77673438Y-98806179D01*
X77673437Y-98806172D01*
X77617306Y-98582706D01*
X77615316Y-98574783D01*
X77600238Y-98540104D01*
X77520186Y-98356000D01*
X77516928Y-98348507D01*
X77436653Y-98224420D01*
X77387340Y-98148194D01*
X77387338Y-98148192D01*
X77382905Y-98141339D01*
X77362771Y-98119212D01*
X77222347Y-97964887D01*
X77222344Y-97964884D01*
X77216846Y-97958842D01*
X77210436Y-97953780D01*
X77210431Y-97953775D01*
X77200355Y-97945818D01*
X77144808Y-97876840D01*
X77124691Y-97790592D01*
X77143988Y-97704156D01*
X77183220Y-97648688D01*
X77295764Y-97536535D01*
X77330817Y-97501605D01*
X77330818Y-97501604D01*
X77336605Y-97495837D01*
X77480588Y-97295463D01*
X77484209Y-97288137D01*
X77586296Y-97081579D01*
X77586297Y-97081576D01*
X77589911Y-97074264D01*
X77606249Y-97020491D01*
X77659267Y-96845988D01*
X77659268Y-96845985D01*
X77661639Y-96838180D01*
X77674892Y-96737517D01*
X77693155Y-96598791D01*
X77693845Y-96593550D01*
X77694962Y-96547844D01*
X77695514Y-96525282D01*
X77695514Y-96525280D01*
X77695643Y-96520000D01*
X77675425Y-96274089D01*
X77673438Y-96266179D01*
X77673437Y-96266172D01*
X77617306Y-96042706D01*
X77615316Y-96034783D01*
X77608676Y-96019510D01*
X77520186Y-95816000D01*
X77516928Y-95808507D01*
X77427000Y-95669500D01*
X77387340Y-95608194D01*
X77387338Y-95608192D01*
X77382905Y-95601339D01*
X77362771Y-95579212D01*
X77222347Y-95424887D01*
X77222344Y-95424884D01*
X77216846Y-95418842D01*
X77210436Y-95413780D01*
X77210431Y-95413775D01*
X77200355Y-95405818D01*
X77144808Y-95336840D01*
X77124691Y-95250592D01*
X77143988Y-95164156D01*
X77183220Y-95108688D01*
X77336605Y-94955837D01*
X77480588Y-94755463D01*
X77484209Y-94748137D01*
X77586296Y-94541579D01*
X77586297Y-94541576D01*
X77589911Y-94534264D01*
X77592283Y-94526457D01*
X77659267Y-94305988D01*
X77659268Y-94305985D01*
X77661639Y-94298180D01*
X77674892Y-94197517D01*
X77693155Y-94058791D01*
X77693845Y-94053550D01*
X77694962Y-94007844D01*
X77695514Y-93985282D01*
X77695514Y-93985280D01*
X77695643Y-93980000D01*
X77675425Y-93734089D01*
X77673438Y-93726179D01*
X77673437Y-93726172D01*
X77617306Y-93502706D01*
X77615316Y-93494783D01*
X77600238Y-93460104D01*
X77520186Y-93276000D01*
X77516928Y-93268507D01*
X77436002Y-93143414D01*
X77387340Y-93068194D01*
X77387338Y-93068192D01*
X77382905Y-93061339D01*
X77362771Y-93039212D01*
X77222347Y-92884887D01*
X77222344Y-92884884D01*
X77216846Y-92878842D01*
X77210436Y-92873780D01*
X77210431Y-92873775D01*
X77200355Y-92865818D01*
X77144808Y-92796840D01*
X77124691Y-92710592D01*
X77143988Y-92624156D01*
X77183220Y-92568688D01*
X77336605Y-92415837D01*
X77480588Y-92215463D01*
X77484209Y-92208137D01*
X77586296Y-92001579D01*
X77586297Y-92001576D01*
X77589911Y-91994264D01*
X77592283Y-91986457D01*
X77659267Y-91765988D01*
X77659268Y-91765985D01*
X77661639Y-91758180D01*
X77674892Y-91657517D01*
X77693155Y-91518791D01*
X77693845Y-91513550D01*
X77694962Y-91467844D01*
X77695514Y-91445282D01*
X77695514Y-91445280D01*
X77695643Y-91440000D01*
X77675425Y-91194089D01*
X77673438Y-91186179D01*
X77673437Y-91186172D01*
X77617306Y-90962706D01*
X77615316Y-90954783D01*
X77600238Y-90920104D01*
X77520186Y-90736000D01*
X77516928Y-90728507D01*
X77425984Y-90587929D01*
X77387340Y-90528194D01*
X77387338Y-90528192D01*
X77382905Y-90521339D01*
X77377411Y-90515301D01*
X77222347Y-90344887D01*
X77222344Y-90344884D01*
X77216846Y-90338842D01*
X77210436Y-90333780D01*
X77210431Y-90333775D01*
X77200355Y-90325818D01*
X77144808Y-90256840D01*
X77124691Y-90170592D01*
X77143988Y-90084156D01*
X77183220Y-90028688D01*
X77307534Y-89904807D01*
X77330817Y-89881605D01*
X77330818Y-89881604D01*
X77336605Y-89875837D01*
X77480588Y-89675463D01*
X77487245Y-89661994D01*
X77586296Y-89461579D01*
X77586297Y-89461576D01*
X77589911Y-89454264D01*
X77606069Y-89401081D01*
X77659267Y-89225988D01*
X77659268Y-89225985D01*
X77661639Y-89218180D01*
X77674892Y-89117517D01*
X77693155Y-88978791D01*
X77693845Y-88973550D01*
X77695643Y-88900000D01*
X77694518Y-88886310D01*
X77676094Y-88662225D01*
X77676094Y-88662224D01*
X77675425Y-88654089D01*
X77673438Y-88646179D01*
X77673437Y-88646172D01*
X77617306Y-88422706D01*
X77615316Y-88414783D01*
X77600238Y-88380104D01*
X77520186Y-88196000D01*
X77516928Y-88188507D01*
X77414674Y-88030446D01*
X77387340Y-87988194D01*
X77387338Y-87988192D01*
X77382905Y-87981339D01*
X77373023Y-87970479D01*
X77222347Y-87804887D01*
X77222344Y-87804884D01*
X77216846Y-87798842D01*
X77210436Y-87793780D01*
X77210431Y-87793775D01*
X77200355Y-87785818D01*
X77144808Y-87716840D01*
X77124691Y-87630592D01*
X77143988Y-87544156D01*
X77183220Y-87488688D01*
X77336605Y-87335837D01*
X77480588Y-87135463D01*
X77495007Y-87106289D01*
X77586296Y-86921579D01*
X77586297Y-86921576D01*
X77589911Y-86914264D01*
X77592283Y-86906457D01*
X77659267Y-86685988D01*
X77659268Y-86685985D01*
X77661639Y-86678180D01*
X77674892Y-86577517D01*
X77693155Y-86438791D01*
X77693845Y-86433550D01*
X77695643Y-86360000D01*
X77689958Y-86290847D01*
X77676094Y-86122225D01*
X77676094Y-86122224D01*
X77675425Y-86114089D01*
X77673438Y-86106179D01*
X77673437Y-86106172D01*
X77617306Y-85882706D01*
X77615316Y-85874783D01*
X77600238Y-85840104D01*
X77520186Y-85656000D01*
X77516928Y-85648507D01*
X77382905Y-85441339D01*
X77356772Y-85412619D01*
X77222347Y-85264887D01*
X77222344Y-85264884D01*
X77216846Y-85258842D01*
X77210436Y-85253780D01*
X77210431Y-85253775D01*
X77200355Y-85245818D01*
X77144808Y-85176840D01*
X77124691Y-85090592D01*
X77143988Y-85004156D01*
X77183220Y-84948688D01*
X77316260Y-84816111D01*
X77330817Y-84801605D01*
X77330818Y-84801604D01*
X77336605Y-84795837D01*
X77480588Y-84595463D01*
X77484209Y-84588137D01*
X77586296Y-84381579D01*
X77586297Y-84381576D01*
X77589911Y-84374264D01*
X77592283Y-84366457D01*
X77659267Y-84145988D01*
X77659268Y-84145985D01*
X77661639Y-84138180D01*
X77674892Y-84037517D01*
X77693155Y-83898791D01*
X77693845Y-83893550D01*
X77695643Y-83820000D01*
X77675425Y-83574089D01*
X77673438Y-83566179D01*
X77673437Y-83566172D01*
X77617306Y-83342706D01*
X77615316Y-83334783D01*
X77610843Y-83324494D01*
X77520186Y-83116000D01*
X77516928Y-83108507D01*
X77424932Y-82966303D01*
X77387340Y-82908194D01*
X77387338Y-82908192D01*
X77382905Y-82901339D01*
X77362771Y-82879212D01*
X77222347Y-82724887D01*
X77222344Y-82724884D01*
X77216846Y-82718842D01*
X77210436Y-82713780D01*
X77210431Y-82713775D01*
X77200355Y-82705818D01*
X77144808Y-82636840D01*
X77124691Y-82550592D01*
X77143988Y-82464156D01*
X77183220Y-82408688D01*
X77316897Y-82275476D01*
X77330817Y-82261605D01*
X77330818Y-82261604D01*
X77336605Y-82255837D01*
X77480588Y-82055463D01*
X77490731Y-82034940D01*
X77586296Y-81841579D01*
X77586297Y-81841576D01*
X77589911Y-81834264D01*
X77610435Y-81766711D01*
X77659267Y-81605988D01*
X77659268Y-81605985D01*
X77661639Y-81598180D01*
X77674543Y-81500168D01*
X77693155Y-81358791D01*
X77693845Y-81353550D01*
X77694962Y-81307844D01*
X77695514Y-81285282D01*
X77695514Y-81285280D01*
X77695643Y-81280000D01*
X77675425Y-81034089D01*
X77673438Y-81026179D01*
X77673437Y-81026172D01*
X77617306Y-80802706D01*
X77615316Y-80794783D01*
X77600238Y-80760104D01*
X77520186Y-80576000D01*
X77516928Y-80568507D01*
X77382905Y-80361339D01*
X77362771Y-80339212D01*
X77222347Y-80184887D01*
X77222344Y-80184884D01*
X77216846Y-80178842D01*
X77210436Y-80173780D01*
X77210431Y-80173775D01*
X77200355Y-80165818D01*
X77144808Y-80096840D01*
X77124691Y-80010592D01*
X77143988Y-79924156D01*
X77183220Y-79868688D01*
X77336605Y-79715837D01*
X77480588Y-79515463D01*
X77506279Y-79463482D01*
X77586296Y-79301579D01*
X77586297Y-79301576D01*
X77589911Y-79294264D01*
X77592283Y-79286457D01*
X77659267Y-79065988D01*
X77659268Y-79065985D01*
X77661639Y-79058180D01*
X77674543Y-78960168D01*
X77693155Y-78818791D01*
X77693845Y-78813550D01*
X77695643Y-78740000D01*
X77675425Y-78494089D01*
X77673438Y-78486179D01*
X77673437Y-78486172D01*
X77620302Y-78274633D01*
X77615316Y-78254783D01*
X77601391Y-78222756D01*
X77520186Y-78036000D01*
X77516928Y-78028507D01*
X77436545Y-77904254D01*
X77387340Y-77828194D01*
X77387338Y-77828192D01*
X77382905Y-77821339D01*
X77362771Y-77799212D01*
X77222347Y-77644887D01*
X77222344Y-77644884D01*
X77216846Y-77638842D01*
X77210436Y-77633780D01*
X77210431Y-77633775D01*
X77200355Y-77625818D01*
X77144808Y-77556840D01*
X77124691Y-77470592D01*
X77143988Y-77384156D01*
X77183220Y-77328688D01*
X77336605Y-77175837D01*
X77480588Y-76975463D01*
X77506279Y-76923482D01*
X77586296Y-76761579D01*
X77586297Y-76761576D01*
X77589911Y-76754264D01*
X77619049Y-76658361D01*
X77659267Y-76525988D01*
X77659268Y-76525985D01*
X77661639Y-76518180D01*
X77674543Y-76420168D01*
X77691483Y-76291490D01*
X77693845Y-76273550D01*
X77695643Y-76200000D01*
X77692014Y-76155854D01*
X77676094Y-75962225D01*
X77676094Y-75962224D01*
X77675425Y-75954089D01*
X77673438Y-75946179D01*
X77673437Y-75946172D01*
X77620302Y-75734633D01*
X77615316Y-75714783D01*
X77600238Y-75680104D01*
X77520186Y-75496000D01*
X77516928Y-75488507D01*
X77437001Y-75364959D01*
X77387340Y-75288194D01*
X77387338Y-75288192D01*
X77382905Y-75281339D01*
X77358338Y-75254340D01*
X77222347Y-75104887D01*
X77222344Y-75104884D01*
X77216846Y-75098842D01*
X77210436Y-75093780D01*
X77210431Y-75093775D01*
X77200355Y-75085818D01*
X77144808Y-75016840D01*
X77124691Y-74930592D01*
X77143988Y-74844156D01*
X77183220Y-74788688D01*
X77336605Y-74635837D01*
X77480588Y-74435463D01*
X77507060Y-74381901D01*
X77586296Y-74221579D01*
X77586297Y-74221576D01*
X77589911Y-74214264D01*
X77592776Y-74204835D01*
X77659267Y-73985988D01*
X77659268Y-73985985D01*
X77661639Y-73978180D01*
X77674543Y-73880168D01*
X77693155Y-73738791D01*
X77693845Y-73733550D01*
X77695643Y-73660000D01*
X77675425Y-73414089D01*
X77673438Y-73406179D01*
X77673437Y-73406172D01*
X77617306Y-73182706D01*
X77615316Y-73174783D01*
X77600238Y-73140104D01*
X77520186Y-72956000D01*
X77516928Y-72948507D01*
X77423773Y-72804511D01*
X77387340Y-72748194D01*
X77387338Y-72748192D01*
X77382905Y-72741339D01*
X77362771Y-72719212D01*
X77222347Y-72564887D01*
X77222344Y-72564884D01*
X77216846Y-72558842D01*
X77210436Y-72553780D01*
X77210431Y-72553775D01*
X77200355Y-72545818D01*
X77144808Y-72476840D01*
X77124691Y-72390592D01*
X77143988Y-72304156D01*
X77183220Y-72248688D01*
X77317000Y-72115374D01*
X77330818Y-72101604D01*
X77330819Y-72101603D01*
X77336605Y-72095837D01*
X77367119Y-72053372D01*
X77433505Y-71994758D01*
X77518752Y-71970750D01*
X77528721Y-71970500D01*
X78486293Y-71970500D01*
X78572636Y-71990207D01*
X78641877Y-72045426D01*
X78662647Y-72077304D01*
X78672385Y-72095930D01*
X78794429Y-72245571D01*
X78831471Y-72275782D01*
X78926581Y-72353351D01*
X78944070Y-72367615D01*
X78968757Y-72380521D01*
X79097516Y-72447835D01*
X79115194Y-72457077D01*
X79300813Y-72510302D01*
X79355715Y-72515202D01*
X79410658Y-72520106D01*
X79410665Y-72520106D01*
X79415076Y-72520500D01*
X80049924Y-72520500D01*
X80054335Y-72520106D01*
X80054342Y-72520106D01*
X80109285Y-72515202D01*
X80164187Y-72510302D01*
X80349806Y-72457077D01*
X80358745Y-72452404D01*
X80511996Y-72372286D01*
X80511999Y-72372284D01*
X80520930Y-72367615D01*
X80528738Y-72361247D01*
X80535458Y-72356816D01*
X80618390Y-72325740D01*
X80706593Y-72333725D01*
X80754542Y-72356816D01*
X80761262Y-72361247D01*
X80769070Y-72367615D01*
X80778001Y-72372284D01*
X80778004Y-72372286D01*
X80931255Y-72452404D01*
X80940194Y-72457077D01*
X81125813Y-72510302D01*
X81180715Y-72515202D01*
X81235658Y-72520106D01*
X81235665Y-72520106D01*
X81240076Y-72520500D01*
X81672783Y-72520500D01*
X81759126Y-72540207D01*
X81813497Y-72578786D01*
X85451214Y-76216502D01*
X85498333Y-76291490D01*
X85509500Y-76357216D01*
X85509500Y-99015877D01*
X85508802Y-99032529D01*
X85506052Y-99065282D01*
X85504740Y-99080902D01*
X85506166Y-99091588D01*
X85515264Y-99159778D01*
X85515848Y-99164603D01*
X85524442Y-99243709D01*
X85527791Y-99253661D01*
X85529180Y-99264069D01*
X85532865Y-99274194D01*
X85532866Y-99274197D01*
X85556397Y-99338847D01*
X85558004Y-99343436D01*
X85583383Y-99418848D01*
X85588791Y-99427848D01*
X85592382Y-99437715D01*
X85598155Y-99446811D01*
X85598156Y-99446814D01*
X85635011Y-99504888D01*
X85637566Y-99509025D01*
X85673005Y-99568006D01*
X85673011Y-99568013D01*
X85678557Y-99577244D01*
X85684571Y-99583604D01*
X85687029Y-99586854D01*
X85691398Y-99593738D01*
X85695183Y-99597972D01*
X85747964Y-99650753D01*
X85751838Y-99654736D01*
X85805524Y-99711507D01*
X85813311Y-99716799D01*
X85822360Y-99725149D01*
X89537398Y-103440186D01*
X89548680Y-103452454D01*
X89580020Y-103489540D01*
X89643279Y-103537905D01*
X89647009Y-103540829D01*
X89709073Y-103590731D01*
X89718480Y-103595401D01*
X89726820Y-103601777D01*
X89736585Y-103606331D01*
X89736586Y-103606331D01*
X89798926Y-103635400D01*
X89803310Y-103637510D01*
X89841975Y-103656704D01*
X89910551Y-103712748D01*
X89948018Y-103792995D01*
X89948798Y-103857633D01*
X89951026Y-103857871D01*
X89924806Y-104103214D01*
X89925276Y-104111367D01*
X89925276Y-104111373D01*
X89927646Y-104152471D01*
X89939010Y-104349545D01*
X89946964Y-104384840D01*
X89946720Y-104473399D01*
X89908075Y-104553086D01*
X89838682Y-104608114D01*
X89752285Y-104627584D01*
X89665997Y-104607640D01*
X89617751Y-104574715D01*
X89579514Y-104539369D01*
X89579512Y-104539368D01*
X89572812Y-104533174D01*
X89401757Y-104425246D01*
X89393280Y-104421864D01*
X89393278Y-104421863D01*
X89245530Y-104362918D01*
X89213898Y-104350298D01*
X89204957Y-104348520D01*
X89204952Y-104348518D01*
X89025857Y-104312894D01*
X89015526Y-104310839D01*
X88968145Y-104310219D01*
X88929759Y-104309716D01*
X88843681Y-104288880D01*
X88775168Y-104232760D01*
X88737790Y-104152471D01*
X88734199Y-104128942D01*
X88717543Y-103947676D01*
X88717543Y-103947674D01*
X88716708Y-103938591D01*
X88661807Y-103743926D01*
X88618794Y-103656704D01*
X88576387Y-103570711D01*
X88576386Y-103570710D01*
X88572351Y-103562527D01*
X88539475Y-103518500D01*
X88456795Y-103407779D01*
X88451335Y-103400467D01*
X88302812Y-103263174D01*
X88131757Y-103155246D01*
X88123280Y-103151864D01*
X88123278Y-103151863D01*
X88024728Y-103112546D01*
X87943898Y-103080298D01*
X87934957Y-103078520D01*
X87934952Y-103078518D01*
X87770763Y-103045859D01*
X87745526Y-103040839D01*
X87643032Y-103039498D01*
X87552411Y-103038311D01*
X87552406Y-103038311D01*
X87543286Y-103038192D01*
X87534296Y-103039737D01*
X87534293Y-103039737D01*
X87474898Y-103049943D01*
X87343949Y-103072444D01*
X87335398Y-103075599D01*
X87335393Y-103075600D01*
X87162752Y-103139291D01*
X87162748Y-103139293D01*
X87154193Y-103142449D01*
X87146355Y-103147112D01*
X87146351Y-103147114D01*
X87124497Y-103160116D01*
X86980371Y-103245862D01*
X86828305Y-103379220D01*
X86822659Y-103386382D01*
X86822658Y-103386383D01*
X86708736Y-103530893D01*
X86708733Y-103530897D01*
X86703089Y-103538057D01*
X86698843Y-103546128D01*
X86698840Y-103546132D01*
X86669564Y-103601777D01*
X86608914Y-103717053D01*
X86548937Y-103910213D01*
X86525164Y-104111069D01*
X86538392Y-104312894D01*
X86540638Y-104321737D01*
X86540638Y-104321738D01*
X86585913Y-104500008D01*
X86588178Y-104508928D01*
X86591996Y-104517209D01*
X86591996Y-104517210D01*
X86648429Y-104639622D01*
X86672856Y-104692607D01*
X86678120Y-104700055D01*
X86678122Y-104700059D01*
X86702309Y-104734283D01*
X86737760Y-104784444D01*
X86743012Y-104791876D01*
X86776750Y-104873761D01*
X86779500Y-104906727D01*
X86779500Y-108540877D01*
X86778802Y-108557529D01*
X86774740Y-108605902D01*
X86776166Y-108616588D01*
X86785264Y-108684778D01*
X86785848Y-108689603D01*
X86794442Y-108768709D01*
X86797791Y-108778661D01*
X86799180Y-108789069D01*
X86802865Y-108799194D01*
X86802866Y-108799197D01*
X86826397Y-108863847D01*
X86828004Y-108868436D01*
X86853383Y-108943848D01*
X86858791Y-108952848D01*
X86862382Y-108962715D01*
X86868155Y-108971811D01*
X86868156Y-108971814D01*
X86875201Y-108982915D01*
X86904493Y-109029071D01*
X86905011Y-109029888D01*
X86907566Y-109034025D01*
X86943005Y-109093006D01*
X86943011Y-109093013D01*
X86948557Y-109102244D01*
X86954571Y-109108604D01*
X86957029Y-109111854D01*
X86961398Y-109118738D01*
X86965183Y-109122972D01*
X87017964Y-109175753D01*
X87021838Y-109179736D01*
X87075524Y-109236507D01*
X87083311Y-109241799D01*
X87092360Y-109250149D01*
X88902398Y-111060186D01*
X88913680Y-111072454D01*
X88945020Y-111109540D01*
X89008279Y-111157905D01*
X89012009Y-111160829D01*
X89074073Y-111210731D01*
X89083480Y-111215401D01*
X89091820Y-111221777D01*
X89101585Y-111226331D01*
X89101586Y-111226331D01*
X89163926Y-111255400D01*
X89168309Y-111257510D01*
X89229933Y-111288101D01*
X89229943Y-111288105D01*
X89239593Y-111292895D01*
X89249779Y-111295435D01*
X89259297Y-111299873D01*
X89313813Y-111312058D01*
X89336937Y-111317227D01*
X89341670Y-111318346D01*
X89408437Y-111334993D01*
X89408440Y-111334993D01*
X89418894Y-111337600D01*
X89427646Y-111337844D01*
X89431676Y-111338403D01*
X89439637Y-111340183D01*
X89445307Y-111340500D01*
X89519965Y-111340500D01*
X89525521Y-111340578D01*
X89603611Y-111342759D01*
X89612863Y-111340994D01*
X89625164Y-111340500D01*
X110236293Y-111340500D01*
X110322636Y-111360207D01*
X110391877Y-111415426D01*
X110412647Y-111447304D01*
X110422385Y-111465930D01*
X110544429Y-111615571D01*
X110694070Y-111737615D01*
X110865194Y-111827077D01*
X111050813Y-111880302D01*
X111105715Y-111885202D01*
X111160658Y-111890106D01*
X111160665Y-111890106D01*
X111165076Y-111890500D01*
X111799924Y-111890500D01*
X111804335Y-111890106D01*
X111804342Y-111890106D01*
X111859285Y-111885202D01*
X111914187Y-111880302D01*
X112099806Y-111827077D01*
X112168679Y-111791071D01*
X112261996Y-111742286D01*
X112261999Y-111742284D01*
X112270930Y-111737615D01*
X112278738Y-111731247D01*
X112285458Y-111726816D01*
X112368390Y-111695740D01*
X112456593Y-111703725D01*
X112504542Y-111726816D01*
X112511262Y-111731247D01*
X112519070Y-111737615D01*
X112528001Y-111742284D01*
X112528004Y-111742286D01*
X112621321Y-111791071D01*
X112690194Y-111827077D01*
X112875813Y-111880302D01*
X112930715Y-111885202D01*
X112985658Y-111890106D01*
X112985665Y-111890106D01*
X112990076Y-111890500D01*
X113624924Y-111890500D01*
X113629335Y-111890106D01*
X113629342Y-111890106D01*
X113684285Y-111885202D01*
X113739187Y-111880302D01*
X113924806Y-111827077D01*
X114095930Y-111737615D01*
X114245571Y-111615571D01*
X114278875Y-111574736D01*
X114361243Y-111473743D01*
X114361243Y-111473742D01*
X114367615Y-111465930D01*
X114435184Y-111336684D01*
X114452404Y-111303745D01*
X114452405Y-111303743D01*
X114457077Y-111294806D01*
X114510302Y-111109187D01*
X114520500Y-110994924D01*
X114520500Y-110407172D01*
X124546609Y-110407172D01*
X124553429Y-110719745D01*
X124554372Y-110726016D01*
X124594134Y-110990491D01*
X124599911Y-111028918D01*
X124685301Y-111329678D01*
X124808215Y-111617150D01*
X124811426Y-111622612D01*
X124811429Y-111622618D01*
X124854416Y-111695740D01*
X124966661Y-111886674D01*
X125158069Y-112133881D01*
X125379336Y-112354763D01*
X125626877Y-112545739D01*
X125632351Y-112548944D01*
X125810917Y-112653499D01*
X125896677Y-112703714D01*
X125902503Y-112706193D01*
X125902507Y-112706195D01*
X126178534Y-112823646D01*
X126178538Y-112823647D01*
X126184363Y-112826126D01*
X126385235Y-112882778D01*
X126397558Y-112886253D01*
X126485272Y-112910991D01*
X126633165Y-112932962D01*
X126789332Y-112956162D01*
X126789341Y-112956163D01*
X126794525Y-112956933D01*
X126879631Y-112960500D01*
X127079085Y-112960500D01*
X127082244Y-112960298D01*
X127082259Y-112960298D01*
X127305687Y-112946045D01*
X127305694Y-112946044D01*
X127312013Y-112945641D01*
X127318227Y-112944439D01*
X127318233Y-112944438D01*
X127612735Y-112887459D01*
X127612736Y-112887459D01*
X127618968Y-112886253D01*
X127915888Y-112788344D01*
X128197961Y-112653499D01*
X128203289Y-112650059D01*
X128455292Y-112487344D01*
X128455299Y-112487339D01*
X128460614Y-112483907D01*
X128699589Y-112282315D01*
X128911011Y-112051992D01*
X129091454Y-111796671D01*
X129237992Y-111520492D01*
X129348249Y-111227932D01*
X129420439Y-110923733D01*
X129442731Y-110713411D01*
X129452724Y-110619120D01*
X129453391Y-110612828D01*
X129448904Y-110407172D01*
X193126609Y-110407172D01*
X193133429Y-110719745D01*
X193134372Y-110726016D01*
X193174134Y-110990491D01*
X193179911Y-111028918D01*
X193265301Y-111329678D01*
X193388215Y-111617150D01*
X193391426Y-111622612D01*
X193391429Y-111622618D01*
X193434416Y-111695740D01*
X193546661Y-111886674D01*
X193738069Y-112133881D01*
X193959336Y-112354763D01*
X194206877Y-112545739D01*
X194212351Y-112548944D01*
X194390917Y-112653499D01*
X194476677Y-112703714D01*
X194482503Y-112706193D01*
X194482507Y-112706195D01*
X194758534Y-112823646D01*
X194758538Y-112823647D01*
X194764363Y-112826126D01*
X194965235Y-112882778D01*
X194977558Y-112886253D01*
X195065272Y-112910991D01*
X195213165Y-112932962D01*
X195369332Y-112956162D01*
X195369341Y-112956163D01*
X195374525Y-112956933D01*
X195459631Y-112960500D01*
X195659085Y-112960500D01*
X195662244Y-112960298D01*
X195662259Y-112960298D01*
X195885687Y-112946045D01*
X195885694Y-112946044D01*
X195892013Y-112945641D01*
X195898227Y-112944439D01*
X195898233Y-112944438D01*
X196192735Y-112887459D01*
X196192736Y-112887459D01*
X196198968Y-112886253D01*
X196495888Y-112788344D01*
X196777961Y-112653499D01*
X196783289Y-112650059D01*
X197035292Y-112487344D01*
X197035299Y-112487339D01*
X197040614Y-112483907D01*
X197279589Y-112282315D01*
X197491011Y-112051992D01*
X197671454Y-111796671D01*
X197817992Y-111520492D01*
X197928249Y-111227932D01*
X198000439Y-110923733D01*
X198022731Y-110713411D01*
X198032724Y-110619120D01*
X198033391Y-110612828D01*
X198026571Y-110300255D01*
X197995903Y-110096267D01*
X197981032Y-109997351D01*
X197981030Y-109997343D01*
X197980089Y-109991082D01*
X197894699Y-109690322D01*
X197771785Y-109402850D01*
X197764673Y-109390751D01*
X197627606Y-109157595D01*
X197613339Y-109133326D01*
X197605798Y-109123586D01*
X197548566Y-109049671D01*
X197421931Y-108886119D01*
X197231461Y-108695980D01*
X197205151Y-108669716D01*
X197205149Y-108669715D01*
X197200664Y-108665237D01*
X196953123Y-108474261D01*
X196774959Y-108369941D01*
X196688792Y-108319488D01*
X196688789Y-108319487D01*
X196683323Y-108316286D01*
X196677497Y-108313807D01*
X196677493Y-108313805D01*
X196401466Y-108196354D01*
X196401462Y-108196353D01*
X196395637Y-108193874D01*
X196189495Y-108135736D01*
X196100820Y-108110727D01*
X196100818Y-108110727D01*
X196094728Y-108109009D01*
X195927615Y-108084183D01*
X195790668Y-108063838D01*
X195790659Y-108063837D01*
X195785475Y-108063067D01*
X195700369Y-108059500D01*
X195500915Y-108059500D01*
X195497756Y-108059702D01*
X195497741Y-108059702D01*
X195274313Y-108073955D01*
X195274306Y-108073956D01*
X195267987Y-108074359D01*
X195261773Y-108075561D01*
X195261767Y-108075562D01*
X194967265Y-108132541D01*
X194961032Y-108133747D01*
X194664112Y-108231656D01*
X194382039Y-108366501D01*
X194376714Y-108369940D01*
X194376711Y-108369941D01*
X194124708Y-108532656D01*
X194124701Y-108532661D01*
X194119386Y-108536093D01*
X194103828Y-108549217D01*
X193932304Y-108693910D01*
X193880411Y-108737685D01*
X193668989Y-108968008D01*
X193488546Y-109223329D01*
X193342008Y-109499508D01*
X193231751Y-109792068D01*
X193159561Y-110096267D01*
X193158894Y-110102557D01*
X193158893Y-110102565D01*
X193133789Y-110339432D01*
X193126609Y-110407172D01*
X129448904Y-110407172D01*
X129446571Y-110300255D01*
X129415903Y-110096267D01*
X129401032Y-109997351D01*
X129401030Y-109997343D01*
X129400089Y-109991082D01*
X129314699Y-109690322D01*
X129191785Y-109402850D01*
X129184673Y-109390751D01*
X129047606Y-109157595D01*
X129033339Y-109133326D01*
X129025798Y-109123586D01*
X128968566Y-109049671D01*
X128841931Y-108886119D01*
X128651461Y-108695980D01*
X128625151Y-108669716D01*
X128625149Y-108669715D01*
X128620664Y-108665237D01*
X128373123Y-108474261D01*
X128194959Y-108369941D01*
X128108792Y-108319488D01*
X128108789Y-108319487D01*
X128103323Y-108316286D01*
X128097497Y-108313807D01*
X128097493Y-108313805D01*
X127821466Y-108196354D01*
X127821462Y-108196353D01*
X127815637Y-108193874D01*
X127609495Y-108135736D01*
X127520820Y-108110727D01*
X127520818Y-108110727D01*
X127514728Y-108109009D01*
X127347615Y-108084183D01*
X127210668Y-108063838D01*
X127210659Y-108063837D01*
X127205475Y-108063067D01*
X127120369Y-108059500D01*
X126920915Y-108059500D01*
X126917756Y-108059702D01*
X126917741Y-108059702D01*
X126694313Y-108073955D01*
X126694306Y-108073956D01*
X126687987Y-108074359D01*
X126681773Y-108075561D01*
X126681767Y-108075562D01*
X126387265Y-108132541D01*
X126381032Y-108133747D01*
X126084112Y-108231656D01*
X125802039Y-108366501D01*
X125796714Y-108369940D01*
X125796711Y-108369941D01*
X125544708Y-108532656D01*
X125544701Y-108532661D01*
X125539386Y-108536093D01*
X125523828Y-108549217D01*
X125352304Y-108693910D01*
X125300411Y-108737685D01*
X125088989Y-108968008D01*
X124908546Y-109223329D01*
X124762008Y-109499508D01*
X124651751Y-109792068D01*
X124579561Y-110096267D01*
X124578894Y-110102557D01*
X124578893Y-110102565D01*
X124553789Y-110339432D01*
X124546609Y-110407172D01*
X114520500Y-110407172D01*
X114520500Y-109985076D01*
X114510302Y-109870813D01*
X114457077Y-109685194D01*
X114367615Y-109514070D01*
X114366042Y-109512141D01*
X114336176Y-109432439D01*
X114344160Y-109344236D01*
X114392675Y-109265114D01*
X114440198Y-109217591D01*
X114452466Y-109206310D01*
X114481304Y-109181940D01*
X114489540Y-109174980D01*
X114537882Y-109111752D01*
X114540841Y-109107978D01*
X114590731Y-109045927D01*
X114595401Y-109036520D01*
X114601777Y-109028180D01*
X114635407Y-108956060D01*
X114637510Y-108951691D01*
X114668101Y-108890067D01*
X114668105Y-108890057D01*
X114672895Y-108880407D01*
X114675435Y-108870221D01*
X114679873Y-108860703D01*
X114693621Y-108799197D01*
X114697227Y-108783063D01*
X114698346Y-108778330D01*
X114714993Y-108711563D01*
X114714993Y-108711560D01*
X114717600Y-108701106D01*
X114717844Y-108692354D01*
X114718403Y-108688324D01*
X114720183Y-108680363D01*
X114720500Y-108674693D01*
X114720500Y-108600035D01*
X114720578Y-108594479D01*
X114722458Y-108527170D01*
X114722458Y-108527169D01*
X114722759Y-108516389D01*
X114722421Y-108514618D01*
X114734513Y-108431287D01*
X114783999Y-108357840D01*
X114860452Y-108313137D01*
X114872012Y-108309881D01*
X115029957Y-108270501D01*
X115029959Y-108270500D01*
X115040408Y-108267895D01*
X115205926Y-108185731D01*
X115214321Y-108178982D01*
X115214323Y-108178980D01*
X115341546Y-108076689D01*
X115349940Y-108069940D01*
X115373407Y-108040753D01*
X115458980Y-107934323D01*
X115458982Y-107934321D01*
X115465731Y-107925926D01*
X115547895Y-107760408D01*
X115592600Y-107581107D01*
X115595500Y-107538566D01*
X115595500Y-107091434D01*
X115592600Y-107048893D01*
X115547895Y-106869592D01*
X115543108Y-106859949D01*
X115543106Y-106859943D01*
X115497704Y-106768482D01*
X115476965Y-106682382D01*
X115497704Y-106591518D01*
X115543106Y-106500057D01*
X115543108Y-106500051D01*
X115547895Y-106490408D01*
X115592600Y-106311107D01*
X115595500Y-106268566D01*
X115595500Y-105821434D01*
X115592600Y-105778893D01*
X115547895Y-105599592D01*
X115543108Y-105589949D01*
X115543106Y-105589943D01*
X115497704Y-105498482D01*
X115476965Y-105412382D01*
X115497704Y-105321518D01*
X115543106Y-105230057D01*
X115543108Y-105230051D01*
X115547895Y-105220408D01*
X115592600Y-105041107D01*
X115595500Y-104998566D01*
X115595500Y-104551434D01*
X115594274Y-104533442D01*
X115593197Y-104517655D01*
X115592600Y-104508893D01*
X115547895Y-104329592D01*
X115543108Y-104319949D01*
X115543106Y-104319943D01*
X115497704Y-104228482D01*
X115476965Y-104142382D01*
X115497704Y-104051518D01*
X115543106Y-103960057D01*
X115543108Y-103960051D01*
X115547895Y-103950408D01*
X115592600Y-103771107D01*
X115595500Y-103728566D01*
X115595500Y-103281434D01*
X115592600Y-103238893D01*
X115547895Y-103059592D01*
X115543108Y-103049949D01*
X115543106Y-103049943D01*
X115497704Y-102958482D01*
X115476965Y-102872382D01*
X115497704Y-102781518D01*
X115543106Y-102690057D01*
X115543108Y-102690051D01*
X115547895Y-102680408D01*
X115592600Y-102501107D01*
X115595500Y-102458566D01*
X115595500Y-102014500D01*
X115615207Y-101928157D01*
X115670426Y-101858916D01*
X115750218Y-101820489D01*
X115794500Y-101815500D01*
X172040877Y-101815500D01*
X172057529Y-101816198D01*
X172095158Y-101819358D01*
X172095160Y-101819358D01*
X172105902Y-101820260D01*
X172184774Y-101809736D01*
X172189603Y-101809152D01*
X172257995Y-101801722D01*
X172268709Y-101800558D01*
X172278661Y-101797209D01*
X172289069Y-101795820D01*
X172299194Y-101792135D01*
X172299197Y-101792134D01*
X172363847Y-101768603D01*
X172368436Y-101766996D01*
X172433632Y-101745055D01*
X172433631Y-101745055D01*
X172443848Y-101741617D01*
X172452848Y-101736209D01*
X172462715Y-101732618D01*
X172471811Y-101726845D01*
X172471814Y-101726844D01*
X172529888Y-101689989D01*
X172534025Y-101687434D01*
X172593006Y-101651995D01*
X172593013Y-101651989D01*
X172602244Y-101646443D01*
X172608604Y-101640429D01*
X172611854Y-101637971D01*
X172618738Y-101633602D01*
X172622972Y-101629817D01*
X172675753Y-101577036D01*
X172679736Y-101573162D01*
X172690256Y-101563214D01*
X172736507Y-101519476D01*
X172741799Y-101511689D01*
X172750149Y-101502640D01*
X178370198Y-95882591D01*
X178382466Y-95871310D01*
X178411304Y-95846940D01*
X178419540Y-95839980D01*
X178467858Y-95776782D01*
X178470853Y-95772963D01*
X178513975Y-95719331D01*
X178513979Y-95719324D01*
X178520731Y-95710927D01*
X178525401Y-95701520D01*
X178531777Y-95693180D01*
X178565407Y-95621060D01*
X178567510Y-95616691D01*
X178598101Y-95555067D01*
X178598105Y-95555057D01*
X178602895Y-95545407D01*
X178605435Y-95535221D01*
X178609873Y-95525703D01*
X178627227Y-95448063D01*
X178628346Y-95443330D01*
X178644993Y-95376563D01*
X178644993Y-95376560D01*
X178647600Y-95366106D01*
X178647844Y-95357354D01*
X178648403Y-95353324D01*
X178650183Y-95345363D01*
X178650500Y-95339693D01*
X178650500Y-95265034D01*
X178650578Y-95259478D01*
X178652458Y-95192164D01*
X178652759Y-95181388D01*
X178650994Y-95172136D01*
X178650500Y-95159835D01*
X178650500Y-92750086D01*
X178670207Y-92663743D01*
X178720260Y-92598765D01*
X178740513Y-92581468D01*
X178899759Y-92445459D01*
X178904834Y-92439517D01*
X178904838Y-92439513D01*
X178918678Y-92423308D01*
X178989738Y-92370450D01*
X179076695Y-92353659D01*
X179162326Y-92376259D01*
X179221322Y-92423308D01*
X179235162Y-92439513D01*
X179235166Y-92439517D01*
X179240241Y-92445459D01*
X179246182Y-92450533D01*
X179246183Y-92450534D01*
X179419740Y-92598765D01*
X179425821Y-92603959D01*
X179633911Y-92731477D01*
X179859388Y-92824872D01*
X180096698Y-92881846D01*
X180340000Y-92900994D01*
X180583302Y-92881846D01*
X180820612Y-92824872D01*
X181046089Y-92731477D01*
X181254179Y-92603959D01*
X181260261Y-92598765D01*
X181433817Y-92450534D01*
X181433818Y-92450533D01*
X181439759Y-92445459D01*
X181444834Y-92439517D01*
X181444838Y-92439513D01*
X181458678Y-92423308D01*
X181529738Y-92370450D01*
X181616695Y-92353659D01*
X181702326Y-92376259D01*
X181761322Y-92423308D01*
X181775162Y-92439513D01*
X181775166Y-92439517D01*
X181780241Y-92445459D01*
X181786182Y-92450533D01*
X181786183Y-92450534D01*
X181959740Y-92598765D01*
X181965821Y-92603959D01*
X182173911Y-92731477D01*
X182399388Y-92824872D01*
X182636698Y-92881846D01*
X182880000Y-92900994D01*
X183123302Y-92881846D01*
X183360612Y-92824872D01*
X183586089Y-92731477D01*
X183794179Y-92603959D01*
X183800261Y-92598765D01*
X183973817Y-92450534D01*
X183973818Y-92450533D01*
X183979759Y-92445459D01*
X184055427Y-92356863D01*
X184133181Y-92265825D01*
X184133183Y-92265822D01*
X184138259Y-92259879D01*
X184265777Y-92051789D01*
X184359172Y-91826312D01*
X184416146Y-91589002D01*
X184435294Y-91345700D01*
X184416146Y-91102398D01*
X184359172Y-90865088D01*
X184265777Y-90639611D01*
X184138259Y-90431521D01*
X184103339Y-90390634D01*
X183984834Y-90251883D01*
X183979759Y-90245941D01*
X183930328Y-90203723D01*
X183800125Y-90092519D01*
X183800122Y-90092517D01*
X183794179Y-90087441D01*
X183586089Y-89959923D01*
X183360612Y-89866528D01*
X183123302Y-89809554D01*
X182880000Y-89790406D01*
X182636698Y-89809554D01*
X182399388Y-89866528D01*
X182173911Y-89959923D01*
X181965821Y-90087441D01*
X181959878Y-90092517D01*
X181959875Y-90092519D01*
X181829672Y-90203723D01*
X181780241Y-90245941D01*
X181775166Y-90251883D01*
X181775162Y-90251887D01*
X181761322Y-90268092D01*
X181690262Y-90320950D01*
X181603305Y-90337741D01*
X181517674Y-90315141D01*
X181458678Y-90268092D01*
X181444838Y-90251887D01*
X181444834Y-90251883D01*
X181439759Y-90245941D01*
X181390328Y-90203723D01*
X181260125Y-90092519D01*
X181260122Y-90092517D01*
X181254179Y-90087441D01*
X181046089Y-89959923D01*
X180820612Y-89866528D01*
X180583302Y-89809554D01*
X180340000Y-89790406D01*
X180096698Y-89809554D01*
X179859388Y-89866528D01*
X179633911Y-89959923D01*
X179425821Y-90087441D01*
X179419878Y-90092517D01*
X179419875Y-90092519D01*
X179289672Y-90203723D01*
X179240241Y-90245941D01*
X179235166Y-90251883D01*
X179235162Y-90251887D01*
X179221322Y-90268092D01*
X179150262Y-90320950D01*
X179063305Y-90337741D01*
X178977674Y-90315141D01*
X178918678Y-90268092D01*
X178904838Y-90251887D01*
X178904834Y-90251883D01*
X178899759Y-90245941D01*
X178850328Y-90203723D01*
X178720125Y-90092519D01*
X178720122Y-90092517D01*
X178714179Y-90087441D01*
X178506089Y-89959923D01*
X178280612Y-89866528D01*
X178043302Y-89809554D01*
X177800000Y-89790406D01*
X177556698Y-89809554D01*
X177319388Y-89866528D01*
X177093911Y-89959923D01*
X176885821Y-90087441D01*
X176879878Y-90092517D01*
X176879875Y-90092519D01*
X176749672Y-90203723D01*
X176700241Y-90245941D01*
X176695166Y-90251883D01*
X176695162Y-90251887D01*
X176681322Y-90268092D01*
X176610262Y-90320950D01*
X176523305Y-90337741D01*
X176437674Y-90315141D01*
X176378678Y-90268092D01*
X176364838Y-90251887D01*
X176364834Y-90251883D01*
X176359759Y-90245941D01*
X176310328Y-90203723D01*
X176180125Y-90092519D01*
X176180122Y-90092517D01*
X176174179Y-90087441D01*
X175966089Y-89959923D01*
X175740612Y-89866528D01*
X175503302Y-89809554D01*
X175260000Y-89790406D01*
X175016698Y-89809554D01*
X174999496Y-89813684D01*
X174939662Y-89828049D01*
X174851105Y-89829043D01*
X174770886Y-89791515D01*
X174725186Y-89741179D01*
X174714990Y-89725113D01*
X174712434Y-89720975D01*
X174676995Y-89661994D01*
X174676989Y-89661987D01*
X174671443Y-89652756D01*
X174665429Y-89646396D01*
X174662971Y-89643146D01*
X174658602Y-89636262D01*
X174654817Y-89632028D01*
X174602037Y-89579248D01*
X174598163Y-89575265D01*
X174594404Y-89571290D01*
X174544476Y-89518493D01*
X174536689Y-89513201D01*
X174527640Y-89504851D01*
X173987602Y-88964814D01*
X173976320Y-88952546D01*
X173951933Y-88923688D01*
X173944980Y-88915460D01*
X173881721Y-88867095D01*
X173877991Y-88864171D01*
X173815927Y-88814269D01*
X173806520Y-88809599D01*
X173798180Y-88803223D01*
X173726060Y-88769593D01*
X173721691Y-88767490D01*
X173660067Y-88736899D01*
X173660057Y-88736895D01*
X173650407Y-88732105D01*
X173640221Y-88729565D01*
X173630703Y-88725127D01*
X173571388Y-88711869D01*
X173553063Y-88707773D01*
X173548330Y-88706654D01*
X173481563Y-88690007D01*
X173481560Y-88690007D01*
X173471106Y-88687400D01*
X173462354Y-88687156D01*
X173458324Y-88686597D01*
X173450363Y-88684817D01*
X173444693Y-88684500D01*
X173370035Y-88684500D01*
X173364479Y-88684422D01*
X173342280Y-88683802D01*
X173286389Y-88682241D01*
X173277137Y-88684006D01*
X173264836Y-88684500D01*
X168319123Y-88684500D01*
X168302471Y-88683802D01*
X168264842Y-88680642D01*
X168264840Y-88680642D01*
X168254098Y-88679740D01*
X168198884Y-88687107D01*
X168175222Y-88690264D01*
X168170394Y-88690848D01*
X168091291Y-88699442D01*
X168081339Y-88702791D01*
X168070931Y-88704180D01*
X168060806Y-88707865D01*
X168060803Y-88707866D01*
X167996153Y-88731397D01*
X167991564Y-88733004D01*
X167916152Y-88758383D01*
X167907152Y-88763791D01*
X167897285Y-88767382D01*
X167888189Y-88773155D01*
X167888186Y-88773156D01*
X167830112Y-88810011D01*
X167825975Y-88812566D01*
X167766994Y-88848005D01*
X167766987Y-88848011D01*
X167757756Y-88853557D01*
X167751396Y-88859571D01*
X167748146Y-88862029D01*
X167741262Y-88866398D01*
X167737028Y-88870183D01*
X167684248Y-88922963D01*
X167680265Y-88926837D01*
X167623493Y-88980524D01*
X167618201Y-88988311D01*
X167609851Y-88997360D01*
X167069814Y-89537398D01*
X167057546Y-89548680D01*
X167020460Y-89580020D01*
X166972095Y-89643279D01*
X166969171Y-89647009D01*
X166919269Y-89709073D01*
X166914599Y-89718480D01*
X166908223Y-89726820D01*
X166876238Y-89795414D01*
X166874600Y-89798926D01*
X166872490Y-89803309D01*
X166841899Y-89864933D01*
X166841895Y-89864943D01*
X166837105Y-89874593D01*
X166834565Y-89884779D01*
X166830127Y-89894297D01*
X166827778Y-89904807D01*
X166815009Y-89961933D01*
X166776941Y-90041897D01*
X166737771Y-90079517D01*
X166732490Y-90083354D01*
X166725821Y-90087441D01*
X166719878Y-90092517D01*
X166719875Y-90092519D01*
X166589672Y-90203723D01*
X166540241Y-90245941D01*
X166535166Y-90251883D01*
X166535162Y-90251887D01*
X166521322Y-90268092D01*
X166450262Y-90320950D01*
X166363305Y-90337741D01*
X166277674Y-90315141D01*
X166218678Y-90268092D01*
X166204838Y-90251887D01*
X166204834Y-90251883D01*
X166199759Y-90245941D01*
X166150328Y-90203723D01*
X166020125Y-90092519D01*
X166020122Y-90092517D01*
X166014179Y-90087441D01*
X165806089Y-89959923D01*
X165580612Y-89866528D01*
X165343302Y-89809554D01*
X165100000Y-89790406D01*
X164856698Y-89809554D01*
X164619388Y-89866528D01*
X164393911Y-89959923D01*
X164185821Y-90087441D01*
X164179878Y-90092517D01*
X164179875Y-90092519D01*
X164049672Y-90203723D01*
X164000241Y-90245941D01*
X163995166Y-90251883D01*
X163995162Y-90251887D01*
X163981322Y-90268092D01*
X163910262Y-90320950D01*
X163823305Y-90337741D01*
X163737674Y-90315141D01*
X163678678Y-90268092D01*
X163664838Y-90251887D01*
X163664834Y-90251883D01*
X163659759Y-90245941D01*
X163495578Y-90105717D01*
X163442722Y-90034659D01*
X163425932Y-89947702D01*
X163448533Y-89862071D01*
X163484105Y-89813684D01*
X164400198Y-88897591D01*
X164412466Y-88886310D01*
X164441304Y-88861940D01*
X164449540Y-88854980D01*
X164497887Y-88791745D01*
X164500837Y-88787981D01*
X164550730Y-88725927D01*
X164555398Y-88716523D01*
X164561777Y-88708180D01*
X164566395Y-88698278D01*
X164595399Y-88636077D01*
X164597508Y-88631695D01*
X164628101Y-88570067D01*
X164628105Y-88570057D01*
X164632895Y-88560407D01*
X164635435Y-88550221D01*
X164639873Y-88540703D01*
X164657227Y-88463063D01*
X164658346Y-88458330D01*
X164674993Y-88391563D01*
X164674993Y-88391560D01*
X164677600Y-88381106D01*
X164677844Y-88372354D01*
X164678403Y-88368324D01*
X164680183Y-88360363D01*
X164680500Y-88354693D01*
X164680500Y-88280035D01*
X164680578Y-88274478D01*
X164681921Y-88226405D01*
X164704031Y-88140646D01*
X164761162Y-88072973D01*
X164841997Y-88036790D01*
X164896456Y-88033575D01*
X165080903Y-88048091D01*
X165100000Y-88049594D01*
X165343302Y-88030446D01*
X165580612Y-87973472D01*
X165806089Y-87880077D01*
X166014179Y-87752559D01*
X166020261Y-87747365D01*
X166193817Y-87599134D01*
X166193818Y-87599133D01*
X166199759Y-87594059D01*
X166204834Y-87588117D01*
X166204838Y-87588113D01*
X166218678Y-87571908D01*
X166289738Y-87519050D01*
X166376695Y-87502259D01*
X166462326Y-87524859D01*
X166521322Y-87571908D01*
X166535162Y-87588113D01*
X166535166Y-87588117D01*
X166540241Y-87594059D01*
X166546182Y-87599133D01*
X166546183Y-87599134D01*
X166719740Y-87747365D01*
X166725821Y-87752559D01*
X166933911Y-87880077D01*
X167159388Y-87973472D01*
X167396698Y-88030446D01*
X167640000Y-88049594D01*
X167883302Y-88030446D01*
X168120612Y-87973472D01*
X168346089Y-87880077D01*
X168554179Y-87752559D01*
X168560261Y-87747365D01*
X168733817Y-87599134D01*
X168733818Y-87599133D01*
X168739759Y-87594059D01*
X168744834Y-87588117D01*
X168744838Y-87588113D01*
X168758678Y-87571908D01*
X168829738Y-87519050D01*
X168916695Y-87502259D01*
X169002326Y-87524859D01*
X169061322Y-87571908D01*
X169075162Y-87588113D01*
X169075166Y-87588117D01*
X169080241Y-87594059D01*
X169086182Y-87599133D01*
X169086183Y-87599134D01*
X169259740Y-87747365D01*
X169265821Y-87752559D01*
X169473911Y-87880077D01*
X169699388Y-87973472D01*
X169936698Y-88030446D01*
X170180000Y-88049594D01*
X170423302Y-88030446D01*
X170660612Y-87973472D01*
X170886089Y-87880077D01*
X171094179Y-87752559D01*
X171100261Y-87747365D01*
X171273817Y-87599134D01*
X171273818Y-87599133D01*
X171279759Y-87594059D01*
X171284834Y-87588117D01*
X171284838Y-87588113D01*
X171298678Y-87571908D01*
X171369738Y-87519050D01*
X171456695Y-87502259D01*
X171542326Y-87524859D01*
X171601322Y-87571908D01*
X171615162Y-87588113D01*
X171615166Y-87588117D01*
X171620241Y-87594059D01*
X171626182Y-87599133D01*
X171626183Y-87599134D01*
X171799740Y-87747365D01*
X171805821Y-87752559D01*
X172013911Y-87880077D01*
X172239388Y-87973472D01*
X172476698Y-88030446D01*
X172720000Y-88049594D01*
X172963302Y-88030446D01*
X173200612Y-87973472D01*
X173426089Y-87880077D01*
X173634179Y-87752559D01*
X173640261Y-87747365D01*
X173813817Y-87599134D01*
X173813818Y-87599133D01*
X173819759Y-87594059D01*
X173824834Y-87588117D01*
X173824838Y-87588113D01*
X173838678Y-87571908D01*
X173909738Y-87519050D01*
X173996695Y-87502259D01*
X174082326Y-87524859D01*
X174141322Y-87571908D01*
X174155162Y-87588113D01*
X174155166Y-87588117D01*
X174160241Y-87594059D01*
X174166182Y-87599133D01*
X174166183Y-87599134D01*
X174339740Y-87747365D01*
X174345821Y-87752559D01*
X174553911Y-87880077D01*
X174779388Y-87973472D01*
X175016698Y-88030446D01*
X175260000Y-88049594D01*
X175503302Y-88030446D01*
X175740612Y-87973472D01*
X175966089Y-87880077D01*
X176174179Y-87752559D01*
X176180261Y-87747365D01*
X176353817Y-87599134D01*
X176353818Y-87599133D01*
X176359759Y-87594059D01*
X176364834Y-87588117D01*
X176364838Y-87588113D01*
X176378678Y-87571908D01*
X176449738Y-87519050D01*
X176536695Y-87502259D01*
X176622326Y-87524859D01*
X176681322Y-87571908D01*
X176695162Y-87588113D01*
X176695166Y-87588117D01*
X176700241Y-87594059D01*
X176706182Y-87599133D01*
X176706183Y-87599134D01*
X176879740Y-87747365D01*
X176885821Y-87752559D01*
X177093911Y-87880077D01*
X177319388Y-87973472D01*
X177556698Y-88030446D01*
X177800000Y-88049594D01*
X178043302Y-88030446D01*
X178280612Y-87973472D01*
X178506089Y-87880077D01*
X178714179Y-87752559D01*
X178720261Y-87747365D01*
X178893817Y-87599134D01*
X178893818Y-87599133D01*
X178899759Y-87594059D01*
X178904834Y-87588117D01*
X178904838Y-87588113D01*
X178918678Y-87571908D01*
X178989738Y-87519050D01*
X179076695Y-87502259D01*
X179162326Y-87524859D01*
X179221322Y-87571908D01*
X179235162Y-87588113D01*
X179235166Y-87588117D01*
X179240241Y-87594059D01*
X179246182Y-87599133D01*
X179246183Y-87599134D01*
X179419740Y-87747365D01*
X179425821Y-87752559D01*
X179633911Y-87880077D01*
X179859388Y-87973472D01*
X180096698Y-88030446D01*
X180340000Y-88049594D01*
X180583302Y-88030446D01*
X180820612Y-87973472D01*
X181046089Y-87880077D01*
X181240318Y-87761053D01*
X181324234Y-87732742D01*
X181412124Y-87743644D01*
X181485009Y-87790014D01*
X181594592Y-87899597D01*
X181604856Y-87905813D01*
X181729357Y-87981214D01*
X181729361Y-87981216D01*
X181739617Y-87987427D01*
X181751060Y-87991013D01*
X181751062Y-87991014D01*
X181804914Y-88007890D01*
X181901406Y-88038129D01*
X181948876Y-88042491D01*
X181969466Y-88044383D01*
X181969472Y-88044383D01*
X181974007Y-88044800D01*
X182879801Y-88044800D01*
X183785992Y-88044799D01*
X183858594Y-88038129D01*
X183959633Y-88006465D01*
X184008938Y-87991014D01*
X184008940Y-87991013D01*
X184020383Y-87987427D01*
X184030639Y-87981216D01*
X184030643Y-87981214D01*
X184155144Y-87905813D01*
X184165408Y-87899597D01*
X184285297Y-87779708D01*
X184316755Y-87727764D01*
X184366914Y-87644943D01*
X184366916Y-87644939D01*
X184373127Y-87634683D01*
X184384268Y-87599134D01*
X184420671Y-87482970D01*
X184423829Y-87472894D01*
X184428191Y-87425424D01*
X184430083Y-87404834D01*
X184430083Y-87404828D01*
X184430500Y-87400293D01*
X184430499Y-85588308D01*
X184423829Y-85515706D01*
X184385858Y-85394541D01*
X184376714Y-85365362D01*
X184376713Y-85365360D01*
X184373127Y-85353917D01*
X184366916Y-85343661D01*
X184366914Y-85343657D01*
X184291513Y-85219156D01*
X184285297Y-85208892D01*
X184165408Y-85089003D01*
X184119571Y-85061243D01*
X184030643Y-85007386D01*
X184030639Y-85007384D01*
X184020383Y-85001173D01*
X184008940Y-84997587D01*
X184008938Y-84997586D01*
X183909506Y-84966426D01*
X183858594Y-84950471D01*
X183811124Y-84946109D01*
X183790534Y-84944217D01*
X183790528Y-84944217D01*
X183785993Y-84943800D01*
X182880199Y-84943800D01*
X181974008Y-84943801D01*
X181901406Y-84950471D01*
X181839077Y-84970004D01*
X181751062Y-84997586D01*
X181751060Y-84997587D01*
X181739617Y-85001173D01*
X181729361Y-85007384D01*
X181729357Y-85007386D01*
X181640429Y-85061243D01*
X181594592Y-85089003D01*
X181485009Y-85198586D01*
X181410021Y-85245705D01*
X181322014Y-85255621D01*
X181240318Y-85227547D01*
X181228818Y-85220500D01*
X181046089Y-85108523D01*
X180820612Y-85015128D01*
X180583302Y-84958154D01*
X180340000Y-84939006D01*
X180096698Y-84958154D01*
X179859388Y-85015128D01*
X179633911Y-85108523D01*
X179425821Y-85236041D01*
X179419878Y-85241117D01*
X179419875Y-85241119D01*
X179291312Y-85350922D01*
X179240241Y-85394541D01*
X179235166Y-85400483D01*
X179235162Y-85400487D01*
X179221322Y-85416692D01*
X179150262Y-85469550D01*
X179063305Y-85486341D01*
X178977674Y-85463741D01*
X178918678Y-85416692D01*
X178904838Y-85400487D01*
X178904834Y-85400483D01*
X178899759Y-85394541D01*
X178848688Y-85350922D01*
X178720125Y-85241119D01*
X178720122Y-85241117D01*
X178714179Y-85236041D01*
X178506089Y-85108523D01*
X178280612Y-85015128D01*
X178043302Y-84958154D01*
X177800000Y-84939006D01*
X177556698Y-84958154D01*
X177319388Y-85015128D01*
X177093911Y-85108523D01*
X176885821Y-85236041D01*
X176879878Y-85241117D01*
X176879875Y-85241119D01*
X176751312Y-85350922D01*
X176700241Y-85394541D01*
X176695166Y-85400483D01*
X176695162Y-85400487D01*
X176681322Y-85416692D01*
X176610262Y-85469550D01*
X176523305Y-85486341D01*
X176437674Y-85463741D01*
X176378678Y-85416692D01*
X176364838Y-85400487D01*
X176364834Y-85400483D01*
X176359759Y-85394541D01*
X176308688Y-85350922D01*
X176180125Y-85241119D01*
X176180122Y-85241117D01*
X176174179Y-85236041D01*
X175966089Y-85108523D01*
X175740612Y-85015128D01*
X175503302Y-84958154D01*
X175260000Y-84939006D01*
X175016698Y-84958154D01*
X174779388Y-85015128D01*
X174553911Y-85108523D01*
X174345821Y-85236041D01*
X174339878Y-85241117D01*
X174339875Y-85241119D01*
X174211312Y-85350922D01*
X174160241Y-85394541D01*
X174155166Y-85400483D01*
X174155162Y-85400487D01*
X174141322Y-85416692D01*
X174070262Y-85469550D01*
X173983305Y-85486341D01*
X173897674Y-85463741D01*
X173838678Y-85416692D01*
X173824838Y-85400487D01*
X173824834Y-85400483D01*
X173819759Y-85394541D01*
X173768688Y-85350922D01*
X173640125Y-85241119D01*
X173640122Y-85241117D01*
X173634179Y-85236041D01*
X173426089Y-85108523D01*
X173200612Y-85015128D01*
X172963302Y-84958154D01*
X172720000Y-84939006D01*
X172476698Y-84958154D01*
X172239388Y-85015128D01*
X172013911Y-85108523D01*
X171805821Y-85236041D01*
X171799878Y-85241117D01*
X171799875Y-85241119D01*
X171671312Y-85350922D01*
X171620241Y-85394541D01*
X171615166Y-85400483D01*
X171615162Y-85400487D01*
X171601322Y-85416692D01*
X171530262Y-85469550D01*
X171443305Y-85486341D01*
X171357674Y-85463741D01*
X171298678Y-85416692D01*
X171284838Y-85400487D01*
X171284834Y-85400483D01*
X171279759Y-85394541D01*
X171228688Y-85350922D01*
X171100125Y-85241119D01*
X171100122Y-85241117D01*
X171094179Y-85236041D01*
X170886089Y-85108523D01*
X170660612Y-85015128D01*
X170423302Y-84958154D01*
X170180000Y-84939006D01*
X169936698Y-84958154D01*
X169699388Y-85015128D01*
X169473911Y-85108523D01*
X169265821Y-85236041D01*
X169259878Y-85241117D01*
X169259875Y-85241119D01*
X169131312Y-85350922D01*
X169080241Y-85394541D01*
X169075166Y-85400483D01*
X169075162Y-85400487D01*
X169061322Y-85416692D01*
X168990262Y-85469550D01*
X168903305Y-85486341D01*
X168817674Y-85463741D01*
X168758678Y-85416692D01*
X168744838Y-85400487D01*
X168744834Y-85400483D01*
X168739759Y-85394541D01*
X168688688Y-85350922D01*
X168560125Y-85241119D01*
X168560122Y-85241117D01*
X168554179Y-85236041D01*
X168346089Y-85108523D01*
X168120612Y-85015128D01*
X167883302Y-84958154D01*
X167640000Y-84939006D01*
X167396698Y-84958154D01*
X167159388Y-85015128D01*
X166933911Y-85108523D01*
X166725821Y-85236041D01*
X166719878Y-85241117D01*
X166719875Y-85241119D01*
X166591312Y-85350922D01*
X166540241Y-85394541D01*
X166535166Y-85400483D01*
X166535162Y-85400487D01*
X166521322Y-85416692D01*
X166450262Y-85469550D01*
X166363305Y-85486341D01*
X166277674Y-85463741D01*
X166218678Y-85416692D01*
X166204838Y-85400487D01*
X166204834Y-85400483D01*
X166199759Y-85394541D01*
X166148688Y-85350922D01*
X166020125Y-85241119D01*
X166020122Y-85241117D01*
X166014179Y-85236041D01*
X165806089Y-85108523D01*
X165580612Y-85015128D01*
X165343302Y-84958154D01*
X165100000Y-84939006D01*
X164895112Y-84955131D01*
X164807490Y-84942259D01*
X164734130Y-84892643D01*
X164689562Y-84816111D01*
X164680500Y-84756744D01*
X164680500Y-82594123D01*
X164681198Y-82577471D01*
X164684358Y-82539842D01*
X164684358Y-82539840D01*
X164685260Y-82529098D01*
X164674736Y-82450222D01*
X164674152Y-82445397D01*
X164666722Y-82377005D01*
X164665558Y-82366291D01*
X164662209Y-82356339D01*
X164660820Y-82345931D01*
X164654121Y-82327524D01*
X164633603Y-82271153D01*
X164631996Y-82266564D01*
X164610055Y-82201368D01*
X164606617Y-82191152D01*
X164601209Y-82182152D01*
X164597618Y-82172285D01*
X164591536Y-82162700D01*
X164554989Y-82105112D01*
X164552434Y-82100975D01*
X164516995Y-82041994D01*
X164516989Y-82041987D01*
X164511443Y-82032756D01*
X164505424Y-82026391D01*
X164502978Y-82023157D01*
X164498602Y-82016262D01*
X164494817Y-82012029D01*
X164442053Y-81959265D01*
X164438179Y-81955282D01*
X164391880Y-81906322D01*
X164391878Y-81906320D01*
X164384476Y-81898493D01*
X164376686Y-81893199D01*
X164367629Y-81884841D01*
X155572602Y-73089814D01*
X155561320Y-73077546D01*
X155536933Y-73048688D01*
X155529980Y-73040460D01*
X155466721Y-72992095D01*
X155462991Y-72989171D01*
X155400927Y-72939269D01*
X155391520Y-72934599D01*
X155383180Y-72928223D01*
X155311060Y-72894593D01*
X155306691Y-72892490D01*
X155245067Y-72861899D01*
X155245057Y-72861895D01*
X155235407Y-72857105D01*
X155225221Y-72854565D01*
X155215703Y-72850127D01*
X155161187Y-72837942D01*
X155138063Y-72832773D01*
X155133330Y-72831654D01*
X155066563Y-72815007D01*
X155066560Y-72815007D01*
X155056106Y-72812400D01*
X155047354Y-72812156D01*
X155043324Y-72811597D01*
X155035363Y-72809817D01*
X155029693Y-72809500D01*
X154955035Y-72809500D01*
X154949479Y-72809422D01*
X154929321Y-72808859D01*
X154871389Y-72807241D01*
X154862137Y-72809006D01*
X154849836Y-72809500D01*
X115794500Y-72809500D01*
X115708157Y-72789793D01*
X115638916Y-72734574D01*
X115600489Y-72654782D01*
X115595500Y-72610500D01*
X115595500Y-72166434D01*
X115594843Y-72156788D01*
X115593197Y-72132655D01*
X115592600Y-72123893D01*
X115547895Y-71944592D01*
X115483024Y-71813910D01*
X115470521Y-71788723D01*
X115470520Y-71788722D01*
X115465731Y-71779074D01*
X115458806Y-71770460D01*
X115356689Y-71643454D01*
X115349940Y-71635060D01*
X115341546Y-71628311D01*
X115333921Y-71620686D01*
X115335411Y-71619196D01*
X115289555Y-71561217D01*
X115270196Y-71474796D01*
X115276316Y-71426615D01*
X115285682Y-71389735D01*
X115291427Y-71342257D01*
X115289408Y-71322908D01*
X115287832Y-71321900D01*
X115276920Y-71320000D01*
X112468303Y-71320000D01*
X112449333Y-71324330D01*
X112448521Y-71326016D01*
X112447946Y-71337071D01*
X112454318Y-71389735D01*
X112463684Y-71426615D01*
X112465835Y-71515152D01*
X112429359Y-71595855D01*
X112405644Y-71620251D01*
X112406079Y-71620686D01*
X112398454Y-71628311D01*
X112390060Y-71635060D01*
X112383311Y-71643454D01*
X112281195Y-71770460D01*
X112274269Y-71779074D01*
X112269480Y-71788722D01*
X112269479Y-71788723D01*
X112256976Y-71813910D01*
X112192105Y-71944592D01*
X112147400Y-72123893D01*
X112146803Y-72132655D01*
X112145158Y-72156788D01*
X112144500Y-72166434D01*
X112144500Y-72613566D01*
X112147400Y-72656107D01*
X112192105Y-72835408D01*
X112196892Y-72845051D01*
X112196894Y-72845057D01*
X112242296Y-72936518D01*
X112263035Y-73022618D01*
X112242296Y-73113482D01*
X112196894Y-73204943D01*
X112196892Y-73204949D01*
X112192105Y-73214592D01*
X112147400Y-73393893D01*
X112144500Y-73436434D01*
X112144500Y-73883566D01*
X112147400Y-73926107D01*
X112192105Y-74105408D01*
X112196892Y-74115051D01*
X112196894Y-74115057D01*
X112242296Y-74206518D01*
X112263035Y-74292618D01*
X112242296Y-74383482D01*
X112196894Y-74474943D01*
X112196892Y-74474949D01*
X112192105Y-74484592D01*
X112147400Y-74663893D01*
X112144500Y-74706434D01*
X112144500Y-75153566D01*
X112147400Y-75196107D01*
X112192105Y-75375408D01*
X112196892Y-75385051D01*
X112196894Y-75385057D01*
X112242296Y-75476518D01*
X112263035Y-75562618D01*
X112242296Y-75653482D01*
X112196894Y-75744943D01*
X112196892Y-75744949D01*
X112192105Y-75754592D01*
X112147400Y-75933893D01*
X112144500Y-75976434D01*
X112144500Y-76423566D01*
X112147400Y-76466107D01*
X112192105Y-76645408D01*
X112196892Y-76655051D01*
X112196894Y-76655057D01*
X112242296Y-76746518D01*
X112263035Y-76832618D01*
X112242296Y-76923482D01*
X112196894Y-77014943D01*
X112196892Y-77014949D01*
X112192105Y-77024592D01*
X112147400Y-77203893D01*
X112144500Y-77246434D01*
X112144500Y-77693566D01*
X112147400Y-77736107D01*
X112192105Y-77915408D01*
X112196892Y-77925051D01*
X112196894Y-77925057D01*
X112242296Y-78016518D01*
X112263035Y-78102618D01*
X112242296Y-78193482D01*
X112196894Y-78284943D01*
X112196892Y-78284949D01*
X112192105Y-78294592D01*
X112147400Y-78473893D01*
X112144500Y-78516434D01*
X112144500Y-78963566D01*
X112147400Y-79006107D01*
X112192105Y-79185408D01*
X112196892Y-79195051D01*
X112196894Y-79195057D01*
X112242296Y-79286518D01*
X112263035Y-79372618D01*
X112242296Y-79463482D01*
X112196894Y-79554943D01*
X112196892Y-79554949D01*
X112192105Y-79564592D01*
X112147400Y-79743893D01*
X112144500Y-79786434D01*
X112144500Y-80233566D01*
X112147400Y-80276107D01*
X112192105Y-80455408D01*
X112196892Y-80465051D01*
X112196894Y-80465057D01*
X112242296Y-80556518D01*
X112263035Y-80642618D01*
X112242296Y-80733482D01*
X112196894Y-80824943D01*
X112196892Y-80824949D01*
X112192105Y-80834592D01*
X112147400Y-81013893D01*
X112144500Y-81056434D01*
X112144500Y-81503566D01*
X112147400Y-81546107D01*
X112192105Y-81725408D01*
X112274269Y-81890926D01*
X112281018Y-81899321D01*
X112281020Y-81899323D01*
X112339878Y-81972527D01*
X112390060Y-82034940D01*
X112398454Y-82041689D01*
X112525677Y-82143980D01*
X112525679Y-82143982D01*
X112534074Y-82150731D01*
X112543722Y-82155520D01*
X112543723Y-82155521D01*
X112603114Y-82185003D01*
X112699592Y-82232895D01*
X112878893Y-82277600D01*
X112902904Y-82279237D01*
X112918041Y-82280269D01*
X112918050Y-82280269D01*
X112921434Y-82280500D01*
X114818566Y-82280500D01*
X114821950Y-82280269D01*
X114821959Y-82280269D01*
X114837096Y-82279237D01*
X114861107Y-82277600D01*
X115040408Y-82232895D01*
X115050050Y-82228109D01*
X115050060Y-82228105D01*
X115204874Y-82151254D01*
X115293357Y-82130500D01*
X115436509Y-82130500D01*
X115522852Y-82150207D01*
X115547068Y-82164038D01*
X115677637Y-82251282D01*
X115713207Y-82266564D01*
X115855094Y-82327524D01*
X115855100Y-82327526D01*
X115863470Y-82331122D01*
X115872359Y-82333133D01*
X115872364Y-82333135D01*
X116012454Y-82364834D01*
X116060740Y-82375760D01*
X116069850Y-82376118D01*
X116069851Y-82376118D01*
X116123603Y-82378230D01*
X116262842Y-82383700D01*
X116271863Y-82382392D01*
X116271864Y-82382392D01*
X116331488Y-82373747D01*
X116463007Y-82354678D01*
X116471640Y-82351747D01*
X116471642Y-82351747D01*
X116619392Y-82301592D01*
X116654531Y-82289664D01*
X116664149Y-82284278D01*
X116714934Y-82255837D01*
X116831001Y-82190837D01*
X116838835Y-82184322D01*
X116979494Y-82067336D01*
X116986505Y-82061505D01*
X117074850Y-81955282D01*
X117110003Y-81913016D01*
X117110005Y-81913014D01*
X117115837Y-81906001D01*
X117137217Y-81867824D01*
X117196598Y-81802121D01*
X117278608Y-81768688D01*
X117367003Y-81774149D01*
X117444275Y-81817422D01*
X117451557Y-81824346D01*
X118232061Y-82604850D01*
X118279180Y-82679838D01*
X118287817Y-82714113D01*
X118288392Y-82722894D01*
X118290637Y-82731736D01*
X118290638Y-82731739D01*
X118333329Y-82899835D01*
X118338178Y-82918928D01*
X118341996Y-82927209D01*
X118341996Y-82927210D01*
X118360018Y-82966303D01*
X118422856Y-83102607D01*
X118428120Y-83110055D01*
X118428122Y-83110059D01*
X118432321Y-83116000D01*
X118539588Y-83267780D01*
X118684466Y-83408913D01*
X118692048Y-83413979D01*
X118692049Y-83413980D01*
X118720066Y-83432700D01*
X118852637Y-83521282D01*
X118861019Y-83524883D01*
X119030094Y-83597524D01*
X119030100Y-83597526D01*
X119038470Y-83601122D01*
X119047359Y-83603133D01*
X119047364Y-83603135D01*
X119218030Y-83641752D01*
X119235740Y-83645760D01*
X119244850Y-83646118D01*
X119244851Y-83646118D01*
X119298603Y-83648230D01*
X119437842Y-83653700D01*
X119446863Y-83652392D01*
X119446864Y-83652392D01*
X119506488Y-83643747D01*
X119638007Y-83624678D01*
X119646640Y-83621747D01*
X119646642Y-83621747D01*
X119763069Y-83582225D01*
X119829531Y-83559664D01*
X120006001Y-83460837D01*
X120050382Y-83423926D01*
X120154494Y-83337336D01*
X120161505Y-83331505D01*
X120187621Y-83300104D01*
X120285003Y-83183016D01*
X120285005Y-83183014D01*
X120290837Y-83176001D01*
X120389664Y-82999531D01*
X120432796Y-82872468D01*
X120451747Y-82816642D01*
X120451747Y-82816640D01*
X120454678Y-82808007D01*
X120479496Y-82636840D01*
X120482860Y-82613636D01*
X120482860Y-82613635D01*
X120483700Y-82607842D01*
X120485215Y-82550000D01*
X120483294Y-82529098D01*
X120467543Y-82357676D01*
X120467543Y-82357674D01*
X120466708Y-82348591D01*
X120411807Y-82153926D01*
X120369106Y-82067336D01*
X120326387Y-81980711D01*
X120326386Y-81980710D01*
X120322351Y-81972527D01*
X120310972Y-81957288D01*
X120206795Y-81817779D01*
X120201335Y-81810467D01*
X120052812Y-81673174D01*
X119881757Y-81565246D01*
X119873280Y-81561864D01*
X119873278Y-81561863D01*
X119811822Y-81537345D01*
X119693898Y-81490298D01*
X119539879Y-81459661D01*
X119459041Y-81423489D01*
X119437989Y-81405200D01*
X118701477Y-80668688D01*
X117963002Y-79930214D01*
X117915883Y-79855226D01*
X117905967Y-79767219D01*
X117935218Y-79683626D01*
X117997842Y-79621002D01*
X118081435Y-79591751D01*
X118103716Y-79590500D01*
X149425283Y-79590500D01*
X149511626Y-79610207D01*
X149565997Y-79648786D01*
X152761214Y-82844002D01*
X152808333Y-82918990D01*
X152819500Y-82984716D01*
X152819500Y-85059056D01*
X152799793Y-85145399D01*
X152744574Y-85214640D01*
X152664782Y-85253067D01*
X152644350Y-85254471D01*
X152644549Y-85255911D01*
X152603063Y-85261637D01*
X152601233Y-85264717D01*
X152600000Y-85272563D01*
X152600000Y-87709154D01*
X152604330Y-87728125D01*
X152621463Y-87736376D01*
X152690703Y-87791595D01*
X152729128Y-87871388D01*
X152729127Y-87959952D01*
X152690700Y-88039744D01*
X152675838Y-88056373D01*
X152320466Y-88411746D01*
X151829814Y-88902398D01*
X151817546Y-88913680D01*
X151780460Y-88945020D01*
X151732095Y-89008279D01*
X151729171Y-89012009D01*
X151679269Y-89074073D01*
X151674599Y-89083480D01*
X151668223Y-89091820D01*
X151663669Y-89101585D01*
X151663669Y-89101586D01*
X151634600Y-89163926D01*
X151632490Y-89168309D01*
X151601899Y-89229933D01*
X151601895Y-89229943D01*
X151597105Y-89239593D01*
X151594565Y-89249779D01*
X151590127Y-89259297D01*
X151587778Y-89269807D01*
X151572773Y-89336937D01*
X151571654Y-89341670D01*
X151556841Y-89401081D01*
X151552400Y-89418894D01*
X151552156Y-89427646D01*
X151551597Y-89431676D01*
X151549817Y-89439637D01*
X151549500Y-89445307D01*
X151549500Y-89519965D01*
X151549422Y-89525521D01*
X151547241Y-89603611D01*
X151549006Y-89612863D01*
X151549500Y-89625164D01*
X151549500Y-89941314D01*
X151529793Y-90027657D01*
X151479741Y-90092634D01*
X151300241Y-90245941D01*
X151295166Y-90251883D01*
X151176662Y-90390634D01*
X151141741Y-90431521D01*
X151110952Y-90481764D01*
X151049037Y-90545083D01*
X150965778Y-90575270D01*
X150877665Y-90566342D01*
X150800565Y-90518498D01*
X150672701Y-90390634D01*
X150659434Y-90379502D01*
X150494509Y-90264019D01*
X150479508Y-90255359D01*
X150297037Y-90170271D01*
X150280761Y-90164347D01*
X150086279Y-90112236D01*
X150078633Y-90110888D01*
X150063063Y-90113037D01*
X150061233Y-90116117D01*
X150060000Y-90123963D01*
X150060000Y-92560554D01*
X150064330Y-92579524D01*
X150067560Y-92581080D01*
X150073212Y-92581468D01*
X150086279Y-92579164D01*
X150280761Y-92527053D01*
X150297037Y-92521129D01*
X150479508Y-92436041D01*
X150494509Y-92427381D01*
X150659434Y-92311898D01*
X150672701Y-92300766D01*
X150800565Y-92172902D01*
X150875553Y-92125783D01*
X150963560Y-92115867D01*
X151047153Y-92145118D01*
X151110952Y-92209636D01*
X151141741Y-92259879D01*
X151146817Y-92265822D01*
X151146819Y-92265825D01*
X151224573Y-92356863D01*
X151300241Y-92445459D01*
X151306182Y-92450533D01*
X151306183Y-92450534D01*
X151479740Y-92598765D01*
X151485821Y-92603959D01*
X151693911Y-92731477D01*
X151919388Y-92824872D01*
X152156698Y-92881846D01*
X152400000Y-92900994D01*
X152643302Y-92881846D01*
X152880612Y-92824872D01*
X153106089Y-92731477D01*
X153314179Y-92603959D01*
X153320261Y-92598765D01*
X153493817Y-92450534D01*
X153493818Y-92450533D01*
X153499759Y-92445459D01*
X153504834Y-92439517D01*
X153504838Y-92439513D01*
X153518678Y-92423308D01*
X153589738Y-92370450D01*
X153676695Y-92353659D01*
X153762326Y-92376259D01*
X153821322Y-92423308D01*
X153835162Y-92439513D01*
X153835166Y-92439517D01*
X153840241Y-92445459D01*
X153846182Y-92450533D01*
X153846183Y-92450534D01*
X154019740Y-92598765D01*
X154025821Y-92603959D01*
X154233911Y-92731477D01*
X154459388Y-92824872D01*
X154696698Y-92881846D01*
X154940000Y-92900994D01*
X155183302Y-92881846D01*
X155420612Y-92824872D01*
X155646089Y-92731477D01*
X155854179Y-92603959D01*
X155860261Y-92598765D01*
X156033817Y-92450534D01*
X156033818Y-92450533D01*
X156039759Y-92445459D01*
X156044834Y-92439517D01*
X156044838Y-92439513D01*
X156058678Y-92423308D01*
X156129738Y-92370450D01*
X156216695Y-92353659D01*
X156302326Y-92376259D01*
X156361322Y-92423308D01*
X156375162Y-92439513D01*
X156375166Y-92439517D01*
X156380241Y-92445459D01*
X156386182Y-92450533D01*
X156386183Y-92450534D01*
X156559740Y-92598765D01*
X156565821Y-92603959D01*
X156773911Y-92731477D01*
X156999388Y-92824872D01*
X157236698Y-92881846D01*
X157480000Y-92900994D01*
X157723302Y-92881846D01*
X157960612Y-92824872D01*
X158186089Y-92731477D01*
X158394179Y-92603959D01*
X158400261Y-92598765D01*
X158573817Y-92450534D01*
X158573818Y-92450533D01*
X158579759Y-92445459D01*
X158584834Y-92439517D01*
X158584838Y-92439513D01*
X158598678Y-92423308D01*
X158669738Y-92370450D01*
X158756695Y-92353659D01*
X158842326Y-92376259D01*
X158901322Y-92423308D01*
X158915162Y-92439513D01*
X158915166Y-92439517D01*
X158920241Y-92445459D01*
X158926182Y-92450533D01*
X158926183Y-92450534D01*
X159099740Y-92598765D01*
X159105821Y-92603959D01*
X159313911Y-92731477D01*
X159539388Y-92824872D01*
X159776698Y-92881846D01*
X160020000Y-92900994D01*
X160263302Y-92881846D01*
X160500612Y-92824872D01*
X160726089Y-92731477D01*
X160934179Y-92603959D01*
X160940261Y-92598765D01*
X161113817Y-92450534D01*
X161113818Y-92450533D01*
X161119759Y-92445459D01*
X161124834Y-92439517D01*
X161124838Y-92439513D01*
X161138678Y-92423308D01*
X161209738Y-92370450D01*
X161296695Y-92353659D01*
X161382326Y-92376259D01*
X161441322Y-92423308D01*
X161455162Y-92439513D01*
X161455166Y-92439517D01*
X161460241Y-92445459D01*
X161466182Y-92450533D01*
X161466183Y-92450534D01*
X161639740Y-92598765D01*
X161645821Y-92603959D01*
X161853911Y-92731477D01*
X162079388Y-92824872D01*
X162316698Y-92881846D01*
X162560000Y-92900994D01*
X162803302Y-92881846D01*
X163040612Y-92824872D01*
X163266089Y-92731477D01*
X163474179Y-92603959D01*
X163480261Y-92598765D01*
X163653817Y-92450534D01*
X163653818Y-92450533D01*
X163659759Y-92445459D01*
X163664834Y-92439517D01*
X163664838Y-92439513D01*
X163678678Y-92423308D01*
X163749738Y-92370450D01*
X163836695Y-92353659D01*
X163922326Y-92376259D01*
X163981322Y-92423308D01*
X163995162Y-92439513D01*
X163995166Y-92439517D01*
X164000241Y-92445459D01*
X164006182Y-92450533D01*
X164006183Y-92450534D01*
X164179740Y-92598765D01*
X164185821Y-92603959D01*
X164393911Y-92731477D01*
X164619388Y-92824872D01*
X164856698Y-92881846D01*
X165100000Y-92900994D01*
X165343302Y-92881846D01*
X165580612Y-92824872D01*
X165806089Y-92731477D01*
X166014179Y-92603959D01*
X166020261Y-92598765D01*
X166193817Y-92450534D01*
X166193818Y-92450533D01*
X166199759Y-92445459D01*
X166204834Y-92439517D01*
X166204838Y-92439513D01*
X166218678Y-92423308D01*
X166289738Y-92370450D01*
X166376695Y-92353659D01*
X166462326Y-92376259D01*
X166521322Y-92423308D01*
X166535162Y-92439513D01*
X166535166Y-92439517D01*
X166540241Y-92445459D01*
X166546182Y-92450533D01*
X166546183Y-92450534D01*
X166719740Y-92598765D01*
X166725821Y-92603959D01*
X166933911Y-92731477D01*
X167159388Y-92824872D01*
X167396698Y-92881846D01*
X167640000Y-92900994D01*
X167883302Y-92881846D01*
X168120612Y-92824872D01*
X168346089Y-92731477D01*
X168554179Y-92603959D01*
X168560261Y-92598765D01*
X168733817Y-92450534D01*
X168733818Y-92450533D01*
X168739759Y-92445459D01*
X168744834Y-92439517D01*
X168744838Y-92439513D01*
X168758678Y-92423308D01*
X168829738Y-92370450D01*
X168916695Y-92353659D01*
X169002326Y-92376259D01*
X169061322Y-92423308D01*
X169075162Y-92439513D01*
X169075166Y-92439517D01*
X169080241Y-92445459D01*
X169086182Y-92450533D01*
X169086183Y-92450534D01*
X169259740Y-92598765D01*
X169265821Y-92603959D01*
X169473911Y-92731477D01*
X169699388Y-92824872D01*
X169936698Y-92881846D01*
X170180000Y-92900994D01*
X170423302Y-92881846D01*
X170660612Y-92824872D01*
X170886089Y-92731477D01*
X171027012Y-92645119D01*
X171110928Y-92616808D01*
X171198818Y-92627710D01*
X171273273Y-92675667D01*
X171319547Y-92751180D01*
X171328475Y-92839292D01*
X171298289Y-92922552D01*
X171271703Y-92955508D01*
X167980998Y-96246214D01*
X167906010Y-96293333D01*
X167840284Y-96304500D01*
X144138717Y-96304500D01*
X144052374Y-96284793D01*
X143983133Y-96229574D01*
X143944706Y-96149782D01*
X143944706Y-96061218D01*
X143983133Y-95981426D01*
X143998003Y-95964786D01*
X146620186Y-93342602D01*
X146632454Y-93331320D01*
X146661312Y-93306933D01*
X146669540Y-93299980D01*
X146717905Y-93236721D01*
X146720829Y-93232991D01*
X146770731Y-93170927D01*
X146775401Y-93161520D01*
X146781777Y-93153180D01*
X146815407Y-93081060D01*
X146817510Y-93076691D01*
X146848101Y-93015067D01*
X146848105Y-93015057D01*
X146852895Y-93005407D01*
X146853247Y-93003997D01*
X146899087Y-92933563D01*
X146974817Y-92887646D01*
X147068675Y-92879954D01*
X147069094Y-92880020D01*
X147076698Y-92881846D01*
X147320000Y-92900994D01*
X147563302Y-92881846D01*
X147800612Y-92824872D01*
X148026089Y-92731477D01*
X148234179Y-92603959D01*
X148240261Y-92598765D01*
X148413817Y-92450534D01*
X148413818Y-92450533D01*
X148419759Y-92445459D01*
X148495427Y-92356863D01*
X148573181Y-92265825D01*
X148573183Y-92265822D01*
X148578259Y-92259879D01*
X148609048Y-92209636D01*
X148670963Y-92146317D01*
X148754222Y-92116130D01*
X148842335Y-92125058D01*
X148919435Y-92172902D01*
X149047299Y-92300766D01*
X149060566Y-92311898D01*
X149225491Y-92427381D01*
X149240492Y-92436041D01*
X149422963Y-92521129D01*
X149439239Y-92527053D01*
X149633721Y-92579164D01*
X149641367Y-92580512D01*
X149656937Y-92578363D01*
X149658767Y-92575283D01*
X149660000Y-92567437D01*
X149660000Y-90130846D01*
X149655670Y-90111876D01*
X149652440Y-90110320D01*
X149646788Y-90109932D01*
X149633721Y-90112236D01*
X149439239Y-90164347D01*
X149422964Y-90170271D01*
X149240493Y-90255359D01*
X149225492Y-90264019D01*
X149060566Y-90379502D01*
X149047299Y-90390634D01*
X148919435Y-90518498D01*
X148844447Y-90565617D01*
X148756440Y-90575533D01*
X148672847Y-90546282D01*
X148609048Y-90481764D01*
X148578259Y-90431521D01*
X148543339Y-90390634D01*
X148424834Y-90251883D01*
X148419759Y-90245941D01*
X148370328Y-90203723D01*
X148240125Y-90092519D01*
X148240122Y-90092517D01*
X148234179Y-90087441D01*
X148026089Y-89959923D01*
X147800612Y-89866528D01*
X147563302Y-89809554D01*
X147451254Y-89800736D01*
X147366725Y-89774315D01*
X147302029Y-89713834D01*
X147269981Y-89631273D01*
X147276930Y-89542982D01*
X147326154Y-89461635D01*
X147890198Y-88897591D01*
X147902466Y-88886310D01*
X147931304Y-88861940D01*
X147939540Y-88854980D01*
X147987887Y-88791745D01*
X147990837Y-88787981D01*
X148040730Y-88725927D01*
X148045398Y-88716523D01*
X148051777Y-88708180D01*
X148056395Y-88698278D01*
X148085399Y-88636077D01*
X148087508Y-88631695D01*
X148118101Y-88570067D01*
X148118105Y-88570057D01*
X148122895Y-88560407D01*
X148125435Y-88550221D01*
X148129873Y-88540703D01*
X148147227Y-88463063D01*
X148148346Y-88458330D01*
X148164993Y-88391563D01*
X148164993Y-88391560D01*
X148167600Y-88381106D01*
X148167844Y-88372354D01*
X148168403Y-88368324D01*
X148170183Y-88360363D01*
X148170500Y-88354693D01*
X148170500Y-88280035D01*
X148170578Y-88274479D01*
X148170830Y-88265473D01*
X148172759Y-88196389D01*
X148170994Y-88187137D01*
X148170500Y-88174836D01*
X148170500Y-87898686D01*
X148190207Y-87812343D01*
X148240260Y-87747365D01*
X148257382Y-87732742D01*
X148419759Y-87594059D01*
X148438678Y-87571908D01*
X148573181Y-87414425D01*
X148573183Y-87414422D01*
X148578259Y-87408479D01*
X148609048Y-87358236D01*
X148670963Y-87294917D01*
X148754222Y-87264730D01*
X148842335Y-87273658D01*
X148919435Y-87321502D01*
X149047299Y-87449366D01*
X149060566Y-87460498D01*
X149225491Y-87575981D01*
X149240492Y-87584641D01*
X149422963Y-87669729D01*
X149439239Y-87675653D01*
X149633721Y-87727764D01*
X149641367Y-87729112D01*
X149656937Y-87726963D01*
X149658767Y-87723883D01*
X149660000Y-87716037D01*
X149660000Y-87709154D01*
X150060000Y-87709154D01*
X150064330Y-87728124D01*
X150067560Y-87729680D01*
X150073212Y-87730068D01*
X150086279Y-87727764D01*
X150280761Y-87675653D01*
X150297037Y-87669729D01*
X150479508Y-87584641D01*
X150494509Y-87575981D01*
X150659434Y-87460498D01*
X150672701Y-87449366D01*
X150815066Y-87307001D01*
X150826198Y-87293734D01*
X150941681Y-87128808D01*
X150954682Y-87106289D01*
X150956039Y-87107073D01*
X151003999Y-87045374D01*
X151083307Y-87005957D01*
X151171864Y-87004855D01*
X151252128Y-87042285D01*
X151303847Y-87107138D01*
X151305318Y-87106289D01*
X151318319Y-87128808D01*
X151433802Y-87293734D01*
X151444934Y-87307001D01*
X151587299Y-87449366D01*
X151600566Y-87460498D01*
X151765491Y-87575981D01*
X151780492Y-87584641D01*
X151962963Y-87669729D01*
X151979239Y-87675653D01*
X152173721Y-87727764D01*
X152181367Y-87729112D01*
X152196937Y-87726963D01*
X152198767Y-87723883D01*
X152200000Y-87716037D01*
X152200000Y-86716723D01*
X152195670Y-86697753D01*
X152188500Y-86694300D01*
X151185144Y-86694300D01*
X151180320Y-86695401D01*
X151105154Y-86697979D01*
X151081737Y-86694300D01*
X150082423Y-86694300D01*
X150063453Y-86698630D01*
X150060000Y-86705800D01*
X150060000Y-87709154D01*
X149660000Y-87709154D01*
X149660000Y-86271877D01*
X150060000Y-86271877D01*
X150064330Y-86290847D01*
X150071500Y-86294300D01*
X151074856Y-86294300D01*
X151079680Y-86293199D01*
X151154846Y-86290621D01*
X151178263Y-86294300D01*
X152177577Y-86294300D01*
X152196547Y-86289970D01*
X152200000Y-86282800D01*
X152200000Y-85279446D01*
X152195670Y-85260476D01*
X152192440Y-85258920D01*
X152186788Y-85258532D01*
X152173721Y-85260836D01*
X151979239Y-85312947D01*
X151962964Y-85318871D01*
X151780493Y-85403959D01*
X151765492Y-85412619D01*
X151600566Y-85528102D01*
X151587299Y-85539234D01*
X151444934Y-85681599D01*
X151433802Y-85694866D01*
X151318319Y-85859792D01*
X151305318Y-85882311D01*
X151303961Y-85881527D01*
X151256001Y-85943226D01*
X151176693Y-85982643D01*
X151088136Y-85983745D01*
X151007872Y-85946315D01*
X150956153Y-85881462D01*
X150954682Y-85882311D01*
X150941681Y-85859792D01*
X150826198Y-85694866D01*
X150815066Y-85681599D01*
X150672701Y-85539234D01*
X150659434Y-85528102D01*
X150494509Y-85412619D01*
X150479508Y-85403959D01*
X150297037Y-85318871D01*
X150280761Y-85312947D01*
X150086279Y-85260836D01*
X150078633Y-85259488D01*
X150063063Y-85261637D01*
X150061233Y-85264717D01*
X150060000Y-85272563D01*
X150060000Y-86271877D01*
X149660000Y-86271877D01*
X149660000Y-85279446D01*
X149655670Y-85260476D01*
X149652440Y-85258920D01*
X149646788Y-85258532D01*
X149633721Y-85260836D01*
X149439239Y-85312947D01*
X149422964Y-85318871D01*
X149240493Y-85403959D01*
X149225492Y-85412619D01*
X149060566Y-85528102D01*
X149047299Y-85539234D01*
X148919435Y-85667098D01*
X148844447Y-85714217D01*
X148756440Y-85724133D01*
X148672847Y-85694882D01*
X148609048Y-85630364D01*
X148578259Y-85580121D01*
X148543339Y-85539234D01*
X148424834Y-85400483D01*
X148419759Y-85394541D01*
X148368688Y-85350922D01*
X148240125Y-85241119D01*
X148240122Y-85241117D01*
X148234179Y-85236041D01*
X148026089Y-85108523D01*
X147800612Y-85015128D01*
X147563302Y-84958154D01*
X147320000Y-84939006D01*
X147076698Y-84958154D01*
X146839388Y-85015128D01*
X146613911Y-85108523D01*
X146405821Y-85236041D01*
X146399878Y-85241117D01*
X146399875Y-85241119D01*
X146271312Y-85350922D01*
X146220241Y-85394541D01*
X146215166Y-85400483D01*
X146215162Y-85400487D01*
X146201322Y-85416692D01*
X146130262Y-85469550D01*
X146043305Y-85486341D01*
X145957674Y-85463741D01*
X145898678Y-85416692D01*
X145884838Y-85400487D01*
X145884834Y-85400483D01*
X145879759Y-85394541D01*
X145828688Y-85350922D01*
X145700125Y-85241119D01*
X145700122Y-85241117D01*
X145694179Y-85236041D01*
X145486089Y-85108523D01*
X145260612Y-85015128D01*
X145023302Y-84958154D01*
X144780000Y-84939006D01*
X144536698Y-84958154D01*
X144299388Y-85015128D01*
X144073911Y-85108523D01*
X143865821Y-85236041D01*
X143859878Y-85241117D01*
X143859875Y-85241119D01*
X143731312Y-85350922D01*
X143680241Y-85394541D01*
X143675166Y-85400483D01*
X143675162Y-85400487D01*
X143661322Y-85416692D01*
X143590262Y-85469550D01*
X143503305Y-85486341D01*
X143417674Y-85463741D01*
X143358678Y-85416692D01*
X143344838Y-85400487D01*
X143344834Y-85400483D01*
X143339759Y-85394541D01*
X143288688Y-85350922D01*
X143160125Y-85241119D01*
X143160122Y-85241117D01*
X143154179Y-85236041D01*
X142946089Y-85108523D01*
X142720612Y-85015128D01*
X142483302Y-84958154D01*
X142240000Y-84939006D01*
X141996698Y-84958154D01*
X141759388Y-85015128D01*
X141533911Y-85108523D01*
X141325821Y-85236041D01*
X141319878Y-85241117D01*
X141319875Y-85241119D01*
X141191312Y-85350922D01*
X141140241Y-85394541D01*
X141135166Y-85400483D01*
X141135162Y-85400487D01*
X141121322Y-85416692D01*
X141050262Y-85469550D01*
X140963305Y-85486341D01*
X140877674Y-85463741D01*
X140818678Y-85416692D01*
X140804838Y-85400487D01*
X140804834Y-85400483D01*
X140799759Y-85394541D01*
X140748688Y-85350922D01*
X140620125Y-85241119D01*
X140620122Y-85241117D01*
X140614179Y-85236041D01*
X140406089Y-85108523D01*
X140180612Y-85015128D01*
X139943302Y-84958154D01*
X139700000Y-84939006D01*
X139456698Y-84958154D01*
X139219388Y-85015128D01*
X138993911Y-85108523D01*
X138785821Y-85236041D01*
X138779878Y-85241117D01*
X138779875Y-85241119D01*
X138651312Y-85350922D01*
X138600241Y-85394541D01*
X138595166Y-85400483D01*
X138476662Y-85539234D01*
X138441741Y-85580121D01*
X138314223Y-85788211D01*
X138220828Y-86013688D01*
X138163854Y-86250998D01*
X138144706Y-86494300D01*
X138163854Y-86737602D01*
X138220828Y-86974912D01*
X138314223Y-87200389D01*
X138441741Y-87408479D01*
X138446817Y-87414422D01*
X138446819Y-87414425D01*
X138581322Y-87571908D01*
X138600241Y-87594059D01*
X138606182Y-87599133D01*
X138606183Y-87599134D01*
X138779740Y-87747365D01*
X138785821Y-87752559D01*
X138993911Y-87880077D01*
X139219388Y-87973472D01*
X139456698Y-88030446D01*
X139700000Y-88049594D01*
X139943302Y-88030446D01*
X140180612Y-87973472D01*
X140406089Y-87880077D01*
X140614179Y-87752559D01*
X140620261Y-87747365D01*
X140793817Y-87599134D01*
X140793818Y-87599133D01*
X140799759Y-87594059D01*
X140804834Y-87588117D01*
X140804838Y-87588113D01*
X140818678Y-87571908D01*
X140889738Y-87519050D01*
X140976695Y-87502259D01*
X141062326Y-87524859D01*
X141121322Y-87571908D01*
X141135162Y-87588113D01*
X141135166Y-87588117D01*
X141140241Y-87594059D01*
X141282849Y-87715857D01*
X141335704Y-87786915D01*
X141352494Y-87873872D01*
X141329893Y-87959503D01*
X141294321Y-88007890D01*
X140399814Y-88902398D01*
X140387546Y-88913680D01*
X140350460Y-88945020D01*
X140302095Y-89008279D01*
X140299171Y-89012009D01*
X140249269Y-89074073D01*
X140244599Y-89083480D01*
X140238223Y-89091820D01*
X140233669Y-89101585D01*
X140233669Y-89101586D01*
X140204600Y-89163926D01*
X140202490Y-89168309D01*
X140171899Y-89229933D01*
X140171895Y-89229943D01*
X140167105Y-89239593D01*
X140164565Y-89249779D01*
X140160127Y-89259297D01*
X140157778Y-89269807D01*
X140142773Y-89336937D01*
X140141654Y-89341670D01*
X140126841Y-89401081D01*
X140122400Y-89418894D01*
X140122156Y-89427646D01*
X140121597Y-89431676D01*
X140119817Y-89439637D01*
X140119500Y-89445307D01*
X140119500Y-89519965D01*
X140119422Y-89525521D01*
X140117241Y-89603611D01*
X140115813Y-89603571D01*
X140104762Y-89679720D01*
X140055275Y-89753167D01*
X139978821Y-89797869D01*
X139903509Y-89806422D01*
X139707789Y-89791019D01*
X139700000Y-89790406D01*
X139456698Y-89809554D01*
X139219388Y-89866528D01*
X138993911Y-89959923D01*
X138785821Y-90087441D01*
X138779878Y-90092517D01*
X138779875Y-90092519D01*
X138649672Y-90203723D01*
X138600241Y-90245941D01*
X138595166Y-90251883D01*
X138476662Y-90390634D01*
X138441741Y-90431521D01*
X138314223Y-90639611D01*
X138220828Y-90865088D01*
X138163854Y-91102398D01*
X138144706Y-91345700D01*
X138163854Y-91589002D01*
X138220828Y-91826312D01*
X138314223Y-92051789D01*
X138318312Y-92058461D01*
X138399852Y-92191523D01*
X138428163Y-92275439D01*
X138417260Y-92363329D01*
X138369304Y-92437784D01*
X138293791Y-92484058D01*
X138230177Y-92494500D01*
X115794500Y-92494500D01*
X115708157Y-92474793D01*
X115638916Y-92419574D01*
X115600489Y-92339782D01*
X115595500Y-92295500D01*
X115595500Y-91851434D01*
X115592600Y-91808893D01*
X115547895Y-91629592D01*
X115543107Y-91619947D01*
X115543106Y-91619943D01*
X115497704Y-91528482D01*
X115476965Y-91442382D01*
X115497704Y-91351518D01*
X115543106Y-91260057D01*
X115543108Y-91260051D01*
X115547895Y-91250408D01*
X115592600Y-91071107D01*
X115595500Y-91028566D01*
X115595500Y-90581434D01*
X115592600Y-90538893D01*
X115547895Y-90359592D01*
X115465731Y-90194074D01*
X115406622Y-90120557D01*
X115356689Y-90058454D01*
X115349940Y-90050060D01*
X115323356Y-90028686D01*
X115214323Y-89941020D01*
X115214321Y-89941018D01*
X115205926Y-89934269D01*
X115040408Y-89852105D01*
X114861107Y-89807400D01*
X114837096Y-89805763D01*
X114821959Y-89804731D01*
X114821950Y-89804731D01*
X114818566Y-89804500D01*
X112921434Y-89804500D01*
X112918050Y-89804731D01*
X112918041Y-89804731D01*
X112902904Y-89805763D01*
X112878893Y-89807400D01*
X112699592Y-89852105D01*
X112534074Y-89934269D01*
X112525679Y-89941018D01*
X112525677Y-89941020D01*
X112416644Y-90028686D01*
X112390060Y-90050060D01*
X112383311Y-90058454D01*
X112333379Y-90120557D01*
X112274269Y-90194074D01*
X112192105Y-90359592D01*
X112147400Y-90538893D01*
X112144500Y-90581434D01*
X112144500Y-91028566D01*
X112147400Y-91071107D01*
X112192105Y-91250408D01*
X112196892Y-91260051D01*
X112196894Y-91260057D01*
X112242296Y-91351518D01*
X112263035Y-91437618D01*
X112242296Y-91528482D01*
X112196894Y-91619943D01*
X112196893Y-91619947D01*
X112192105Y-91629592D01*
X112147400Y-91808893D01*
X112144500Y-91851434D01*
X112144500Y-92298566D01*
X112147400Y-92341107D01*
X112192105Y-92520408D01*
X112196892Y-92530051D01*
X112196894Y-92530057D01*
X112242296Y-92621518D01*
X112263035Y-92707618D01*
X112242296Y-92798482D01*
X112196894Y-92889943D01*
X112196892Y-92889949D01*
X112192105Y-92899592D01*
X112147400Y-93078893D01*
X112144500Y-93121434D01*
X112144500Y-93568566D01*
X112147400Y-93611107D01*
X112192105Y-93790408D01*
X112196892Y-93800051D01*
X112196894Y-93800057D01*
X112242296Y-93891518D01*
X112263035Y-93977618D01*
X112242296Y-94068482D01*
X112196894Y-94159943D01*
X112196892Y-94159949D01*
X112192105Y-94169592D01*
X112147400Y-94348893D01*
X112144500Y-94391434D01*
X112144500Y-94838566D01*
X112147400Y-94881107D01*
X112192105Y-95060408D01*
X112196892Y-95070051D01*
X112196894Y-95070057D01*
X112242296Y-95161518D01*
X112263035Y-95247618D01*
X112242296Y-95338482D01*
X112196894Y-95429943D01*
X112196892Y-95429949D01*
X112192105Y-95439592D01*
X112147400Y-95618893D01*
X112146803Y-95627655D01*
X112145294Y-95649793D01*
X112144500Y-95661434D01*
X112144500Y-96108566D01*
X112147400Y-96151107D01*
X112192105Y-96330408D01*
X112196892Y-96340051D01*
X112196894Y-96340057D01*
X112242296Y-96431518D01*
X112263035Y-96517618D01*
X112242296Y-96608482D01*
X112196894Y-96699943D01*
X112196892Y-96699949D01*
X112192105Y-96709592D01*
X112147400Y-96888893D01*
X112144500Y-96931434D01*
X112144500Y-97378566D01*
X112144731Y-97381950D01*
X112144731Y-97381959D01*
X112145604Y-97394758D01*
X112147400Y-97421107D01*
X112192105Y-97600408D01*
X112196892Y-97610051D01*
X112196894Y-97610057D01*
X112242296Y-97701518D01*
X112263035Y-97787618D01*
X112242296Y-97878482D01*
X112196894Y-97969943D01*
X112196892Y-97969949D01*
X112192105Y-97979592D01*
X112147400Y-98158893D01*
X112144500Y-98201434D01*
X112144500Y-98648566D01*
X112147400Y-98691107D01*
X112192105Y-98870408D01*
X112196892Y-98880051D01*
X112196894Y-98880057D01*
X112242296Y-98971518D01*
X112263035Y-99057618D01*
X112242296Y-99148482D01*
X112196894Y-99239943D01*
X112196892Y-99239949D01*
X112192105Y-99249592D01*
X112169851Y-99338847D01*
X112149905Y-99418848D01*
X112147400Y-99428893D01*
X112146803Y-99437655D01*
X112145727Y-99453442D01*
X112144500Y-99471434D01*
X112144500Y-99918566D01*
X112147400Y-99961107D01*
X112192105Y-100140408D01*
X112196892Y-100150051D01*
X112196894Y-100150057D01*
X112242296Y-100241518D01*
X112263035Y-100327618D01*
X112242296Y-100418482D01*
X112196894Y-100509943D01*
X112196892Y-100509949D01*
X112192105Y-100519592D01*
X112147400Y-100698893D01*
X112144500Y-100741434D01*
X112144500Y-101188566D01*
X112147400Y-101231107D01*
X112192105Y-101410408D01*
X112196892Y-101420051D01*
X112196894Y-101420057D01*
X112242296Y-101511518D01*
X112263035Y-101597618D01*
X112242296Y-101688482D01*
X112196894Y-101779943D01*
X112196892Y-101779949D01*
X112192105Y-101789592D01*
X112147400Y-101968893D01*
X112144500Y-102011434D01*
X112144500Y-102458566D01*
X112147400Y-102501107D01*
X112192105Y-102680408D01*
X112196892Y-102690051D01*
X112196894Y-102690057D01*
X112242296Y-102781518D01*
X112263035Y-102867618D01*
X112242296Y-102958482D01*
X112196894Y-103049943D01*
X112196892Y-103049949D01*
X112192105Y-103059592D01*
X112147400Y-103238893D01*
X112144500Y-103281434D01*
X112144500Y-103728566D01*
X112147400Y-103771107D01*
X112192105Y-103950408D01*
X112196892Y-103960051D01*
X112196894Y-103960057D01*
X112242296Y-104051518D01*
X112263035Y-104137618D01*
X112242296Y-104228482D01*
X112196894Y-104319943D01*
X112196892Y-104319949D01*
X112192105Y-104329592D01*
X112147400Y-104508893D01*
X112146803Y-104517655D01*
X112145727Y-104533442D01*
X112144500Y-104551434D01*
X112144500Y-104998566D01*
X112147400Y-105041107D01*
X112149523Y-105049620D01*
X112150744Y-105057377D01*
X112144707Y-105145734D01*
X112100931Y-105222722D01*
X112040436Y-105266941D01*
X112036152Y-105268383D01*
X112027152Y-105273791D01*
X112017285Y-105277382D01*
X112008189Y-105283155D01*
X112008188Y-105283155D01*
X111950085Y-105320028D01*
X111945985Y-105322561D01*
X111877756Y-105363557D01*
X111871391Y-105369577D01*
X111868159Y-105372021D01*
X111861261Y-105376398D01*
X111857028Y-105380183D01*
X111804247Y-105432964D01*
X111800264Y-105436838D01*
X111743493Y-105490524D01*
X111738201Y-105498311D01*
X111729851Y-105507360D01*
X110339453Y-106897759D01*
X108997067Y-108240145D01*
X108922079Y-108287264D01*
X108856353Y-108298431D01*
X106744786Y-108298431D01*
X106658443Y-108278724D01*
X106589202Y-108223505D01*
X106550775Y-108143713D01*
X106550775Y-108055149D01*
X106589202Y-107975357D01*
X106604072Y-107958717D01*
X106635753Y-107927036D01*
X106639736Y-107923162D01*
X106647021Y-107916273D01*
X106696507Y-107869476D01*
X106701799Y-107861689D01*
X106710149Y-107852640D01*
X109155198Y-105407591D01*
X109167466Y-105396310D01*
X109196304Y-105371940D01*
X109204540Y-105364980D01*
X109252887Y-105301745D01*
X109255837Y-105297981D01*
X109305730Y-105235927D01*
X109310398Y-105226523D01*
X109316777Y-105218180D01*
X109338870Y-105170802D01*
X109350403Y-105146070D01*
X109352511Y-105141690D01*
X109383103Y-105080062D01*
X109383104Y-105080060D01*
X109387895Y-105070408D01*
X109390435Y-105060220D01*
X109394873Y-105050703D01*
X109412239Y-104973011D01*
X109413343Y-104968339D01*
X109432599Y-104891107D01*
X109432843Y-104882355D01*
X109433402Y-104878333D01*
X109435183Y-104870363D01*
X109435500Y-104864693D01*
X109435500Y-104790000D01*
X109435578Y-104784444D01*
X109437457Y-104717165D01*
X109437758Y-104706389D01*
X109435994Y-104697140D01*
X109435500Y-104684849D01*
X109435500Y-78784111D01*
X109436198Y-78767459D01*
X109439357Y-78729841D01*
X109439357Y-78729840D01*
X109440259Y-78719098D01*
X109429729Y-78640177D01*
X109429153Y-78635413D01*
X109421722Y-78567008D01*
X109420558Y-78556291D01*
X109417209Y-78546339D01*
X109415820Y-78535931D01*
X109412135Y-78525805D01*
X109412132Y-78525795D01*
X109388593Y-78461124D01*
X109386985Y-78456533D01*
X109384786Y-78449997D01*
X109361617Y-78381152D01*
X109356210Y-78372154D01*
X109352618Y-78362284D01*
X109309979Y-78295097D01*
X109307430Y-78290970D01*
X109271996Y-78231998D01*
X109266443Y-78222756D01*
X109260428Y-78216395D01*
X109257977Y-78213155D01*
X109253602Y-78206261D01*
X109249817Y-78202028D01*
X109197036Y-78149247D01*
X109193162Y-78145264D01*
X109177852Y-78129074D01*
X109139476Y-78088493D01*
X109131689Y-78083201D01*
X109122640Y-78074851D01*
X107971271Y-76923482D01*
X106753502Y-75705714D01*
X106706383Y-75630726D01*
X106696467Y-75542719D01*
X106725718Y-75459126D01*
X106753498Y-75424290D01*
X107250186Y-74927602D01*
X107262454Y-74916320D01*
X107291312Y-74891933D01*
X107299540Y-74884980D01*
X107347905Y-74821721D01*
X107350829Y-74817991D01*
X107400731Y-74755927D01*
X107405401Y-74746520D01*
X107411777Y-74738180D01*
X107445407Y-74666060D01*
X107447510Y-74661691D01*
X107478101Y-74600067D01*
X107478105Y-74600057D01*
X107482895Y-74590407D01*
X107485435Y-74580221D01*
X107489873Y-74570703D01*
X107507227Y-74493063D01*
X107508346Y-74488330D01*
X107524993Y-74421563D01*
X107524993Y-74421560D01*
X107527600Y-74411106D01*
X107527844Y-74402354D01*
X107528403Y-74398324D01*
X107530183Y-74390363D01*
X107530500Y-74384693D01*
X107530500Y-74310034D01*
X107530578Y-74304478D01*
X107532458Y-74237164D01*
X107532759Y-74226388D01*
X107530994Y-74217136D01*
X107530500Y-74204835D01*
X107530500Y-70897743D01*
X112448573Y-70897743D01*
X112450592Y-70917092D01*
X112452168Y-70918100D01*
X112463080Y-70920000D01*
X113647577Y-70920000D01*
X113666547Y-70915670D01*
X113670000Y-70908500D01*
X113670000Y-70897577D01*
X114070000Y-70897577D01*
X114074330Y-70916547D01*
X114081500Y-70920000D01*
X115271697Y-70920000D01*
X115290667Y-70915670D01*
X115291479Y-70913984D01*
X115292054Y-70902929D01*
X115285682Y-70850265D01*
X115279441Y-70825688D01*
X115233668Y-70710079D01*
X115220469Y-70686656D01*
X115145765Y-70588238D01*
X115126762Y-70569235D01*
X115028344Y-70494531D01*
X115004921Y-70481332D01*
X114889305Y-70435557D01*
X114864743Y-70429319D01*
X114793671Y-70420719D01*
X114781748Y-70420000D01*
X114092423Y-70420000D01*
X114073453Y-70424330D01*
X114070000Y-70431500D01*
X114070000Y-70897577D01*
X113670000Y-70897577D01*
X113670000Y-70442423D01*
X113665670Y-70423453D01*
X113658500Y-70420000D01*
X112958252Y-70420000D01*
X112946329Y-70420719D01*
X112875257Y-70429319D01*
X112850695Y-70435557D01*
X112735079Y-70481332D01*
X112711656Y-70494531D01*
X112613238Y-70569235D01*
X112594235Y-70588238D01*
X112519531Y-70686656D01*
X112506332Y-70710079D01*
X112460559Y-70825688D01*
X112454318Y-70850265D01*
X112448573Y-70897743D01*
X107530500Y-70897743D01*
X107530500Y-70529123D01*
X107531198Y-70512471D01*
X107534358Y-70474842D01*
X107534358Y-70474840D01*
X107535260Y-70464098D01*
X107524736Y-70385222D01*
X107524152Y-70380397D01*
X107516722Y-70312005D01*
X107515558Y-70301291D01*
X107512209Y-70291339D01*
X107510820Y-70280931D01*
X107506660Y-70269500D01*
X107483603Y-70206153D01*
X107481996Y-70201564D01*
X107460055Y-70136368D01*
X107456617Y-70126152D01*
X107451209Y-70117152D01*
X107447618Y-70107285D01*
X107428188Y-70076667D01*
X107404989Y-70040112D01*
X107402434Y-70035975D01*
X107366995Y-69976994D01*
X107366989Y-69976987D01*
X107361443Y-69967756D01*
X107355429Y-69961396D01*
X107352971Y-69958146D01*
X107348602Y-69951262D01*
X107344817Y-69947028D01*
X107292037Y-69894248D01*
X107288163Y-69890265D01*
X107277280Y-69878757D01*
X107234476Y-69833493D01*
X107226689Y-69828201D01*
X107217640Y-69819851D01*
X106042602Y-68644814D01*
X106031320Y-68632546D01*
X106006933Y-68603688D01*
X105999980Y-68595460D01*
X105936721Y-68547095D01*
X105932991Y-68544171D01*
X105870927Y-68494269D01*
X105861520Y-68489599D01*
X105853180Y-68483223D01*
X105781060Y-68449593D01*
X105776691Y-68447490D01*
X105715067Y-68416899D01*
X105715057Y-68416895D01*
X105705407Y-68412105D01*
X105695221Y-68409565D01*
X105685703Y-68405127D01*
X105608063Y-68387773D01*
X105603330Y-68386654D01*
X105536563Y-68370007D01*
X105536560Y-68370007D01*
X105526106Y-68367400D01*
X105517354Y-68367156D01*
X105513324Y-68366597D01*
X105505363Y-68364817D01*
X105499693Y-68364500D01*
X105425035Y-68364500D01*
X105419479Y-68364422D01*
X105397280Y-68363802D01*
X105341389Y-68362241D01*
X105332137Y-68364006D01*
X105319836Y-68364500D01*
X83506623Y-68364500D01*
X83489971Y-68363802D01*
X83452342Y-68360642D01*
X83452340Y-68360642D01*
X83441598Y-68359740D01*
X83386384Y-68367107D01*
X83362722Y-68370264D01*
X83357894Y-68370848D01*
X83278791Y-68379442D01*
X83268839Y-68382791D01*
X83258431Y-68384180D01*
X83248306Y-68387865D01*
X83248303Y-68387866D01*
X83183653Y-68411397D01*
X83179064Y-68413004D01*
X83103652Y-68438383D01*
X83094652Y-68443791D01*
X83084785Y-68447382D01*
X83075689Y-68453155D01*
X83075686Y-68453156D01*
X83017612Y-68490011D01*
X83013475Y-68492566D01*
X82954494Y-68528005D01*
X82954487Y-68528011D01*
X82945256Y-68533557D01*
X82938896Y-68539571D01*
X82935646Y-68542029D01*
X82928762Y-68546398D01*
X82924528Y-68550183D01*
X82871747Y-68602964D01*
X82867764Y-68606838D01*
X82810993Y-68660524D01*
X82805701Y-68668311D01*
X82797351Y-68677360D01*
X82296074Y-69178638D01*
X81813498Y-69661214D01*
X81738510Y-69708333D01*
X81672784Y-69719500D01*
X81240076Y-69719500D01*
X81235665Y-69719894D01*
X81235658Y-69719894D01*
X81180715Y-69724798D01*
X81125813Y-69729698D01*
X80940194Y-69782923D01*
X80931257Y-69787595D01*
X80931255Y-69787596D01*
X80778004Y-69867714D01*
X80778001Y-69867716D01*
X80769070Y-69872385D01*
X80761262Y-69878753D01*
X80754542Y-69883184D01*
X80671610Y-69914260D01*
X80583407Y-69906275D01*
X80535458Y-69883184D01*
X80528738Y-69878753D01*
X80520930Y-69872385D01*
X80511999Y-69867716D01*
X80511996Y-69867714D01*
X80358745Y-69787596D01*
X80358743Y-69787595D01*
X80349806Y-69782923D01*
X80164187Y-69729698D01*
X80109285Y-69724798D01*
X80054342Y-69719894D01*
X80054335Y-69719894D01*
X80049924Y-69719500D01*
X79415076Y-69719500D01*
X79410665Y-69719894D01*
X79410658Y-69719894D01*
X79355715Y-69724798D01*
X79300813Y-69729698D01*
X79115194Y-69782923D01*
X78944070Y-69872385D01*
X78794429Y-69994429D01*
X78672385Y-70144070D01*
X78667712Y-70153008D01*
X78667711Y-70153010D01*
X78662647Y-70162696D01*
X78605180Y-70230083D01*
X78524166Y-70265863D01*
X78486293Y-70269500D01*
X77532472Y-70269500D01*
X77446129Y-70249793D01*
X77384558Y-70199835D01*
X77382905Y-70201339D01*
X77222347Y-70024887D01*
X77222344Y-70024884D01*
X77216846Y-70018842D01*
X77210434Y-70013778D01*
X77029613Y-69870974D01*
X77029607Y-69870970D01*
X77023210Y-69865918D01*
X76867829Y-69780143D01*
X76814345Y-69750618D01*
X76814342Y-69750616D01*
X76807198Y-69746673D01*
X76698930Y-69708333D01*
X76582306Y-69667034D01*
X76582303Y-69667033D01*
X76574610Y-69664309D01*
X76331694Y-69621039D01*
X76323528Y-69620939D01*
X76323525Y-69620939D01*
X76217740Y-69619647D01*
X76084972Y-69618025D01*
X76076903Y-69619260D01*
X76076899Y-69619260D01*
X75963021Y-69636686D01*
X75841070Y-69655347D01*
X75606540Y-69732003D01*
X75599302Y-69735771D01*
X75599297Y-69735773D01*
X75499747Y-69787596D01*
X75387679Y-69845935D01*
X75190364Y-69994083D01*
X75184720Y-69999989D01*
X75184719Y-69999990D01*
X75111445Y-70076667D01*
X75019896Y-70172468D01*
X75015298Y-70179208D01*
X75015295Y-70179212D01*
X74885454Y-70369552D01*
X74880851Y-70376300D01*
X74776965Y-70600104D01*
X74711026Y-70837871D01*
X74684806Y-71083214D01*
X74685276Y-71091367D01*
X74685276Y-71091373D01*
X74693418Y-71232571D01*
X74699010Y-71329545D01*
X74753255Y-71570249D01*
X74846084Y-71798861D01*
X74850351Y-71805824D01*
X74850352Y-71805826D01*
X74970739Y-72002279D01*
X74970743Y-72002284D01*
X74975006Y-72009241D01*
X75136557Y-72195741D01*
X75142841Y-72200958D01*
X75142842Y-72200959D01*
X75183495Y-72234710D01*
X75237339Y-72305026D01*
X75255341Y-72391740D01*
X75233937Y-72477678D01*
X75190605Y-72533902D01*
X75190364Y-72534083D01*
X75184721Y-72539988D01*
X75034828Y-72696843D01*
X75019896Y-72712468D01*
X75015298Y-72719208D01*
X75015295Y-72719212D01*
X74921739Y-72856360D01*
X74880851Y-72916300D01*
X74776965Y-73140104D01*
X74711026Y-73377871D01*
X74684806Y-73623214D01*
X74685276Y-73631367D01*
X74685276Y-73631373D01*
X74688218Y-73682385D01*
X74699010Y-73869545D01*
X74753255Y-74110249D01*
X74846084Y-74338861D01*
X74850351Y-74345824D01*
X74850352Y-74345826D01*
X74970739Y-74542279D01*
X74970743Y-74542284D01*
X74975006Y-74549241D01*
X74980352Y-74555412D01*
X74980353Y-74555414D01*
X75003803Y-74582485D01*
X75136557Y-74735741D01*
X75142841Y-74740958D01*
X75142842Y-74740959D01*
X75183495Y-74774710D01*
X75237339Y-74845026D01*
X75255341Y-74931740D01*
X75233937Y-75017678D01*
X75190605Y-75073902D01*
X75190364Y-75074083D01*
X75184721Y-75079988D01*
X75092145Y-75176864D01*
X75019896Y-75252468D01*
X75015298Y-75259208D01*
X75015295Y-75259212D01*
X74901745Y-75425670D01*
X74880851Y-75456300D01*
X74877413Y-75463707D01*
X74786353Y-75659880D01*
X74776965Y-75680104D01*
X74711026Y-75917871D01*
X74684806Y-76163214D01*
X74685276Y-76171367D01*
X74685276Y-76171373D01*
X74692203Y-76291490D01*
X74699010Y-76409545D01*
X74753255Y-76650249D01*
X74846084Y-76878861D01*
X74850351Y-76885824D01*
X74850352Y-76885826D01*
X74970739Y-77082279D01*
X74970743Y-77082284D01*
X74975006Y-77089241D01*
X75136557Y-77275741D01*
X75142841Y-77280958D01*
X75142842Y-77280959D01*
X75183495Y-77314710D01*
X75237339Y-77385026D01*
X75255341Y-77471740D01*
X75233937Y-77557678D01*
X75190605Y-77613902D01*
X75190364Y-77614083D01*
X75184721Y-77619988D01*
X75114409Y-77693566D01*
X75019896Y-77792468D01*
X75015298Y-77799208D01*
X75015295Y-77799212D01*
X74908010Y-77956486D01*
X74880851Y-77996300D01*
X74877413Y-78003707D01*
X74783391Y-78206261D01*
X74776965Y-78220104D01*
X74711026Y-78457871D01*
X74684806Y-78703214D01*
X74685276Y-78711367D01*
X74685276Y-78711373D01*
X74690863Y-78808264D01*
X74699010Y-78949545D01*
X74753255Y-79190249D01*
X74846084Y-79418861D01*
X74850351Y-79425824D01*
X74850352Y-79425826D01*
X74970739Y-79622279D01*
X74970743Y-79622284D01*
X74975006Y-79629241D01*
X75136557Y-79815741D01*
X75142841Y-79820958D01*
X75142842Y-79820959D01*
X75183495Y-79854710D01*
X75237339Y-79925026D01*
X75255341Y-80011740D01*
X75233937Y-80097678D01*
X75190605Y-80153902D01*
X75190364Y-80154083D01*
X75184721Y-80159988D01*
X75114409Y-80233566D01*
X75019896Y-80332468D01*
X75015298Y-80339208D01*
X75015295Y-80339212D01*
X74925991Y-80470127D01*
X74880851Y-80536300D01*
X74776965Y-80760104D01*
X74711026Y-80997871D01*
X74684806Y-81243214D01*
X74685276Y-81251367D01*
X74685276Y-81251373D01*
X74687289Y-81286283D01*
X74699010Y-81489545D01*
X74753255Y-81730249D01*
X74846084Y-81958861D01*
X74850351Y-81965824D01*
X74850352Y-81965826D01*
X74970739Y-82162279D01*
X74970743Y-82162284D01*
X74975006Y-82169241D01*
X74980352Y-82175412D01*
X74980353Y-82175414D01*
X75002835Y-82201368D01*
X75136557Y-82355741D01*
X75142841Y-82360958D01*
X75142842Y-82360959D01*
X75183495Y-82394710D01*
X75237339Y-82465026D01*
X75255341Y-82551740D01*
X75233937Y-82637678D01*
X75190605Y-82693902D01*
X75190364Y-82694083D01*
X75184721Y-82699988D01*
X75163094Y-82722620D01*
X75019896Y-82872468D01*
X75015298Y-82879208D01*
X75015295Y-82879212D01*
X74933219Y-82999531D01*
X74880851Y-83076300D01*
X74776965Y-83300104D01*
X74711026Y-83537871D01*
X74684806Y-83783214D01*
X74685276Y-83791367D01*
X74685276Y-83791373D01*
X74690863Y-83888264D01*
X74699010Y-84029545D01*
X74753255Y-84270249D01*
X74846084Y-84498861D01*
X74850351Y-84505824D01*
X74850352Y-84505826D01*
X74970739Y-84702279D01*
X74970743Y-84702284D01*
X74975006Y-84709241D01*
X74980352Y-84715412D01*
X74980353Y-84715414D01*
X75006350Y-84745426D01*
X75136557Y-84895741D01*
X75142841Y-84900958D01*
X75142842Y-84900959D01*
X75183495Y-84934710D01*
X75237339Y-85005026D01*
X75255341Y-85091740D01*
X75233937Y-85177678D01*
X75190605Y-85233902D01*
X75190364Y-85234083D01*
X75184721Y-85239988D01*
X75166087Y-85259488D01*
X75019896Y-85412468D01*
X75015298Y-85419208D01*
X75015295Y-85419212D01*
X74885454Y-85609552D01*
X74880851Y-85616300D01*
X74776965Y-85840104D01*
X74711026Y-86077871D01*
X74684806Y-86323214D01*
X74685276Y-86331367D01*
X74685276Y-86331373D01*
X74690863Y-86428264D01*
X74699010Y-86569545D01*
X74753255Y-86810249D01*
X74846084Y-87038861D01*
X74850351Y-87045824D01*
X74850352Y-87045826D01*
X74970739Y-87242279D01*
X74970743Y-87242284D01*
X74975006Y-87249241D01*
X74980352Y-87255412D01*
X74980353Y-87255414D01*
X75013547Y-87293734D01*
X75136557Y-87435741D01*
X75142841Y-87440958D01*
X75142842Y-87440959D01*
X75183495Y-87474710D01*
X75237339Y-87545026D01*
X75255341Y-87631740D01*
X75233937Y-87717678D01*
X75190605Y-87773902D01*
X75190364Y-87774083D01*
X75184721Y-87779988D01*
X75057889Y-87912711D01*
X75019896Y-87952468D01*
X75015298Y-87959208D01*
X75015295Y-87959212D01*
X74891531Y-88140644D01*
X74880851Y-88156300D01*
X74776965Y-88380104D01*
X74711026Y-88617871D01*
X74684806Y-88863214D01*
X74685276Y-88871367D01*
X74685276Y-88871373D01*
X74691168Y-88973550D01*
X74699010Y-89109545D01*
X74753255Y-89350249D01*
X74846084Y-89578861D01*
X74850351Y-89585824D01*
X74850352Y-89585826D01*
X74970739Y-89782279D01*
X74970743Y-89782284D01*
X74975006Y-89789241D01*
X74980352Y-89795412D01*
X74980353Y-89795414D01*
X75048940Y-89874593D01*
X75136557Y-89975741D01*
X75142841Y-89980958D01*
X75142842Y-89980959D01*
X75183495Y-90014710D01*
X75237339Y-90085026D01*
X75255341Y-90171740D01*
X75233937Y-90257678D01*
X75190605Y-90313902D01*
X75190364Y-90314083D01*
X75184721Y-90319988D01*
X75136890Y-90370041D01*
X75019896Y-90492468D01*
X75015298Y-90499208D01*
X75015295Y-90499212D01*
X74885454Y-90689552D01*
X74880851Y-90696300D01*
X74776965Y-90920104D01*
X74711026Y-91157871D01*
X74684806Y-91403214D01*
X74685276Y-91411367D01*
X74685276Y-91411373D01*
X74690863Y-91508264D01*
X74699010Y-91649545D01*
X74753255Y-91890249D01*
X74846084Y-92118861D01*
X74850351Y-92125824D01*
X74850352Y-92125826D01*
X74970739Y-92322279D01*
X74970743Y-92322284D01*
X74975006Y-92329241D01*
X74980352Y-92335412D01*
X74980353Y-92335414D01*
X74992664Y-92349626D01*
X75136557Y-92515741D01*
X75142841Y-92520958D01*
X75142842Y-92520959D01*
X75183495Y-92554710D01*
X75237339Y-92625026D01*
X75255341Y-92711740D01*
X75233937Y-92797678D01*
X75190605Y-92853902D01*
X75190364Y-92854083D01*
X75184721Y-92859988D01*
X75136890Y-92910041D01*
X75019896Y-93032468D01*
X75015298Y-93039208D01*
X75015295Y-93039212D01*
X74919717Y-93179324D01*
X74880851Y-93236300D01*
X74776965Y-93460104D01*
X74711026Y-93697871D01*
X74684806Y-93943214D01*
X74685276Y-93951367D01*
X74685276Y-93951373D01*
X74688315Y-94004074D01*
X74699010Y-94189545D01*
X74753255Y-94430249D01*
X74846084Y-94658861D01*
X74850351Y-94665824D01*
X74850352Y-94665826D01*
X74970739Y-94862279D01*
X74970743Y-94862284D01*
X74975006Y-94869241D01*
X74980352Y-94875412D01*
X74980353Y-94875414D01*
X75029758Y-94932449D01*
X75136557Y-95055741D01*
X75142841Y-95060958D01*
X75142842Y-95060959D01*
X75183495Y-95094710D01*
X75237339Y-95165026D01*
X75255341Y-95251740D01*
X75233937Y-95337678D01*
X75190605Y-95393902D01*
X75190364Y-95394083D01*
X75184721Y-95399988D01*
X75133315Y-95453782D01*
X75019896Y-95572468D01*
X75015298Y-95579208D01*
X75015295Y-95579212D01*
X74885454Y-95769552D01*
X74880851Y-95776300D01*
X74776965Y-96000104D01*
X74711026Y-96237871D01*
X74684806Y-96483214D01*
X74685276Y-96491367D01*
X74685276Y-96491373D01*
X74688315Y-96544074D01*
X74699010Y-96729545D01*
X74753255Y-96970249D01*
X74846084Y-97198861D01*
X74850351Y-97205824D01*
X74850352Y-97205826D01*
X74970739Y-97402279D01*
X74970743Y-97402284D01*
X74975006Y-97409241D01*
X74980352Y-97415412D01*
X74980353Y-97415414D01*
X74992664Y-97429626D01*
X75136557Y-97595741D01*
X75142841Y-97600958D01*
X75142842Y-97600959D01*
X75183495Y-97634710D01*
X75237339Y-97705026D01*
X75255341Y-97791740D01*
X75233937Y-97877678D01*
X75190605Y-97933902D01*
X75190364Y-97934083D01*
X75184721Y-97939988D01*
X75112989Y-98015052D01*
X75019896Y-98112468D01*
X75015298Y-98119208D01*
X75015295Y-98119212D01*
X74918632Y-98260915D01*
X74880851Y-98316300D01*
X74776965Y-98540104D01*
X74711026Y-98777871D01*
X74684806Y-99023214D01*
X74685276Y-99031367D01*
X74685276Y-99031373D01*
X74690244Y-99117527D01*
X74699010Y-99269545D01*
X74753255Y-99510249D01*
X74846084Y-99738861D01*
X74850351Y-99745824D01*
X74850352Y-99745826D01*
X74970739Y-99942279D01*
X74970743Y-99942284D01*
X74975006Y-99949241D01*
X74980352Y-99955412D01*
X74980353Y-99955414D01*
X75016426Y-99997058D01*
X75136557Y-100135741D01*
X75142841Y-100140958D01*
X75142842Y-100140959D01*
X75183495Y-100174710D01*
X75237339Y-100245026D01*
X75255341Y-100331740D01*
X75233937Y-100417678D01*
X75190605Y-100473902D01*
X75190364Y-100474083D01*
X75184721Y-100479988D01*
X75136890Y-100530041D01*
X75019896Y-100652468D01*
X75015298Y-100659208D01*
X75015295Y-100659212D01*
X74961522Y-100738041D01*
X74880851Y-100856300D01*
X74776965Y-101080104D01*
X74711026Y-101317871D01*
X74684806Y-101563214D01*
X69280000Y-101563214D01*
X69280000Y-67227172D01*
X124546609Y-67227172D01*
X124553429Y-67539745D01*
X124554372Y-67546016D01*
X124585024Y-67749895D01*
X124599911Y-67848918D01*
X124685301Y-68149678D01*
X124808215Y-68437150D01*
X124811426Y-68442612D01*
X124811429Y-68442618D01*
X124867778Y-68538470D01*
X124966661Y-68706674D01*
X125158069Y-68953881D01*
X125379336Y-69174763D01*
X125626877Y-69365739D01*
X125632351Y-69368944D01*
X125810917Y-69473499D01*
X125896677Y-69523714D01*
X125902503Y-69526193D01*
X125902507Y-69526195D01*
X126178534Y-69643646D01*
X126178538Y-69643647D01*
X126184363Y-69646126D01*
X126385235Y-69702778D01*
X126477702Y-69728856D01*
X126485272Y-69730991D01*
X126617389Y-69750618D01*
X126789332Y-69776162D01*
X126789341Y-69776163D01*
X126794525Y-69776933D01*
X126879631Y-69780500D01*
X127079085Y-69780500D01*
X127082244Y-69780298D01*
X127082259Y-69780298D01*
X127305687Y-69766045D01*
X127305694Y-69766044D01*
X127312013Y-69765641D01*
X127318227Y-69764439D01*
X127318233Y-69764438D01*
X127612735Y-69707459D01*
X127612736Y-69707459D01*
X127618968Y-69706253D01*
X127915888Y-69608344D01*
X128197961Y-69473499D01*
X128203289Y-69470059D01*
X128455292Y-69307344D01*
X128455299Y-69307339D01*
X128460614Y-69303907D01*
X128699589Y-69102315D01*
X128911011Y-68871992D01*
X129091454Y-68616671D01*
X129237992Y-68340492D01*
X129348249Y-68047932D01*
X129420439Y-67743733D01*
X129442731Y-67533411D01*
X129452724Y-67439120D01*
X129453391Y-67432828D01*
X129448904Y-67227172D01*
X193126609Y-67227172D01*
X193133429Y-67539745D01*
X193134372Y-67546016D01*
X193165024Y-67749895D01*
X193179911Y-67848918D01*
X193265301Y-68149678D01*
X193388215Y-68437150D01*
X193391426Y-68442612D01*
X193391429Y-68442618D01*
X193447778Y-68538470D01*
X193546661Y-68706674D01*
X193738069Y-68953881D01*
X193959336Y-69174763D01*
X194206877Y-69365739D01*
X194212351Y-69368944D01*
X194390917Y-69473499D01*
X194476677Y-69523714D01*
X194482503Y-69526193D01*
X194482507Y-69526195D01*
X194758534Y-69643646D01*
X194758538Y-69643647D01*
X194764363Y-69646126D01*
X194965235Y-69702778D01*
X195057702Y-69728856D01*
X195065272Y-69730991D01*
X195197389Y-69750618D01*
X195369332Y-69776162D01*
X195369341Y-69776163D01*
X195374525Y-69776933D01*
X195459631Y-69780500D01*
X195659085Y-69780500D01*
X195662244Y-69780298D01*
X195662259Y-69780298D01*
X195885687Y-69766045D01*
X195885694Y-69766044D01*
X195892013Y-69765641D01*
X195898227Y-69764439D01*
X195898233Y-69764438D01*
X196192735Y-69707459D01*
X196192736Y-69707459D01*
X196198968Y-69706253D01*
X196495888Y-69608344D01*
X196777961Y-69473499D01*
X196783289Y-69470059D01*
X197035292Y-69307344D01*
X197035299Y-69307339D01*
X197040614Y-69303907D01*
X197279589Y-69102315D01*
X197491011Y-68871992D01*
X197671454Y-68616671D01*
X197817992Y-68340492D01*
X197928249Y-68047932D01*
X198000439Y-67743733D01*
X198022731Y-67533411D01*
X198032724Y-67439120D01*
X198033391Y-67432828D01*
X198026571Y-67120255D01*
X197995903Y-66916267D01*
X197981032Y-66817351D01*
X197981030Y-66817343D01*
X197980089Y-66811082D01*
X197894699Y-66510322D01*
X197771785Y-66222850D01*
X197613339Y-65953326D01*
X197421931Y-65706119D01*
X197200664Y-65485237D01*
X196953123Y-65294261D01*
X196774959Y-65189941D01*
X196688792Y-65139488D01*
X196688789Y-65139487D01*
X196683323Y-65136286D01*
X196677497Y-65133807D01*
X196677493Y-65133805D01*
X196401466Y-65016354D01*
X196401462Y-65016353D01*
X196395637Y-65013874D01*
X196189495Y-64955736D01*
X196100820Y-64930727D01*
X196100818Y-64930727D01*
X196094728Y-64929009D01*
X195946835Y-64907038D01*
X195790668Y-64883838D01*
X195790659Y-64883837D01*
X195785475Y-64883067D01*
X195700369Y-64879500D01*
X195500915Y-64879500D01*
X195497756Y-64879702D01*
X195497741Y-64879702D01*
X195274313Y-64893955D01*
X195274306Y-64893956D01*
X195267987Y-64894359D01*
X195261773Y-64895561D01*
X195261767Y-64895562D01*
X194967265Y-64952541D01*
X194961032Y-64953747D01*
X194664112Y-65051656D01*
X194382039Y-65186501D01*
X194376714Y-65189940D01*
X194376711Y-65189941D01*
X194124708Y-65352656D01*
X194124701Y-65352661D01*
X194119386Y-65356093D01*
X193880411Y-65557685D01*
X193668989Y-65788008D01*
X193488546Y-66043329D01*
X193342008Y-66319508D01*
X193231751Y-66612068D01*
X193159561Y-66916267D01*
X193158894Y-66922557D01*
X193158893Y-66922565D01*
X193133789Y-67159432D01*
X193126609Y-67227172D01*
X129448904Y-67227172D01*
X129446571Y-67120255D01*
X129415903Y-66916267D01*
X129401032Y-66817351D01*
X129401030Y-66817343D01*
X129400089Y-66811082D01*
X129314699Y-66510322D01*
X129191785Y-66222850D01*
X129033339Y-65953326D01*
X128841931Y-65706119D01*
X128620664Y-65485237D01*
X128373123Y-65294261D01*
X128194959Y-65189941D01*
X128108792Y-65139488D01*
X128108789Y-65139487D01*
X128103323Y-65136286D01*
X128097497Y-65133807D01*
X128097493Y-65133805D01*
X127821466Y-65016354D01*
X127821462Y-65016353D01*
X127815637Y-65013874D01*
X127609495Y-64955736D01*
X127520820Y-64930727D01*
X127520818Y-64930727D01*
X127514728Y-64929009D01*
X127366835Y-64907038D01*
X127210668Y-64883838D01*
X127210659Y-64883837D01*
X127205475Y-64883067D01*
X127120369Y-64879500D01*
X126920915Y-64879500D01*
X126917756Y-64879702D01*
X126917741Y-64879702D01*
X126694313Y-64893955D01*
X126694306Y-64893956D01*
X126687987Y-64894359D01*
X126681773Y-64895561D01*
X126681767Y-64895562D01*
X126387265Y-64952541D01*
X126381032Y-64953747D01*
X126084112Y-65051656D01*
X125802039Y-65186501D01*
X125796714Y-65189940D01*
X125796711Y-65189941D01*
X125544708Y-65352656D01*
X125544701Y-65352661D01*
X125539386Y-65356093D01*
X125300411Y-65557685D01*
X125088989Y-65788008D01*
X124908546Y-66043329D01*
X124762008Y-66319508D01*
X124651751Y-66612068D01*
X124579561Y-66916267D01*
X124578894Y-66922557D01*
X124578893Y-66922565D01*
X124553789Y-67159432D01*
X124546609Y-67227172D01*
X69280000Y-67227172D01*
X69280000Y-54239000D01*
X69299707Y-54152657D01*
X69354926Y-54083416D01*
X69434718Y-54044989D01*
X69479000Y-54040000D01*
X207381000Y-54040000D01*
X207467343Y-54059707D01*
G37*
%TD.AperFunction*%
%TA.AperFunction,Conductor*%
G36*
X87533574Y-76658361D02*
G01*
X87570319Y-76700311D01*
X87571490Y-76699422D01*
X87578008Y-76708009D01*
X87583557Y-76717244D01*
X87589571Y-76723604D01*
X87592029Y-76726854D01*
X87596398Y-76733738D01*
X87600183Y-76737972D01*
X87652964Y-76790753D01*
X87656838Y-76794736D01*
X87710524Y-76851507D01*
X87718311Y-76856799D01*
X87727360Y-76865149D01*
X88902409Y-78040198D01*
X88913690Y-78052466D01*
X88945020Y-78089540D01*
X88962126Y-78102618D01*
X89008243Y-78137877D01*
X89012019Y-78140837D01*
X89074073Y-78190730D01*
X89083477Y-78195398D01*
X89091820Y-78201777D01*
X89163941Y-78235408D01*
X89168305Y-78237508D01*
X89229933Y-78268101D01*
X89229943Y-78268105D01*
X89239593Y-78272895D01*
X89249779Y-78275435D01*
X89259297Y-78279873D01*
X89281980Y-78284943D01*
X89336937Y-78297227D01*
X89341670Y-78298346D01*
X89408437Y-78314993D01*
X89408440Y-78314993D01*
X89418894Y-78317600D01*
X89427646Y-78317844D01*
X89431676Y-78318403D01*
X89439637Y-78320183D01*
X89445307Y-78320500D01*
X89519965Y-78320500D01*
X89525521Y-78320578D01*
X89603611Y-78322759D01*
X89612863Y-78320994D01*
X89625164Y-78320500D01*
X89744307Y-78320500D01*
X89830650Y-78340207D01*
X89899891Y-78395426D01*
X89938318Y-78475218D01*
X89942180Y-78540645D01*
X89924806Y-78703214D01*
X89925276Y-78711367D01*
X89925276Y-78711373D01*
X89930863Y-78808264D01*
X89939010Y-78949545D01*
X89993255Y-79190249D01*
X90086084Y-79418861D01*
X90090351Y-79425824D01*
X90090352Y-79425826D01*
X90210739Y-79622279D01*
X90210743Y-79622284D01*
X90215006Y-79629241D01*
X90376557Y-79815741D01*
X90382841Y-79820958D01*
X90382842Y-79820959D01*
X90423495Y-79854710D01*
X90477339Y-79925026D01*
X90495341Y-80011740D01*
X90473937Y-80097678D01*
X90430605Y-80153902D01*
X90430364Y-80154083D01*
X90424721Y-80159988D01*
X90354409Y-80233566D01*
X90259896Y-80332468D01*
X90255298Y-80339208D01*
X90255295Y-80339212D01*
X90165991Y-80470127D01*
X90120851Y-80536300D01*
X90016965Y-80760104D01*
X89951026Y-80997871D01*
X89924806Y-81243214D01*
X89925276Y-81251367D01*
X89925276Y-81251373D01*
X89927289Y-81286283D01*
X89939010Y-81489545D01*
X89993255Y-81730249D01*
X90086084Y-81958861D01*
X90090351Y-81965824D01*
X90090352Y-81965826D01*
X90210739Y-82162279D01*
X90210743Y-82162284D01*
X90215006Y-82169241D01*
X90220352Y-82175412D01*
X90220353Y-82175414D01*
X90242835Y-82201368D01*
X90376557Y-82355741D01*
X90382841Y-82360958D01*
X90382842Y-82360959D01*
X90423495Y-82394710D01*
X90477339Y-82465026D01*
X90495341Y-82551740D01*
X90473937Y-82637678D01*
X90430605Y-82693902D01*
X90430364Y-82694083D01*
X90424721Y-82699988D01*
X90403094Y-82722620D01*
X90259896Y-82872468D01*
X90255298Y-82879208D01*
X90255295Y-82879212D01*
X90173219Y-82999531D01*
X90120851Y-83076300D01*
X90016965Y-83300104D01*
X89951026Y-83537871D01*
X89924806Y-83783214D01*
X89925276Y-83791367D01*
X89925276Y-83791373D01*
X89930863Y-83888264D01*
X89939010Y-84029545D01*
X89993255Y-84270249D01*
X90086084Y-84498861D01*
X90090351Y-84505824D01*
X90090352Y-84505826D01*
X90210739Y-84702279D01*
X90210743Y-84702284D01*
X90215006Y-84709241D01*
X90220352Y-84715412D01*
X90220353Y-84715414D01*
X90246350Y-84745426D01*
X90376557Y-84895741D01*
X90382841Y-84900958D01*
X90382842Y-84900959D01*
X90423495Y-84934710D01*
X90477339Y-85005026D01*
X90495341Y-85091740D01*
X90473937Y-85177678D01*
X90430605Y-85233902D01*
X90430364Y-85234083D01*
X90424721Y-85239988D01*
X90406087Y-85259488D01*
X90259896Y-85412468D01*
X90255298Y-85419208D01*
X90255295Y-85419212D01*
X90125454Y-85609552D01*
X90120851Y-85616300D01*
X90016965Y-85840104D01*
X89951026Y-86077871D01*
X89924806Y-86323214D01*
X89925276Y-86331367D01*
X89925276Y-86331373D01*
X89930863Y-86428264D01*
X89939010Y-86569545D01*
X89993255Y-86810249D01*
X90086084Y-87038861D01*
X90090351Y-87045824D01*
X90090352Y-87045826D01*
X90210739Y-87242279D01*
X90210743Y-87242284D01*
X90215006Y-87249241D01*
X90220352Y-87255412D01*
X90220353Y-87255414D01*
X90253547Y-87293734D01*
X90376557Y-87435741D01*
X90382841Y-87440958D01*
X90382842Y-87440959D01*
X90423495Y-87474710D01*
X90477339Y-87545026D01*
X90495341Y-87631740D01*
X90473937Y-87717678D01*
X90430605Y-87773902D01*
X90430364Y-87774083D01*
X90424721Y-87779988D01*
X90297889Y-87912711D01*
X90259896Y-87952468D01*
X90255298Y-87959208D01*
X90255295Y-87959212D01*
X90131531Y-88140644D01*
X90120851Y-88156300D01*
X90016965Y-88380104D01*
X89951026Y-88617871D01*
X89924806Y-88863214D01*
X89925276Y-88871367D01*
X89925276Y-88871373D01*
X89931168Y-88973550D01*
X89939010Y-89109545D01*
X89993255Y-89350249D01*
X90086084Y-89578861D01*
X90090351Y-89585824D01*
X90090352Y-89585826D01*
X90210739Y-89782279D01*
X90210743Y-89782284D01*
X90215006Y-89789241D01*
X90220352Y-89795412D01*
X90220353Y-89795414D01*
X90288940Y-89874593D01*
X90376557Y-89975741D01*
X90382841Y-89980958D01*
X90382842Y-89980959D01*
X90423495Y-90014710D01*
X90477339Y-90085026D01*
X90495341Y-90171740D01*
X90473937Y-90257678D01*
X90430605Y-90313902D01*
X90430364Y-90314083D01*
X90424721Y-90319988D01*
X90376890Y-90370041D01*
X90259896Y-90492468D01*
X90255298Y-90499208D01*
X90255295Y-90499212D01*
X90125454Y-90689552D01*
X90120851Y-90696300D01*
X90016965Y-90920104D01*
X89951026Y-91157871D01*
X89924806Y-91403214D01*
X89925276Y-91411367D01*
X89925276Y-91411373D01*
X89930863Y-91508264D01*
X89939010Y-91649545D01*
X89993255Y-91890249D01*
X90086084Y-92118861D01*
X90090351Y-92125824D01*
X90090352Y-92125826D01*
X90210739Y-92322279D01*
X90210743Y-92322284D01*
X90215006Y-92329241D01*
X90220352Y-92335412D01*
X90220353Y-92335414D01*
X90232664Y-92349626D01*
X90376557Y-92515741D01*
X90382841Y-92520958D01*
X90382842Y-92520959D01*
X90423495Y-92554710D01*
X90477339Y-92625026D01*
X90495341Y-92711740D01*
X90473937Y-92797678D01*
X90430605Y-92853902D01*
X90430364Y-92854083D01*
X90424721Y-92859988D01*
X90376890Y-92910041D01*
X90259896Y-93032468D01*
X90255298Y-93039208D01*
X90255295Y-93039212D01*
X90159717Y-93179324D01*
X90120851Y-93236300D01*
X90016965Y-93460104D01*
X89951026Y-93697871D01*
X89924806Y-93943214D01*
X89925276Y-93951367D01*
X89925276Y-93951373D01*
X89928315Y-94004074D01*
X89939010Y-94189545D01*
X89993255Y-94430249D01*
X90086084Y-94658861D01*
X90090351Y-94665824D01*
X90090352Y-94665826D01*
X90210739Y-94862279D01*
X90210743Y-94862284D01*
X90215006Y-94869241D01*
X90220352Y-94875412D01*
X90220353Y-94875414D01*
X90269758Y-94932449D01*
X90376557Y-95055741D01*
X90382841Y-95060958D01*
X90382842Y-95060959D01*
X90423495Y-95094710D01*
X90477339Y-95165026D01*
X90495341Y-95251740D01*
X90473937Y-95337678D01*
X90430605Y-95393902D01*
X90430364Y-95394083D01*
X90424721Y-95399988D01*
X90373315Y-95453782D01*
X90259896Y-95572468D01*
X90255298Y-95579208D01*
X90255295Y-95579212D01*
X90125454Y-95769552D01*
X90120851Y-95776300D01*
X90016965Y-96000104D01*
X89951026Y-96237871D01*
X89924806Y-96483214D01*
X89925276Y-96491367D01*
X89925276Y-96491373D01*
X89928315Y-96544074D01*
X89939010Y-96729545D01*
X89993255Y-96970249D01*
X90086084Y-97198861D01*
X90090351Y-97205824D01*
X90090352Y-97205826D01*
X90210739Y-97402279D01*
X90210743Y-97402284D01*
X90215006Y-97409241D01*
X90220352Y-97415412D01*
X90220353Y-97415414D01*
X90232664Y-97429626D01*
X90376557Y-97595741D01*
X90566399Y-97753351D01*
X90632094Y-97791740D01*
X90648076Y-97801079D01*
X90712681Y-97861656D01*
X90744605Y-97944266D01*
X90737524Y-98032546D01*
X90692842Y-98109011D01*
X90678886Y-98122510D01*
X90562682Y-98224420D01*
X90550175Y-98237599D01*
X90424932Y-98396469D01*
X90415037Y-98411706D01*
X90320840Y-98590745D01*
X90313891Y-98607520D01*
X90253901Y-98800719D01*
X90250121Y-98818502D01*
X90247845Y-98837736D01*
X90249915Y-98857079D01*
X90251609Y-98858157D01*
X90262274Y-98860000D01*
X92594341Y-98860000D01*
X92613311Y-98855670D01*
X92614768Y-98852645D01*
X92615195Y-98846222D01*
X92612485Y-98831602D01*
X92557572Y-98636895D01*
X92551061Y-98619934D01*
X92461588Y-98438500D01*
X92452092Y-98423004D01*
X92331054Y-98260915D01*
X92318891Y-98247407D01*
X92182095Y-98120954D01*
X92132068Y-98047873D01*
X92118705Y-97960324D01*
X92144651Y-97875647D01*
X92201616Y-97812815D01*
X92395185Y-97674743D01*
X92401829Y-97670004D01*
X92497667Y-97574500D01*
X92570818Y-97501604D01*
X92570819Y-97501603D01*
X92576605Y-97495837D01*
X92607119Y-97453372D01*
X92673505Y-97394758D01*
X92758752Y-97370750D01*
X92768721Y-97370500D01*
X93726293Y-97370500D01*
X93812636Y-97390207D01*
X93881877Y-97445426D01*
X93902647Y-97477304D01*
X93912385Y-97495930D01*
X94034429Y-97645571D01*
X94042237Y-97651939D01*
X94166581Y-97753351D01*
X94184070Y-97767615D01*
X94193007Y-97772287D01*
X94336927Y-97847527D01*
X94355194Y-97857077D01*
X94540813Y-97910302D01*
X94595715Y-97915202D01*
X94650658Y-97920106D01*
X94650665Y-97920106D01*
X94655076Y-97920500D01*
X95289924Y-97920500D01*
X95294335Y-97920106D01*
X95294342Y-97920106D01*
X95349285Y-97915202D01*
X95404187Y-97910302D01*
X95589806Y-97857077D01*
X95608074Y-97847527D01*
X95655804Y-97822574D01*
X95741452Y-97800036D01*
X95828396Y-97816891D01*
X95899417Y-97869801D01*
X95940448Y-97948286D01*
X95947000Y-97998928D01*
X95947000Y-101833377D01*
X95946302Y-101850029D01*
X95942240Y-101898402D01*
X95945921Y-101925988D01*
X95952764Y-101977278D01*
X95953348Y-101982103D01*
X95956535Y-102011434D01*
X95961942Y-102061209D01*
X95965291Y-102071161D01*
X95966680Y-102081569D01*
X95970365Y-102091694D01*
X95970366Y-102091697D01*
X95993897Y-102156347D01*
X95995504Y-102160936D01*
X96020883Y-102236348D01*
X96026291Y-102245348D01*
X96029882Y-102255215D01*
X96035655Y-102264311D01*
X96035656Y-102264314D01*
X96072511Y-102322388D01*
X96075066Y-102326525D01*
X96110505Y-102385506D01*
X96110511Y-102385513D01*
X96116057Y-102394744D01*
X96122071Y-102401104D01*
X96124529Y-102404354D01*
X96128898Y-102411238D01*
X96132683Y-102415472D01*
X96185464Y-102468253D01*
X96189338Y-102472236D01*
X96243024Y-102529007D01*
X96250811Y-102534299D01*
X96259860Y-102542649D01*
X97575083Y-103857871D01*
X98571998Y-104854786D01*
X98619117Y-104929774D01*
X98629033Y-105017781D01*
X98599782Y-105101374D01*
X98537158Y-105163998D01*
X98453565Y-105193249D01*
X98431284Y-105194500D01*
X96319717Y-105194500D01*
X96233374Y-105174793D01*
X96179003Y-105136214D01*
X93342602Y-102299814D01*
X93331320Y-102287546D01*
X93299980Y-102250460D01*
X93236721Y-102202095D01*
X93232991Y-102199171D01*
X93170927Y-102149269D01*
X93161520Y-102144599D01*
X93153180Y-102138223D01*
X93081060Y-102104593D01*
X93076691Y-102102490D01*
X93016978Y-102072848D01*
X92948402Y-102016805D01*
X92910934Y-101936558D01*
X92908163Y-101868628D01*
X92933155Y-101678794D01*
X92933156Y-101678787D01*
X92933845Y-101673550D01*
X92934974Y-101627358D01*
X92935514Y-101605282D01*
X92935514Y-101605280D01*
X92935643Y-101600000D01*
X92933593Y-101575059D01*
X92916094Y-101362225D01*
X92916094Y-101362224D01*
X92915425Y-101354089D01*
X92913438Y-101346179D01*
X92913437Y-101346172D01*
X92857306Y-101122706D01*
X92855316Y-101114783D01*
X92846991Y-101095635D01*
X92760186Y-100896000D01*
X92756928Y-100888507D01*
X92676398Y-100764027D01*
X92627340Y-100688194D01*
X92627338Y-100688192D01*
X92622905Y-100681339D01*
X92602771Y-100659212D01*
X92462347Y-100504887D01*
X92462344Y-100504884D01*
X92456846Y-100498842D01*
X92425496Y-100474083D01*
X92269613Y-100350974D01*
X92269607Y-100350970D01*
X92263210Y-100345918D01*
X92216285Y-100320014D01*
X92150219Y-100261033D01*
X92116286Y-100179229D01*
X92121208Y-100090802D01*
X92164009Y-100013268D01*
X92185210Y-99992798D01*
X92275146Y-99917999D01*
X92287999Y-99905146D01*
X92417349Y-99749620D01*
X92427647Y-99734637D01*
X92526496Y-99558130D01*
X92533882Y-99541540D01*
X92598912Y-99349970D01*
X92603151Y-99332312D01*
X92610419Y-99282189D01*
X92608856Y-99262796D01*
X92608318Y-99262434D01*
X92595255Y-99260000D01*
X90265033Y-99260000D01*
X90248199Y-99263842D01*
X90248430Y-99282918D01*
X90291738Y-99453442D01*
X90297803Y-99470567D01*
X90382497Y-99654283D01*
X90391586Y-99670025D01*
X90508339Y-99835226D01*
X90520135Y-99849039D01*
X90665050Y-99990209D01*
X90666905Y-99991711D01*
X90667923Y-99993008D01*
X90671580Y-99996570D01*
X90671104Y-99997058D01*
X90721603Y-100061365D01*
X90740662Y-100147853D01*
X90720309Y-100234045D01*
X90664573Y-100302871D01*
X90641712Y-100317615D01*
X90641836Y-100317811D01*
X90634927Y-100322162D01*
X90627679Y-100325935D01*
X90621143Y-100330842D01*
X90621142Y-100330843D01*
X90606318Y-100341973D01*
X90430364Y-100474083D01*
X90424721Y-100479988D01*
X90424719Y-100479990D01*
X90339730Y-100568926D01*
X90259896Y-100652468D01*
X90255298Y-100659208D01*
X90255295Y-100659212D01*
X90201522Y-100738041D01*
X90120851Y-100856300D01*
X90016965Y-101080104D01*
X90013913Y-101091111D01*
X90013020Y-101092764D01*
X90011964Y-101095635D01*
X90011553Y-101095484D01*
X89971852Y-101169045D01*
X89900139Y-101221014D01*
X89812980Y-101236722D01*
X89727637Y-101213057D01*
X89681436Y-101178647D01*
X87268786Y-98765998D01*
X87221667Y-98691010D01*
X87210500Y-98625284D01*
X87210500Y-76813945D01*
X87230207Y-76727602D01*
X87285426Y-76658361D01*
X87365218Y-76619934D01*
X87453782Y-76619934D01*
X87533574Y-76658361D01*
G37*
%TD.AperFunction*%
%TA.AperFunction,Conductor*%
G36*
X102731843Y-79610207D02*
G01*
X102801084Y-79665426D01*
X102839511Y-79745218D01*
X102844500Y-79789500D01*
X102844500Y-80233566D01*
X102847400Y-80276107D01*
X102892105Y-80455408D01*
X102896892Y-80465051D01*
X102896894Y-80465057D01*
X102942296Y-80556518D01*
X102963035Y-80642618D01*
X102942296Y-80733482D01*
X102896894Y-80824943D01*
X102896892Y-80824949D01*
X102892105Y-80834592D01*
X102847400Y-81013893D01*
X102844500Y-81056434D01*
X102844500Y-81503566D01*
X102847400Y-81546107D01*
X102892105Y-81725408D01*
X102974269Y-81890926D01*
X102981018Y-81899321D01*
X102981020Y-81899323D01*
X103039878Y-81972527D01*
X103090060Y-82034940D01*
X103098454Y-82041689D01*
X103225677Y-82143980D01*
X103225679Y-82143982D01*
X103234074Y-82150731D01*
X103243722Y-82155520D01*
X103243723Y-82155521D01*
X103303114Y-82185003D01*
X103399592Y-82232895D01*
X103578893Y-82277600D01*
X103602904Y-82279237D01*
X103618041Y-82280269D01*
X103618050Y-82280269D01*
X103621434Y-82280500D01*
X105518566Y-82280500D01*
X105521950Y-82280269D01*
X105521959Y-82280269D01*
X105537096Y-82279237D01*
X105561107Y-82277600D01*
X105569620Y-82275477D01*
X105569629Y-82275476D01*
X105674947Y-82249217D01*
X105763493Y-82247451D01*
X105844036Y-82284278D01*
X105863803Y-82301592D01*
X106406214Y-82844003D01*
X106453333Y-82918991D01*
X106464500Y-82984717D01*
X106464500Y-87497122D01*
X106444793Y-87583465D01*
X106421779Y-87620321D01*
X106388089Y-87663057D01*
X106383843Y-87671128D01*
X106383840Y-87671132D01*
X106313468Y-87804887D01*
X106293914Y-87842053D01*
X106233937Y-88035213D01*
X106232235Y-88049594D01*
X106214907Y-88196000D01*
X106210164Y-88236069D01*
X106217499Y-88347982D01*
X106222397Y-88422706D01*
X106223392Y-88437894D01*
X106225638Y-88446737D01*
X106225638Y-88446738D01*
X106251331Y-88547903D01*
X106273178Y-88633928D01*
X106276996Y-88642209D01*
X106276996Y-88642210D01*
X106335724Y-88769600D01*
X106357856Y-88817607D01*
X106363120Y-88825055D01*
X106363122Y-88825059D01*
X106392338Y-88866398D01*
X106474588Y-88982780D01*
X106481119Y-88989142D01*
X106596547Y-89101586D01*
X106619466Y-89123913D01*
X106627048Y-89128979D01*
X106627049Y-89128980D01*
X106760546Y-89218180D01*
X106787637Y-89236282D01*
X106831076Y-89254945D01*
X106965094Y-89312524D01*
X106965100Y-89312526D01*
X106973470Y-89316122D01*
X106982359Y-89318133D01*
X106982364Y-89318135D01*
X107119900Y-89349256D01*
X107170740Y-89360760D01*
X107179850Y-89361118D01*
X107179851Y-89361118D01*
X107233603Y-89363230D01*
X107372842Y-89368700D01*
X107381863Y-89367392D01*
X107381864Y-89367392D01*
X107429604Y-89360470D01*
X107506947Y-89349256D01*
X107595222Y-89356370D01*
X107671671Y-89401081D01*
X107721149Y-89474535D01*
X107734500Y-89546197D01*
X107734500Y-92366051D01*
X107714793Y-92452394D01*
X107659574Y-92521635D01*
X107579782Y-92560062D01*
X107491218Y-92560062D01*
X107411426Y-92521635D01*
X107400428Y-92512190D01*
X107352812Y-92468174D01*
X107181757Y-92360246D01*
X107173280Y-92356864D01*
X107173278Y-92356863D01*
X107066231Y-92314156D01*
X106993898Y-92285298D01*
X106984957Y-92283520D01*
X106984952Y-92283518D01*
X106814308Y-92249575D01*
X106795526Y-92245839D01*
X106693032Y-92244498D01*
X106602411Y-92243311D01*
X106602406Y-92243311D01*
X106593286Y-92243192D01*
X106528199Y-92254376D01*
X106439768Y-92249575D01*
X106362175Y-92206881D01*
X106310791Y-92134748D01*
X106295500Y-92058250D01*
X106295500Y-91851434D01*
X106292600Y-91808893D01*
X106247895Y-91629592D01*
X106208273Y-91549775D01*
X106170521Y-91473723D01*
X106170520Y-91473722D01*
X106165731Y-91464074D01*
X106142140Y-91434732D01*
X106056689Y-91328454D01*
X106049940Y-91320060D01*
X106041546Y-91313311D01*
X106033921Y-91305686D01*
X106035411Y-91304196D01*
X105989555Y-91246217D01*
X105970196Y-91159796D01*
X105976316Y-91111615D01*
X105985682Y-91074735D01*
X105991427Y-91027257D01*
X105989408Y-91007908D01*
X105987832Y-91006900D01*
X105976920Y-91005000D01*
X103168303Y-91005000D01*
X103149333Y-91009330D01*
X103148521Y-91011016D01*
X103147946Y-91022071D01*
X103154318Y-91074735D01*
X103163684Y-91111615D01*
X103165835Y-91200152D01*
X103129359Y-91280855D01*
X103105644Y-91305251D01*
X103106079Y-91305686D01*
X103098454Y-91313311D01*
X103090060Y-91320060D01*
X103083311Y-91328454D01*
X102997861Y-91434732D01*
X102974269Y-91464074D01*
X102969480Y-91473722D01*
X102969479Y-91473723D01*
X102931727Y-91549775D01*
X102892105Y-91629592D01*
X102847400Y-91808893D01*
X102844500Y-91851434D01*
X102844500Y-92298566D01*
X102847400Y-92341107D01*
X102892105Y-92520408D01*
X102896892Y-92530051D01*
X102896894Y-92530057D01*
X102942296Y-92621518D01*
X102963035Y-92707618D01*
X102942296Y-92798482D01*
X102896894Y-92889943D01*
X102896892Y-92889949D01*
X102892105Y-92899592D01*
X102847400Y-93078893D01*
X102844500Y-93121434D01*
X102844500Y-93568566D01*
X102847400Y-93611107D01*
X102892105Y-93790408D01*
X102896892Y-93800051D01*
X102896894Y-93800057D01*
X102942296Y-93891518D01*
X102963035Y-93977618D01*
X102942296Y-94068482D01*
X102896894Y-94159943D01*
X102896892Y-94159949D01*
X102892105Y-94169592D01*
X102847400Y-94348893D01*
X102844500Y-94391434D01*
X102844500Y-94838566D01*
X102847400Y-94881107D01*
X102892105Y-95060408D01*
X102896892Y-95070051D01*
X102896894Y-95070057D01*
X102942296Y-95161518D01*
X102963035Y-95247618D01*
X102942296Y-95338482D01*
X102896894Y-95429943D01*
X102896892Y-95429949D01*
X102892105Y-95439592D01*
X102847400Y-95618893D01*
X102846803Y-95627655D01*
X102845294Y-95649793D01*
X102844500Y-95661434D01*
X102844500Y-96108566D01*
X102847400Y-96151107D01*
X102892105Y-96330408D01*
X102896892Y-96340051D01*
X102896894Y-96340057D01*
X102942296Y-96431518D01*
X102963035Y-96517618D01*
X102942296Y-96608482D01*
X102896894Y-96699943D01*
X102896892Y-96699949D01*
X102892105Y-96709592D01*
X102847400Y-96888893D01*
X102844500Y-96931434D01*
X102844500Y-97378566D01*
X102844731Y-97381950D01*
X102844731Y-97381959D01*
X102845604Y-97394758D01*
X102847400Y-97421107D01*
X102892105Y-97600408D01*
X102896892Y-97610051D01*
X102896894Y-97610057D01*
X102942296Y-97701518D01*
X102963035Y-97787618D01*
X102942296Y-97878482D01*
X102896894Y-97969943D01*
X102896892Y-97969949D01*
X102892105Y-97979592D01*
X102847400Y-98158893D01*
X102844500Y-98201434D01*
X102844500Y-98648566D01*
X102847400Y-98691107D01*
X102892105Y-98870408D01*
X102896892Y-98880051D01*
X102896894Y-98880057D01*
X102942296Y-98971518D01*
X102963035Y-99057618D01*
X102942296Y-99148482D01*
X102896894Y-99239943D01*
X102896892Y-99239949D01*
X102892105Y-99249592D01*
X102869851Y-99338847D01*
X102849905Y-99418848D01*
X102847400Y-99428893D01*
X102846803Y-99437655D01*
X102845727Y-99453442D01*
X102844500Y-99471434D01*
X102844500Y-99918566D01*
X102847400Y-99961107D01*
X102892105Y-100140408D01*
X102896892Y-100150051D01*
X102896894Y-100150057D01*
X102942296Y-100241518D01*
X102963035Y-100327618D01*
X102942296Y-100418482D01*
X102896894Y-100509943D01*
X102896892Y-100509949D01*
X102892105Y-100519592D01*
X102847400Y-100698893D01*
X102844500Y-100741434D01*
X102844500Y-101188566D01*
X102847400Y-101231107D01*
X102892105Y-101410408D01*
X102896892Y-101420051D01*
X102896894Y-101420057D01*
X102942296Y-101511518D01*
X102963035Y-101597618D01*
X102942296Y-101688482D01*
X102896894Y-101779943D01*
X102896892Y-101779949D01*
X102892105Y-101789592D01*
X102847400Y-101968893D01*
X102846336Y-101984500D01*
X102845345Y-101999036D01*
X102819810Y-102083839D01*
X102760010Y-102149164D01*
X102677788Y-102182073D01*
X102646806Y-102184500D01*
X102596227Y-102184500D01*
X102580962Y-102183913D01*
X102525429Y-102179640D01*
X102499379Y-102182931D01*
X102474437Y-102184500D01*
X102159934Y-102184500D01*
X102073591Y-102164793D01*
X102004350Y-102109574D01*
X101965923Y-102029782D01*
X101965923Y-101941218D01*
X101988646Y-101884201D01*
X102034910Y-101805973D01*
X102044775Y-101783174D01*
X102084263Y-101647256D01*
X102087897Y-101627358D01*
X102089694Y-101604535D01*
X102090000Y-101596732D01*
X102090000Y-101507423D01*
X102085670Y-101488453D01*
X102078500Y-101485000D01*
X99862423Y-101485000D01*
X99843453Y-101489330D01*
X99840000Y-101496500D01*
X99840000Y-101596732D01*
X99840306Y-101604535D01*
X99842103Y-101627358D01*
X99845737Y-101647256D01*
X99885225Y-101783174D01*
X99895090Y-101805973D01*
X99962626Y-101920170D01*
X99989615Y-102004521D01*
X99977333Y-102092228D01*
X99928212Y-102165921D01*
X99917113Y-102175682D01*
X99814429Y-102259429D01*
X99808061Y-102267237D01*
X99703505Y-102395436D01*
X99692385Y-102409070D01*
X99602923Y-102580194D01*
X99549698Y-102765813D01*
X99544798Y-102820715D01*
X99540187Y-102872382D01*
X99539500Y-102880076D01*
X99539500Y-102936283D01*
X99519793Y-103022626D01*
X99464574Y-103091867D01*
X99384782Y-103130294D01*
X99296218Y-103130294D01*
X99216426Y-103091867D01*
X99199786Y-103076997D01*
X97706286Y-101583498D01*
X97659167Y-101508510D01*
X97648000Y-101442784D01*
X97648000Y-101062577D01*
X99840000Y-101062577D01*
X99844330Y-101081547D01*
X99851500Y-101085000D01*
X100742577Y-101085000D01*
X100761547Y-101080670D01*
X100765000Y-101073500D01*
X100765000Y-101062577D01*
X101165000Y-101062577D01*
X101169330Y-101081547D01*
X101176500Y-101085000D01*
X102067577Y-101085000D01*
X102086547Y-101080670D01*
X102090000Y-101073500D01*
X102090000Y-100973268D01*
X102089694Y-100965465D01*
X102087897Y-100942642D01*
X102084263Y-100922744D01*
X102044775Y-100786826D01*
X102034910Y-100764027D01*
X101964057Y-100644222D01*
X101948827Y-100624588D01*
X101850412Y-100526173D01*
X101830778Y-100510943D01*
X101710973Y-100440090D01*
X101688174Y-100430225D01*
X101552256Y-100390737D01*
X101532358Y-100387103D01*
X101509535Y-100385306D01*
X101501732Y-100385000D01*
X101187423Y-100385000D01*
X101168453Y-100389330D01*
X101165000Y-100396500D01*
X101165000Y-101062577D01*
X100765000Y-101062577D01*
X100765000Y-100407423D01*
X100760670Y-100388453D01*
X100753500Y-100385000D01*
X100428268Y-100385000D01*
X100420465Y-100385306D01*
X100397642Y-100387103D01*
X100377744Y-100390737D01*
X100241826Y-100430225D01*
X100219027Y-100440090D01*
X100099222Y-100510943D01*
X100079588Y-100526173D01*
X99981173Y-100624588D01*
X99965943Y-100644222D01*
X99895090Y-100764027D01*
X99885225Y-100786826D01*
X99845737Y-100922744D01*
X99842103Y-100942642D01*
X99840306Y-100965465D01*
X99840000Y-100973268D01*
X99840000Y-101062577D01*
X97648000Y-101062577D01*
X97648000Y-97811484D01*
X97667707Y-97725141D01*
X97721227Y-97657270D01*
X97735571Y-97645571D01*
X97857615Y-97495930D01*
X97947077Y-97324806D01*
X98000302Y-97139187D01*
X98010500Y-97024924D01*
X98010500Y-96015076D01*
X98009867Y-96007976D01*
X98001144Y-95910250D01*
X98000302Y-95900813D01*
X97947077Y-95715194D01*
X97939929Y-95701520D01*
X97862287Y-95553007D01*
X97857615Y-95544070D01*
X97848508Y-95532903D01*
X97741939Y-95402237D01*
X97735571Y-95394429D01*
X97637274Y-95314260D01*
X97593743Y-95278757D01*
X97593742Y-95278757D01*
X97585930Y-95272385D01*
X97473009Y-95213351D01*
X97423745Y-95187596D01*
X97423743Y-95187595D01*
X97414806Y-95182923D01*
X97229187Y-95129698D01*
X97174285Y-95124798D01*
X97119342Y-95119894D01*
X97119335Y-95119894D01*
X97114924Y-95119500D01*
X96480076Y-95119500D01*
X96475665Y-95119894D01*
X96475658Y-95119894D01*
X96420715Y-95124798D01*
X96365813Y-95129698D01*
X96180194Y-95182923D01*
X96171257Y-95187595D01*
X96171255Y-95187596D01*
X96018004Y-95267714D01*
X96018001Y-95267716D01*
X96009070Y-95272385D01*
X96001262Y-95278753D01*
X95994542Y-95283184D01*
X95911610Y-95314260D01*
X95823407Y-95306275D01*
X95775458Y-95283184D01*
X95768738Y-95278753D01*
X95760930Y-95272385D01*
X95751999Y-95267716D01*
X95751996Y-95267714D01*
X95598745Y-95187596D01*
X95598743Y-95187595D01*
X95589806Y-95182923D01*
X95404187Y-95129698D01*
X95349285Y-95124798D01*
X95294342Y-95119894D01*
X95294335Y-95119894D01*
X95289924Y-95119500D01*
X94655076Y-95119500D01*
X94650665Y-95119894D01*
X94650658Y-95119894D01*
X94595715Y-95124798D01*
X94540813Y-95129698D01*
X94355194Y-95182923D01*
X94346257Y-95187595D01*
X94346255Y-95187596D01*
X94296991Y-95213351D01*
X94184070Y-95272385D01*
X94176258Y-95278757D01*
X94176257Y-95278757D01*
X94132726Y-95314260D01*
X94034429Y-95394429D01*
X93912385Y-95544070D01*
X93907713Y-95553007D01*
X93907711Y-95553010D01*
X93902647Y-95562696D01*
X93845180Y-95630083D01*
X93764166Y-95665863D01*
X93726293Y-95669500D01*
X92772472Y-95669500D01*
X92686129Y-95649793D01*
X92624558Y-95599835D01*
X92622905Y-95601339D01*
X92462347Y-95424887D01*
X92462344Y-95424884D01*
X92456846Y-95418842D01*
X92450436Y-95413780D01*
X92450431Y-95413775D01*
X92440355Y-95405818D01*
X92384808Y-95336840D01*
X92364691Y-95250592D01*
X92383988Y-95164156D01*
X92423220Y-95108688D01*
X92576605Y-94955837D01*
X92720588Y-94755463D01*
X92724209Y-94748137D01*
X92826296Y-94541579D01*
X92826297Y-94541576D01*
X92829911Y-94534264D01*
X92832283Y-94526457D01*
X92899267Y-94305988D01*
X92899268Y-94305985D01*
X92901639Y-94298180D01*
X92914892Y-94197517D01*
X92933155Y-94058791D01*
X92933845Y-94053550D01*
X92934962Y-94007844D01*
X92935514Y-93985282D01*
X92935514Y-93985280D01*
X92935643Y-93980000D01*
X92915425Y-93734089D01*
X92913438Y-93726179D01*
X92913437Y-93726172D01*
X92857306Y-93502706D01*
X92855316Y-93494783D01*
X92840238Y-93460104D01*
X92760186Y-93276000D01*
X92756928Y-93268507D01*
X92676002Y-93143414D01*
X92627340Y-93068194D01*
X92627338Y-93068192D01*
X92622905Y-93061339D01*
X92602771Y-93039212D01*
X92462347Y-92884887D01*
X92462344Y-92884884D01*
X92456846Y-92878842D01*
X92450436Y-92873780D01*
X92450431Y-92873775D01*
X92440355Y-92865818D01*
X92384808Y-92796840D01*
X92364691Y-92710592D01*
X92383988Y-92624156D01*
X92423220Y-92568688D01*
X92576605Y-92415837D01*
X92720588Y-92215463D01*
X92724209Y-92208137D01*
X92826296Y-92001579D01*
X92826297Y-92001576D01*
X92829911Y-91994264D01*
X92832283Y-91986457D01*
X92899267Y-91765988D01*
X92899268Y-91765985D01*
X92901639Y-91758180D01*
X92914892Y-91657517D01*
X92933155Y-91518791D01*
X92933845Y-91513550D01*
X92934962Y-91467844D01*
X92935514Y-91445282D01*
X92935514Y-91445280D01*
X92935643Y-91440000D01*
X92915425Y-91194089D01*
X92913438Y-91186179D01*
X92913437Y-91186172D01*
X92857306Y-90962706D01*
X92855316Y-90954783D01*
X92840238Y-90920104D01*
X92760186Y-90736000D01*
X92756928Y-90728507D01*
X92665984Y-90587929D01*
X92662629Y-90582743D01*
X103148573Y-90582743D01*
X103150592Y-90602092D01*
X103152168Y-90603100D01*
X103163080Y-90605000D01*
X104347577Y-90605000D01*
X104366547Y-90600670D01*
X104370000Y-90593500D01*
X104370000Y-90582577D01*
X104770000Y-90582577D01*
X104774330Y-90601547D01*
X104781500Y-90605000D01*
X105971697Y-90605000D01*
X105990667Y-90600670D01*
X105991479Y-90598984D01*
X105992054Y-90587929D01*
X105985682Y-90535265D01*
X105979441Y-90510688D01*
X105933668Y-90395079D01*
X105920469Y-90371656D01*
X105845765Y-90273238D01*
X105826762Y-90254235D01*
X105728344Y-90179531D01*
X105704921Y-90166332D01*
X105589305Y-90120557D01*
X105564743Y-90114319D01*
X105493671Y-90105719D01*
X105481748Y-90105000D01*
X104792423Y-90105000D01*
X104773453Y-90109330D01*
X104770000Y-90116500D01*
X104770000Y-90582577D01*
X104370000Y-90582577D01*
X104370000Y-90127423D01*
X104365670Y-90108453D01*
X104358500Y-90105000D01*
X103658252Y-90105000D01*
X103646329Y-90105719D01*
X103575257Y-90114319D01*
X103550695Y-90120557D01*
X103435079Y-90166332D01*
X103411656Y-90179531D01*
X103313238Y-90254235D01*
X103294235Y-90273238D01*
X103219531Y-90371656D01*
X103206332Y-90395079D01*
X103160559Y-90510688D01*
X103154318Y-90535265D01*
X103148573Y-90582743D01*
X92662629Y-90582743D01*
X92627340Y-90528194D01*
X92627338Y-90528192D01*
X92622905Y-90521339D01*
X92617411Y-90515301D01*
X92462347Y-90344887D01*
X92462344Y-90344884D01*
X92456846Y-90338842D01*
X92450436Y-90333780D01*
X92450431Y-90333775D01*
X92440355Y-90325818D01*
X92384808Y-90256840D01*
X92364691Y-90170592D01*
X92383988Y-90084156D01*
X92423220Y-90028688D01*
X92547534Y-89904807D01*
X92570817Y-89881605D01*
X92570818Y-89881604D01*
X92576605Y-89875837D01*
X92720588Y-89675463D01*
X92727245Y-89661994D01*
X92826296Y-89461579D01*
X92826297Y-89461576D01*
X92829911Y-89454264D01*
X92846069Y-89401081D01*
X92899267Y-89225988D01*
X92899268Y-89225985D01*
X92901639Y-89218180D01*
X92914892Y-89117517D01*
X92933155Y-88978791D01*
X92933845Y-88973550D01*
X92935643Y-88900000D01*
X92934518Y-88886310D01*
X92916094Y-88662225D01*
X92916094Y-88662224D01*
X92915425Y-88654089D01*
X92913438Y-88646179D01*
X92913437Y-88646172D01*
X92857306Y-88422706D01*
X92855316Y-88414783D01*
X92840238Y-88380104D01*
X92760186Y-88196000D01*
X92756928Y-88188507D01*
X92654674Y-88030446D01*
X92627340Y-87988194D01*
X92627338Y-87988192D01*
X92622905Y-87981339D01*
X92613023Y-87970479D01*
X92462347Y-87804887D01*
X92462344Y-87804884D01*
X92456846Y-87798842D01*
X92450436Y-87793780D01*
X92450431Y-87793775D01*
X92440355Y-87785818D01*
X92384808Y-87716840D01*
X92364691Y-87630592D01*
X92383988Y-87544156D01*
X92423220Y-87488688D01*
X92576605Y-87335837D01*
X92720588Y-87135463D01*
X92735007Y-87106289D01*
X92826296Y-86921579D01*
X92826297Y-86921576D01*
X92829911Y-86914264D01*
X92832283Y-86906457D01*
X92899267Y-86685988D01*
X92899268Y-86685985D01*
X92901639Y-86678180D01*
X92914892Y-86577517D01*
X92933155Y-86438791D01*
X92933845Y-86433550D01*
X92935643Y-86360000D01*
X92929958Y-86290847D01*
X92916094Y-86122225D01*
X92916094Y-86122224D01*
X92915425Y-86114089D01*
X92913438Y-86106179D01*
X92913437Y-86106172D01*
X92857306Y-85882706D01*
X92855316Y-85874783D01*
X92840238Y-85840104D01*
X92760186Y-85656000D01*
X92756928Y-85648507D01*
X92622905Y-85441339D01*
X92596772Y-85412619D01*
X92462347Y-85264887D01*
X92462344Y-85264884D01*
X92456846Y-85258842D01*
X92450436Y-85253780D01*
X92450431Y-85253775D01*
X92440355Y-85245818D01*
X92384808Y-85176840D01*
X92364691Y-85090592D01*
X92383988Y-85004156D01*
X92423220Y-84948688D01*
X92556260Y-84816111D01*
X92570818Y-84801604D01*
X92570819Y-84801603D01*
X92576605Y-84795837D01*
X92607119Y-84753372D01*
X92673505Y-84694758D01*
X92758752Y-84670750D01*
X92768721Y-84670500D01*
X93726293Y-84670500D01*
X93812636Y-84690207D01*
X93881877Y-84745426D01*
X93902647Y-84777304D01*
X93912385Y-84795930D01*
X94034429Y-84945571D01*
X94042237Y-84951939D01*
X94173576Y-85059056D01*
X94184070Y-85067615D01*
X94355194Y-85157077D01*
X94540813Y-85210302D01*
X94589418Y-85214640D01*
X94650658Y-85220106D01*
X94650665Y-85220106D01*
X94655076Y-85220500D01*
X95289924Y-85220500D01*
X95294335Y-85220106D01*
X95294342Y-85220106D01*
X95355582Y-85214640D01*
X95404187Y-85210302D01*
X95589806Y-85157077D01*
X95612144Y-85145399D01*
X95751996Y-85072286D01*
X95751999Y-85072284D01*
X95760930Y-85067615D01*
X95768738Y-85061247D01*
X95775458Y-85056816D01*
X95858390Y-85025740D01*
X95946593Y-85033725D01*
X95994542Y-85056816D01*
X96001262Y-85061247D01*
X96009070Y-85067615D01*
X96018001Y-85072284D01*
X96018004Y-85072286D01*
X96157856Y-85145399D01*
X96180194Y-85157077D01*
X96365813Y-85210302D01*
X96414418Y-85214640D01*
X96475658Y-85220106D01*
X96475665Y-85220106D01*
X96480076Y-85220500D01*
X97114924Y-85220500D01*
X97119335Y-85220106D01*
X97119342Y-85220106D01*
X97180582Y-85214640D01*
X97229187Y-85210302D01*
X97414806Y-85157077D01*
X97585930Y-85067615D01*
X97596425Y-85059056D01*
X97727763Y-84951939D01*
X97735571Y-84945571D01*
X97857615Y-84795930D01*
X97867353Y-84777304D01*
X97924820Y-84709917D01*
X98005834Y-84674137D01*
X98043707Y-84670500D01*
X98291509Y-84670500D01*
X98377852Y-84690207D01*
X98402068Y-84704038D01*
X98511718Y-84777304D01*
X98532637Y-84791282D01*
X98561643Y-84803744D01*
X98710094Y-84867524D01*
X98710100Y-84867526D01*
X98718470Y-84871122D01*
X98727359Y-84873133D01*
X98727364Y-84873135D01*
X98898030Y-84911752D01*
X98915740Y-84915760D01*
X98924850Y-84916118D01*
X98924851Y-84916118D01*
X98978603Y-84918230D01*
X99117842Y-84923700D01*
X99126863Y-84922392D01*
X99126864Y-84922392D01*
X99196275Y-84912328D01*
X99318007Y-84894678D01*
X99326640Y-84891747D01*
X99326642Y-84891747D01*
X99469988Y-84843087D01*
X99509531Y-84829664D01*
X99686001Y-84730837D01*
X99711155Y-84709917D01*
X99834494Y-84607336D01*
X99841505Y-84601505D01*
X99926874Y-84498861D01*
X99965003Y-84453016D01*
X99965005Y-84453014D01*
X99970837Y-84446001D01*
X100069664Y-84269531D01*
X100134678Y-84078007D01*
X100160663Y-83898791D01*
X100162860Y-83883636D01*
X100162860Y-83883635D01*
X100163700Y-83877842D01*
X100165215Y-83820000D01*
X100149814Y-83652392D01*
X100147543Y-83627676D01*
X100147543Y-83627674D01*
X100146708Y-83618591D01*
X100091807Y-83423926D01*
X100002351Y-83242527D01*
X99881335Y-83080467D01*
X99732812Y-82943174D01*
X99561757Y-82835246D01*
X99553280Y-82831864D01*
X99553278Y-82831863D01*
X99470865Y-82798984D01*
X99373898Y-82760298D01*
X99364957Y-82758520D01*
X99364952Y-82758518D01*
X99185857Y-82722894D01*
X99175526Y-82720839D01*
X99073032Y-82719498D01*
X98982411Y-82718311D01*
X98982406Y-82718311D01*
X98973286Y-82718192D01*
X98964296Y-82719737D01*
X98964293Y-82719737D01*
X98894446Y-82731739D01*
X98773949Y-82752444D01*
X98765398Y-82755599D01*
X98765393Y-82755600D01*
X98592752Y-82819291D01*
X98592748Y-82819293D01*
X98584193Y-82822449D01*
X98576355Y-82827112D01*
X98576351Y-82827114D01*
X98547851Y-82844070D01*
X98410371Y-82925862D01*
X98403860Y-82931572D01*
X98322598Y-82966303D01*
X98287069Y-82969500D01*
X98043707Y-82969500D01*
X97957364Y-82949793D01*
X97888123Y-82894574D01*
X97867353Y-82862696D01*
X97862289Y-82853010D01*
X97862288Y-82853008D01*
X97857615Y-82844070D01*
X97735571Y-82694429D01*
X97622227Y-82601988D01*
X97593743Y-82578757D01*
X97593742Y-82578757D01*
X97585930Y-82572385D01*
X97414806Y-82482923D01*
X97229187Y-82429698D01*
X97174285Y-82424798D01*
X97119342Y-82419894D01*
X97119335Y-82419894D01*
X97114924Y-82419500D01*
X96480076Y-82419500D01*
X96475665Y-82419894D01*
X96475658Y-82419894D01*
X96420715Y-82424798D01*
X96365813Y-82429698D01*
X96180194Y-82482923D01*
X96171257Y-82487595D01*
X96171255Y-82487596D01*
X96018004Y-82567714D01*
X96018001Y-82567716D01*
X96009070Y-82572385D01*
X96001262Y-82578753D01*
X95994542Y-82583184D01*
X95911610Y-82614260D01*
X95823407Y-82606275D01*
X95775458Y-82583184D01*
X95768738Y-82578753D01*
X95760930Y-82572385D01*
X95751999Y-82567716D01*
X95751996Y-82567714D01*
X95598745Y-82487596D01*
X95598743Y-82487595D01*
X95589806Y-82482923D01*
X95404187Y-82429698D01*
X95349285Y-82424798D01*
X95294342Y-82419894D01*
X95294335Y-82419894D01*
X95289924Y-82419500D01*
X94655076Y-82419500D01*
X94650665Y-82419894D01*
X94650658Y-82419894D01*
X94595715Y-82424798D01*
X94540813Y-82429698D01*
X94355194Y-82482923D01*
X94184070Y-82572385D01*
X94176258Y-82578757D01*
X94176257Y-82578757D01*
X94147773Y-82601988D01*
X94034429Y-82694429D01*
X93912385Y-82844070D01*
X93907712Y-82853008D01*
X93907711Y-82853010D01*
X93902647Y-82862696D01*
X93845180Y-82930083D01*
X93764166Y-82965863D01*
X93726293Y-82969500D01*
X92772472Y-82969500D01*
X92686129Y-82949793D01*
X92624558Y-82899835D01*
X92622905Y-82901339D01*
X92462347Y-82724887D01*
X92462344Y-82724884D01*
X92456846Y-82718842D01*
X92450436Y-82713780D01*
X92450431Y-82713775D01*
X92440355Y-82705818D01*
X92384808Y-82636840D01*
X92364691Y-82550592D01*
X92383988Y-82464156D01*
X92423220Y-82408688D01*
X92556897Y-82275476D01*
X92570817Y-82261605D01*
X92570818Y-82261604D01*
X92576605Y-82255837D01*
X92720588Y-82055463D01*
X92730731Y-82034940D01*
X92826296Y-81841579D01*
X92826297Y-81841576D01*
X92829911Y-81834264D01*
X92850435Y-81766711D01*
X92899267Y-81605988D01*
X92899268Y-81605985D01*
X92901639Y-81598180D01*
X92914543Y-81500168D01*
X92933155Y-81358791D01*
X92933845Y-81353550D01*
X92934962Y-81307844D01*
X92935514Y-81285282D01*
X92935514Y-81285280D01*
X92935643Y-81280000D01*
X92915425Y-81034089D01*
X92913438Y-81026179D01*
X92913437Y-81026172D01*
X92857306Y-80802706D01*
X92855316Y-80794783D01*
X92840238Y-80760104D01*
X92760186Y-80576000D01*
X92756928Y-80568507D01*
X92622905Y-80361339D01*
X92602771Y-80339212D01*
X92462347Y-80184887D01*
X92462344Y-80184884D01*
X92456846Y-80178842D01*
X92450436Y-80173780D01*
X92450431Y-80173775D01*
X92440355Y-80165818D01*
X92384808Y-80096840D01*
X92364691Y-80010592D01*
X92383988Y-79924156D01*
X92423220Y-79868688D01*
X92576605Y-79715837D01*
X92607119Y-79673372D01*
X92673505Y-79614758D01*
X92758752Y-79590750D01*
X92768721Y-79590500D01*
X102645500Y-79590500D01*
X102731843Y-79610207D01*
G37*
%TD.AperFunction*%
%TA.AperFunction,Conductor*%
G36*
X89007398Y-70085207D02*
G01*
X89076639Y-70140426D01*
X89115066Y-70220218D01*
X89115066Y-70308782D01*
X89076639Y-70388574D01*
X89034689Y-70425319D01*
X89035578Y-70426490D01*
X89026991Y-70433008D01*
X89017756Y-70438557D01*
X89011396Y-70444571D01*
X89008146Y-70447029D01*
X89001262Y-70451398D01*
X88997028Y-70455183D01*
X88944248Y-70507963D01*
X88940265Y-70511837D01*
X88883493Y-70565524D01*
X88878201Y-70573311D01*
X88869851Y-70582360D01*
X87694814Y-71757398D01*
X87682546Y-71768680D01*
X87645460Y-71800020D01*
X87597095Y-71863279D01*
X87594171Y-71867009D01*
X87544269Y-71929073D01*
X87539599Y-71938480D01*
X87533223Y-71946820D01*
X87501238Y-72015414D01*
X87499600Y-72018926D01*
X87497490Y-72023309D01*
X87466899Y-72084933D01*
X87466895Y-72084943D01*
X87462105Y-72094593D01*
X87459565Y-72104779D01*
X87455127Y-72114297D01*
X87452778Y-72124807D01*
X87437773Y-72191937D01*
X87436654Y-72196670D01*
X87424604Y-72245000D01*
X87417400Y-72273894D01*
X87417156Y-72282646D01*
X87416597Y-72286676D01*
X87414817Y-72294637D01*
X87414500Y-72300307D01*
X87414500Y-72374965D01*
X87414422Y-72380521D01*
X87412241Y-72458611D01*
X87414006Y-72467863D01*
X87414500Y-72480164D01*
X87414500Y-75308555D01*
X87394793Y-75394898D01*
X87339574Y-75464139D01*
X87259782Y-75502566D01*
X87171218Y-75502566D01*
X87091426Y-75464139D01*
X87054681Y-75422189D01*
X87053510Y-75423078D01*
X87046992Y-75414491D01*
X87041443Y-75405256D01*
X87035429Y-75398896D01*
X87032971Y-75395646D01*
X87028602Y-75388762D01*
X87024817Y-75384528D01*
X86972036Y-75331747D01*
X86968162Y-75327764D01*
X86930742Y-75288194D01*
X86914476Y-75270993D01*
X86906689Y-75265701D01*
X86897640Y-75257351D01*
X85006219Y-73365930D01*
X82901002Y-71260714D01*
X82853883Y-71185726D01*
X82843967Y-71097719D01*
X82873218Y-71014126D01*
X82900999Y-70979290D01*
X83756502Y-70123786D01*
X83831490Y-70076667D01*
X83897216Y-70065500D01*
X88921055Y-70065500D01*
X89007398Y-70085207D01*
G37*
%TD.AperFunction*%
%TA.AperFunction,Conductor*%
G36*
X98455011Y-70085207D02*
G01*
X98524252Y-70140426D01*
X98562679Y-70220218D01*
X98562679Y-70308782D01*
X98539957Y-70365797D01*
X98535091Y-70374025D01*
X98525225Y-70396826D01*
X98485737Y-70532744D01*
X98482103Y-70552642D01*
X98480306Y-70575465D01*
X98480000Y-70583268D01*
X98480000Y-70897577D01*
X98484330Y-70916547D01*
X98491500Y-70920000D01*
X99381000Y-70920000D01*
X99467343Y-70939707D01*
X99536584Y-70994926D01*
X99575011Y-71074718D01*
X99580000Y-71119000D01*
X99580000Y-72222577D01*
X99584330Y-72241547D01*
X99591500Y-72245000D01*
X99691732Y-72245000D01*
X99699535Y-72244694D01*
X99722358Y-72242897D01*
X99742256Y-72239263D01*
X99878174Y-72199775D01*
X99900973Y-72189910D01*
X100015170Y-72122374D01*
X100099521Y-72095385D01*
X100187228Y-72107667D01*
X100260921Y-72156788D01*
X100270682Y-72167887D01*
X100354429Y-72270571D01*
X100383937Y-72294637D01*
X100492654Y-72383304D01*
X100504070Y-72392615D01*
X100513007Y-72397287D01*
X100583511Y-72434146D01*
X100650898Y-72491613D01*
X100686678Y-72572627D01*
X100683763Y-72661142D01*
X100642732Y-72739627D01*
X100571711Y-72792537D01*
X100491315Y-72809500D01*
X99494717Y-72809500D01*
X99408374Y-72789793D01*
X99354003Y-72751214D01*
X99149088Y-72546299D01*
X99101969Y-72471311D01*
X99092053Y-72383304D01*
X99121304Y-72299711D01*
X99165725Y-72250002D01*
X99175999Y-72241809D01*
X99180000Y-72233500D01*
X99180000Y-71342423D01*
X99175670Y-71323453D01*
X99168500Y-71320000D01*
X98502423Y-71320000D01*
X98483453Y-71324330D01*
X98480000Y-71331500D01*
X98480000Y-71460950D01*
X98460293Y-71547293D01*
X98405074Y-71616534D01*
X98325282Y-71654961D01*
X98236718Y-71654961D01*
X98196899Y-71641305D01*
X98161073Y-71624599D01*
X98156691Y-71622490D01*
X98095067Y-71591899D01*
X98095057Y-71591895D01*
X98085407Y-71587105D01*
X98075221Y-71584565D01*
X98065703Y-71580127D01*
X98055194Y-71577778D01*
X98055191Y-71577777D01*
X98018530Y-71569583D01*
X97938565Y-71531516D01*
X97885585Y-71467572D01*
X97864173Y-71426615D01*
X97857615Y-71414070D01*
X97839942Y-71392400D01*
X97741939Y-71272237D01*
X97735571Y-71264429D01*
X97585930Y-71142385D01*
X97414806Y-71052923D01*
X97229187Y-70999698D01*
X97174285Y-70994798D01*
X97119342Y-70989894D01*
X97119335Y-70989894D01*
X97114924Y-70989500D01*
X96480076Y-70989500D01*
X96475665Y-70989894D01*
X96475658Y-70989894D01*
X96420715Y-70994798D01*
X96365813Y-70999698D01*
X96180194Y-71052923D01*
X96171257Y-71057595D01*
X96171255Y-71057596D01*
X96018004Y-71137714D01*
X96018001Y-71137716D01*
X96009070Y-71142385D01*
X96001262Y-71148753D01*
X95994542Y-71153184D01*
X95911610Y-71184260D01*
X95823407Y-71176275D01*
X95775458Y-71153184D01*
X95768738Y-71148753D01*
X95760930Y-71142385D01*
X95751999Y-71137716D01*
X95751996Y-71137714D01*
X95598745Y-71057596D01*
X95598743Y-71057595D01*
X95589806Y-71052923D01*
X95404187Y-70999698D01*
X95349285Y-70994798D01*
X95294342Y-70989894D01*
X95294335Y-70989894D01*
X95289924Y-70989500D01*
X94655076Y-70989500D01*
X94650665Y-70989894D01*
X94650658Y-70989894D01*
X94595715Y-70994798D01*
X94540813Y-70999698D01*
X94355194Y-71052923D01*
X94184070Y-71142385D01*
X94034429Y-71264429D01*
X93912385Y-71414070D01*
X93907712Y-71423008D01*
X93907711Y-71423010D01*
X93902647Y-71432696D01*
X93845180Y-71500083D01*
X93764166Y-71535863D01*
X93726293Y-71539500D01*
X93115216Y-71539500D01*
X93028873Y-71519793D01*
X92959632Y-71464574D01*
X92921205Y-71384782D01*
X92917919Y-71314525D01*
X92933154Y-71198810D01*
X92933156Y-71198782D01*
X92933845Y-71193550D01*
X92935643Y-71120000D01*
X92934804Y-71109789D01*
X92916094Y-70882225D01*
X92916094Y-70882224D01*
X92915425Y-70874089D01*
X92913438Y-70866179D01*
X92913437Y-70866172D01*
X92857306Y-70642706D01*
X92855316Y-70634783D01*
X92840238Y-70600104D01*
X92760186Y-70416000D01*
X92756928Y-70408507D01*
X92744033Y-70388574D01*
X92733693Y-70372590D01*
X92703341Y-70289390D01*
X92712094Y-70201261D01*
X92758218Y-70125656D01*
X92832578Y-70077552D01*
X92900778Y-70065500D01*
X98368668Y-70065500D01*
X98455011Y-70085207D01*
G37*
%TD.AperFunction*%
%TD*%
M02*
