%TF.GenerationSoftware,KiCad,Pcbnew,(6.0.0)*%
%TF.CreationDate,2022-02-22T05:40:17+01:00*%
%TF.ProjectId,Programmer,50726f67-7261-46d6-9d65-722e6b696361,rev?*%
%TF.SameCoordinates,Original*%
%TF.FileFunction,Copper,L2,Bot*%
%TF.FilePolarity,Positive*%
%FSLAX46Y46*%
G04 Gerber Fmt 4.6, Leading zero omitted, Abs format (unit mm)*
G04 Created by KiCad (PCBNEW (6.0.0)) date 2022-02-22 05:40:17*
%MOMM*%
%LPD*%
G01*
G04 APERTURE LIST*
%TA.AperFunction,ComponentPad*%
%ADD10R,1.600000X1.600000*%
%TD*%
%TA.AperFunction,ComponentPad*%
%ADD11O,1.600000X1.600000*%
%TD*%
%TA.AperFunction,ComponentPad*%
%ADD12R,1.700000X1.700000*%
%TD*%
%TA.AperFunction,ComponentPad*%
%ADD13O,1.700000X1.700000*%
%TD*%
%TA.AperFunction,ViaPad*%
%ADD14C,0.800000*%
%TD*%
%TA.AperFunction,Conductor*%
%ADD15C,0.600000*%
%TD*%
%TA.AperFunction,Conductor*%
%ADD16C,1.600000*%
%TD*%
%TA.AperFunction,Conductor*%
%ADD17C,0.300000*%
%TD*%
G04 APERTURE END LIST*
D10*
%TO.P,U1,1,D1/TX*%
%TO.N,unconnected-(U1-Pad1)*%
X91430000Y-106680000D03*
D11*
%TO.P,U1,2,D0/RX*%
%TO.N,unconnected-(U1-Pad2)*%
X91430000Y-104140000D03*
%TO.P,U1,3,~{RESET}*%
%TO.N,unconnected-(U1-Pad3)*%
X91430000Y-101600000D03*
%TO.P,U1,4,GND*%
%TO.N,GND*%
X91430000Y-99060000D03*
%TO.P,U1,5,D2*%
%TO.N,Net-(U1-Pad5)*%
X91430000Y-96520000D03*
%TO.P,U1,6,D3*%
%TO.N,unconnected-(U1-Pad6)*%
X91430000Y-93980000D03*
%TO.P,U1,7,D4*%
%TO.N,PB6*%
X91430000Y-91440000D03*
%TO.P,U1,8,D5*%
%TO.N,~{CE}*%
X91430000Y-88900000D03*
%TO.P,U1,9,D6*%
%TO.N,~{OE}*%
X91430000Y-86360000D03*
%TO.P,U1,10,D7*%
%TO.N,Net-(R1-Pad1)*%
X91430000Y-83820000D03*
%TO.P,U1,11,D8*%
%TO.N,unconnected-(U1-Pad11)*%
X91430000Y-81280000D03*
%TO.P,U1,12,D9*%
%TO.N,/~{RESET}*%
X91430000Y-78740000D03*
%TO.P,U1,13,D10*%
%TO.N,Net-(R3-Pad1)*%
X91430000Y-76200000D03*
%TO.P,U1,14,D11*%
%TO.N,Net-(R4-Pad1)*%
X91430000Y-73660000D03*
%TO.P,U1,15,D12*%
%TO.N,/MISO*%
X91430000Y-71120000D03*
%TO.P,U1,16,D13*%
%TO.N,Net-(R5-Pad1)*%
X76190000Y-71120000D03*
%TO.P,U1,17,3V3*%
%TO.N,unconnected-(U1-Pad17)*%
X76190000Y-73660000D03*
%TO.P,U1,18,AREF*%
%TO.N,unconnected-(U1-Pad18)*%
X76190000Y-76200000D03*
%TO.P,U1,19,A0*%
%TO.N,unconnected-(U1-Pad19)*%
X76190000Y-78740000D03*
%TO.P,U1,20,A1*%
%TO.N,unconnected-(U1-Pad20)*%
X76190000Y-81280000D03*
%TO.P,U1,21,A2*%
%TO.N,unconnected-(U1-Pad21)*%
X76190000Y-83820000D03*
%TO.P,U1,22,A3*%
%TO.N,unconnected-(U1-Pad22)*%
X76190000Y-86360000D03*
%TO.P,U1,23,A4*%
%TO.N,unconnected-(U1-Pad23)*%
X76190000Y-88900000D03*
%TO.P,U1,24,A5*%
%TO.N,unconnected-(U1-Pad24)*%
X76190000Y-91440000D03*
%TO.P,U1,25,A6*%
%TO.N,unconnected-(U1-Pad25)*%
X76190000Y-93980000D03*
%TO.P,U1,26,A7*%
%TO.N,unconnected-(U1-Pad26)*%
X76190000Y-96520000D03*
%TO.P,U1,27,+5V*%
%TO.N,+5V*%
X76190000Y-99060000D03*
%TO.P,U1,28,~{RESET}*%
%TO.N,unconnected-(U1-Pad28)*%
X76190000Y-101600000D03*
%TO.P,U1,29,GND*%
%TO.N,GND*%
X76190000Y-104140000D03*
%TO.P,U1,30,VIN*%
%TO.N,unconnected-(U1-Pad30)*%
X76190000Y-106680000D03*
%TD*%
D12*
%TO.P,J1,1,HALT*%
%TO.N,~{RW}*%
X182880000Y-86494300D03*
D13*
%TO.P,J1,2,VCC*%
%TO.N,+5V*%
X182880000Y-91345700D03*
%TO.P,J1,3,A7*%
%TO.N,Net-(J1-Pad3)*%
X180340000Y-86494300D03*
%TO.P,J1,4,VCC2*%
%TO.N,+5V*%
X180340000Y-91345700D03*
%TO.P,J1,5,A6*%
%TO.N,Net-(J1-Pad5)*%
X177800000Y-86494300D03*
%TO.P,J1,6,A8*%
%TO.N,Net-(J1-Pad6)*%
X177800000Y-91345700D03*
%TO.P,J1,7,A5*%
%TO.N,Net-(J1-Pad7)*%
X175260000Y-86494300D03*
%TO.P,J1,8,A9*%
%TO.N,Net-(J1-Pad8)*%
X175260000Y-91345700D03*
%TO.P,J1,9,A4*%
%TO.N,Net-(J1-Pad9)*%
X172720000Y-86494300D03*
%TO.P,J1,10,A11*%
%TO.N,Net-(J1-Pad10)*%
X172720000Y-91345700D03*
%TO.P,J1,11,A3*%
%TO.N,Net-(J1-Pad11)*%
X170180000Y-86494300D03*
%TO.P,J1,12,OE*%
%TO.N,~{OE}*%
X170180000Y-91345700D03*
%TO.P,J1,13,A2*%
%TO.N,Net-(J1-Pad13)*%
X167640000Y-86494300D03*
%TO.P,J1,14,A10*%
%TO.N,Net-(J1-Pad14)*%
X167640000Y-91345700D03*
%TO.P,J1,15,A1*%
%TO.N,Net-(J1-Pad15)*%
X165100000Y-86494300D03*
%TO.P,J1,16,CE*%
%TO.N,~{CE}*%
X165100000Y-91345700D03*
%TO.P,J1,17,A0*%
%TO.N,Net-(J1-Pad17)*%
X162560000Y-86494300D03*
%TO.P,J1,18,D7*%
%TO.N,Net-(J1-Pad18)*%
X162560000Y-91345700D03*
%TO.P,J1,19,D0*%
%TO.N,Net-(J1-Pad19)*%
X160020000Y-86494300D03*
%TO.P,J1,20,D6*%
%TO.N,Net-(J1-Pad20)*%
X160020000Y-91345700D03*
%TO.P,J1,21,D1*%
%TO.N,Net-(J1-Pad21)*%
X157480000Y-86494300D03*
%TO.P,J1,22,D5*%
%TO.N,Net-(J1-Pad22)*%
X157480000Y-91345700D03*
%TO.P,J1,23,D2*%
%TO.N,Net-(J1-Pad23)*%
X154940000Y-86494300D03*
%TO.P,J1,24,D4*%
%TO.N,Net-(J1-Pad24)*%
X154940000Y-91345700D03*
%TO.P,J1,25,GND*%
%TO.N,GND*%
X152400000Y-86494300D03*
%TO.P,J1,26,D3*%
%TO.N,Net-(J1-Pad26)*%
X152400000Y-91345700D03*
%TO.P,J1,27,GND1*%
%TO.N,GND*%
X149860000Y-86494300D03*
%TO.P,J1,28,GND2*%
X149860000Y-91345700D03*
%TO.P,J1,29,A12*%
%TO.N,Net-(J1-Pad29)*%
X147320000Y-86494300D03*
%TO.P,J1,30,RW*%
%TO.N,unconnected-(J1-Pad30)*%
X147320000Y-91345700D03*
%TO.P,J1,31,A13*%
%TO.N,Net-(J1-Pad31)*%
X144780000Y-86494300D03*
%TO.P,J1,32,CART*%
%TO.N,unconnected-(J1-Pad32)*%
X144780000Y-91345700D03*
%TO.P,J1,33,A14*%
%TO.N,Net-(J1-Pad33)*%
X142240000Y-86494300D03*
%TO.P,J1,34,NMI*%
%TO.N,unconnected-(J1-Pad34)*%
X142240000Y-91345700D03*
%TO.P,J1,35,PB6*%
%TO.N,PB6*%
X139700000Y-86494300D03*
%TO.P,J1,36,IRQ*%
%TO.N,unconnected-(J1-Pad36)*%
X139700000Y-91345700D03*
%TD*%
D14*
%TO.N,+5V*%
X102235000Y-71120000D03*
X106680000Y-103505000D03*
%TO.N,Net-(J1-Pad3)*%
X106680000Y-102235000D03*
%TO.N,~{RW}*%
X99060000Y-83820000D03*
%TO.N,Net-(J1-Pad5)*%
X106680000Y-100965000D03*
%TO.N,Net-(J1-Pad7)*%
X106680000Y-99695000D03*
%TO.N,Net-(J1-Pad9)*%
X106680000Y-98425000D03*
%TO.N,Net-(J1-Pad11)*%
X106680000Y-97155000D03*
%TO.N,Net-(J1-Pad13)*%
X106680000Y-95885000D03*
%TO.N,Net-(J1-Pad15)*%
X106680000Y-94615000D03*
%TO.N,Net-(J1-Pad17)*%
X106680000Y-93345000D03*
%TO.N,Net-(J1-Pad19)*%
X107315000Y-88265000D03*
%TO.N,Net-(J1-Pad21)*%
X116205000Y-81280000D03*
%TO.N,Net-(J1-Pad23)*%
X119380000Y-82550000D03*
%TO.N,GND*%
X139700000Y-58420000D03*
X121285000Y-90805000D03*
X111125000Y-84455000D03*
X84455000Y-77470000D03*
X93599000Y-70612000D03*
X203200000Y-116840000D03*
X73660000Y-116840000D03*
X100965000Y-99695000D03*
X109220000Y-74295000D03*
X136525000Y-90805000D03*
X136525000Y-84455000D03*
X97917000Y-70612000D03*
X203200000Y-58420000D03*
X84455000Y-71120000D03*
X84455000Y-87630000D03*
X100965000Y-93980000D03*
X100965000Y-81280000D03*
X93980000Y-93980000D03*
X106680000Y-90805000D03*
X93599000Y-81280000D03*
X84455000Y-101600000D03*
X73660000Y-58420000D03*
X109220000Y-106680000D03*
X139700000Y-116840000D03*
X121285000Y-84455000D03*
X111125000Y-90805000D03*
X109220000Y-67945000D03*
%TO.N,/MISO*%
X87630000Y-104140000D03*
%TO.N,/~{RESET}*%
X88900000Y-105410000D03*
%TD*%
D15*
%TO.N,+5V*%
X89535000Y-69215000D02*
X78740000Y-80010000D01*
X78740000Y-80010000D02*
X78740000Y-98107500D01*
D16*
X78105000Y-99060000D02*
X78740000Y-99695000D01*
X88900000Y-109855000D02*
X96520000Y-109855000D01*
X172720000Y-104140000D02*
X181610000Y-95250000D01*
D15*
X78740000Y-98107500D02*
X78740000Y-99695000D01*
X78105000Y-98742500D02*
X78105000Y-99060000D01*
D16*
X76190000Y-99060000D02*
X78105000Y-99060000D01*
X181610000Y-91440000D02*
X181515700Y-91345700D01*
X181515700Y-91345700D02*
X180340000Y-91345700D01*
X78740000Y-99695000D02*
X88900000Y-109855000D01*
X96520000Y-109855000D02*
X102235000Y-104140000D01*
X181515700Y-91345700D02*
X182880000Y-91345700D01*
D15*
X78740000Y-98107500D02*
X78105000Y-98742500D01*
D16*
X102235000Y-104140000D02*
X172720000Y-104140000D01*
X181610000Y-95250000D02*
X181610000Y-91440000D01*
D15*
X102235000Y-71120000D02*
X100330000Y-69215000D01*
X100330000Y-69215000D02*
X89535000Y-69215000D01*
D17*
%TO.N,Net-(J1-Pad3)*%
X169545000Y-102235000D02*
X106680000Y-102235000D01*
X180340000Y-88265000D02*
X179070000Y-89535000D01*
X180340000Y-86494300D02*
X180340000Y-88265000D01*
X179070000Y-92710000D02*
X169545000Y-102235000D01*
X179070000Y-89535000D02*
X179070000Y-92710000D01*
%TO.N,~{RW}*%
X109220000Y-76200000D02*
X173990000Y-76200000D01*
X182880000Y-85090000D02*
X182880000Y-86494300D01*
X99060000Y-83820000D02*
X101600000Y-83820000D01*
X101600000Y-83820000D02*
X109220000Y-76200000D01*
X173990000Y-76200000D02*
X182880000Y-85090000D01*
%TO.N,Net-(J1-Pad5)*%
X177800000Y-88265000D02*
X177800000Y-86494300D01*
X176530000Y-89535000D02*
X177800000Y-88265000D01*
X106680000Y-100965000D02*
X168275000Y-100965000D01*
X176530000Y-92710000D02*
X176530000Y-89535000D01*
X168275000Y-100965000D02*
X176530000Y-92710000D01*
%TO.N,Net-(J1-Pad7)*%
X173990000Y-92710000D02*
X167005000Y-99695000D01*
X175260000Y-88265000D02*
X173990000Y-89535000D01*
X175260000Y-86494300D02*
X175260000Y-88265000D01*
X173990000Y-89535000D02*
X173990000Y-92710000D01*
X167005000Y-99695000D02*
X106680000Y-99695000D01*
%TO.N,Net-(J1-Pad9)*%
X172720000Y-88900000D02*
X172720000Y-86494300D01*
X171450000Y-90170000D02*
X172720000Y-88900000D01*
X171450000Y-92710000D02*
X171450000Y-90170000D01*
X106680000Y-98425000D02*
X165735000Y-98425000D01*
X165735000Y-98425000D02*
X171450000Y-92710000D01*
%TO.N,Net-(J1-Pad11)*%
X170180000Y-87630000D02*
X168910000Y-88900000D01*
X168910000Y-92710000D02*
X164465000Y-97155000D01*
X168910000Y-88900000D02*
X168910000Y-92710000D01*
X164465000Y-97155000D02*
X106680000Y-97155000D01*
X170180000Y-86494300D02*
X170180000Y-87630000D01*
%TO.N,~{OE}*%
X171450000Y-88265000D02*
X171450000Y-85090000D01*
X171450000Y-85090000D02*
X163830000Y-77470000D01*
X110490000Y-77470000D02*
X101600000Y-86360000D01*
X101600000Y-86360000D02*
X91430000Y-86360000D01*
X170180000Y-89535000D02*
X171450000Y-88265000D01*
X170180000Y-91345700D02*
X170180000Y-89535000D01*
X163830000Y-77470000D02*
X110490000Y-77470000D01*
%TO.N,Net-(J1-Pad13)*%
X163195000Y-95885000D02*
X166370000Y-92710000D01*
X166370000Y-92710000D02*
X166370000Y-90170000D01*
X166370000Y-90170000D02*
X167640000Y-88900000D01*
X106680000Y-95885000D02*
X163195000Y-95885000D01*
X167640000Y-88900000D02*
X167640000Y-86494300D01*
%TO.N,Net-(J1-Pad15)*%
X163830000Y-88900000D02*
X163830000Y-92710000D01*
X161925000Y-94615000D02*
X106680000Y-94615000D01*
X165100000Y-86494300D02*
X165100000Y-87630000D01*
X165100000Y-87630000D02*
X163830000Y-88900000D01*
X163830000Y-92710000D02*
X161925000Y-94615000D01*
%TO.N,~{CE}*%
X165100000Y-91345700D02*
X165100000Y-89535000D01*
X101600000Y-88900000D02*
X91430000Y-88900000D01*
X165100000Y-89535000D02*
X166370000Y-88265000D01*
X111760000Y-78740000D02*
X101600000Y-88900000D01*
X160020000Y-78740000D02*
X111760000Y-78740000D01*
X166370000Y-88265000D02*
X166370000Y-85090000D01*
X166370000Y-85090000D02*
X160020000Y-78740000D01*
%TO.N,Net-(J1-Pad17)*%
X106680000Y-93345000D02*
X160655000Y-93345000D01*
X161310489Y-89514511D02*
X162560000Y-88265000D01*
X162560000Y-88265000D02*
X162560000Y-86494300D01*
X160655000Y-93345000D02*
X161310489Y-92689511D01*
X161310489Y-92689511D02*
X161310489Y-89514511D01*
%TO.N,Net-(J1-Pad19)*%
X160020000Y-87630000D02*
X160020000Y-86494300D01*
X107315000Y-88265000D02*
X159385000Y-88265000D01*
X159385000Y-88265000D02*
X160020000Y-87630000D01*
%TO.N,Net-(J1-Pad21)*%
X157480000Y-85090000D02*
X157480000Y-86494300D01*
X116205000Y-81280000D02*
X153670000Y-81280000D01*
X153670000Y-81280000D02*
X157480000Y-85090000D01*
%TO.N,Net-(J1-Pad23)*%
X152400000Y-82550000D02*
X154940000Y-85090000D01*
X119380000Y-82550000D02*
X152400000Y-82550000D01*
X154940000Y-85090000D02*
X154940000Y-86494300D01*
%TO.N,PB6*%
X139700000Y-86494300D02*
X106545700Y-86494300D01*
X101600000Y-91440000D02*
X91430000Y-91440000D01*
X106545700Y-86494300D02*
X101600000Y-91440000D01*
%TO.N,/MISO*%
X89535000Y-71120000D02*
X91430000Y-71120000D01*
X87630000Y-104140000D02*
X87630000Y-73025000D01*
X87630000Y-73025000D02*
X89535000Y-71120000D01*
%TO.N,/~{RESET}*%
X90170000Y-78740000D02*
X91430000Y-78740000D01*
X88900000Y-80010000D02*
X90170000Y-78740000D01*
X88900000Y-105410000D02*
X88900000Y-80010000D01*
%TD*%
%TA.AperFunction,Conductor*%
%TO.N,GND*%
G36*
X207467343Y-54059707D02*
G01*
X207536584Y-54114926D01*
X207575011Y-54194718D01*
X207580000Y-54239000D01*
X207580000Y-121021000D01*
X207560293Y-121107343D01*
X207505074Y-121176584D01*
X207425282Y-121215011D01*
X207381000Y-121220000D01*
X69479000Y-121220000D01*
X69392657Y-121200293D01*
X69323416Y-121145074D01*
X69284989Y-121065282D01*
X69280000Y-121021000D01*
X69280000Y-106643214D01*
X74684806Y-106643214D01*
X74685276Y-106651367D01*
X74685276Y-106651373D01*
X74690863Y-106748264D01*
X74699010Y-106889545D01*
X74753255Y-107130249D01*
X74846084Y-107358861D01*
X74850351Y-107365824D01*
X74850352Y-107365826D01*
X74970739Y-107562279D01*
X74970743Y-107562284D01*
X74975006Y-107569241D01*
X74980352Y-107575412D01*
X74980353Y-107575414D01*
X75017819Y-107618666D01*
X75136557Y-107755741D01*
X75326399Y-107913351D01*
X75539433Y-108037838D01*
X75547063Y-108040752D01*
X75547066Y-108040753D01*
X75762313Y-108122947D01*
X75769939Y-108125859D01*
X75890535Y-108150395D01*
X76003728Y-108173425D01*
X76003731Y-108173425D01*
X76011726Y-108175052D01*
X76113741Y-108178793D01*
X76250139Y-108183794D01*
X76250142Y-108183794D01*
X76258300Y-108184093D01*
X76266393Y-108183056D01*
X76266398Y-108183056D01*
X76494941Y-108153779D01*
X76494945Y-108153778D01*
X76503041Y-108152741D01*
X76570372Y-108132541D01*
X76731558Y-108084183D01*
X76731559Y-108084183D01*
X76739374Y-108081838D01*
X76746703Y-108078248D01*
X76746707Y-108078246D01*
X76953622Y-107976879D01*
X76953623Y-107976879D01*
X76960954Y-107973287D01*
X77161829Y-107830004D01*
X77336605Y-107655837D01*
X77480588Y-107455463D01*
X77484209Y-107448137D01*
X77586296Y-107241579D01*
X77586297Y-107241576D01*
X77589911Y-107234264D01*
X77592283Y-107226457D01*
X77659267Y-107005988D01*
X77659268Y-107005985D01*
X77661639Y-106998180D01*
X77674892Y-106897517D01*
X77693155Y-106758791D01*
X77693845Y-106753550D01*
X77695643Y-106680000D01*
X77675425Y-106434089D01*
X77673438Y-106426179D01*
X77673437Y-106426172D01*
X77617306Y-106202706D01*
X77615316Y-106194783D01*
X77600238Y-106160104D01*
X77520186Y-105976000D01*
X77516928Y-105968507D01*
X77423447Y-105824007D01*
X77387340Y-105768194D01*
X77387338Y-105768192D01*
X77382905Y-105761339D01*
X77362771Y-105739212D01*
X77222347Y-105584887D01*
X77222344Y-105584884D01*
X77216846Y-105578842D01*
X77185496Y-105554083D01*
X77029613Y-105430974D01*
X77029607Y-105430970D01*
X77023210Y-105425918D01*
X76976285Y-105400014D01*
X76910219Y-105341033D01*
X76876286Y-105259229D01*
X76881208Y-105170802D01*
X76924009Y-105093268D01*
X76945210Y-105072798D01*
X77035146Y-104997999D01*
X77047999Y-104985146D01*
X77177349Y-104829620D01*
X77187647Y-104814637D01*
X77286496Y-104638130D01*
X77293882Y-104621540D01*
X77358912Y-104429970D01*
X77363151Y-104412312D01*
X77370419Y-104362189D01*
X77368856Y-104342796D01*
X77368318Y-104342434D01*
X77355255Y-104340000D01*
X75025033Y-104340000D01*
X75008199Y-104343842D01*
X75008430Y-104362918D01*
X75051738Y-104533442D01*
X75057803Y-104550567D01*
X75142497Y-104734283D01*
X75151586Y-104750025D01*
X75268339Y-104915226D01*
X75280135Y-104929039D01*
X75425050Y-105070209D01*
X75426905Y-105071711D01*
X75427923Y-105073008D01*
X75431580Y-105076570D01*
X75431104Y-105077058D01*
X75481603Y-105141365D01*
X75500662Y-105227853D01*
X75480309Y-105314045D01*
X75424573Y-105382871D01*
X75401712Y-105397615D01*
X75401836Y-105397811D01*
X75394927Y-105402162D01*
X75387679Y-105405935D01*
X75381143Y-105410842D01*
X75381142Y-105410843D01*
X75366318Y-105421973D01*
X75190364Y-105554083D01*
X75184720Y-105559989D01*
X75184719Y-105559990D01*
X75105577Y-105642808D01*
X75019896Y-105732468D01*
X75015298Y-105739208D01*
X75015295Y-105739212D01*
X74954341Y-105828568D01*
X74880851Y-105936300D01*
X74776965Y-106160104D01*
X74711026Y-106397871D01*
X74684806Y-106643214D01*
X69280000Y-106643214D01*
X69280000Y-101563214D01*
X74684806Y-101563214D01*
X74685276Y-101571367D01*
X74685276Y-101571373D01*
X74688833Y-101633057D01*
X74699010Y-101809545D01*
X74753255Y-102050249D01*
X74846084Y-102278861D01*
X74850351Y-102285824D01*
X74850352Y-102285826D01*
X74970739Y-102482279D01*
X74970743Y-102482284D01*
X74975006Y-102489241D01*
X75136557Y-102675741D01*
X75326399Y-102833351D01*
X75392094Y-102871740D01*
X75408076Y-102881079D01*
X75472681Y-102941656D01*
X75504605Y-103024266D01*
X75497524Y-103112546D01*
X75452842Y-103189011D01*
X75438886Y-103202510D01*
X75322682Y-103304420D01*
X75310175Y-103317599D01*
X75184932Y-103476469D01*
X75175037Y-103491706D01*
X75080840Y-103670745D01*
X75073891Y-103687520D01*
X75013901Y-103880719D01*
X75010121Y-103898502D01*
X75007845Y-103917736D01*
X75009915Y-103937079D01*
X75011609Y-103938157D01*
X75022274Y-103940000D01*
X77354341Y-103940000D01*
X77373311Y-103935670D01*
X77374768Y-103932645D01*
X77375195Y-103926222D01*
X77372485Y-103911602D01*
X77317572Y-103716895D01*
X77311061Y-103699934D01*
X77221588Y-103518500D01*
X77212092Y-103503004D01*
X77091054Y-103340915D01*
X77078891Y-103327407D01*
X76942095Y-103200954D01*
X76892068Y-103127873D01*
X76878705Y-103040324D01*
X76904651Y-102955647D01*
X76961616Y-102892815D01*
X77155185Y-102754743D01*
X77161829Y-102750004D01*
X77260413Y-102651764D01*
X77330817Y-102581605D01*
X77330818Y-102581604D01*
X77336605Y-102575837D01*
X77480588Y-102375463D01*
X77517990Y-102299786D01*
X77586296Y-102161579D01*
X77586297Y-102161576D01*
X77589911Y-102154264D01*
X77592283Y-102146457D01*
X77659267Y-101925988D01*
X77659268Y-101925985D01*
X77661639Y-101918180D01*
X77674464Y-101820768D01*
X77693155Y-101678791D01*
X77693845Y-101673550D01*
X77695643Y-101600000D01*
X77675425Y-101354089D01*
X77673436Y-101346169D01*
X77649019Y-101248958D01*
X77647099Y-101160415D01*
X77683786Y-101079808D01*
X77751814Y-101023102D01*
X77837709Y-101001527D01*
X77924459Y-101019357D01*
X77982738Y-101059766D01*
X87753496Y-110830524D01*
X87763584Y-110842150D01*
X87763756Y-110841997D01*
X87769182Y-110848108D01*
X87774083Y-110854636D01*
X87779986Y-110860277D01*
X87851908Y-110929007D01*
X87855137Y-110932164D01*
X87883219Y-110960246D01*
X87886324Y-110962880D01*
X87886328Y-110962883D01*
X87890978Y-110966827D01*
X87899741Y-110974718D01*
X87901513Y-110976411D01*
X87952468Y-111025104D01*
X87959212Y-111029705D01*
X87959215Y-111029707D01*
X87980801Y-111044432D01*
X87997366Y-111057051D01*
X88023531Y-111079240D01*
X88058699Y-111100288D01*
X88086111Y-111116694D01*
X88096055Y-111123054D01*
X88149545Y-111159542D01*
X88149553Y-111159546D01*
X88156300Y-111164149D01*
X88163709Y-111167588D01*
X88163716Y-111167592D01*
X88187413Y-111178592D01*
X88205819Y-111188337D01*
X88217960Y-111195603D01*
X88235250Y-111205951D01*
X88242851Y-111208945D01*
X88242855Y-111208947D01*
X88303096Y-111232676D01*
X88313949Y-111237327D01*
X88380104Y-111268035D01*
X88387966Y-111270215D01*
X88387973Y-111270218D01*
X88413163Y-111277204D01*
X88432907Y-111283810D01*
X88445256Y-111288674D01*
X88464822Y-111296381D01*
X88472802Y-111298092D01*
X88472819Y-111298097D01*
X88536130Y-111311670D01*
X88547593Y-111314485D01*
X88591133Y-111326559D01*
X88617871Y-111333974D01*
X88651969Y-111337618D01*
X88672540Y-111340913D01*
X88698088Y-111346390D01*
X88698093Y-111346391D01*
X88706080Y-111348103D01*
X88714234Y-111348487D01*
X88714238Y-111348488D01*
X88778920Y-111351538D01*
X88790692Y-111352444D01*
X88814016Y-111354937D01*
X88814033Y-111354938D01*
X88819292Y-111355500D01*
X88858246Y-111355500D01*
X88867621Y-111355721D01*
X88952547Y-111359726D01*
X88960659Y-111358773D01*
X88960660Y-111358773D01*
X88976952Y-111356859D01*
X89000170Y-111355500D01*
X96399098Y-111355500D01*
X96414455Y-111356588D01*
X96414469Y-111356358D01*
X96422622Y-111356842D01*
X96430706Y-111357993D01*
X96438867Y-111357808D01*
X96438871Y-111357808D01*
X96538313Y-111355551D01*
X96542828Y-111355500D01*
X96582554Y-111355500D01*
X96592686Y-111354667D01*
X96604455Y-111354050D01*
X96677382Y-111352395D01*
X96685414Y-111350877D01*
X96685417Y-111350877D01*
X96711089Y-111346027D01*
X96731725Y-111343236D01*
X96746985Y-111341981D01*
X96765911Y-111340425D01*
X96836656Y-111322656D01*
X96848171Y-111320124D01*
X96911806Y-111308100D01*
X96911809Y-111308099D01*
X96919833Y-111306583D01*
X96927508Y-111303774D01*
X96927513Y-111303773D01*
X96952040Y-111294798D01*
X96971946Y-111288674D01*
X96997285Y-111282309D01*
X96997292Y-111282307D01*
X97005217Y-111280316D01*
X97012706Y-111277060D01*
X97012711Y-111277058D01*
X97072090Y-111251239D01*
X97083052Y-111246854D01*
X97143883Y-111224593D01*
X97143884Y-111224593D01*
X97151545Y-111221789D01*
X97181401Y-111204897D01*
X97200033Y-111195607D01*
X97231493Y-111181928D01*
X97292729Y-111142313D01*
X97302827Y-111136198D01*
X97359192Y-111104308D01*
X97359193Y-111104307D01*
X97366297Y-111100288D01*
X97372642Y-111095169D01*
X97372647Y-111095165D01*
X97393000Y-111078742D01*
X97409862Y-111066536D01*
X97438661Y-111047905D01*
X97492615Y-110998811D01*
X97501549Y-110991154D01*
X97523945Y-110973083D01*
X97551491Y-110945537D01*
X97558276Y-110939064D01*
X97615113Y-110887347D01*
X97615116Y-110887344D01*
X97621158Y-110881846D01*
X97626219Y-110875437D01*
X97626227Y-110875429D01*
X97636389Y-110862561D01*
X97651846Y-110845182D01*
X98089856Y-110407172D01*
X124546609Y-110407172D01*
X124553429Y-110719745D01*
X124554372Y-110726016D01*
X124595387Y-110998826D01*
X124599911Y-111028918D01*
X124685301Y-111329678D01*
X124808215Y-111617150D01*
X124966661Y-111886674D01*
X125158069Y-112133881D01*
X125379336Y-112354763D01*
X125626877Y-112545739D01*
X125632351Y-112548944D01*
X125810917Y-112653499D01*
X125896677Y-112703714D01*
X125902503Y-112706193D01*
X125902507Y-112706195D01*
X126178534Y-112823646D01*
X126178538Y-112823647D01*
X126184363Y-112826126D01*
X126385235Y-112882778D01*
X126397558Y-112886253D01*
X126485272Y-112910991D01*
X126633165Y-112932962D01*
X126789332Y-112956162D01*
X126789341Y-112956163D01*
X126794525Y-112956933D01*
X126879631Y-112960500D01*
X127079085Y-112960500D01*
X127082244Y-112960298D01*
X127082259Y-112960298D01*
X127305687Y-112946045D01*
X127305694Y-112946044D01*
X127312013Y-112945641D01*
X127318227Y-112944439D01*
X127318233Y-112944438D01*
X127612735Y-112887459D01*
X127612736Y-112887459D01*
X127618968Y-112886253D01*
X127915888Y-112788344D01*
X128197961Y-112653499D01*
X128203289Y-112650059D01*
X128455292Y-112487344D01*
X128455299Y-112487339D01*
X128460614Y-112483907D01*
X128699589Y-112282315D01*
X128911011Y-112051992D01*
X129091454Y-111796671D01*
X129237992Y-111520492D01*
X129348249Y-111227932D01*
X129395477Y-111028918D01*
X129418977Y-110929895D01*
X129418978Y-110929890D01*
X129420439Y-110923733D01*
X129424296Y-110887347D01*
X129452724Y-110619120D01*
X129453391Y-110612828D01*
X129448904Y-110407172D01*
X193126609Y-110407172D01*
X193133429Y-110719745D01*
X193134372Y-110726016D01*
X193175387Y-110998826D01*
X193179911Y-111028918D01*
X193265301Y-111329678D01*
X193388215Y-111617150D01*
X193546661Y-111886674D01*
X193738069Y-112133881D01*
X193959336Y-112354763D01*
X194206877Y-112545739D01*
X194212351Y-112548944D01*
X194390917Y-112653499D01*
X194476677Y-112703714D01*
X194482503Y-112706193D01*
X194482507Y-112706195D01*
X194758534Y-112823646D01*
X194758538Y-112823647D01*
X194764363Y-112826126D01*
X194965235Y-112882778D01*
X194977558Y-112886253D01*
X195065272Y-112910991D01*
X195213165Y-112932962D01*
X195369332Y-112956162D01*
X195369341Y-112956163D01*
X195374525Y-112956933D01*
X195459631Y-112960500D01*
X195659085Y-112960500D01*
X195662244Y-112960298D01*
X195662259Y-112960298D01*
X195885687Y-112946045D01*
X195885694Y-112946044D01*
X195892013Y-112945641D01*
X195898227Y-112944439D01*
X195898233Y-112944438D01*
X196192735Y-112887459D01*
X196192736Y-112887459D01*
X196198968Y-112886253D01*
X196495888Y-112788344D01*
X196777961Y-112653499D01*
X196783289Y-112650059D01*
X197035292Y-112487344D01*
X197035299Y-112487339D01*
X197040614Y-112483907D01*
X197279589Y-112282315D01*
X197491011Y-112051992D01*
X197671454Y-111796671D01*
X197817992Y-111520492D01*
X197928249Y-111227932D01*
X197975477Y-111028918D01*
X197998977Y-110929895D01*
X197998978Y-110929890D01*
X198000439Y-110923733D01*
X198004296Y-110887347D01*
X198032724Y-110619120D01*
X198033391Y-110612828D01*
X198026571Y-110300255D01*
X197995903Y-110096267D01*
X197981032Y-109997351D01*
X197981030Y-109997343D01*
X197980089Y-109991082D01*
X197894699Y-109690322D01*
X197771785Y-109402850D01*
X197613339Y-109133326D01*
X197421931Y-108886119D01*
X197200664Y-108665237D01*
X196953123Y-108474261D01*
X196774959Y-108369941D01*
X196688792Y-108319488D01*
X196688789Y-108319487D01*
X196683323Y-108316286D01*
X196677497Y-108313807D01*
X196677493Y-108313805D01*
X196401466Y-108196354D01*
X196401462Y-108196353D01*
X196395637Y-108193874D01*
X196189495Y-108135736D01*
X196100820Y-108110727D01*
X196100818Y-108110727D01*
X196094728Y-108109009D01*
X195911830Y-108081838D01*
X195790668Y-108063838D01*
X195790659Y-108063837D01*
X195785475Y-108063067D01*
X195700369Y-108059500D01*
X195500915Y-108059500D01*
X195497756Y-108059702D01*
X195497741Y-108059702D01*
X195274313Y-108073955D01*
X195274306Y-108073956D01*
X195267987Y-108074359D01*
X195261773Y-108075561D01*
X195261767Y-108075562D01*
X194967265Y-108132541D01*
X194961032Y-108133747D01*
X194664112Y-108231656D01*
X194658389Y-108234392D01*
X194430503Y-108343333D01*
X194382039Y-108366501D01*
X194376714Y-108369940D01*
X194376711Y-108369941D01*
X194124708Y-108532656D01*
X194124701Y-108532661D01*
X194119386Y-108536093D01*
X193880411Y-108737685D01*
X193668989Y-108968008D01*
X193488546Y-109223329D01*
X193342008Y-109499508D01*
X193231751Y-109792068D01*
X193159561Y-110096267D01*
X193158894Y-110102557D01*
X193158893Y-110102565D01*
X193133789Y-110339432D01*
X193126609Y-110407172D01*
X129448904Y-110407172D01*
X129446571Y-110300255D01*
X129415903Y-110096267D01*
X129401032Y-109997351D01*
X129401030Y-109997343D01*
X129400089Y-109991082D01*
X129314699Y-109690322D01*
X129191785Y-109402850D01*
X129033339Y-109133326D01*
X128841931Y-108886119D01*
X128620664Y-108665237D01*
X128373123Y-108474261D01*
X128194959Y-108369941D01*
X128108792Y-108319488D01*
X128108789Y-108319487D01*
X128103323Y-108316286D01*
X128097497Y-108313807D01*
X128097493Y-108313805D01*
X127821466Y-108196354D01*
X127821462Y-108196353D01*
X127815637Y-108193874D01*
X127609495Y-108135736D01*
X127520820Y-108110727D01*
X127520818Y-108110727D01*
X127514728Y-108109009D01*
X127331830Y-108081838D01*
X127210668Y-108063838D01*
X127210659Y-108063837D01*
X127205475Y-108063067D01*
X127120369Y-108059500D01*
X126920915Y-108059500D01*
X126917756Y-108059702D01*
X126917741Y-108059702D01*
X126694313Y-108073955D01*
X126694306Y-108073956D01*
X126687987Y-108074359D01*
X126681773Y-108075561D01*
X126681767Y-108075562D01*
X126387265Y-108132541D01*
X126381032Y-108133747D01*
X126084112Y-108231656D01*
X126078389Y-108234392D01*
X125850503Y-108343333D01*
X125802039Y-108366501D01*
X125796714Y-108369940D01*
X125796711Y-108369941D01*
X125544708Y-108532656D01*
X125544701Y-108532661D01*
X125539386Y-108536093D01*
X125300411Y-108737685D01*
X125088989Y-108968008D01*
X124908546Y-109223329D01*
X124762008Y-109499508D01*
X124651751Y-109792068D01*
X124579561Y-110096267D01*
X124578894Y-110102557D01*
X124578893Y-110102565D01*
X124553789Y-110339432D01*
X124546609Y-110407172D01*
X98089856Y-110407172D01*
X100217454Y-108279574D01*
X102798241Y-105698786D01*
X102873229Y-105651667D01*
X102938955Y-105640500D01*
X172599098Y-105640500D01*
X172614455Y-105641588D01*
X172614469Y-105641358D01*
X172622622Y-105641842D01*
X172630706Y-105642993D01*
X172638867Y-105642808D01*
X172638871Y-105642808D01*
X172738313Y-105640551D01*
X172742828Y-105640500D01*
X172782554Y-105640500D01*
X172792686Y-105639667D01*
X172804455Y-105639050D01*
X172877382Y-105637395D01*
X172885414Y-105635877D01*
X172885417Y-105635877D01*
X172911089Y-105631027D01*
X172931725Y-105628236D01*
X172946985Y-105626981D01*
X172965911Y-105625425D01*
X173036656Y-105607656D01*
X173048171Y-105605124D01*
X173111806Y-105593100D01*
X173111809Y-105593099D01*
X173119833Y-105591583D01*
X173127508Y-105588774D01*
X173127513Y-105588773D01*
X173152040Y-105579798D01*
X173171946Y-105573674D01*
X173197285Y-105567309D01*
X173197292Y-105567307D01*
X173205217Y-105565316D01*
X173212706Y-105562060D01*
X173212711Y-105562058D01*
X173272090Y-105536239D01*
X173283052Y-105531854D01*
X173343883Y-105509593D01*
X173343884Y-105509593D01*
X173351545Y-105506789D01*
X173381401Y-105489897D01*
X173400033Y-105480607D01*
X173431493Y-105466928D01*
X173450154Y-105454856D01*
X173492729Y-105427313D01*
X173502827Y-105421198D01*
X173559192Y-105389308D01*
X173559193Y-105389307D01*
X173566297Y-105385288D01*
X173572642Y-105380169D01*
X173572647Y-105380165D01*
X173593000Y-105363742D01*
X173609862Y-105351536D01*
X173638661Y-105332905D01*
X173692615Y-105283811D01*
X173701549Y-105276154D01*
X173723945Y-105258083D01*
X173751491Y-105230537D01*
X173758276Y-105224064D01*
X173815113Y-105172347D01*
X173815116Y-105172344D01*
X173821158Y-105166846D01*
X173826219Y-105160437D01*
X173826227Y-105160429D01*
X173836389Y-105147561D01*
X173851846Y-105130182D01*
X182585520Y-96396507D01*
X182597150Y-96386416D01*
X182596997Y-96386244D01*
X182603108Y-96380818D01*
X182609636Y-96375917D01*
X182684007Y-96298092D01*
X182687164Y-96294863D01*
X182715246Y-96266781D01*
X182719123Y-96262210D01*
X182721828Y-96259021D01*
X182729719Y-96250258D01*
X182774464Y-96203434D01*
X182780104Y-96197532D01*
X182799442Y-96169183D01*
X182812057Y-96152625D01*
X182834240Y-96126468D01*
X182871687Y-96063898D01*
X182878047Y-96053954D01*
X182914546Y-96000449D01*
X182914551Y-96000441D01*
X182919149Y-95993700D01*
X182933592Y-95962587D01*
X182943336Y-95944183D01*
X182960951Y-95914750D01*
X182987682Y-95846888D01*
X182992333Y-95836037D01*
X183019596Y-95777305D01*
X183019597Y-95777303D01*
X183023035Y-95769896D01*
X183025216Y-95762033D01*
X183025219Y-95762024D01*
X183032201Y-95736848D01*
X183038807Y-95717103D01*
X183048388Y-95692778D01*
X183051382Y-95685178D01*
X183066672Y-95613857D01*
X183069482Y-95602414D01*
X183088974Y-95532129D01*
X183092620Y-95498009D01*
X183095913Y-95477458D01*
X183101390Y-95451911D01*
X183101391Y-95451907D01*
X183103103Y-95443919D01*
X183103488Y-95435759D01*
X183106538Y-95371080D01*
X183107444Y-95359308D01*
X183109937Y-95335984D01*
X183109938Y-95335967D01*
X183110500Y-95330708D01*
X183110500Y-95291753D01*
X183110721Y-95282379D01*
X183114341Y-95205614D01*
X183114726Y-95197453D01*
X183111859Y-95173047D01*
X183110500Y-95149830D01*
X183110500Y-93041797D01*
X183130207Y-92955454D01*
X183185426Y-92886213D01*
X183263038Y-92848298D01*
X183360612Y-92824872D01*
X183586089Y-92731477D01*
X183794179Y-92603959D01*
X183810519Y-92590004D01*
X183973817Y-92450534D01*
X183979759Y-92445459D01*
X184010728Y-92409199D01*
X184133181Y-92265825D01*
X184133183Y-92265822D01*
X184138259Y-92259879D01*
X184265777Y-92051789D01*
X184359172Y-91826312D01*
X184416146Y-91589002D01*
X184435294Y-91345700D01*
X184416146Y-91102398D01*
X184359172Y-90865088D01*
X184265777Y-90639611D01*
X184138259Y-90431521D01*
X184103339Y-90390634D01*
X183984834Y-90251883D01*
X183979759Y-90245941D01*
X183892881Y-90171740D01*
X183800125Y-90092519D01*
X183800122Y-90092517D01*
X183794179Y-90087441D01*
X183586089Y-89959923D01*
X183360612Y-89866528D01*
X183123302Y-89809554D01*
X182880000Y-89790406D01*
X182636698Y-89809554D01*
X182596433Y-89819221D01*
X182511129Y-89839701D01*
X182464673Y-89845200D01*
X181557454Y-89845200D01*
X181548080Y-89844979D01*
X181542046Y-89844694D01*
X181463153Y-89840974D01*
X181455041Y-89841927D01*
X181455040Y-89841927D01*
X181438748Y-89843841D01*
X181415530Y-89845200D01*
X180755327Y-89845200D01*
X180708871Y-89839701D01*
X180623567Y-89819221D01*
X180583302Y-89809554D01*
X180471254Y-89800736D01*
X180386725Y-89774315D01*
X180322029Y-89713834D01*
X180289981Y-89631273D01*
X180296930Y-89542982D01*
X180346154Y-89461635D01*
X180910198Y-88897591D01*
X180922466Y-88886310D01*
X180951304Y-88861940D01*
X180959540Y-88854980D01*
X181007887Y-88791745D01*
X181010837Y-88787981D01*
X181060730Y-88725927D01*
X181065398Y-88716523D01*
X181071777Y-88708180D01*
X181105408Y-88636059D01*
X181107508Y-88631695D01*
X181138101Y-88570067D01*
X181138105Y-88570057D01*
X181142895Y-88560407D01*
X181145435Y-88550221D01*
X181149873Y-88540703D01*
X181167227Y-88463063D01*
X181168346Y-88458330D01*
X181184993Y-88391563D01*
X181184993Y-88391560D01*
X181187600Y-88381106D01*
X181187844Y-88372354D01*
X181188403Y-88368324D01*
X181190183Y-88360363D01*
X181190500Y-88354693D01*
X181190500Y-88280035D01*
X181190578Y-88274479D01*
X181192458Y-88207165D01*
X181192458Y-88207164D01*
X181192759Y-88196389D01*
X181190994Y-88187137D01*
X181190500Y-88174836D01*
X181190500Y-87975933D01*
X181210207Y-87889590D01*
X181265426Y-87820349D01*
X181345218Y-87781922D01*
X181433782Y-87781922D01*
X181513574Y-87820349D01*
X181530214Y-87835219D01*
X181594592Y-87899597D01*
X181604856Y-87905813D01*
X181729357Y-87981214D01*
X181729361Y-87981216D01*
X181739617Y-87987427D01*
X181751060Y-87991013D01*
X181751062Y-87991014D01*
X181783164Y-88001074D01*
X181901406Y-88038129D01*
X181948876Y-88042491D01*
X181969466Y-88044383D01*
X181969472Y-88044383D01*
X181974007Y-88044800D01*
X182879801Y-88044800D01*
X183785992Y-88044799D01*
X183858594Y-88038129D01*
X183976836Y-88001074D01*
X184008938Y-87991014D01*
X184008940Y-87991013D01*
X184020383Y-87987427D01*
X184030639Y-87981216D01*
X184030643Y-87981214D01*
X184155144Y-87905813D01*
X184165408Y-87899597D01*
X184285297Y-87779708D01*
X184323968Y-87715855D01*
X184366914Y-87644943D01*
X184366916Y-87644939D01*
X184373127Y-87634683D01*
X184384268Y-87599134D01*
X184420671Y-87482970D01*
X184423829Y-87472894D01*
X184430500Y-87400293D01*
X184430499Y-85588308D01*
X184423829Y-85515706D01*
X184385858Y-85394541D01*
X184376714Y-85365362D01*
X184376713Y-85365360D01*
X184373127Y-85353917D01*
X184366916Y-85343661D01*
X184366914Y-85343657D01*
X184291513Y-85219156D01*
X184285297Y-85208892D01*
X184165408Y-85089003D01*
X184114896Y-85058412D01*
X184030643Y-85007386D01*
X184030639Y-85007384D01*
X184020383Y-85001173D01*
X184008940Y-84997587D01*
X184008938Y-84997586D01*
X183920923Y-84970004D01*
X183858594Y-84950471D01*
X183848075Y-84949504D01*
X183837727Y-84947432D01*
X183838308Y-84944533D01*
X183771454Y-84922665D01*
X183707561Y-84861336D01*
X183686856Y-84820091D01*
X183683601Y-84811147D01*
X183681996Y-84806564D01*
X183660055Y-84741368D01*
X183656617Y-84731152D01*
X183651209Y-84722152D01*
X183647618Y-84712285D01*
X183641070Y-84701966D01*
X183604989Y-84645112D01*
X183602434Y-84640975D01*
X183566995Y-84581994D01*
X183566989Y-84581987D01*
X183561443Y-84572756D01*
X183555424Y-84566391D01*
X183552978Y-84563157D01*
X183548602Y-84556262D01*
X183544817Y-84552029D01*
X183492035Y-84499247D01*
X183488179Y-84495282D01*
X183441880Y-84446322D01*
X183441878Y-84446320D01*
X183434476Y-84438493D01*
X183426686Y-84433199D01*
X183417629Y-84424841D01*
X174622602Y-75629814D01*
X174611320Y-75617546D01*
X174586933Y-75588688D01*
X174579980Y-75580460D01*
X174516721Y-75532095D01*
X174512991Y-75529171D01*
X174450927Y-75479269D01*
X174441520Y-75474599D01*
X174433180Y-75468223D01*
X174361060Y-75434593D01*
X174356691Y-75432490D01*
X174295067Y-75401899D01*
X174295057Y-75401895D01*
X174285407Y-75397105D01*
X174275221Y-75394565D01*
X174265703Y-75390127D01*
X174188063Y-75372773D01*
X174183330Y-75371654D01*
X174116563Y-75355007D01*
X174116560Y-75355007D01*
X174106106Y-75352400D01*
X174097354Y-75352156D01*
X174093324Y-75351597D01*
X174085363Y-75349817D01*
X174079693Y-75349500D01*
X174005035Y-75349500D01*
X173999479Y-75349422D01*
X173977280Y-75348802D01*
X173921389Y-75347241D01*
X173912137Y-75349006D01*
X173899836Y-75349500D01*
X109264123Y-75349500D01*
X109247471Y-75348802D01*
X109209842Y-75345642D01*
X109209840Y-75345642D01*
X109199098Y-75344740D01*
X109143884Y-75352107D01*
X109120222Y-75355264D01*
X109115394Y-75355848D01*
X109036291Y-75364442D01*
X109026339Y-75367791D01*
X109015931Y-75369180D01*
X109005806Y-75372865D01*
X109005803Y-75372866D01*
X108941153Y-75396397D01*
X108936564Y-75398004D01*
X108861152Y-75423383D01*
X108852152Y-75428791D01*
X108842285Y-75432382D01*
X108833189Y-75438155D01*
X108833188Y-75438155D01*
X108775085Y-75475028D01*
X108770985Y-75477561D01*
X108702756Y-75518557D01*
X108696391Y-75524577D01*
X108693159Y-75527021D01*
X108686261Y-75531398D01*
X108682028Y-75535183D01*
X108629247Y-75587964D01*
X108625264Y-75591838D01*
X108568493Y-75645524D01*
X108563201Y-75653311D01*
X108554851Y-75662360D01*
X104915633Y-79301579D01*
X101305998Y-82911214D01*
X101231010Y-82958333D01*
X101165284Y-82969500D01*
X99832070Y-82969500D01*
X99745727Y-82949793D01*
X99725881Y-82938800D01*
X99569480Y-82840118D01*
X99569473Y-82840114D01*
X99561757Y-82835246D01*
X99553280Y-82831864D01*
X99553278Y-82831863D01*
X99493082Y-82807848D01*
X99373898Y-82760298D01*
X99364957Y-82758520D01*
X99364952Y-82758518D01*
X99185857Y-82722894D01*
X99175526Y-82720839D01*
X99073032Y-82719498D01*
X98982411Y-82718311D01*
X98982406Y-82718311D01*
X98973286Y-82718192D01*
X98964296Y-82719737D01*
X98964293Y-82719737D01*
X98894452Y-82731738D01*
X98773949Y-82752444D01*
X98765398Y-82755599D01*
X98765393Y-82755600D01*
X98592752Y-82819291D01*
X98592748Y-82819293D01*
X98584193Y-82822449D01*
X98576355Y-82827112D01*
X98576351Y-82827114D01*
X98510037Y-82866567D01*
X98410371Y-82925862D01*
X98258305Y-83059220D01*
X98252659Y-83066382D01*
X98252658Y-83066383D01*
X98138736Y-83210893D01*
X98138733Y-83210897D01*
X98133089Y-83218057D01*
X98128843Y-83226128D01*
X98128840Y-83226132D01*
X98043163Y-83388977D01*
X98038914Y-83397053D01*
X98036208Y-83405768D01*
X97987513Y-83562595D01*
X97978937Y-83590213D01*
X97955164Y-83791069D01*
X97968392Y-83992894D01*
X98018178Y-84188928D01*
X98102856Y-84372607D01*
X98108120Y-84380055D01*
X98108122Y-84380059D01*
X98154952Y-84446322D01*
X98219588Y-84537780D01*
X98271281Y-84588137D01*
X98357680Y-84672302D01*
X98364466Y-84678913D01*
X98372048Y-84683979D01*
X98372049Y-84683980D01*
X98489989Y-84762785D01*
X98532637Y-84791282D01*
X98568207Y-84806564D01*
X98710094Y-84867524D01*
X98710100Y-84867526D01*
X98718470Y-84871122D01*
X98727359Y-84873133D01*
X98727364Y-84873135D01*
X98867454Y-84904834D01*
X98915740Y-84915760D01*
X98924850Y-84916118D01*
X98924851Y-84916118D01*
X98978603Y-84918230D01*
X99117842Y-84923700D01*
X99126863Y-84922392D01*
X99126864Y-84922392D01*
X99229725Y-84907478D01*
X99318007Y-84894678D01*
X99326640Y-84891747D01*
X99326642Y-84891747D01*
X99416229Y-84861336D01*
X99509531Y-84829664D01*
X99686001Y-84730837D01*
X99693835Y-84724322D01*
X99703238Y-84716501D01*
X99782223Y-84676441D01*
X99830487Y-84670500D01*
X101555877Y-84670500D01*
X101572529Y-84671198D01*
X101619031Y-84675103D01*
X101703422Y-84701966D01*
X101767800Y-84762785D01*
X101799415Y-84845514D01*
X101792004Y-84933766D01*
X101743093Y-85014119D01*
X101305998Y-85451214D01*
X101231010Y-85498333D01*
X101165284Y-85509500D01*
X92772472Y-85509500D01*
X92686129Y-85489793D01*
X92624558Y-85439835D01*
X92622905Y-85441339D01*
X92462347Y-85264887D01*
X92462344Y-85264884D01*
X92456846Y-85258842D01*
X92450436Y-85253780D01*
X92450431Y-85253775D01*
X92440355Y-85245818D01*
X92384808Y-85176840D01*
X92364691Y-85090592D01*
X92383988Y-85004156D01*
X92423220Y-84948688D01*
X92552266Y-84820091D01*
X92570817Y-84801605D01*
X92570818Y-84801604D01*
X92576605Y-84795837D01*
X92720588Y-84595463D01*
X92724209Y-84588137D01*
X92826296Y-84381579D01*
X92826297Y-84381576D01*
X92829911Y-84374264D01*
X92832932Y-84364321D01*
X92899267Y-84145988D01*
X92899268Y-84145985D01*
X92901639Y-84138180D01*
X92914892Y-84037517D01*
X92933155Y-83898791D01*
X92933845Y-83893550D01*
X92935643Y-83820000D01*
X92933265Y-83791069D01*
X92916094Y-83582225D01*
X92916094Y-83582224D01*
X92915425Y-83574089D01*
X92913438Y-83566179D01*
X92913437Y-83566172D01*
X92857306Y-83342706D01*
X92855316Y-83334783D01*
X92840238Y-83300104D01*
X92760186Y-83116000D01*
X92756928Y-83108507D01*
X92647140Y-82938800D01*
X92627340Y-82908194D01*
X92627338Y-82908192D01*
X92622905Y-82901339D01*
X92602771Y-82879212D01*
X92462347Y-82724887D01*
X92462344Y-82724884D01*
X92456846Y-82718842D01*
X92450436Y-82713780D01*
X92450431Y-82713775D01*
X92440355Y-82705818D01*
X92384808Y-82636840D01*
X92364691Y-82550592D01*
X92383988Y-82464156D01*
X92423220Y-82408688D01*
X92576605Y-82255837D01*
X92720588Y-82055463D01*
X92741644Y-82012860D01*
X92826296Y-81841579D01*
X92826297Y-81841576D01*
X92829911Y-81834264D01*
X92832932Y-81824321D01*
X92899267Y-81605988D01*
X92899268Y-81605985D01*
X92901639Y-81598180D01*
X92914892Y-81497517D01*
X92933155Y-81358791D01*
X92933845Y-81353550D01*
X92935643Y-81280000D01*
X92933265Y-81251069D01*
X92916094Y-81042225D01*
X92916094Y-81042224D01*
X92915425Y-81034089D01*
X92913438Y-81026179D01*
X92913437Y-81026172D01*
X92857306Y-80802706D01*
X92855316Y-80794783D01*
X92840238Y-80760104D01*
X92760186Y-80576000D01*
X92756928Y-80568507D01*
X92647140Y-80398800D01*
X92627340Y-80368194D01*
X92627338Y-80368192D01*
X92622905Y-80361339D01*
X92602771Y-80339212D01*
X92462347Y-80184887D01*
X92462344Y-80184884D01*
X92456846Y-80178842D01*
X92450436Y-80173780D01*
X92450431Y-80173775D01*
X92440355Y-80165818D01*
X92384808Y-80096840D01*
X92364691Y-80010592D01*
X92383988Y-79924156D01*
X92423220Y-79868688D01*
X92576605Y-79715837D01*
X92720588Y-79515463D01*
X92758013Y-79439740D01*
X92826296Y-79301579D01*
X92826297Y-79301576D01*
X92829911Y-79294264D01*
X92855817Y-79208998D01*
X92899267Y-79065988D01*
X92899268Y-79065985D01*
X92901639Y-79058180D01*
X92914892Y-78957517D01*
X92933155Y-78818791D01*
X92933845Y-78813550D01*
X92935643Y-78740000D01*
X92915425Y-78494089D01*
X92913438Y-78486179D01*
X92913437Y-78486172D01*
X92857306Y-78262706D01*
X92855316Y-78254783D01*
X92840238Y-78220104D01*
X92760186Y-78036000D01*
X92756928Y-78028507D01*
X92622905Y-77821339D01*
X92602769Y-77799210D01*
X92462347Y-77644887D01*
X92462344Y-77644884D01*
X92456846Y-77638842D01*
X92450436Y-77633780D01*
X92450431Y-77633775D01*
X92440355Y-77625818D01*
X92384808Y-77556840D01*
X92364691Y-77470592D01*
X92383988Y-77384156D01*
X92423220Y-77328688D01*
X92576605Y-77175837D01*
X92720588Y-76975463D01*
X92724209Y-76968137D01*
X92826296Y-76761579D01*
X92826297Y-76761576D01*
X92829911Y-76754264D01*
X92832283Y-76746457D01*
X92899267Y-76525988D01*
X92899268Y-76525985D01*
X92901639Y-76518180D01*
X92914892Y-76417517D01*
X92933155Y-76278791D01*
X92933845Y-76273550D01*
X92935643Y-76200000D01*
X92915425Y-75954089D01*
X92913438Y-75946179D01*
X92913437Y-75946172D01*
X92857306Y-75722706D01*
X92855316Y-75714783D01*
X92840238Y-75680104D01*
X92760186Y-75496000D01*
X92756928Y-75488507D01*
X92665539Y-75347241D01*
X92627340Y-75288194D01*
X92627338Y-75288192D01*
X92622905Y-75281339D01*
X92602771Y-75259212D01*
X92462347Y-75104887D01*
X92462344Y-75104884D01*
X92456846Y-75098842D01*
X92450436Y-75093780D01*
X92450431Y-75093775D01*
X92440355Y-75085818D01*
X92384808Y-75016840D01*
X92364691Y-74930592D01*
X92383988Y-74844156D01*
X92423220Y-74788688D01*
X92576605Y-74635837D01*
X92720588Y-74435463D01*
X92724209Y-74428137D01*
X92826296Y-74221579D01*
X92826297Y-74221576D01*
X92829911Y-74214264D01*
X92832283Y-74206457D01*
X92899267Y-73985988D01*
X92899268Y-73985985D01*
X92901639Y-73978180D01*
X92914892Y-73877517D01*
X92933155Y-73738791D01*
X92933845Y-73733550D01*
X92935643Y-73660000D01*
X92915425Y-73414089D01*
X92913438Y-73406179D01*
X92913437Y-73406172D01*
X92857306Y-73182706D01*
X92855316Y-73174783D01*
X92840238Y-73140104D01*
X92760186Y-72956000D01*
X92756928Y-72948507D01*
X92622905Y-72741339D01*
X92602771Y-72719212D01*
X92462347Y-72564887D01*
X92462344Y-72564884D01*
X92456846Y-72558842D01*
X92450436Y-72553780D01*
X92450431Y-72553775D01*
X92440355Y-72545818D01*
X92384808Y-72476840D01*
X92364691Y-72390592D01*
X92383988Y-72304156D01*
X92423220Y-72248688D01*
X92576605Y-72095837D01*
X92720588Y-71895463D01*
X92724209Y-71888137D01*
X92826296Y-71681579D01*
X92826297Y-71681576D01*
X92829911Y-71674264D01*
X92832932Y-71664321D01*
X92899267Y-71445988D01*
X92899268Y-71445985D01*
X92901639Y-71438180D01*
X92914892Y-71337517D01*
X92933155Y-71198791D01*
X92933845Y-71193550D01*
X92935643Y-71120000D01*
X92915425Y-70874089D01*
X92913438Y-70866179D01*
X92913437Y-70866172D01*
X92857306Y-70642706D01*
X92855316Y-70634783D01*
X92840238Y-70600104D01*
X92794037Y-70493851D01*
X92777681Y-70406811D01*
X92800709Y-70321294D01*
X92858561Y-70254238D01*
X92939779Y-70218923D01*
X92976532Y-70215500D01*
X99833151Y-70215500D01*
X99919494Y-70235207D01*
X99973865Y-70273786D01*
X101171616Y-71471536D01*
X101211622Y-71528936D01*
X101277856Y-71672607D01*
X101283120Y-71680055D01*
X101283122Y-71680059D01*
X101324099Y-71738040D01*
X101394588Y-71837780D01*
X101539466Y-71978913D01*
X101547048Y-71983979D01*
X101547049Y-71983980D01*
X101614106Y-72028786D01*
X101707637Y-72091282D01*
X101755421Y-72111812D01*
X101885094Y-72167524D01*
X101885100Y-72167526D01*
X101893470Y-72171122D01*
X101902359Y-72173133D01*
X101902364Y-72173135D01*
X102073030Y-72211752D01*
X102090740Y-72215760D01*
X102099850Y-72216118D01*
X102099851Y-72216118D01*
X102153603Y-72218230D01*
X102292842Y-72223700D01*
X102301863Y-72222392D01*
X102301864Y-72222392D01*
X102361488Y-72213747D01*
X102493007Y-72194678D01*
X102501640Y-72191747D01*
X102501642Y-72191747D01*
X102588769Y-72162171D01*
X102684531Y-72129664D01*
X102861001Y-72030837D01*
X102886968Y-72009241D01*
X103009494Y-71907336D01*
X103016505Y-71901505D01*
X103101874Y-71798861D01*
X103140003Y-71753016D01*
X103140005Y-71753014D01*
X103145837Y-71746001D01*
X103244664Y-71569531D01*
X103309678Y-71378007D01*
X103335663Y-71198791D01*
X103337860Y-71183636D01*
X103337860Y-71183635D01*
X103338700Y-71177842D01*
X103340215Y-71120000D01*
X103321708Y-70918591D01*
X103266807Y-70723926D01*
X103177351Y-70542527D01*
X103056335Y-70380467D01*
X102907812Y-70243174D01*
X102736757Y-70135246D01*
X102728280Y-70131864D01*
X102728278Y-70131863D01*
X102655671Y-70102896D01*
X102588698Y-70058777D01*
X101049614Y-68519694D01*
X101045740Y-68515710D01*
X100994048Y-68461047D01*
X100994047Y-68461046D01*
X100987119Y-68453720D01*
X100939890Y-68420650D01*
X100928264Y-68411857D01*
X100900488Y-68389203D01*
X100883597Y-68375427D01*
X100862265Y-68364275D01*
X100840334Y-68350941D01*
X100820621Y-68337137D01*
X100811372Y-68333135D01*
X100811369Y-68333133D01*
X100767720Y-68314245D01*
X100754566Y-68307971D01*
X100703470Y-68281258D01*
X100693772Y-68278477D01*
X100693769Y-68278476D01*
X100680337Y-68274624D01*
X100656162Y-68265968D01*
X100643340Y-68260420D01*
X100643334Y-68260418D01*
X100634081Y-68256414D01*
X100624220Y-68254354D01*
X100624214Y-68254352D01*
X100577646Y-68244624D01*
X100563489Y-68241120D01*
X100508087Y-68225234D01*
X100484091Y-68223388D01*
X100458677Y-68219770D01*
X100442605Y-68216412D01*
X100442596Y-68216411D01*
X100435120Y-68214849D01*
X100428461Y-68214500D01*
X100376227Y-68214500D01*
X100360962Y-68213913D01*
X100305429Y-68209640D01*
X100279379Y-68212931D01*
X100254437Y-68214500D01*
X89552147Y-68214500D01*
X89546591Y-68214422D01*
X89461347Y-68212041D01*
X89451417Y-68213792D01*
X89451416Y-68213792D01*
X89404575Y-68222051D01*
X89390131Y-68224055D01*
X89378525Y-68225234D01*
X89332784Y-68229880D01*
X89323173Y-68232892D01*
X89323163Y-68232894D01*
X89309819Y-68237076D01*
X89284869Y-68243159D01*
X89261178Y-68247336D01*
X89207578Y-68268558D01*
X89193843Y-68273421D01*
X89148444Y-68287648D01*
X89148440Y-68287650D01*
X89138828Y-68290662D01*
X89130018Y-68295546D01*
X89130012Y-68295548D01*
X89117783Y-68302327D01*
X89094563Y-68313303D01*
X89081573Y-68318446D01*
X89081566Y-68318450D01*
X89072195Y-68322160D01*
X89063758Y-68327681D01*
X89063756Y-68327682D01*
X89023961Y-68353722D01*
X89011479Y-68361252D01*
X88969872Y-68384316D01*
X88961056Y-68389203D01*
X88953402Y-68395764D01*
X88953401Y-68395764D01*
X88942789Y-68404860D01*
X88922254Y-68420279D01*
X88902117Y-68433456D01*
X88897162Y-68437918D01*
X88860242Y-68474838D01*
X88849032Y-68485219D01*
X88806729Y-68521477D01*
X88800547Y-68529447D01*
X88790633Y-68542228D01*
X88774106Y-68560974D01*
X78044695Y-79290385D01*
X78040711Y-79294259D01*
X77978720Y-79352881D01*
X77972938Y-79361139D01*
X77966349Y-79368772D01*
X77964189Y-79366907D01*
X77911367Y-79414699D01*
X77826417Y-79439740D01*
X77739016Y-79425442D01*
X77666473Y-79374638D01*
X77623158Y-79297390D01*
X77617648Y-79208998D01*
X77623632Y-79183275D01*
X77659267Y-79065988D01*
X77659268Y-79065985D01*
X77661639Y-79058180D01*
X77674892Y-78957517D01*
X77693155Y-78818791D01*
X77693845Y-78813550D01*
X77695643Y-78740000D01*
X77675425Y-78494089D01*
X77673438Y-78486179D01*
X77673437Y-78486172D01*
X77617306Y-78262706D01*
X77615316Y-78254783D01*
X77600238Y-78220104D01*
X77520186Y-78036000D01*
X77516928Y-78028507D01*
X77382905Y-77821339D01*
X77362769Y-77799210D01*
X77222347Y-77644887D01*
X77222344Y-77644884D01*
X77216846Y-77638842D01*
X77210436Y-77633780D01*
X77210431Y-77633775D01*
X77200355Y-77625818D01*
X77144808Y-77556840D01*
X77124691Y-77470592D01*
X77143988Y-77384156D01*
X77183220Y-77328688D01*
X77336605Y-77175837D01*
X77480588Y-76975463D01*
X77484209Y-76968137D01*
X77586296Y-76761579D01*
X77586297Y-76761576D01*
X77589911Y-76754264D01*
X77592283Y-76746457D01*
X77659267Y-76525988D01*
X77659268Y-76525985D01*
X77661639Y-76518180D01*
X77674892Y-76417517D01*
X77693155Y-76278791D01*
X77693845Y-76273550D01*
X77695643Y-76200000D01*
X77675425Y-75954089D01*
X77673438Y-75946179D01*
X77673437Y-75946172D01*
X77617306Y-75722706D01*
X77615316Y-75714783D01*
X77600238Y-75680104D01*
X77520186Y-75496000D01*
X77516928Y-75488507D01*
X77425539Y-75347241D01*
X77387340Y-75288194D01*
X77387338Y-75288192D01*
X77382905Y-75281339D01*
X77362771Y-75259212D01*
X77222347Y-75104887D01*
X77222344Y-75104884D01*
X77216846Y-75098842D01*
X77210436Y-75093780D01*
X77210431Y-75093775D01*
X77200355Y-75085818D01*
X77144808Y-75016840D01*
X77124691Y-74930592D01*
X77143988Y-74844156D01*
X77183220Y-74788688D01*
X77336605Y-74635837D01*
X77480588Y-74435463D01*
X77484209Y-74428137D01*
X77586296Y-74221579D01*
X77586297Y-74221576D01*
X77589911Y-74214264D01*
X77592283Y-74206457D01*
X77659267Y-73985988D01*
X77659268Y-73985985D01*
X77661639Y-73978180D01*
X77674892Y-73877517D01*
X77693155Y-73738791D01*
X77693845Y-73733550D01*
X77695643Y-73660000D01*
X77675425Y-73414089D01*
X77673438Y-73406179D01*
X77673437Y-73406172D01*
X77617306Y-73182706D01*
X77615316Y-73174783D01*
X77600238Y-73140104D01*
X77520186Y-72956000D01*
X77516928Y-72948507D01*
X77382905Y-72741339D01*
X77362771Y-72719212D01*
X77222347Y-72564887D01*
X77222344Y-72564884D01*
X77216846Y-72558842D01*
X77210436Y-72553780D01*
X77210431Y-72553775D01*
X77200355Y-72545818D01*
X77144808Y-72476840D01*
X77124691Y-72390592D01*
X77143988Y-72304156D01*
X77183220Y-72248688D01*
X77336605Y-72095837D01*
X77480588Y-71895463D01*
X77484209Y-71888137D01*
X77586296Y-71681579D01*
X77586297Y-71681576D01*
X77589911Y-71674264D01*
X77592932Y-71664321D01*
X77659267Y-71445988D01*
X77659268Y-71445985D01*
X77661639Y-71438180D01*
X77674892Y-71337517D01*
X77693155Y-71198791D01*
X77693845Y-71193550D01*
X77695643Y-71120000D01*
X77675425Y-70874089D01*
X77673438Y-70866179D01*
X77673437Y-70866172D01*
X77617306Y-70642706D01*
X77615316Y-70634783D01*
X77600238Y-70600104D01*
X77520186Y-70416000D01*
X77516928Y-70408507D01*
X77382905Y-70201339D01*
X77362771Y-70179212D01*
X77222347Y-70024887D01*
X77222344Y-70024884D01*
X77216846Y-70018842D01*
X77185496Y-69994083D01*
X77029613Y-69870974D01*
X77029607Y-69870970D01*
X77023210Y-69865918D01*
X76868110Y-69780298D01*
X76814345Y-69750618D01*
X76814342Y-69750616D01*
X76807198Y-69746673D01*
X76718766Y-69715357D01*
X76582306Y-69667034D01*
X76582303Y-69667033D01*
X76574610Y-69664309D01*
X76331694Y-69621039D01*
X76323528Y-69620939D01*
X76323525Y-69620939D01*
X76217740Y-69619647D01*
X76084972Y-69618025D01*
X76076903Y-69619260D01*
X76076899Y-69619260D01*
X75963021Y-69636686D01*
X75841070Y-69655347D01*
X75606540Y-69732003D01*
X75599302Y-69735771D01*
X75599297Y-69735773D01*
X75513766Y-69780298D01*
X75387679Y-69845935D01*
X75190364Y-69994083D01*
X75019896Y-70172468D01*
X75015298Y-70179208D01*
X75015295Y-70179212D01*
X74885454Y-70369552D01*
X74880851Y-70376300D01*
X74776965Y-70600104D01*
X74711026Y-70837871D01*
X74684806Y-71083214D01*
X74685276Y-71091367D01*
X74685276Y-71091373D01*
X74690863Y-71188264D01*
X74699010Y-71329545D01*
X74753255Y-71570249D01*
X74846084Y-71798861D01*
X74850351Y-71805824D01*
X74850352Y-71805826D01*
X74970739Y-72002279D01*
X74970743Y-72002284D01*
X74975006Y-72009241D01*
X74980352Y-72015412D01*
X74980353Y-72015414D01*
X75000963Y-72039207D01*
X75136557Y-72195741D01*
X75142841Y-72200958D01*
X75142842Y-72200959D01*
X75183495Y-72234710D01*
X75237339Y-72305026D01*
X75255341Y-72391740D01*
X75233937Y-72477678D01*
X75190605Y-72533902D01*
X75190364Y-72534083D01*
X75019896Y-72712468D01*
X75015298Y-72719208D01*
X75015295Y-72719212D01*
X74995525Y-72748194D01*
X74880851Y-72916300D01*
X74776965Y-73140104D01*
X74711026Y-73377871D01*
X74684806Y-73623214D01*
X74685276Y-73631367D01*
X74685276Y-73631373D01*
X74687394Y-73668100D01*
X74699010Y-73869545D01*
X74753255Y-74110249D01*
X74846084Y-74338861D01*
X74850351Y-74345824D01*
X74850352Y-74345826D01*
X74970739Y-74542279D01*
X74970743Y-74542284D01*
X74975006Y-74549241D01*
X75136557Y-74735741D01*
X75142841Y-74740958D01*
X75142842Y-74740959D01*
X75183495Y-74774710D01*
X75237339Y-74845026D01*
X75255341Y-74931740D01*
X75233937Y-75017678D01*
X75190605Y-75073902D01*
X75190364Y-75074083D01*
X75019896Y-75252468D01*
X75015298Y-75259208D01*
X75015295Y-75259212D01*
X74885454Y-75449552D01*
X74880851Y-75456300D01*
X74776965Y-75680104D01*
X74711026Y-75917871D01*
X74684806Y-76163214D01*
X74685276Y-76171367D01*
X74685276Y-76171373D01*
X74690863Y-76268264D01*
X74699010Y-76409545D01*
X74753255Y-76650249D01*
X74846084Y-76878861D01*
X74850351Y-76885824D01*
X74850352Y-76885826D01*
X74970739Y-77082279D01*
X74970743Y-77082284D01*
X74975006Y-77089241D01*
X75136557Y-77275741D01*
X75142841Y-77280958D01*
X75142842Y-77280959D01*
X75183495Y-77314710D01*
X75237339Y-77385026D01*
X75255341Y-77471740D01*
X75233937Y-77557678D01*
X75190605Y-77613902D01*
X75190364Y-77614083D01*
X75019896Y-77792468D01*
X75015298Y-77799208D01*
X75015295Y-77799212D01*
X74944306Y-77903278D01*
X74880851Y-77996300D01*
X74776965Y-78220104D01*
X74711026Y-78457871D01*
X74684806Y-78703214D01*
X74685276Y-78711367D01*
X74685276Y-78711373D01*
X74688574Y-78768565D01*
X74699010Y-78949545D01*
X74753255Y-79190249D01*
X74846084Y-79418861D01*
X74850351Y-79425824D01*
X74850352Y-79425826D01*
X74970739Y-79622279D01*
X74970743Y-79622284D01*
X74975006Y-79629241D01*
X74980352Y-79635412D01*
X74980353Y-79635414D01*
X75013631Y-79673831D01*
X75136557Y-79815741D01*
X75142841Y-79820958D01*
X75142842Y-79820959D01*
X75183495Y-79854710D01*
X75237339Y-79925026D01*
X75255341Y-80011740D01*
X75233937Y-80097678D01*
X75190605Y-80153902D01*
X75190364Y-80154083D01*
X75184721Y-80159988D01*
X75163094Y-80182620D01*
X75019896Y-80332468D01*
X75015298Y-80339208D01*
X75015295Y-80339212D01*
X74896359Y-80513566D01*
X74880851Y-80536300D01*
X74845655Y-80612123D01*
X74811302Y-80686132D01*
X74776965Y-80760104D01*
X74711026Y-80997871D01*
X74684806Y-81243214D01*
X74685276Y-81251367D01*
X74685276Y-81251373D01*
X74690863Y-81348264D01*
X74699010Y-81489545D01*
X74753255Y-81730249D01*
X74846084Y-81958861D01*
X74850351Y-81965824D01*
X74850352Y-81965826D01*
X74970739Y-82162279D01*
X74970743Y-82162284D01*
X74975006Y-82169241D01*
X74980352Y-82175412D01*
X74980353Y-82175414D01*
X75055014Y-82261605D01*
X75136557Y-82355741D01*
X75142841Y-82360958D01*
X75142842Y-82360959D01*
X75183495Y-82394710D01*
X75237339Y-82465026D01*
X75255341Y-82551740D01*
X75233937Y-82637678D01*
X75190605Y-82693902D01*
X75190364Y-82694083D01*
X75184721Y-82699988D01*
X75163094Y-82722620D01*
X75019896Y-82872468D01*
X75015298Y-82879208D01*
X75015295Y-82879212D01*
X74892502Y-83059220D01*
X74880851Y-83076300D01*
X74877413Y-83083707D01*
X74811302Y-83226132D01*
X74776965Y-83300104D01*
X74711026Y-83537871D01*
X74684806Y-83783214D01*
X74685276Y-83791367D01*
X74685276Y-83791373D01*
X74690863Y-83888264D01*
X74699010Y-84029545D01*
X74753255Y-84270249D01*
X74846084Y-84498861D01*
X74850351Y-84505824D01*
X74850352Y-84505826D01*
X74970739Y-84702279D01*
X74970743Y-84702284D01*
X74975006Y-84709241D01*
X74980352Y-84715412D01*
X74980353Y-84715414D01*
X75063285Y-84811153D01*
X75136557Y-84895741D01*
X75142841Y-84900958D01*
X75142842Y-84900959D01*
X75183495Y-84934710D01*
X75237339Y-85005026D01*
X75255341Y-85091740D01*
X75233937Y-85177678D01*
X75190605Y-85233902D01*
X75190364Y-85234083D01*
X75184721Y-85239988D01*
X75127200Y-85300181D01*
X75019896Y-85412468D01*
X75015298Y-85419208D01*
X75015295Y-85419212D01*
X74885454Y-85609552D01*
X74880851Y-85616300D01*
X74844931Y-85693683D01*
X74789613Y-85812857D01*
X74776965Y-85840104D01*
X74711026Y-86077871D01*
X74684806Y-86323214D01*
X74699010Y-86569545D01*
X74753255Y-86810249D01*
X74846084Y-87038861D01*
X74850351Y-87045824D01*
X74850352Y-87045826D01*
X74970739Y-87242279D01*
X74970743Y-87242284D01*
X74975006Y-87249241D01*
X74980352Y-87255412D01*
X74980353Y-87255414D01*
X75053255Y-87339574D01*
X75136557Y-87435741D01*
X75142841Y-87440958D01*
X75142842Y-87440959D01*
X75183495Y-87474710D01*
X75237339Y-87545026D01*
X75255341Y-87631740D01*
X75233937Y-87717678D01*
X75190605Y-87773902D01*
X75190364Y-87774083D01*
X75184721Y-87779988D01*
X75057889Y-87912711D01*
X75019896Y-87952468D01*
X75015298Y-87959208D01*
X75015295Y-87959212D01*
X74919717Y-88099324D01*
X74880851Y-88156300D01*
X74776965Y-88380104D01*
X74711026Y-88617871D01*
X74684806Y-88863214D01*
X74685276Y-88871367D01*
X74685276Y-88871373D01*
X74689523Y-88945020D01*
X74699010Y-89109545D01*
X74753255Y-89350249D01*
X74846084Y-89578861D01*
X74850351Y-89585824D01*
X74850352Y-89585826D01*
X74970739Y-89782279D01*
X74970743Y-89782284D01*
X74975006Y-89789241D01*
X74980352Y-89795412D01*
X74980353Y-89795414D01*
X75055013Y-89881604D01*
X75136557Y-89975741D01*
X75142841Y-89980958D01*
X75142842Y-89980959D01*
X75183495Y-90014710D01*
X75237339Y-90085026D01*
X75255341Y-90171740D01*
X75233937Y-90257678D01*
X75190605Y-90313902D01*
X75190364Y-90314083D01*
X75019896Y-90492468D01*
X75015298Y-90499208D01*
X75015295Y-90499212D01*
X74898520Y-90670398D01*
X74880851Y-90696300D01*
X74776965Y-90920104D01*
X74711026Y-91157871D01*
X74684806Y-91403214D01*
X74685276Y-91411367D01*
X74685276Y-91411373D01*
X74691168Y-91513550D01*
X74699010Y-91649545D01*
X74753255Y-91890249D01*
X74846084Y-92118861D01*
X74850351Y-92125824D01*
X74850352Y-92125826D01*
X74970739Y-92322279D01*
X74970743Y-92322284D01*
X74975006Y-92329241D01*
X74980352Y-92335412D01*
X74980353Y-92335414D01*
X75080073Y-92450534D01*
X75136557Y-92515741D01*
X75142841Y-92520958D01*
X75142842Y-92520959D01*
X75183495Y-92554710D01*
X75237339Y-92625026D01*
X75255341Y-92711740D01*
X75233937Y-92797678D01*
X75190605Y-92853902D01*
X75190364Y-92854083D01*
X75184721Y-92859988D01*
X75075071Y-92974731D01*
X75019896Y-93032468D01*
X75015298Y-93039208D01*
X75015295Y-93039212D01*
X74894632Y-93216098D01*
X74880851Y-93236300D01*
X74776965Y-93460104D01*
X74711026Y-93697871D01*
X74684806Y-93943214D01*
X74685276Y-93951367D01*
X74685276Y-93951373D01*
X74688833Y-94013057D01*
X74699010Y-94189545D01*
X74753255Y-94430249D01*
X74846084Y-94658861D01*
X74850351Y-94665824D01*
X74850352Y-94665826D01*
X74970739Y-94862279D01*
X74970743Y-94862284D01*
X74975006Y-94869241D01*
X74980352Y-94875412D01*
X74980353Y-94875414D01*
X75055014Y-94961605D01*
X75136557Y-95055741D01*
X75142841Y-95060958D01*
X75142842Y-95060959D01*
X75183495Y-95094710D01*
X75237339Y-95165026D01*
X75255341Y-95251740D01*
X75233937Y-95337678D01*
X75190605Y-95393902D01*
X75190364Y-95394083D01*
X75184721Y-95399988D01*
X75066199Y-95524015D01*
X75019896Y-95572468D01*
X75015298Y-95579208D01*
X75015295Y-95579212D01*
X74907763Y-95736848D01*
X74880851Y-95776300D01*
X74877413Y-95783707D01*
X74802923Y-95944183D01*
X74776965Y-96000104D01*
X74711026Y-96237871D01*
X74684806Y-96483214D01*
X74685276Y-96491367D01*
X74685276Y-96491373D01*
X74688833Y-96553057D01*
X74699010Y-96729545D01*
X74753255Y-96970249D01*
X74846084Y-97198861D01*
X74850351Y-97205824D01*
X74850352Y-97205826D01*
X74970739Y-97402279D01*
X74970743Y-97402284D01*
X74975006Y-97409241D01*
X75136557Y-97595741D01*
X75142841Y-97600958D01*
X75142842Y-97600959D01*
X75183495Y-97634710D01*
X75237339Y-97705026D01*
X75255341Y-97791740D01*
X75233937Y-97877678D01*
X75190599Y-97933907D01*
X75190364Y-97934083D01*
X75184725Y-97939984D01*
X75184717Y-97939991D01*
X75146127Y-97980373D01*
X75136187Y-97990073D01*
X75098800Y-98024093D01*
X75088842Y-98033154D01*
X75062045Y-98067085D01*
X75049757Y-98081220D01*
X75019896Y-98112468D01*
X75015297Y-98119210D01*
X74983820Y-98165352D01*
X74975601Y-98176540D01*
X74940978Y-98220382D01*
X74940975Y-98220387D01*
X74935918Y-98226790D01*
X74931974Y-98233935D01*
X74915030Y-98264628D01*
X74905207Y-98280595D01*
X74880851Y-98316300D01*
X74877411Y-98323711D01*
X74853899Y-98374364D01*
X74847614Y-98386753D01*
X74837446Y-98405173D01*
X74816673Y-98442802D01*
X74813945Y-98450506D01*
X74802246Y-98483544D01*
X74795165Y-98500895D01*
X74776965Y-98540104D01*
X74774783Y-98547973D01*
X74759857Y-98601791D01*
X74755681Y-98615035D01*
X74737037Y-98667685D01*
X74734309Y-98675390D01*
X74732877Y-98683431D01*
X74732874Y-98683441D01*
X74726727Y-98717947D01*
X74722575Y-98736222D01*
X74713210Y-98769994D01*
X74711026Y-98777871D01*
X74710158Y-98785995D01*
X74704224Y-98841521D01*
X74702267Y-98855274D01*
X74701425Y-98860000D01*
X74691039Y-98918306D01*
X74690939Y-98926473D01*
X74690939Y-98926475D01*
X74690511Y-98961523D01*
X74689400Y-98980227D01*
X74684806Y-99023214D01*
X74686853Y-99058705D01*
X74688492Y-99087136D01*
X74688807Y-99101023D01*
X74688025Y-99165028D01*
X74689260Y-99173095D01*
X74689260Y-99173102D01*
X74694562Y-99207748D01*
X74696522Y-99226394D01*
X74699010Y-99269545D01*
X74700804Y-99277504D01*
X74700805Y-99277514D01*
X74713086Y-99332010D01*
X74715664Y-99345654D01*
X74725347Y-99408930D01*
X74738781Y-99450032D01*
X74743753Y-99468087D01*
X74753255Y-99510249D01*
X74756326Y-99517812D01*
X74756327Y-99517815D01*
X74777339Y-99569562D01*
X74782113Y-99582606D01*
X74802003Y-99643460D01*
X74805775Y-99650705D01*
X74805775Y-99650706D01*
X74821959Y-99681796D01*
X74829823Y-99698816D01*
X74843010Y-99731291D01*
X74846084Y-99738861D01*
X74873205Y-99783117D01*
X74879532Y-99793442D01*
X74886374Y-99805534D01*
X74915935Y-99862321D01*
X74941886Y-99896885D01*
X74952421Y-99912387D01*
X74975006Y-99949241D01*
X74980355Y-99955416D01*
X75016914Y-99997620D01*
X75025629Y-100008420D01*
X75064083Y-100059636D01*
X75069986Y-100065277D01*
X75095332Y-100089498D01*
X75108250Y-100103063D01*
X75136557Y-100135741D01*
X75142841Y-100140958D01*
X75142842Y-100140959D01*
X75183495Y-100174710D01*
X75237339Y-100245026D01*
X75255341Y-100331740D01*
X75233937Y-100417678D01*
X75190605Y-100473902D01*
X75190364Y-100474083D01*
X75019896Y-100652468D01*
X75015298Y-100659208D01*
X75015295Y-100659212D01*
X74995525Y-100688194D01*
X74880851Y-100856300D01*
X74877413Y-100863707D01*
X74786406Y-101059766D01*
X74776965Y-101080104D01*
X74711026Y-101317871D01*
X74684806Y-101563214D01*
X69280000Y-101563214D01*
X69280000Y-67227172D01*
X124546609Y-67227172D01*
X124553429Y-67539745D01*
X124554372Y-67546016D01*
X124585024Y-67749895D01*
X124599911Y-67848918D01*
X124685301Y-68149678D01*
X124808215Y-68437150D01*
X124811426Y-68442612D01*
X124811429Y-68442618D01*
X124875803Y-68552120D01*
X124966661Y-68706674D01*
X125158069Y-68953881D01*
X125379336Y-69174763D01*
X125626877Y-69365739D01*
X125632351Y-69368944D01*
X125810917Y-69473499D01*
X125896677Y-69523714D01*
X125902503Y-69526193D01*
X125902507Y-69526195D01*
X126178534Y-69643646D01*
X126178538Y-69643647D01*
X126184363Y-69646126D01*
X126385235Y-69702778D01*
X126397558Y-69706253D01*
X126485272Y-69730991D01*
X126617389Y-69750618D01*
X126789332Y-69776162D01*
X126789341Y-69776163D01*
X126794525Y-69776933D01*
X126879631Y-69780500D01*
X127079085Y-69780500D01*
X127082244Y-69780298D01*
X127082259Y-69780298D01*
X127305687Y-69766045D01*
X127305694Y-69766044D01*
X127312013Y-69765641D01*
X127318227Y-69764439D01*
X127318233Y-69764438D01*
X127612735Y-69707459D01*
X127612736Y-69707459D01*
X127618968Y-69706253D01*
X127915888Y-69608344D01*
X128197961Y-69473499D01*
X128203289Y-69470059D01*
X128455292Y-69307344D01*
X128455299Y-69307339D01*
X128460614Y-69303907D01*
X128699589Y-69102315D01*
X128911011Y-68871992D01*
X129091454Y-68616671D01*
X129237992Y-68340492D01*
X129348249Y-68047932D01*
X129420439Y-67743733D01*
X129442731Y-67533411D01*
X129452724Y-67439120D01*
X129453391Y-67432828D01*
X129448904Y-67227172D01*
X193126609Y-67227172D01*
X193133429Y-67539745D01*
X193134372Y-67546016D01*
X193165024Y-67749895D01*
X193179911Y-67848918D01*
X193265301Y-68149678D01*
X193388215Y-68437150D01*
X193391426Y-68442612D01*
X193391429Y-68442618D01*
X193455803Y-68552120D01*
X193546661Y-68706674D01*
X193738069Y-68953881D01*
X193959336Y-69174763D01*
X194206877Y-69365739D01*
X194212351Y-69368944D01*
X194390917Y-69473499D01*
X194476677Y-69523714D01*
X194482503Y-69526193D01*
X194482507Y-69526195D01*
X194758534Y-69643646D01*
X194758538Y-69643647D01*
X194764363Y-69646126D01*
X194965235Y-69702778D01*
X194977558Y-69706253D01*
X195065272Y-69730991D01*
X195197389Y-69750618D01*
X195369332Y-69776162D01*
X195369341Y-69776163D01*
X195374525Y-69776933D01*
X195459631Y-69780500D01*
X195659085Y-69780500D01*
X195662244Y-69780298D01*
X195662259Y-69780298D01*
X195885687Y-69766045D01*
X195885694Y-69766044D01*
X195892013Y-69765641D01*
X195898227Y-69764439D01*
X195898233Y-69764438D01*
X196192735Y-69707459D01*
X196192736Y-69707459D01*
X196198968Y-69706253D01*
X196495888Y-69608344D01*
X196777961Y-69473499D01*
X196783289Y-69470059D01*
X197035292Y-69307344D01*
X197035299Y-69307339D01*
X197040614Y-69303907D01*
X197279589Y-69102315D01*
X197491011Y-68871992D01*
X197671454Y-68616671D01*
X197817992Y-68340492D01*
X197928249Y-68047932D01*
X198000439Y-67743733D01*
X198022731Y-67533411D01*
X198032724Y-67439120D01*
X198033391Y-67432828D01*
X198026571Y-67120255D01*
X197995903Y-66916267D01*
X197981032Y-66817351D01*
X197981030Y-66817343D01*
X197980089Y-66811082D01*
X197894699Y-66510322D01*
X197771785Y-66222850D01*
X197613339Y-65953326D01*
X197421931Y-65706119D01*
X197200664Y-65485237D01*
X196953123Y-65294261D01*
X196774959Y-65189941D01*
X196688792Y-65139488D01*
X196688789Y-65139487D01*
X196683323Y-65136286D01*
X196677497Y-65133807D01*
X196677493Y-65133805D01*
X196401466Y-65016354D01*
X196401462Y-65016353D01*
X196395637Y-65013874D01*
X196189495Y-64955736D01*
X196100820Y-64930727D01*
X196100818Y-64930727D01*
X196094728Y-64929009D01*
X195946835Y-64907038D01*
X195790668Y-64883838D01*
X195790659Y-64883837D01*
X195785475Y-64883067D01*
X195700369Y-64879500D01*
X195500915Y-64879500D01*
X195497756Y-64879702D01*
X195497741Y-64879702D01*
X195274313Y-64893955D01*
X195274306Y-64893956D01*
X195267987Y-64894359D01*
X195261773Y-64895561D01*
X195261767Y-64895562D01*
X194967265Y-64952541D01*
X194961032Y-64953747D01*
X194664112Y-65051656D01*
X194382039Y-65186501D01*
X194376714Y-65189940D01*
X194376711Y-65189941D01*
X194124708Y-65352656D01*
X194124701Y-65352661D01*
X194119386Y-65356093D01*
X193880411Y-65557685D01*
X193668989Y-65788008D01*
X193488546Y-66043329D01*
X193342008Y-66319508D01*
X193231751Y-66612068D01*
X193159561Y-66916267D01*
X193158894Y-66922557D01*
X193158893Y-66922565D01*
X193133789Y-67159432D01*
X193126609Y-67227172D01*
X129448904Y-67227172D01*
X129446571Y-67120255D01*
X129415903Y-66916267D01*
X129401032Y-66817351D01*
X129401030Y-66817343D01*
X129400089Y-66811082D01*
X129314699Y-66510322D01*
X129191785Y-66222850D01*
X129033339Y-65953326D01*
X128841931Y-65706119D01*
X128620664Y-65485237D01*
X128373123Y-65294261D01*
X128194959Y-65189941D01*
X128108792Y-65139488D01*
X128108789Y-65139487D01*
X128103323Y-65136286D01*
X128097497Y-65133807D01*
X128097493Y-65133805D01*
X127821466Y-65016354D01*
X127821462Y-65016353D01*
X127815637Y-65013874D01*
X127609495Y-64955736D01*
X127520820Y-64930727D01*
X127520818Y-64930727D01*
X127514728Y-64929009D01*
X127366835Y-64907038D01*
X127210668Y-64883838D01*
X127210659Y-64883837D01*
X127205475Y-64883067D01*
X127120369Y-64879500D01*
X126920915Y-64879500D01*
X126917756Y-64879702D01*
X126917741Y-64879702D01*
X126694313Y-64893955D01*
X126694306Y-64893956D01*
X126687987Y-64894359D01*
X126681773Y-64895561D01*
X126681767Y-64895562D01*
X126387265Y-64952541D01*
X126381032Y-64953747D01*
X126084112Y-65051656D01*
X125802039Y-65186501D01*
X125796714Y-65189940D01*
X125796711Y-65189941D01*
X125544708Y-65352656D01*
X125544701Y-65352661D01*
X125539386Y-65356093D01*
X125300411Y-65557685D01*
X125088989Y-65788008D01*
X124908546Y-66043329D01*
X124762008Y-66319508D01*
X124651751Y-66612068D01*
X124579561Y-66916267D01*
X124578894Y-66922557D01*
X124578893Y-66922565D01*
X124553789Y-67159432D01*
X124546609Y-67227172D01*
X69280000Y-67227172D01*
X69280000Y-54239000D01*
X69299707Y-54152657D01*
X69354926Y-54083416D01*
X69434718Y-54044989D01*
X69479000Y-54040000D01*
X207381000Y-54040000D01*
X207467343Y-54059707D01*
G37*
%TD.AperFunction*%
%TA.AperFunction,Conductor*%
G36*
X86686374Y-73697351D02*
G01*
X86748998Y-73759975D01*
X86778249Y-73843568D01*
X86779500Y-73865849D01*
X86779500Y-103372122D01*
X86759793Y-103458465D01*
X86736779Y-103495321D01*
X86703089Y-103538057D01*
X86698843Y-103546128D01*
X86698840Y-103546132D01*
X86633278Y-103670745D01*
X86608914Y-103717053D01*
X86548937Y-103910213D01*
X86525164Y-104111069D01*
X86538392Y-104312894D01*
X86588178Y-104508928D01*
X86591996Y-104517209D01*
X86591996Y-104517210D01*
X86669036Y-104684321D01*
X86672856Y-104692607D01*
X86678120Y-104700055D01*
X86678122Y-104700059D01*
X86702309Y-104734283D01*
X86789588Y-104857780D01*
X86934466Y-104998913D01*
X87102637Y-105111282D01*
X87111019Y-105114883D01*
X87280094Y-105187524D01*
X87280100Y-105187526D01*
X87288470Y-105191122D01*
X87297359Y-105193133D01*
X87297364Y-105193135D01*
X87447981Y-105227216D01*
X87485740Y-105235760D01*
X87494850Y-105236118D01*
X87494851Y-105236118D01*
X87607372Y-105240539D01*
X87692874Y-105263621D01*
X87759895Y-105321516D01*
X87795159Y-105402755D01*
X87798133Y-105426371D01*
X87807795Y-105573778D01*
X87808392Y-105582894D01*
X87810638Y-105591737D01*
X87810638Y-105591738D01*
X87852178Y-105755301D01*
X87858178Y-105778928D01*
X87861996Y-105787209D01*
X87861996Y-105787210D01*
X87895337Y-105859531D01*
X87942856Y-105962607D01*
X87948120Y-105970055D01*
X87948122Y-105970059D01*
X87952321Y-105976000D01*
X88059588Y-106127780D01*
X88204466Y-106268913D01*
X88212048Y-106273979D01*
X88212049Y-106273980D01*
X88280284Y-106319573D01*
X88372637Y-106381282D01*
X88381019Y-106384883D01*
X88550094Y-106457524D01*
X88550100Y-106457526D01*
X88558470Y-106461122D01*
X88567359Y-106463133D01*
X88567364Y-106463135D01*
X88738030Y-106501752D01*
X88755740Y-106505760D01*
X88764850Y-106506118D01*
X88764851Y-106506118D01*
X88818603Y-106508230D01*
X88957842Y-106513700D01*
X88966863Y-106512392D01*
X88966864Y-106512392D01*
X89026488Y-106503747D01*
X89158007Y-106484678D01*
X89166640Y-106481747D01*
X89166642Y-106481747D01*
X89283069Y-106442225D01*
X89349531Y-106419664D01*
X89526001Y-106320837D01*
X89603253Y-106256587D01*
X89682236Y-106216529D01*
X89770781Y-106214706D01*
X89851347Y-106251483D01*
X89907978Y-106319573D01*
X89929500Y-106409587D01*
X89929501Y-106990091D01*
X89929501Y-107535992D01*
X89936171Y-107608594D01*
X89952784Y-107661605D01*
X89980350Y-107749567D01*
X89986873Y-107770383D01*
X89993084Y-107780639D01*
X89993086Y-107780643D01*
X90060243Y-107891532D01*
X90074703Y-107915408D01*
X90174081Y-108014786D01*
X90221200Y-108089774D01*
X90231116Y-108177781D01*
X90201865Y-108261374D01*
X90139241Y-108323998D01*
X90055648Y-108353249D01*
X90033367Y-108354500D01*
X89603955Y-108354500D01*
X89517612Y-108334793D01*
X89463241Y-108296214D01*
X79798786Y-98631759D01*
X79751667Y-98556771D01*
X79740500Y-98491045D01*
X79740500Y-98153743D01*
X79741086Y-98138477D01*
X79744587Y-98092981D01*
X79744587Y-98092977D01*
X79745360Y-98082929D01*
X79742069Y-98056876D01*
X79740500Y-98031936D01*
X79740500Y-80506849D01*
X79760207Y-80420506D01*
X79798786Y-80366135D01*
X86439786Y-73725135D01*
X86514774Y-73678016D01*
X86602781Y-73668100D01*
X86686374Y-73697351D01*
G37*
%TD.AperFunction*%
%TA.AperFunction,Conductor*%
G36*
X161382326Y-87524859D02*
G01*
X161441322Y-87571908D01*
X161455162Y-87588113D01*
X161455166Y-87588117D01*
X161460241Y-87594059D01*
X161602849Y-87715857D01*
X161655704Y-87786915D01*
X161672494Y-87873872D01*
X161649893Y-87959503D01*
X161614321Y-88007890D01*
X160740303Y-88881909D01*
X160728035Y-88893191D01*
X160690949Y-88924531D01*
X160642584Y-88987790D01*
X160639660Y-88991520D01*
X160589758Y-89053584D01*
X160585088Y-89062991D01*
X160578712Y-89071331D01*
X160574158Y-89081096D01*
X160574158Y-89081097D01*
X160567626Y-89095106D01*
X160557160Y-89117551D01*
X160545089Y-89143437D01*
X160542979Y-89147820D01*
X160512388Y-89209444D01*
X160512384Y-89209454D01*
X160507594Y-89219104D01*
X160505054Y-89229290D01*
X160500616Y-89238808D01*
X160498267Y-89249318D01*
X160483262Y-89316448D01*
X160482143Y-89321181D01*
X160470295Y-89368700D01*
X160462889Y-89398405D01*
X160462645Y-89407157D01*
X160462086Y-89411187D01*
X160460306Y-89419148D01*
X160459989Y-89424818D01*
X160459989Y-89499476D01*
X160459911Y-89505032D01*
X160457730Y-89583122D01*
X160459495Y-89592374D01*
X160459989Y-89604675D01*
X160459989Y-89609756D01*
X160440282Y-89696099D01*
X160385063Y-89765340D01*
X160305271Y-89803767D01*
X160245376Y-89808143D01*
X160027789Y-89791019D01*
X160020000Y-89790406D01*
X159776698Y-89809554D01*
X159539388Y-89866528D01*
X159313911Y-89959923D01*
X159105821Y-90087441D01*
X159099878Y-90092517D01*
X159099875Y-90092519D01*
X159007119Y-90171740D01*
X158920241Y-90245941D01*
X158915166Y-90251883D01*
X158915162Y-90251887D01*
X158901322Y-90268092D01*
X158830262Y-90320950D01*
X158743305Y-90337741D01*
X158657674Y-90315141D01*
X158598678Y-90268092D01*
X158584838Y-90251887D01*
X158584834Y-90251883D01*
X158579759Y-90245941D01*
X158492881Y-90171740D01*
X158400125Y-90092519D01*
X158400122Y-90092517D01*
X158394179Y-90087441D01*
X158186089Y-89959923D01*
X157960612Y-89866528D01*
X157723302Y-89809554D01*
X157480000Y-89790406D01*
X157236698Y-89809554D01*
X156999388Y-89866528D01*
X156773911Y-89959923D01*
X156565821Y-90087441D01*
X156559878Y-90092517D01*
X156559875Y-90092519D01*
X156467119Y-90171740D01*
X156380241Y-90245941D01*
X156375166Y-90251883D01*
X156375162Y-90251887D01*
X156361322Y-90268092D01*
X156290262Y-90320950D01*
X156203305Y-90337741D01*
X156117674Y-90315141D01*
X156058678Y-90268092D01*
X156044838Y-90251887D01*
X156044834Y-90251883D01*
X156039759Y-90245941D01*
X155952881Y-90171740D01*
X155860125Y-90092519D01*
X155860122Y-90092517D01*
X155854179Y-90087441D01*
X155646089Y-89959923D01*
X155420612Y-89866528D01*
X155183302Y-89809554D01*
X154940000Y-89790406D01*
X154696698Y-89809554D01*
X154459388Y-89866528D01*
X154233911Y-89959923D01*
X154025821Y-90087441D01*
X154019878Y-90092517D01*
X154019875Y-90092519D01*
X153927119Y-90171740D01*
X153840241Y-90245941D01*
X153835166Y-90251883D01*
X153835162Y-90251887D01*
X153821322Y-90268092D01*
X153750262Y-90320950D01*
X153663305Y-90337741D01*
X153577674Y-90315141D01*
X153518678Y-90268092D01*
X153504838Y-90251887D01*
X153504834Y-90251883D01*
X153499759Y-90245941D01*
X153412881Y-90171740D01*
X153320125Y-90092519D01*
X153320122Y-90092517D01*
X153314179Y-90087441D01*
X153106089Y-89959923D01*
X152880612Y-89866528D01*
X152643302Y-89809554D01*
X152400000Y-89790406D01*
X152156698Y-89809554D01*
X151919388Y-89866528D01*
X151693911Y-89959923D01*
X151485821Y-90087441D01*
X151479878Y-90092517D01*
X151479875Y-90092519D01*
X151387119Y-90171740D01*
X151300241Y-90245941D01*
X151295166Y-90251883D01*
X151176662Y-90390634D01*
X151141741Y-90431521D01*
X151110952Y-90481764D01*
X151049037Y-90545083D01*
X150965778Y-90575270D01*
X150877665Y-90566342D01*
X150800565Y-90518498D01*
X150672701Y-90390634D01*
X150659434Y-90379502D01*
X150494509Y-90264019D01*
X150479508Y-90255359D01*
X150297037Y-90170271D01*
X150280761Y-90164347D01*
X150086279Y-90112236D01*
X150078633Y-90110888D01*
X150063063Y-90113037D01*
X150061233Y-90116117D01*
X150060000Y-90123963D01*
X150060000Y-91346700D01*
X150040293Y-91433043D01*
X149985074Y-91502284D01*
X149905282Y-91540711D01*
X149861000Y-91545700D01*
X149859000Y-91545700D01*
X149772657Y-91525993D01*
X149703416Y-91470774D01*
X149664989Y-91390982D01*
X149660000Y-91346700D01*
X149660000Y-90130846D01*
X149655670Y-90111876D01*
X149652440Y-90110320D01*
X149646788Y-90109932D01*
X149633721Y-90112236D01*
X149439239Y-90164347D01*
X149422964Y-90170271D01*
X149240493Y-90255359D01*
X149225492Y-90264019D01*
X149060566Y-90379502D01*
X149047299Y-90390634D01*
X148919435Y-90518498D01*
X148844447Y-90565617D01*
X148756440Y-90575533D01*
X148672847Y-90546282D01*
X148609048Y-90481764D01*
X148578259Y-90431521D01*
X148543339Y-90390634D01*
X148424834Y-90251883D01*
X148419759Y-90245941D01*
X148332881Y-90171740D01*
X148240125Y-90092519D01*
X148240122Y-90092517D01*
X148234179Y-90087441D01*
X148026089Y-89959923D01*
X147800612Y-89866528D01*
X147563302Y-89809554D01*
X147320000Y-89790406D01*
X147076698Y-89809554D01*
X146839388Y-89866528D01*
X146613911Y-89959923D01*
X146405821Y-90087441D01*
X146399878Y-90092517D01*
X146399875Y-90092519D01*
X146307119Y-90171740D01*
X146220241Y-90245941D01*
X146215166Y-90251883D01*
X146215162Y-90251887D01*
X146201322Y-90268092D01*
X146130262Y-90320950D01*
X146043305Y-90337741D01*
X145957674Y-90315141D01*
X145898678Y-90268092D01*
X145884838Y-90251887D01*
X145884834Y-90251883D01*
X145879759Y-90245941D01*
X145792881Y-90171740D01*
X145700125Y-90092519D01*
X145700122Y-90092517D01*
X145694179Y-90087441D01*
X145486089Y-89959923D01*
X145260612Y-89866528D01*
X145023302Y-89809554D01*
X144780000Y-89790406D01*
X144536698Y-89809554D01*
X144299388Y-89866528D01*
X144073911Y-89959923D01*
X143865821Y-90087441D01*
X143859878Y-90092517D01*
X143859875Y-90092519D01*
X143767119Y-90171740D01*
X143680241Y-90245941D01*
X143675166Y-90251883D01*
X143675162Y-90251887D01*
X143661322Y-90268092D01*
X143590262Y-90320950D01*
X143503305Y-90337741D01*
X143417674Y-90315141D01*
X143358678Y-90268092D01*
X143344838Y-90251887D01*
X143344834Y-90251883D01*
X143339759Y-90245941D01*
X143252881Y-90171740D01*
X143160125Y-90092519D01*
X143160122Y-90092517D01*
X143154179Y-90087441D01*
X142946089Y-89959923D01*
X142720612Y-89866528D01*
X142483302Y-89809554D01*
X142240000Y-89790406D01*
X141996698Y-89809554D01*
X141759388Y-89866528D01*
X141533911Y-89959923D01*
X141325821Y-90087441D01*
X141319878Y-90092517D01*
X141319875Y-90092519D01*
X141227119Y-90171740D01*
X141140241Y-90245941D01*
X141135166Y-90251883D01*
X141135162Y-90251887D01*
X141121322Y-90268092D01*
X141050262Y-90320950D01*
X140963305Y-90337741D01*
X140877674Y-90315141D01*
X140818678Y-90268092D01*
X140804838Y-90251887D01*
X140804834Y-90251883D01*
X140799759Y-90245941D01*
X140712881Y-90171740D01*
X140620125Y-90092519D01*
X140620122Y-90092517D01*
X140614179Y-90087441D01*
X140406089Y-89959923D01*
X140180612Y-89866528D01*
X139943302Y-89809554D01*
X139700000Y-89790406D01*
X139456698Y-89809554D01*
X139219388Y-89866528D01*
X138993911Y-89959923D01*
X138785821Y-90087441D01*
X138779878Y-90092517D01*
X138779875Y-90092519D01*
X138687119Y-90171740D01*
X138600241Y-90245941D01*
X138595166Y-90251883D01*
X138476662Y-90390634D01*
X138441741Y-90431521D01*
X138314223Y-90639611D01*
X138220828Y-90865088D01*
X138163854Y-91102398D01*
X138144706Y-91345700D01*
X138163854Y-91589002D01*
X138220828Y-91826312D01*
X138314223Y-92051789D01*
X138355325Y-92118861D01*
X138399852Y-92191523D01*
X138428163Y-92275439D01*
X138417260Y-92363329D01*
X138369304Y-92437784D01*
X138293791Y-92484058D01*
X138230177Y-92494500D01*
X107452070Y-92494500D01*
X107365727Y-92474793D01*
X107345881Y-92463800D01*
X107189480Y-92365118D01*
X107189473Y-92365114D01*
X107181757Y-92360246D01*
X107173280Y-92356864D01*
X107173278Y-92356863D01*
X107067740Y-92314758D01*
X106993898Y-92285298D01*
X106984957Y-92283520D01*
X106984952Y-92283518D01*
X106832577Y-92253209D01*
X106795526Y-92245839D01*
X106693032Y-92244498D01*
X106602411Y-92243311D01*
X106602406Y-92243311D01*
X106593286Y-92243192D01*
X106584296Y-92244737D01*
X106584293Y-92244737D01*
X106496172Y-92259879D01*
X106393949Y-92277444D01*
X106385398Y-92280599D01*
X106385393Y-92280600D01*
X106212752Y-92344291D01*
X106212748Y-92344293D01*
X106204193Y-92347449D01*
X106196355Y-92352112D01*
X106196351Y-92352114D01*
X106160615Y-92373375D01*
X106030371Y-92450862D01*
X105878305Y-92584220D01*
X105872659Y-92591382D01*
X105872658Y-92591383D01*
X105758736Y-92735893D01*
X105758733Y-92735897D01*
X105753089Y-92743057D01*
X105748843Y-92751128D01*
X105748840Y-92751132D01*
X105677770Y-92886213D01*
X105658914Y-92922053D01*
X105598937Y-93115213D01*
X105596603Y-93134936D01*
X105579052Y-93283223D01*
X105575164Y-93316069D01*
X105582499Y-93427982D01*
X105587397Y-93502706D01*
X105588392Y-93517894D01*
X105638178Y-93713928D01*
X105641996Y-93722209D01*
X105641996Y-93722210D01*
X105722856Y-93897607D01*
X105720527Y-93898681D01*
X105742147Y-93968748D01*
X105728956Y-94056324D01*
X105719817Y-94076296D01*
X105658914Y-94192053D01*
X105598937Y-94385213D01*
X105593607Y-94430249D01*
X105581296Y-94534264D01*
X105575164Y-94586069D01*
X105588392Y-94787894D01*
X105638178Y-94983928D01*
X105641996Y-94992209D01*
X105641996Y-94992210D01*
X105722856Y-95167607D01*
X105720527Y-95168681D01*
X105742147Y-95238748D01*
X105728956Y-95326324D01*
X105719817Y-95346296D01*
X105694675Y-95394083D01*
X105658914Y-95462053D01*
X105598937Y-95655213D01*
X105594491Y-95692778D01*
X105579052Y-95823223D01*
X105575164Y-95856069D01*
X105576272Y-95872972D01*
X105587397Y-96042706D01*
X105588392Y-96057894D01*
X105638178Y-96253928D01*
X105641996Y-96262209D01*
X105641996Y-96262210D01*
X105722856Y-96437607D01*
X105720527Y-96438681D01*
X105742147Y-96508748D01*
X105728956Y-96596324D01*
X105719817Y-96616296D01*
X105658914Y-96732053D01*
X105598937Y-96925213D01*
X105593607Y-96970249D01*
X105581296Y-97074264D01*
X105575164Y-97126069D01*
X105588392Y-97327894D01*
X105638178Y-97523928D01*
X105641996Y-97532209D01*
X105641996Y-97532210D01*
X105722856Y-97707607D01*
X105720527Y-97708681D01*
X105742147Y-97778748D01*
X105728956Y-97866324D01*
X105719817Y-97886296D01*
X105658914Y-98002053D01*
X105598937Y-98195213D01*
X105591161Y-98260915D01*
X105576267Y-98386753D01*
X105575164Y-98396069D01*
X105588392Y-98597894D01*
X105590638Y-98606737D01*
X105590638Y-98606738D01*
X105632100Y-98769994D01*
X105638178Y-98793928D01*
X105641996Y-98802209D01*
X105641996Y-98802210D01*
X105722856Y-98977607D01*
X105720527Y-98978681D01*
X105742147Y-99048748D01*
X105728956Y-99136324D01*
X105719817Y-99156296D01*
X105665255Y-99260000D01*
X105658914Y-99272053D01*
X105598937Y-99465213D01*
X105575164Y-99666069D01*
X105588392Y-99867894D01*
X105590638Y-99876737D01*
X105590638Y-99876738D01*
X105635431Y-100053110D01*
X105638178Y-100063928D01*
X105641996Y-100072209D01*
X105641996Y-100072210D01*
X105722856Y-100247607D01*
X105720527Y-100248681D01*
X105742147Y-100318748D01*
X105728956Y-100406324D01*
X105719817Y-100426296D01*
X105658914Y-100542053D01*
X105598937Y-100735213D01*
X105597865Y-100744272D01*
X105579052Y-100903223D01*
X105575164Y-100936069D01*
X105576272Y-100952972D01*
X105587397Y-101122706D01*
X105588392Y-101137894D01*
X105590638Y-101146737D01*
X105590638Y-101146738D01*
X105594112Y-101160415D01*
X105638178Y-101333928D01*
X105641996Y-101342209D01*
X105641996Y-101342210D01*
X105722856Y-101517607D01*
X105720527Y-101518681D01*
X105742147Y-101588748D01*
X105728956Y-101676324D01*
X105719817Y-101696296D01*
X105658914Y-101812053D01*
X105598937Y-102005213D01*
X105593607Y-102050249D01*
X105581296Y-102154264D01*
X105575164Y-102206069D01*
X105581306Y-102299786D01*
X105587627Y-102396218D01*
X105588392Y-102407894D01*
X105589323Y-102411561D01*
X105583514Y-102497731D01*
X105539807Y-102574759D01*
X105467008Y-102625195D01*
X105392921Y-102639500D01*
X102355902Y-102639500D01*
X102340545Y-102638412D01*
X102340531Y-102638642D01*
X102332378Y-102638158D01*
X102324294Y-102637007D01*
X102316133Y-102637192D01*
X102316129Y-102637192D01*
X102216687Y-102639449D01*
X102212172Y-102639500D01*
X102172446Y-102639500D01*
X102162314Y-102640333D01*
X102150545Y-102640950D01*
X102077618Y-102642605D01*
X102059379Y-102646051D01*
X102043913Y-102648973D01*
X102023276Y-102651764D01*
X102010067Y-102652850D01*
X101989089Y-102654575D01*
X101929403Y-102669567D01*
X101918359Y-102672341D01*
X101906827Y-102674876D01*
X101835168Y-102688416D01*
X101827501Y-102691222D01*
X101827500Y-102691222D01*
X101802957Y-102700203D01*
X101783050Y-102706327D01*
X101757707Y-102712693D01*
X101757700Y-102712695D01*
X101749783Y-102714684D01*
X101742305Y-102717936D01*
X101742289Y-102717941D01*
X101682898Y-102743766D01*
X101671933Y-102748152D01*
X101611131Y-102770402D01*
X101611127Y-102770404D01*
X101603456Y-102773211D01*
X101584111Y-102784156D01*
X101573603Y-102790101D01*
X101554962Y-102799395D01*
X101523507Y-102813072D01*
X101485798Y-102837467D01*
X101462274Y-102852685D01*
X101452176Y-102858800D01*
X101395817Y-102890686D01*
X101395807Y-102890692D01*
X101388703Y-102894712D01*
X101362000Y-102916259D01*
X101345139Y-102928463D01*
X101316339Y-102947095D01*
X101304533Y-102957838D01*
X101262399Y-102996176D01*
X101253436Y-103003858D01*
X101240765Y-103014083D01*
X101231056Y-103021917D01*
X101203520Y-103049453D01*
X101196735Y-103055926D01*
X101139887Y-103107653D01*
X101139884Y-103107656D01*
X101133842Y-103113154D01*
X101128781Y-103119563D01*
X101128773Y-103119571D01*
X101118607Y-103132444D01*
X101103150Y-103149823D01*
X95956759Y-108296214D01*
X95881771Y-108343333D01*
X95816045Y-108354500D01*
X92826633Y-108354500D01*
X92740290Y-108334793D01*
X92671049Y-108279574D01*
X92632622Y-108199782D01*
X92632622Y-108111218D01*
X92671049Y-108031426D01*
X92685919Y-108014786D01*
X92785297Y-107915408D01*
X92799757Y-107891532D01*
X92866914Y-107780643D01*
X92866916Y-107780639D01*
X92873127Y-107770383D01*
X92879651Y-107749567D01*
X92920671Y-107618670D01*
X92923829Y-107608594D01*
X92928191Y-107561124D01*
X92930083Y-107540534D01*
X92930083Y-107540528D01*
X92930500Y-107535993D01*
X92930499Y-105824008D01*
X92923829Y-105751406D01*
X92888812Y-105639668D01*
X92876714Y-105601062D01*
X92876713Y-105601060D01*
X92873127Y-105589617D01*
X92866916Y-105579361D01*
X92866914Y-105579357D01*
X92791513Y-105454856D01*
X92785297Y-105444592D01*
X92665408Y-105324703D01*
X92660009Y-105321433D01*
X92606157Y-105255034D01*
X92585740Y-105168856D01*
X92604736Y-105082354D01*
X92623128Y-105051093D01*
X92715821Y-104922098D01*
X92715825Y-104922092D01*
X92720588Y-104915463D01*
X92724209Y-104908137D01*
X92826296Y-104701579D01*
X92826297Y-104701576D01*
X92829911Y-104694264D01*
X92901639Y-104458180D01*
X92933845Y-104213550D01*
X92935643Y-104140000D01*
X92933265Y-104111069D01*
X92916094Y-103902225D01*
X92916094Y-103902224D01*
X92915425Y-103894089D01*
X92913438Y-103886179D01*
X92913437Y-103886172D01*
X92857306Y-103662706D01*
X92855316Y-103654783D01*
X92840238Y-103620104D01*
X92760186Y-103436000D01*
X92756928Y-103428507D01*
X92622905Y-103221339D01*
X92602771Y-103199212D01*
X92462347Y-103044887D01*
X92462344Y-103044884D01*
X92456846Y-103038842D01*
X92450436Y-103033780D01*
X92450431Y-103033775D01*
X92440355Y-103025818D01*
X92384808Y-102956840D01*
X92364691Y-102870592D01*
X92383988Y-102784156D01*
X92423220Y-102728688D01*
X92576605Y-102575837D01*
X92720588Y-102375463D01*
X92757990Y-102299786D01*
X92826296Y-102161579D01*
X92826297Y-102161576D01*
X92829911Y-102154264D01*
X92832283Y-102146457D01*
X92899267Y-101925988D01*
X92899268Y-101925985D01*
X92901639Y-101918180D01*
X92914464Y-101820768D01*
X92933155Y-101678791D01*
X92933845Y-101673550D01*
X92935643Y-101600000D01*
X92915425Y-101354089D01*
X92913438Y-101346179D01*
X92913437Y-101346172D01*
X92857306Y-101122706D01*
X92855316Y-101114783D01*
X92840238Y-101080104D01*
X92760186Y-100896000D01*
X92756928Y-100888507D01*
X92634295Y-100698945D01*
X92627340Y-100688194D01*
X92627338Y-100688192D01*
X92622905Y-100681339D01*
X92602771Y-100659212D01*
X92462347Y-100504887D01*
X92462344Y-100504884D01*
X92456846Y-100498842D01*
X92425496Y-100474083D01*
X92269613Y-100350974D01*
X92269607Y-100350970D01*
X92263210Y-100345918D01*
X92216285Y-100320014D01*
X92150219Y-100261033D01*
X92116286Y-100179229D01*
X92121208Y-100090802D01*
X92164009Y-100013268D01*
X92185210Y-99992798D01*
X92275146Y-99917999D01*
X92287999Y-99905146D01*
X92417349Y-99749620D01*
X92427647Y-99734637D01*
X92526496Y-99558130D01*
X92533882Y-99541540D01*
X92598912Y-99349970D01*
X92603151Y-99332312D01*
X92610419Y-99282189D01*
X92608856Y-99262796D01*
X92608318Y-99262434D01*
X92595255Y-99260000D01*
X90265033Y-99260000D01*
X90248199Y-99263842D01*
X90248430Y-99282918D01*
X90291738Y-99453442D01*
X90297803Y-99470567D01*
X90382497Y-99654283D01*
X90391586Y-99670025D01*
X90508339Y-99835226D01*
X90520135Y-99849039D01*
X90665050Y-99990209D01*
X90666905Y-99991711D01*
X90667923Y-99993008D01*
X90671580Y-99996570D01*
X90671104Y-99997058D01*
X90721603Y-100061365D01*
X90740662Y-100147853D01*
X90720309Y-100234045D01*
X90664573Y-100302871D01*
X90641712Y-100317615D01*
X90641836Y-100317811D01*
X90634927Y-100322162D01*
X90627679Y-100325935D01*
X90430364Y-100474083D01*
X90424721Y-100479988D01*
X90424719Y-100479990D01*
X90357082Y-100550768D01*
X90259896Y-100652468D01*
X90255298Y-100659208D01*
X90255295Y-100659212D01*
X90235525Y-100688194D01*
X90120851Y-100856300D01*
X90120630Y-100856777D01*
X90062744Y-100920042D01*
X89980530Y-100952972D01*
X89892171Y-100946969D01*
X89815166Y-100903223D01*
X89764767Y-100830398D01*
X89750500Y-100756406D01*
X89750500Y-97356838D01*
X89770207Y-97270495D01*
X89825426Y-97201254D01*
X89905218Y-97162827D01*
X89993782Y-97162827D01*
X90073574Y-97201254D01*
X90119175Y-97252860D01*
X90210739Y-97402279D01*
X90210743Y-97402284D01*
X90215006Y-97409241D01*
X90376557Y-97595741D01*
X90566399Y-97753351D01*
X90573443Y-97757467D01*
X90648076Y-97801079D01*
X90712681Y-97861656D01*
X90744605Y-97944266D01*
X90737524Y-98032546D01*
X90692842Y-98109011D01*
X90678886Y-98122510D01*
X90562682Y-98224420D01*
X90550175Y-98237599D01*
X90424932Y-98396469D01*
X90415037Y-98411706D01*
X90320840Y-98590745D01*
X90313891Y-98607520D01*
X90253901Y-98800719D01*
X90250121Y-98818502D01*
X90247845Y-98837736D01*
X90249915Y-98857079D01*
X90251609Y-98858157D01*
X90262274Y-98860000D01*
X92594341Y-98860000D01*
X92613311Y-98855670D01*
X92614768Y-98852645D01*
X92615195Y-98846222D01*
X92612485Y-98831602D01*
X92557572Y-98636895D01*
X92551061Y-98619934D01*
X92461588Y-98438500D01*
X92452092Y-98423004D01*
X92331054Y-98260915D01*
X92318891Y-98247407D01*
X92182095Y-98120954D01*
X92132068Y-98047873D01*
X92118705Y-97960324D01*
X92144651Y-97875647D01*
X92201616Y-97812815D01*
X92395185Y-97674743D01*
X92401829Y-97670004D01*
X92576605Y-97495837D01*
X92720588Y-97295463D01*
X92741644Y-97252860D01*
X92826296Y-97081579D01*
X92826297Y-97081576D01*
X92829911Y-97074264D01*
X92832283Y-97066457D01*
X92899267Y-96845988D01*
X92899268Y-96845985D01*
X92901639Y-96838180D01*
X92914464Y-96740768D01*
X92933155Y-96598791D01*
X92933845Y-96593550D01*
X92935643Y-96520000D01*
X92924671Y-96386541D01*
X92916094Y-96282225D01*
X92916094Y-96282224D01*
X92915425Y-96274089D01*
X92913438Y-96266179D01*
X92913437Y-96266172D01*
X92857306Y-96042706D01*
X92855316Y-96034783D01*
X92840388Y-96000449D01*
X92760186Y-95816000D01*
X92756928Y-95808507D01*
X92652120Y-95646498D01*
X92627340Y-95608194D01*
X92627338Y-95608192D01*
X92622905Y-95601339D01*
X92602771Y-95579212D01*
X92462347Y-95424887D01*
X92462344Y-95424884D01*
X92456846Y-95418842D01*
X92450436Y-95413780D01*
X92450431Y-95413775D01*
X92440355Y-95405818D01*
X92384808Y-95336840D01*
X92364691Y-95250592D01*
X92383988Y-95164156D01*
X92423220Y-95108688D01*
X92576605Y-94955837D01*
X92720588Y-94755463D01*
X92754544Y-94686759D01*
X92826296Y-94541579D01*
X92826297Y-94541576D01*
X92829911Y-94534264D01*
X92832283Y-94526457D01*
X92899267Y-94305988D01*
X92899268Y-94305985D01*
X92901639Y-94298180D01*
X92914464Y-94200768D01*
X92933155Y-94058791D01*
X92933845Y-94053550D01*
X92935643Y-93980000D01*
X92915425Y-93734089D01*
X92913438Y-93726179D01*
X92913437Y-93726172D01*
X92857306Y-93502706D01*
X92855316Y-93494783D01*
X92840238Y-93460104D01*
X92760186Y-93276000D01*
X92756928Y-93268507D01*
X92652120Y-93106498D01*
X92627340Y-93068194D01*
X92627338Y-93068192D01*
X92622905Y-93061339D01*
X92602771Y-93039212D01*
X92462347Y-92884887D01*
X92462344Y-92884884D01*
X92456846Y-92878842D01*
X92450436Y-92873780D01*
X92450431Y-92873775D01*
X92440355Y-92865818D01*
X92384808Y-92796840D01*
X92364691Y-92710592D01*
X92383988Y-92624156D01*
X92423220Y-92568688D01*
X92576605Y-92415837D01*
X92607119Y-92373372D01*
X92673505Y-92314758D01*
X92758752Y-92290750D01*
X92768721Y-92290500D01*
X101555877Y-92290500D01*
X101572529Y-92291198D01*
X101610158Y-92294358D01*
X101610160Y-92294358D01*
X101620902Y-92295260D01*
X101699774Y-92284736D01*
X101704603Y-92284152D01*
X101772995Y-92276722D01*
X101783709Y-92275558D01*
X101793661Y-92272209D01*
X101804069Y-92270820D01*
X101814194Y-92267135D01*
X101814197Y-92267134D01*
X101878847Y-92243603D01*
X101883436Y-92241996D01*
X101948632Y-92220055D01*
X101948631Y-92220055D01*
X101958848Y-92216617D01*
X101967848Y-92211209D01*
X101977715Y-92207618D01*
X101986811Y-92201845D01*
X101986814Y-92201844D01*
X102044888Y-92164989D01*
X102049025Y-92162434D01*
X102108006Y-92126995D01*
X102108013Y-92126989D01*
X102117244Y-92121443D01*
X102123604Y-92115429D01*
X102126854Y-92112971D01*
X102133738Y-92108602D01*
X102137972Y-92104817D01*
X102190753Y-92052036D01*
X102194736Y-92048162D01*
X102198543Y-92044562D01*
X102251507Y-91994476D01*
X102256799Y-91986689D01*
X102265149Y-91977640D01*
X105891183Y-88351606D01*
X105966171Y-88304487D01*
X106054178Y-88294571D01*
X106137771Y-88323822D01*
X106200395Y-88386446D01*
X106224774Y-88443336D01*
X106251331Y-88547903D01*
X106273178Y-88633928D01*
X106276996Y-88642209D01*
X106276996Y-88642210D01*
X106319462Y-88734325D01*
X106357856Y-88817607D01*
X106363120Y-88825055D01*
X106363122Y-88825059D01*
X106399857Y-88877037D01*
X106474588Y-88982780D01*
X106538651Y-89045187D01*
X106590628Y-89095820D01*
X106619466Y-89123913D01*
X106627048Y-89128979D01*
X106627049Y-89128980D01*
X106773785Y-89227026D01*
X106787637Y-89236282D01*
X106796019Y-89239883D01*
X106965094Y-89312524D01*
X106965100Y-89312526D01*
X106973470Y-89316122D01*
X106982359Y-89318133D01*
X106982364Y-89318135D01*
X107124288Y-89350249D01*
X107170740Y-89360760D01*
X107179850Y-89361118D01*
X107179851Y-89361118D01*
X107233603Y-89363230D01*
X107372842Y-89368700D01*
X107381863Y-89367392D01*
X107381864Y-89367392D01*
X107441488Y-89358747D01*
X107573007Y-89339678D01*
X107581640Y-89336747D01*
X107581642Y-89336747D01*
X107668769Y-89307171D01*
X107764531Y-89274664D01*
X107941001Y-89175837D01*
X107958238Y-89161501D01*
X108037223Y-89121441D01*
X108085487Y-89115500D01*
X159340877Y-89115500D01*
X159357529Y-89116198D01*
X159395158Y-89119358D01*
X159395160Y-89119358D01*
X159405902Y-89120260D01*
X159484774Y-89109736D01*
X159489603Y-89109152D01*
X159557995Y-89101722D01*
X159568709Y-89100558D01*
X159578661Y-89097209D01*
X159589069Y-89095820D01*
X159599194Y-89092135D01*
X159599197Y-89092134D01*
X159663847Y-89068603D01*
X159668436Y-89066996D01*
X159708289Y-89053584D01*
X159743848Y-89041617D01*
X159752848Y-89036209D01*
X159762715Y-89032618D01*
X159771811Y-89026845D01*
X159771814Y-89026844D01*
X159829888Y-88989989D01*
X159834025Y-88987434D01*
X159893006Y-88951995D01*
X159893013Y-88951989D01*
X159902244Y-88946443D01*
X159908604Y-88940429D01*
X159911854Y-88937971D01*
X159918738Y-88933602D01*
X159922972Y-88929817D01*
X159975752Y-88877037D01*
X159979735Y-88873163D01*
X159991603Y-88861940D01*
X160036507Y-88819476D01*
X160041799Y-88811689D01*
X160050149Y-88802640D01*
X160590186Y-88262602D01*
X160602454Y-88251320D01*
X160631312Y-88226933D01*
X160639540Y-88219980D01*
X160687905Y-88156721D01*
X160690829Y-88152991D01*
X160740731Y-88090927D01*
X160745401Y-88081520D01*
X160751777Y-88073180D01*
X160785407Y-88001060D01*
X160787510Y-87996691D01*
X160818101Y-87935067D01*
X160818105Y-87935057D01*
X160822895Y-87925407D01*
X160825435Y-87915221D01*
X160829873Y-87905703D01*
X160832222Y-87895194D01*
X160832224Y-87895188D01*
X160834600Y-87884556D01*
X160872666Y-87804591D01*
X160921312Y-87761412D01*
X160921187Y-87761240D01*
X160922940Y-87759966D01*
X160924832Y-87758287D01*
X160927511Y-87756645D01*
X160934179Y-87752559D01*
X160940261Y-87747365D01*
X161113817Y-87599134D01*
X161113818Y-87599133D01*
X161119759Y-87594059D01*
X161124834Y-87588117D01*
X161124838Y-87588113D01*
X161138678Y-87571908D01*
X161209738Y-87519050D01*
X161296695Y-87502259D01*
X161382326Y-87524859D01*
G37*
%TD.AperFunction*%
%TA.AperFunction,Conductor*%
G36*
X159671626Y-79610207D02*
G01*
X159725997Y-79648786D01*
X164749513Y-84672302D01*
X164796632Y-84747290D01*
X164806548Y-84835297D01*
X164777297Y-84918890D01*
X164714673Y-84981514D01*
X164655255Y-85006517D01*
X164619388Y-85015128D01*
X164393911Y-85108523D01*
X164185821Y-85236041D01*
X164179878Y-85241117D01*
X164179875Y-85241119D01*
X164051312Y-85350922D01*
X164000241Y-85394541D01*
X163995167Y-85400482D01*
X163995162Y-85400487D01*
X163981322Y-85416692D01*
X163910262Y-85469550D01*
X163823305Y-85486341D01*
X163737674Y-85463741D01*
X163678678Y-85416692D01*
X163664838Y-85400487D01*
X163664833Y-85400482D01*
X163659759Y-85394541D01*
X163608688Y-85350922D01*
X163480125Y-85241119D01*
X163480122Y-85241117D01*
X163474179Y-85236041D01*
X163266089Y-85108523D01*
X163040612Y-85015128D01*
X162803302Y-84958154D01*
X162560000Y-84939006D01*
X162316698Y-84958154D01*
X162079388Y-85015128D01*
X161853911Y-85108523D01*
X161645821Y-85236041D01*
X161639878Y-85241117D01*
X161639875Y-85241119D01*
X161511312Y-85350922D01*
X161460241Y-85394541D01*
X161455167Y-85400482D01*
X161455162Y-85400487D01*
X161441322Y-85416692D01*
X161370262Y-85469550D01*
X161283305Y-85486341D01*
X161197674Y-85463741D01*
X161138678Y-85416692D01*
X161124838Y-85400487D01*
X161124833Y-85400482D01*
X161119759Y-85394541D01*
X161068688Y-85350922D01*
X160940125Y-85241119D01*
X160940122Y-85241117D01*
X160934179Y-85236041D01*
X160726089Y-85108523D01*
X160500612Y-85015128D01*
X160263302Y-84958154D01*
X160020000Y-84939006D01*
X159776698Y-84958154D01*
X159539388Y-85015128D01*
X159313911Y-85108523D01*
X159105821Y-85236041D01*
X159099878Y-85241117D01*
X159099875Y-85241119D01*
X158971312Y-85350922D01*
X158920241Y-85394541D01*
X158915167Y-85400482D01*
X158915162Y-85400487D01*
X158901322Y-85416692D01*
X158830262Y-85469550D01*
X158743305Y-85486341D01*
X158657674Y-85463741D01*
X158598678Y-85416692D01*
X158584838Y-85400487D01*
X158584833Y-85400482D01*
X158579759Y-85394541D01*
X158491161Y-85318871D01*
X158403724Y-85244193D01*
X158350867Y-85173132D01*
X158334932Y-85090603D01*
X158334621Y-85090611D01*
X158334576Y-85088758D01*
X158334077Y-85086175D01*
X158334385Y-85080940D01*
X158334358Y-85079839D01*
X158335260Y-85069098D01*
X158326197Y-85001173D01*
X158324736Y-84990222D01*
X158324152Y-84985397D01*
X158316722Y-84917005D01*
X158315558Y-84906291D01*
X158312209Y-84896339D01*
X158310820Y-84885931D01*
X158304121Y-84867524D01*
X158283603Y-84811153D01*
X158281996Y-84806564D01*
X158260055Y-84741368D01*
X158256617Y-84731152D01*
X158251209Y-84722152D01*
X158247618Y-84712285D01*
X158241070Y-84701966D01*
X158204989Y-84645112D01*
X158202434Y-84640975D01*
X158166995Y-84581994D01*
X158166989Y-84581987D01*
X158161443Y-84572756D01*
X158155429Y-84566396D01*
X158152971Y-84563146D01*
X158148602Y-84556262D01*
X158144817Y-84552028D01*
X158092036Y-84499247D01*
X158088162Y-84495264D01*
X158078283Y-84484817D01*
X158034476Y-84438493D01*
X158026689Y-84433201D01*
X158017640Y-84424851D01*
X154302602Y-80709814D01*
X154291320Y-80697546D01*
X154281674Y-80686132D01*
X154259980Y-80660460D01*
X154196721Y-80612095D01*
X154192991Y-80609171D01*
X154130927Y-80559269D01*
X154121520Y-80554599D01*
X154113180Y-80548223D01*
X154041060Y-80514593D01*
X154036691Y-80512490D01*
X153975067Y-80481899D01*
X153975057Y-80481895D01*
X153965407Y-80477105D01*
X153955221Y-80474565D01*
X153945703Y-80470127D01*
X153868063Y-80452773D01*
X153863330Y-80451654D01*
X153796563Y-80435007D01*
X153796560Y-80435007D01*
X153786106Y-80432400D01*
X153777354Y-80432156D01*
X153773324Y-80431597D01*
X153765363Y-80429817D01*
X153759693Y-80429500D01*
X153685035Y-80429500D01*
X153679479Y-80429422D01*
X153659321Y-80428859D01*
X153601389Y-80427241D01*
X153592137Y-80429006D01*
X153579836Y-80429500D01*
X116977070Y-80429500D01*
X116890727Y-80409793D01*
X116870881Y-80398800D01*
X116714480Y-80300118D01*
X116714473Y-80300114D01*
X116706757Y-80295246D01*
X116698280Y-80291864D01*
X116698278Y-80291863D01*
X116638082Y-80267848D01*
X116518898Y-80220298D01*
X116509957Y-80218520D01*
X116509952Y-80218518D01*
X116340876Y-80184887D01*
X116320526Y-80180839D01*
X116218032Y-80179498D01*
X116127411Y-80178311D01*
X116127406Y-80178311D01*
X116118286Y-80178192D01*
X116109296Y-80179737D01*
X116109293Y-80179737D01*
X116012957Y-80196291D01*
X115918949Y-80212444D01*
X115910398Y-80215599D01*
X115910393Y-80215600D01*
X115737752Y-80279291D01*
X115737748Y-80279293D01*
X115729193Y-80282449D01*
X115721355Y-80287112D01*
X115721351Y-80287114D01*
X115655037Y-80326567D01*
X115555371Y-80385862D01*
X115403305Y-80519220D01*
X115397659Y-80526382D01*
X115397658Y-80526383D01*
X115283736Y-80670893D01*
X115283733Y-80670897D01*
X115278089Y-80678057D01*
X115273843Y-80686128D01*
X115273840Y-80686132D01*
X115188163Y-80848977D01*
X115183914Y-80857053D01*
X115123937Y-81050213D01*
X115100164Y-81251069D01*
X115113392Y-81452894D01*
X115163178Y-81648928D01*
X115247856Y-81832607D01*
X115253120Y-81840055D01*
X115253122Y-81840059D01*
X115311617Y-81922827D01*
X115364588Y-81997780D01*
X115509466Y-82138913D01*
X115517048Y-82143979D01*
X115517049Y-82143980D01*
X115526369Y-82150207D01*
X115677637Y-82251282D01*
X115725421Y-82271812D01*
X115855094Y-82327524D01*
X115855100Y-82327526D01*
X115863470Y-82331122D01*
X115872359Y-82333133D01*
X115872364Y-82333135D01*
X116043030Y-82371752D01*
X116060740Y-82375760D01*
X116069850Y-82376118D01*
X116069851Y-82376118D01*
X116123603Y-82378230D01*
X116262842Y-82383700D01*
X116271863Y-82382392D01*
X116271864Y-82382392D01*
X116331488Y-82373747D01*
X116463007Y-82354678D01*
X116471640Y-82351747D01*
X116471642Y-82351747D01*
X116564537Y-82320213D01*
X116654531Y-82289664D01*
X116831001Y-82190837D01*
X116848238Y-82176501D01*
X116927223Y-82136441D01*
X116975487Y-82130500D01*
X118097448Y-82130500D01*
X118183791Y-82150207D01*
X118253032Y-82205426D01*
X118291459Y-82285218D01*
X118295069Y-82352890D01*
X118288465Y-82408686D01*
X118275164Y-82521069D01*
X118282499Y-82632982D01*
X118286891Y-82699988D01*
X118288392Y-82722894D01*
X118290638Y-82731737D01*
X118290638Y-82731738D01*
X118332178Y-82895301D01*
X118338178Y-82918928D01*
X118422856Y-83102607D01*
X118428120Y-83110055D01*
X118428122Y-83110059D01*
X118449312Y-83140042D01*
X118539588Y-83267780D01*
X118684466Y-83408913D01*
X118692048Y-83413979D01*
X118692049Y-83413980D01*
X118759106Y-83458786D01*
X118852637Y-83521282D01*
X118861019Y-83524883D01*
X119030094Y-83597524D01*
X119030100Y-83597526D01*
X119038470Y-83601122D01*
X119047359Y-83603133D01*
X119047364Y-83603135D01*
X119218030Y-83641752D01*
X119235740Y-83645760D01*
X119244850Y-83646118D01*
X119244851Y-83646118D01*
X119298603Y-83648230D01*
X119437842Y-83653700D01*
X119446863Y-83652392D01*
X119446864Y-83652392D01*
X119506488Y-83643747D01*
X119638007Y-83624678D01*
X119646640Y-83621747D01*
X119646642Y-83621747D01*
X119765210Y-83581498D01*
X119829531Y-83559664D01*
X120006001Y-83460837D01*
X120023238Y-83446501D01*
X120102223Y-83406441D01*
X120150487Y-83400500D01*
X151965283Y-83400500D01*
X152051626Y-83420207D01*
X152105997Y-83458786D01*
X153802992Y-85155781D01*
X153850111Y-85230769D01*
X153860027Y-85318776D01*
X153830776Y-85402369D01*
X153813600Y-85425734D01*
X153791838Y-85451214D01*
X153686935Y-85574040D01*
X153681741Y-85580121D01*
X153650952Y-85630364D01*
X153589037Y-85693683D01*
X153505778Y-85723870D01*
X153417665Y-85714942D01*
X153340565Y-85667098D01*
X153212701Y-85539234D01*
X153199434Y-85528102D01*
X153034509Y-85412619D01*
X153019508Y-85403959D01*
X152837037Y-85318871D01*
X152820761Y-85312947D01*
X152626279Y-85260836D01*
X152618633Y-85259488D01*
X152603063Y-85261637D01*
X152601233Y-85264717D01*
X152600000Y-85272563D01*
X152600000Y-86495300D01*
X152580293Y-86581643D01*
X152525074Y-86650884D01*
X152445282Y-86689311D01*
X152401000Y-86694300D01*
X151185144Y-86694300D01*
X151180320Y-86695401D01*
X151105154Y-86697979D01*
X151081737Y-86694300D01*
X149859000Y-86694300D01*
X149772657Y-86674593D01*
X149703416Y-86619374D01*
X149664989Y-86539582D01*
X149660000Y-86495300D01*
X149660000Y-86271877D01*
X150060000Y-86271877D01*
X150064330Y-86290847D01*
X150071500Y-86294300D01*
X151074856Y-86294300D01*
X151079680Y-86293199D01*
X151154846Y-86290621D01*
X151178263Y-86294300D01*
X152177577Y-86294300D01*
X152196547Y-86289970D01*
X152200000Y-86282800D01*
X152200000Y-85279446D01*
X152195670Y-85260476D01*
X152192440Y-85258920D01*
X152186788Y-85258532D01*
X152173721Y-85260836D01*
X151979239Y-85312947D01*
X151962964Y-85318871D01*
X151780493Y-85403959D01*
X151765492Y-85412619D01*
X151600566Y-85528102D01*
X151587299Y-85539234D01*
X151444934Y-85681599D01*
X151433802Y-85694866D01*
X151318319Y-85859792D01*
X151305318Y-85882311D01*
X151303961Y-85881527D01*
X151256001Y-85943226D01*
X151176693Y-85982643D01*
X151088136Y-85983745D01*
X151007872Y-85946315D01*
X150956153Y-85881462D01*
X150954682Y-85882311D01*
X150941681Y-85859792D01*
X150826198Y-85694866D01*
X150815066Y-85681599D01*
X150672701Y-85539234D01*
X150659434Y-85528102D01*
X150494509Y-85412619D01*
X150479508Y-85403959D01*
X150297037Y-85318871D01*
X150280761Y-85312947D01*
X150086279Y-85260836D01*
X150078633Y-85259488D01*
X150063063Y-85261637D01*
X150061233Y-85264717D01*
X150060000Y-85272563D01*
X150060000Y-86271877D01*
X149660000Y-86271877D01*
X149660000Y-85279446D01*
X149655670Y-85260476D01*
X149652440Y-85258920D01*
X149646788Y-85258532D01*
X149633721Y-85260836D01*
X149439239Y-85312947D01*
X149422964Y-85318871D01*
X149240493Y-85403959D01*
X149225492Y-85412619D01*
X149060566Y-85528102D01*
X149047299Y-85539234D01*
X148919435Y-85667098D01*
X148844447Y-85714217D01*
X148756440Y-85724133D01*
X148672847Y-85694882D01*
X148609048Y-85630364D01*
X148578259Y-85580121D01*
X148573066Y-85574040D01*
X148424834Y-85400483D01*
X148424833Y-85400482D01*
X148419759Y-85394541D01*
X148368688Y-85350922D01*
X148240125Y-85241119D01*
X148240122Y-85241117D01*
X148234179Y-85236041D01*
X148026089Y-85108523D01*
X147800612Y-85015128D01*
X147563302Y-84958154D01*
X147320000Y-84939006D01*
X147076698Y-84958154D01*
X146839388Y-85015128D01*
X146613911Y-85108523D01*
X146405821Y-85236041D01*
X146399878Y-85241117D01*
X146399875Y-85241119D01*
X146271312Y-85350922D01*
X146220241Y-85394541D01*
X146215167Y-85400482D01*
X146215162Y-85400487D01*
X146201322Y-85416692D01*
X146130262Y-85469550D01*
X146043305Y-85486341D01*
X145957674Y-85463741D01*
X145898678Y-85416692D01*
X145884838Y-85400487D01*
X145884833Y-85400482D01*
X145879759Y-85394541D01*
X145828688Y-85350922D01*
X145700125Y-85241119D01*
X145700122Y-85241117D01*
X145694179Y-85236041D01*
X145486089Y-85108523D01*
X145260612Y-85015128D01*
X145023302Y-84958154D01*
X144780000Y-84939006D01*
X144536698Y-84958154D01*
X144299388Y-85015128D01*
X144073911Y-85108523D01*
X143865821Y-85236041D01*
X143859878Y-85241117D01*
X143859875Y-85241119D01*
X143731312Y-85350922D01*
X143680241Y-85394541D01*
X143675167Y-85400482D01*
X143675162Y-85400487D01*
X143661322Y-85416692D01*
X143590262Y-85469550D01*
X143503305Y-85486341D01*
X143417674Y-85463741D01*
X143358678Y-85416692D01*
X143344838Y-85400487D01*
X143344833Y-85400482D01*
X143339759Y-85394541D01*
X143288688Y-85350922D01*
X143160125Y-85241119D01*
X143160122Y-85241117D01*
X143154179Y-85236041D01*
X142946089Y-85108523D01*
X142720612Y-85015128D01*
X142483302Y-84958154D01*
X142240000Y-84939006D01*
X141996698Y-84958154D01*
X141759388Y-85015128D01*
X141533911Y-85108523D01*
X141325821Y-85236041D01*
X141319878Y-85241117D01*
X141319875Y-85241119D01*
X141191312Y-85350922D01*
X141140241Y-85394541D01*
X141135167Y-85400482D01*
X141135162Y-85400487D01*
X141121322Y-85416692D01*
X141050262Y-85469550D01*
X140963305Y-85486341D01*
X140877674Y-85463741D01*
X140818678Y-85416692D01*
X140804838Y-85400487D01*
X140804833Y-85400482D01*
X140799759Y-85394541D01*
X140748688Y-85350922D01*
X140620125Y-85241119D01*
X140620122Y-85241117D01*
X140614179Y-85236041D01*
X140406089Y-85108523D01*
X140180612Y-85015128D01*
X139943302Y-84958154D01*
X139700000Y-84939006D01*
X139456698Y-84958154D01*
X139219388Y-85015128D01*
X138993911Y-85108523D01*
X138785821Y-85236041D01*
X138779878Y-85241117D01*
X138779875Y-85241119D01*
X138651312Y-85350922D01*
X138600241Y-85394541D01*
X138486170Y-85528102D01*
X138446935Y-85574040D01*
X138375874Y-85626897D01*
X138295614Y-85643800D01*
X106589823Y-85643800D01*
X106573171Y-85643102D01*
X106526669Y-85639197D01*
X106442278Y-85612334D01*
X106377900Y-85551515D01*
X106346285Y-85468786D01*
X106353696Y-85380534D01*
X106402606Y-85300182D01*
X112054002Y-79648786D01*
X112128990Y-79601667D01*
X112194716Y-79590500D01*
X159585283Y-79590500D01*
X159671626Y-79610207D01*
G37*
%TD.AperFunction*%
%TD*%
M02*
