%TF.GenerationSoftware,KiCad,Pcbnew,(6.0.0)*%
%TF.CreationDate,2022-02-22T05:40:17+01:00*%
%TF.ProjectId,Programmer,50726f67-7261-46d6-9d65-722e6b696361,rev?*%
%TF.SameCoordinates,Original*%
%TF.FileFunction,Soldermask,Top*%
%TF.FilePolarity,Negative*%
%FSLAX46Y46*%
G04 Gerber Fmt 4.6, Leading zero omitted, Abs format (unit mm)*
G04 Created by KiCad (PCBNEW (6.0.0)) date 2022-02-22 05:40:17*
%MOMM*%
%LPD*%
G01*
G04 APERTURE LIST*
G04 Aperture macros list*
%AMRoundRect*
0 Rectangle with rounded corners*
0 $1 Rounding radius*
0 $2 $3 $4 $5 $6 $7 $8 $9 X,Y pos of 4 corners*
0 Add a 4 corners polygon primitive as box body*
4,1,4,$2,$3,$4,$5,$6,$7,$8,$9,$2,$3,0*
0 Add four circle primitives for the rounded corners*
1,1,$1+$1,$2,$3*
1,1,$1+$1,$4,$5*
1,1,$1+$1,$6,$7*
1,1,$1+$1,$8,$9*
0 Add four rect primitives between the rounded corners*
20,1,$1+$1,$2,$3,$4,$5,0*
20,1,$1+$1,$4,$5,$6,$7,0*
20,1,$1+$1,$6,$7,$8,$9,0*
20,1,$1+$1,$8,$9,$2,$3,0*%
G04 Aperture macros list end*
%ADD10RoundRect,0.250000X-0.262500X-0.450000X0.262500X-0.450000X0.262500X0.450000X-0.262500X0.450000X0*%
%ADD11RoundRect,0.150000X-0.875000X-0.150000X0.875000X-0.150000X0.875000X0.150000X-0.875000X0.150000X0*%
%ADD12RoundRect,0.250000X0.250000X0.475000X-0.250000X0.475000X-0.250000X-0.475000X0.250000X-0.475000X0*%
%ADD13RoundRect,0.250000X0.475000X-0.250000X0.475000X0.250000X-0.475000X0.250000X-0.475000X-0.250000X0*%
%ADD14R,1.600000X1.600000*%
%ADD15O,1.600000X1.600000*%
%ADD16C,3.500000*%
%ADD17R,1.700000X1.700000*%
%ADD18O,1.700000X1.700000*%
G04 APERTURE END LIST*
D10*
%TO.C,R5*%
X79732500Y-71120000D03*
X81557500Y-71120000D03*
%TD*%
D11*
%TO.C,U2*%
X104570000Y-90805000D03*
X104570000Y-92075000D03*
X104570000Y-93345000D03*
X104570000Y-94615000D03*
X104570000Y-95885000D03*
X104570000Y-97155000D03*
X104570000Y-98425000D03*
X104570000Y-99695000D03*
X104570000Y-100965000D03*
X104570000Y-102235000D03*
X104570000Y-103505000D03*
X104570000Y-104775000D03*
X104570000Y-106045000D03*
X104570000Y-107315000D03*
X113870000Y-107315000D03*
X113870000Y-106045000D03*
X113870000Y-104775000D03*
X113870000Y-103505000D03*
X113870000Y-102235000D03*
X113870000Y-100965000D03*
X113870000Y-99695000D03*
X113870000Y-98425000D03*
X113870000Y-97155000D03*
X113870000Y-95885000D03*
X113870000Y-94615000D03*
X113870000Y-93345000D03*
X113870000Y-92075000D03*
X113870000Y-90805000D03*
%TD*%
D12*
%TO.C,C1*%
X101280000Y-71120000D03*
X99380000Y-71120000D03*
%TD*%
D13*
%TO.C,C2*%
X100965000Y-103185000D03*
X100965000Y-101285000D03*
%TD*%
D14*
%TO.C,U1*%
X91430000Y-106680000D03*
D15*
X91430000Y-104140000D03*
X91430000Y-101600000D03*
X91430000Y-99060000D03*
X91430000Y-96520000D03*
X91430000Y-93980000D03*
X91430000Y-91440000D03*
X91430000Y-88900000D03*
X91430000Y-86360000D03*
X91430000Y-83820000D03*
X91430000Y-81280000D03*
X91430000Y-78740000D03*
X91430000Y-76200000D03*
X91430000Y-73660000D03*
X91430000Y-71120000D03*
X76190000Y-71120000D03*
X76190000Y-73660000D03*
X76190000Y-76200000D03*
X76190000Y-78740000D03*
X76190000Y-81280000D03*
X76190000Y-83820000D03*
X76190000Y-86360000D03*
X76190000Y-88900000D03*
X76190000Y-91440000D03*
X76190000Y-93980000D03*
X76190000Y-96520000D03*
X76190000Y-99060000D03*
X76190000Y-101600000D03*
X76190000Y-104140000D03*
X76190000Y-106680000D03*
%TD*%
D10*
%TO.C,R3*%
X94972500Y-72390000D03*
X96797500Y-72390000D03*
%TD*%
%TO.C,R4*%
X94972500Y-74930000D03*
X96797500Y-74930000D03*
%TD*%
%TO.C,R6*%
X99417500Y-77470000D03*
X101242500Y-77470000D03*
%TD*%
%TO.C,R7*%
X111482500Y-110490000D03*
X113307500Y-110490000D03*
%TD*%
%TO.C,R2*%
X94972500Y-96520000D03*
X96797500Y-96520000D03*
%TD*%
D16*
%TO.C,J1*%
X195580000Y-67330000D03*
X127000000Y-110510000D03*
X127000000Y-67330000D03*
X195580000Y-110510000D03*
D17*
X182880000Y-86494300D03*
D18*
X182880000Y-91345700D03*
X180340000Y-86494300D03*
X180340000Y-91345700D03*
X177800000Y-86494300D03*
X177800000Y-91345700D03*
X175260000Y-86494300D03*
X175260000Y-91345700D03*
X172720000Y-86494300D03*
X172720000Y-91345700D03*
X170180000Y-86494300D03*
X170180000Y-91345700D03*
X167640000Y-86494300D03*
X167640000Y-91345700D03*
X165100000Y-86494300D03*
X165100000Y-91345700D03*
X162560000Y-86494300D03*
X162560000Y-91345700D03*
X160020000Y-86494300D03*
X160020000Y-91345700D03*
X157480000Y-86494300D03*
X157480000Y-91345700D03*
X154940000Y-86494300D03*
X154940000Y-91345700D03*
X152400000Y-86494300D03*
X152400000Y-91345700D03*
X149860000Y-86494300D03*
X149860000Y-91345700D03*
X147320000Y-86494300D03*
X147320000Y-91345700D03*
X144780000Y-86494300D03*
X144780000Y-91345700D03*
X142240000Y-86494300D03*
X142240000Y-91345700D03*
X139700000Y-86494300D03*
X139700000Y-91345700D03*
%TD*%
D11*
%TO.C,U3*%
X104570000Y-71120000D03*
X104570000Y-72390000D03*
X104570000Y-73660000D03*
X104570000Y-74930000D03*
X104570000Y-76200000D03*
X104570000Y-77470000D03*
X104570000Y-78740000D03*
X104570000Y-80010000D03*
X104570000Y-81280000D03*
X113870000Y-81280000D03*
X113870000Y-80010000D03*
X113870000Y-78740000D03*
X113870000Y-77470000D03*
X113870000Y-76200000D03*
X113870000Y-74930000D03*
X113870000Y-73660000D03*
X113870000Y-72390000D03*
X113870000Y-71120000D03*
%TD*%
D10*
%TO.C,R1*%
X94972500Y-83820000D03*
X96797500Y-83820000D03*
%TD*%
M02*
