%TF.GenerationSoftware,KiCad,Pcbnew,(6.0.0)*%
%TF.CreationDate,2022-01-01T20:47:22+01:00*%
%TF.ProjectId,vectrex,76656374-7265-4782-9e6b-696361645f70,rev?*%
%TF.SameCoordinates,Original*%
%TF.FileFunction,Legend,Top*%
%TF.FilePolarity,Positive*%
%FSLAX46Y46*%
G04 Gerber Fmt 4.6, Leading zero omitted, Abs format (unit mm)*
G04 Created by KiCad (PCBNEW (6.0.0)) date 2022-01-01 20:47:22*
%MOMM*%
%LPD*%
G01*
G04 APERTURE LIST*
%ADD10C,0.400000*%
%ADD11C,0.200000*%
%ADD12C,0.300000*%
%ADD13C,0.150000*%
%ADD14C,0.120000*%
G04 APERTURE END LIST*
D10*
X155099047Y-105584761D02*
X156241904Y-105584761D01*
X155670476Y-107584761D02*
X155670476Y-105584761D01*
X157194285Y-107584761D02*
X157003809Y-107489523D01*
X156908571Y-107394285D01*
X156813333Y-107203809D01*
X156813333Y-106632380D01*
X156908571Y-106441904D01*
X157003809Y-106346666D01*
X157194285Y-106251428D01*
X157480000Y-106251428D01*
X157670476Y-106346666D01*
X157765714Y-106441904D01*
X157860952Y-106632380D01*
X157860952Y-107203809D01*
X157765714Y-107394285D01*
X157670476Y-107489523D01*
X157480000Y-107584761D01*
X157194285Y-107584761D01*
X158718095Y-106251428D02*
X158718095Y-108251428D01*
X158718095Y-106346666D02*
X158908571Y-106251428D01*
X159289523Y-106251428D01*
X159480000Y-106346666D01*
X159575238Y-106441904D01*
X159670476Y-106632380D01*
X159670476Y-107203809D01*
X159575238Y-107394285D01*
X159480000Y-107489523D01*
X159289523Y-107584761D01*
X158908571Y-107584761D01*
X158718095Y-107489523D01*
D11*
X138065142Y-77910571D02*
X138422285Y-78910571D01*
X138779428Y-77910571D01*
X140136571Y-78910571D02*
X139279428Y-78910571D01*
X139708000Y-78910571D02*
X139708000Y-77410571D01*
X139565142Y-77624857D01*
X139422285Y-77767714D01*
X139279428Y-77839142D01*
X140779428Y-78767714D02*
X140850857Y-78839142D01*
X140779428Y-78910571D01*
X140708000Y-78839142D01*
X140779428Y-78767714D01*
X140779428Y-78910571D01*
X141779428Y-77410571D02*
X141922285Y-77410571D01*
X142065142Y-77482000D01*
X142136571Y-77553428D01*
X142208000Y-77696285D01*
X142279428Y-77982000D01*
X142279428Y-78339142D01*
X142208000Y-78624857D01*
X142136571Y-78767714D01*
X142065142Y-78839142D01*
X141922285Y-78910571D01*
X141779428Y-78910571D01*
X141636571Y-78839142D01*
X141565142Y-78767714D01*
X141493714Y-78624857D01*
X141422285Y-78339142D01*
X141422285Y-77982000D01*
X141493714Y-77696285D01*
X141565142Y-77553428D01*
X141636571Y-77482000D01*
X141779428Y-77410571D01*
D12*
X137860952Y-74088761D02*
X138527619Y-76088761D01*
X139194285Y-74088761D01*
X140622857Y-75993523D02*
X140432380Y-76088761D01*
X140051428Y-76088761D01*
X139860952Y-75993523D01*
X139765714Y-75803047D01*
X139765714Y-75041142D01*
X139860952Y-74850666D01*
X140051428Y-74755428D01*
X140432380Y-74755428D01*
X140622857Y-74850666D01*
X140718095Y-75041142D01*
X140718095Y-75231619D01*
X139765714Y-75422095D01*
X142432380Y-75993523D02*
X142241904Y-76088761D01*
X141860952Y-76088761D01*
X141670476Y-75993523D01*
X141575238Y-75898285D01*
X141480000Y-75707809D01*
X141480000Y-75136380D01*
X141575238Y-74945904D01*
X141670476Y-74850666D01*
X141860952Y-74755428D01*
X142241904Y-74755428D01*
X142432380Y-74850666D01*
X143003809Y-74755428D02*
X143765714Y-74755428D01*
X143289523Y-74088761D02*
X143289523Y-75803047D01*
X143384761Y-75993523D01*
X143575238Y-76088761D01*
X143765714Y-76088761D01*
X144432380Y-76088761D02*
X144432380Y-74755428D01*
X144432380Y-75136380D02*
X144527619Y-74945904D01*
X144622857Y-74850666D01*
X144813333Y-74755428D01*
X145003809Y-74755428D01*
X146432380Y-75993523D02*
X146241904Y-76088761D01*
X145860952Y-76088761D01*
X145670476Y-75993523D01*
X145575238Y-75803047D01*
X145575238Y-75041142D01*
X145670476Y-74850666D01*
X145860952Y-74755428D01*
X146241904Y-74755428D01*
X146432380Y-74850666D01*
X146527619Y-75041142D01*
X146527619Y-75231619D01*
X145575238Y-75422095D01*
X147194285Y-76088761D02*
X148241904Y-74755428D01*
X147194285Y-74755428D02*
X148241904Y-76088761D01*
X150527619Y-75041142D02*
X151194285Y-75041142D01*
X151480000Y-76088761D02*
X150527619Y-76088761D01*
X150527619Y-74088761D01*
X151480000Y-74088761D01*
X152337142Y-75041142D02*
X153003809Y-75041142D01*
X153289523Y-76088761D02*
X152337142Y-76088761D01*
X152337142Y-74088761D01*
X153289523Y-74088761D01*
X154146666Y-76088761D02*
X154146666Y-74088761D01*
X154908571Y-74088761D01*
X155099047Y-74184000D01*
X155194285Y-74279238D01*
X155289523Y-74469714D01*
X155289523Y-74755428D01*
X155194285Y-74945904D01*
X155099047Y-75041142D01*
X154908571Y-75136380D01*
X154146666Y-75136380D01*
X157289523Y-76088761D02*
X156622857Y-75136380D01*
X156146666Y-76088761D02*
X156146666Y-74088761D01*
X156908571Y-74088761D01*
X157099047Y-74184000D01*
X157194285Y-74279238D01*
X157289523Y-74469714D01*
X157289523Y-74755428D01*
X157194285Y-74945904D01*
X157099047Y-75041142D01*
X156908571Y-75136380D01*
X156146666Y-75136380D01*
X158527619Y-74088761D02*
X158908571Y-74088761D01*
X159099047Y-74184000D01*
X159289523Y-74374476D01*
X159384761Y-74755428D01*
X159384761Y-75422095D01*
X159289523Y-75803047D01*
X159099047Y-75993523D01*
X158908571Y-76088761D01*
X158527619Y-76088761D01*
X158337142Y-75993523D01*
X158146666Y-75803047D01*
X158051428Y-75422095D01*
X158051428Y-74755428D01*
X158146666Y-74374476D01*
X158337142Y-74184000D01*
X158527619Y-74088761D01*
X160241904Y-76088761D02*
X160241904Y-74088761D01*
X160908571Y-75517333D01*
X161575238Y-74088761D01*
X161575238Y-76088761D01*
X165194285Y-75898285D02*
X165099047Y-75993523D01*
X164813333Y-76088761D01*
X164622857Y-76088761D01*
X164337142Y-75993523D01*
X164146666Y-75803047D01*
X164051428Y-75612571D01*
X163956190Y-75231619D01*
X163956190Y-74945904D01*
X164051428Y-74564952D01*
X164146666Y-74374476D01*
X164337142Y-74184000D01*
X164622857Y-74088761D01*
X164813333Y-74088761D01*
X165099047Y-74184000D01*
X165194285Y-74279238D01*
X166908571Y-76088761D02*
X166908571Y-75041142D01*
X166813333Y-74850666D01*
X166622857Y-74755428D01*
X166241904Y-74755428D01*
X166051428Y-74850666D01*
X166908571Y-75993523D02*
X166718095Y-76088761D01*
X166241904Y-76088761D01*
X166051428Y-75993523D01*
X165956190Y-75803047D01*
X165956190Y-75612571D01*
X166051428Y-75422095D01*
X166241904Y-75326857D01*
X166718095Y-75326857D01*
X166908571Y-75231619D01*
X167860952Y-76088761D02*
X167860952Y-74755428D01*
X167860952Y-75136380D02*
X167956190Y-74945904D01*
X168051428Y-74850666D01*
X168241904Y-74755428D01*
X168432380Y-74755428D01*
X168813333Y-74755428D02*
X169575238Y-74755428D01*
X169099047Y-74088761D02*
X169099047Y-75803047D01*
X169194285Y-75993523D01*
X169384761Y-76088761D01*
X169575238Y-76088761D01*
X170241904Y-76088761D02*
X170241904Y-74755428D01*
X170241904Y-75136380D02*
X170337142Y-74945904D01*
X170432380Y-74850666D01*
X170622857Y-74755428D01*
X170813333Y-74755428D01*
X171480000Y-76088761D02*
X171480000Y-74755428D01*
X171480000Y-74088761D02*
X171384761Y-74184000D01*
X171480000Y-74279238D01*
X171575238Y-74184000D01*
X171480000Y-74088761D01*
X171480000Y-74279238D01*
X173289523Y-76088761D02*
X173289523Y-74088761D01*
X173289523Y-75993523D02*
X173099047Y-76088761D01*
X172718095Y-76088761D01*
X172527619Y-75993523D01*
X172432380Y-75898285D01*
X172337142Y-75707809D01*
X172337142Y-75136380D01*
X172432380Y-74945904D01*
X172527619Y-74850666D01*
X172718095Y-74755428D01*
X173099047Y-74755428D01*
X173289523Y-74850666D01*
X175099047Y-74755428D02*
X175099047Y-76374476D01*
X175003809Y-76564952D01*
X174908571Y-76660190D01*
X174718095Y-76755428D01*
X174432380Y-76755428D01*
X174241904Y-76660190D01*
X175099047Y-75993523D02*
X174908571Y-76088761D01*
X174527619Y-76088761D01*
X174337142Y-75993523D01*
X174241904Y-75898285D01*
X174146666Y-75707809D01*
X174146666Y-75136380D01*
X174241904Y-74945904D01*
X174337142Y-74850666D01*
X174527619Y-74755428D01*
X174908571Y-74755428D01*
X175099047Y-74850666D01*
X176813333Y-75993523D02*
X176622857Y-76088761D01*
X176241904Y-76088761D01*
X176051428Y-75993523D01*
X175956190Y-75803047D01*
X175956190Y-75041142D01*
X176051428Y-74850666D01*
X176241904Y-74755428D01*
X176622857Y-74755428D01*
X176813333Y-74850666D01*
X176908571Y-75041142D01*
X176908571Y-75231619D01*
X175956190Y-75422095D01*
D13*
%TO.C,U1*%
X166832380Y-84581904D02*
X167641904Y-84581904D01*
X167737142Y-84534285D01*
X167784761Y-84486666D01*
X167832380Y-84391428D01*
X167832380Y-84200952D01*
X167784761Y-84105714D01*
X167737142Y-84058095D01*
X167641904Y-84010476D01*
X166832380Y-84010476D01*
X167832380Y-83010476D02*
X167832380Y-83581904D01*
X167832380Y-83296190D02*
X166832380Y-83296190D01*
X166975238Y-83391428D01*
X167070476Y-83486666D01*
X167118095Y-83581904D01*
%TO.C,@HOLE1*%
%TO.C,@HOLE0*%
%TO.C,@HOLE2*%
%TO.C,C1*%
X172442142Y-83986666D02*
X172489761Y-84034285D01*
X172537380Y-84177142D01*
X172537380Y-84272380D01*
X172489761Y-84415238D01*
X172394523Y-84510476D01*
X172299285Y-84558095D01*
X172108809Y-84605714D01*
X171965952Y-84605714D01*
X171775476Y-84558095D01*
X171680238Y-84510476D01*
X171585000Y-84415238D01*
X171537380Y-84272380D01*
X171537380Y-84177142D01*
X171585000Y-84034285D01*
X171632619Y-83986666D01*
X172537380Y-83034285D02*
X172537380Y-83605714D01*
X172537380Y-83320000D02*
X171537380Y-83320000D01*
X171680238Y-83415238D01*
X171775476Y-83510476D01*
X171823095Y-83605714D01*
D14*
%TO.C,U1*%
X148420000Y-83820000D02*
X148420000Y-87680000D01*
X148420000Y-83820000D02*
X148420000Y-79960000D01*
X148420000Y-79960000D02*
X148665000Y-79960000D01*
X166540000Y-83820000D02*
X166540000Y-79960000D01*
X166540000Y-83820000D02*
X166540000Y-87680000D01*
X166295000Y-79960000D02*
X166295000Y-78145000D01*
X166540000Y-79960000D02*
X166295000Y-79960000D01*
X148420000Y-87680000D02*
X148665000Y-87680000D01*
X166540000Y-87680000D02*
X166295000Y-87680000D01*
%TO.C,C1*%
X171090000Y-84531252D02*
X171090000Y-83108748D01*
X169270000Y-84531252D02*
X169270000Y-83108748D01*
%TD*%
M02*
