%TF.GenerationSoftware,KiCad,Pcbnew,(6.0.0)*%
%TF.CreationDate,2022-01-01T20:47:22+01:00*%
%TF.ProjectId,vectrex,76656374-7265-4782-9e6b-696361645f70,rev?*%
%TF.SameCoordinates,Original*%
%TF.FileFunction,Copper,L2,Bot*%
%TF.FilePolarity,Positive*%
%FSLAX46Y46*%
G04 Gerber Fmt 4.6, Leading zero omitted, Abs format (unit mm)*
G04 Created by KiCad (PCBNEW (6.0.0)) date 2022-01-01 20:47:22*
%MOMM*%
%LPD*%
G01*
G04 APERTURE LIST*
G04 Aperture macros list*
%AMRoundRect*
0 Rectangle with rounded corners*
0 $1 Rounding radius*
0 $2 $3 $4 $5 $6 $7 $8 $9 X,Y pos of 4 corners*
0 Add a 4 corners polygon primitive as box body*
4,1,4,$2,$3,$4,$5,$6,$7,$8,$9,$2,$3,0*
0 Add four circle primitives for the rounded corners*
1,1,$1+$1,$2,$3*
1,1,$1+$1,$4,$5*
1,1,$1+$1,$6,$7*
1,1,$1+$1,$8,$9*
0 Add four rect primitives between the rounded corners*
20,1,$1+$1,$2,$3,$4,$5,0*
20,1,$1+$1,$4,$5,$6,$7,0*
20,1,$1+$1,$6,$7,$8,$9,0*
20,1,$1+$1,$8,$9,$2,$3,0*%
G04 Aperture macros list end*
%TA.AperFunction,SMDPad,CuDef*%
%ADD10RoundRect,0.666750X-0.222250X-3.778250X0.222250X-3.778250X0.222250X3.778250X-0.222250X3.778250X0*%
%TD*%
%TA.AperFunction,ViaPad*%
%ADD11C,0.800000*%
%TD*%
%TA.AperFunction,Conductor*%
%ADD12C,0.400000*%
%TD*%
G04 APERTURE END LIST*
D10*
%TO.P,CON3,1,HALT*%
%TO.N,/V-HALT*%
X179070000Y-114300000D03*
%TO.P,CON3,3,A7*%
%TO.N,/V-A7*%
X176530000Y-114300000D03*
%TO.P,CON3,5,A6*%
%TO.N,/V-A6*%
X173990000Y-114300000D03*
%TO.P,CON3,7,A5*%
%TO.N,/V-A5*%
X171450000Y-114300000D03*
%TO.P,CON3,9,A4*%
%TO.N,/V-A4*%
X168910000Y-114300000D03*
%TO.P,CON3,11,A3*%
%TO.N,/V-A3*%
X166370000Y-114300000D03*
%TO.P,CON3,13,A2*%
%TO.N,/V-A2*%
X163830000Y-114300000D03*
%TO.P,CON3,15,A1*%
%TO.N,/V-A1*%
X161290000Y-114300000D03*
%TO.P,CON3,17,A0*%
%TO.N,/V-A0*%
X158750000Y-114300000D03*
%TO.P,CON3,19,D0*%
%TO.N,/V-D0*%
X156210000Y-114300000D03*
%TO.P,CON3,21,D1*%
%TO.N,/V-D1*%
X153670000Y-114300000D03*
%TO.P,CON3,23,D2*%
%TO.N,/V-D2*%
X151130000Y-114300000D03*
%TO.P,CON3,25,GND*%
%TO.N,GND*%
X148590000Y-114300000D03*
%TO.P,CON3,27,GND1*%
X146050000Y-114300000D03*
%TO.P,CON3,29,A12*%
%TO.N,/V-A12*%
X143510000Y-114300000D03*
%TO.P,CON3,31,A13*%
%TO.N,/V-A13*%
X140970000Y-114300000D03*
%TO.P,CON3,33,A14*%
%TO.N,/V-A14*%
X138430000Y-114300000D03*
%TO.P,CON3,35,PB6*%
%TO.N,unconnected-(CON3-Pad35)*%
X135890000Y-114300000D03*
%TD*%
D11*
%TO.N,GND*%
X154178000Y-85598000D03*
X154178000Y-84328000D03*
X145796000Y-91440000D03*
X147828000Y-89408000D03*
X179070000Y-74930000D03*
X179070000Y-105410000D03*
X143510000Y-76200000D03*
X147320000Y-105664000D03*
X166370000Y-82550000D03*
X147320000Y-78994000D03*
X160020000Y-108204000D03*
X135890000Y-74930000D03*
X166370000Y-85090000D03*
X141351000Y-104267000D03*
X137033000Y-108585000D03*
X147320000Y-107188000D03*
X154686000Y-92710000D03*
X147320000Y-108712000D03*
X147320000Y-81788000D03*
X139192000Y-106426000D03*
%TO.N,/V-HALT*%
X166370000Y-90805000D03*
%TO.N,/V-A7*%
X163195000Y-81788000D03*
%TO.N,/V-A6*%
X161925000Y-81788000D03*
%TO.N,/V-A5*%
X160655000Y-81788000D03*
%TO.N,/V-A4*%
X159385000Y-81788000D03*
%TO.N,/V-A3*%
X158115000Y-81788000D03*
%TO.N,/V-A2*%
X156845000Y-81788000D03*
%TO.N,/V-A1*%
X155575000Y-81788000D03*
%TO.N,/V-A0*%
X154305000Y-81788000D03*
%TO.N,/V-D0*%
X153035000Y-81788000D03*
%TO.N,/V-D1*%
X151765000Y-81788000D03*
%TO.N,/V-D2*%
X150495000Y-81788000D03*
%TO.N,/V-A12*%
X163703000Y-76962000D03*
%TO.N,/V-A13*%
X143383000Y-106426000D03*
%TO.N,/V-A14*%
X164592000Y-75819000D03*
%TD*%
D12*
%TO.N,/V-HALT*%
X166370000Y-91186000D02*
X172974000Y-97790000D01*
X172974000Y-103251000D02*
X179070000Y-109347000D01*
X166370000Y-90805000D02*
X166370000Y-91186000D01*
X172974000Y-97790000D02*
X172974000Y-103251000D01*
X179070000Y-109347000D02*
X179070000Y-114300000D01*
%TO.N,/V-A7*%
X176530000Y-109220000D02*
X176530000Y-114300000D01*
X171958000Y-104648000D02*
X176530000Y-109220000D01*
X171958000Y-98298000D02*
X171958000Y-104648000D01*
X163195000Y-89535000D02*
X171958000Y-98298000D01*
X163195000Y-81788000D02*
X163195000Y-89535000D01*
%TO.N,/V-A6*%
X173990000Y-109220000D02*
X173990000Y-114300000D01*
X170942000Y-106172000D02*
X173990000Y-109220000D01*
X170942000Y-98806000D02*
X170942000Y-106172000D01*
X161925000Y-89789000D02*
X170942000Y-98806000D01*
X161925000Y-81788000D02*
X161925000Y-89789000D01*
%TO.N,/V-A5*%
X169926000Y-107696000D02*
X171450000Y-109220000D01*
X169926000Y-99314000D02*
X169926000Y-107696000D01*
X160655000Y-90043000D02*
X169926000Y-99314000D01*
X160655000Y-81788000D02*
X160655000Y-90043000D01*
X171450000Y-109220000D02*
X171450000Y-114300000D01*
%TO.N,/V-A4*%
X168910000Y-99822000D02*
X168910000Y-114300000D01*
X159385000Y-90297000D02*
X168910000Y-99822000D01*
X159385000Y-81788000D02*
X159385000Y-90297000D01*
%TO.N,/V-A3*%
X158115000Y-90551000D02*
X166370000Y-98806000D01*
X166370000Y-98806000D02*
X166370000Y-114300000D01*
X158115000Y-81788000D02*
X158115000Y-90551000D01*
%TO.N,/V-A2*%
X163830000Y-97790000D02*
X163830000Y-114300000D01*
X156845000Y-81788000D02*
X156845000Y-90805000D01*
X156845000Y-90805000D02*
X163830000Y-97790000D01*
%TO.N,/V-A1*%
X161290000Y-109220000D02*
X161290000Y-114300000D01*
X162814000Y-107696000D02*
X161290000Y-109220000D01*
X162814000Y-98298000D02*
X162814000Y-107696000D01*
X155575000Y-91059000D02*
X162814000Y-98298000D01*
X155575000Y-81788000D02*
X155575000Y-91059000D01*
%TO.N,/V-D2*%
X149606000Y-107696000D02*
X151130000Y-109220000D01*
X151130000Y-109220000D02*
X151130000Y-114300000D01*
X149606000Y-82804000D02*
X149606000Y-107696000D01*
X150495000Y-81915000D02*
X149606000Y-82804000D01*
X150495000Y-81788000D02*
X150495000Y-81915000D01*
%TO.N,/V-D1*%
X153670000Y-109220000D02*
X153670000Y-114300000D01*
X150622000Y-106172000D02*
X153670000Y-109220000D01*
X150622000Y-83312000D02*
X150622000Y-106172000D01*
X151765000Y-82169000D02*
X150622000Y-83312000D01*
X151765000Y-81788000D02*
X151765000Y-82169000D01*
%TO.N,/V-D0*%
X156210000Y-109220000D02*
X156210000Y-114300000D01*
X151638000Y-83820000D02*
X151638000Y-104648000D01*
X153035000Y-82423000D02*
X151638000Y-83820000D01*
X153035000Y-81788000D02*
X153035000Y-82423000D01*
X151638000Y-104648000D02*
X156210000Y-109220000D01*
%TO.N,/V-A0*%
X158750000Y-109220000D02*
X158750000Y-114300000D01*
X152654000Y-103124000D02*
X158750000Y-109220000D01*
X152654000Y-84328000D02*
X152654000Y-103124000D01*
X154305000Y-82677000D02*
X152654000Y-84328000D01*
X154305000Y-81788000D02*
X154305000Y-82677000D01*
%TO.N,/V-A14*%
X143510000Y-78994000D02*
X146685000Y-75819000D01*
X146685000Y-75819000D02*
X164592000Y-75819000D01*
X143510000Y-104267000D02*
X143510000Y-78994000D01*
X138430000Y-109347000D02*
X143510000Y-104267000D01*
X138430000Y-114300000D02*
X138430000Y-109347000D01*
%TO.N,/V-A12*%
X144526000Y-108331000D02*
X144526000Y-79629000D01*
X143510000Y-114300000D02*
X143510000Y-109347000D01*
X147193000Y-76962000D02*
X163703000Y-76962000D01*
X143510000Y-109347000D02*
X144526000Y-108331000D01*
X144526000Y-79629000D02*
X147193000Y-76962000D01*
%TO.N,/V-A13*%
X143383000Y-106426000D02*
X140970000Y-108839000D01*
X140970000Y-108839000D02*
X140970000Y-114300000D01*
%TD*%
%TA.AperFunction,Conductor*%
%TO.N,GND*%
G36*
X180385343Y-73345307D02*
G01*
X180454584Y-73400526D01*
X180493011Y-73480318D01*
X180498000Y-73524600D01*
X180498000Y-109454790D01*
X180478293Y-109541133D01*
X180423074Y-109610374D01*
X180343282Y-109648801D01*
X180254718Y-109648801D01*
X180174926Y-109610374D01*
X180158286Y-109595504D01*
X180108413Y-109545631D01*
X180101140Y-109540576D01*
X180101135Y-109540572D01*
X179956762Y-109440231D01*
X179897109Y-109374771D01*
X179871765Y-109289912D01*
X179871428Y-109277734D01*
X179871325Y-109276715D01*
X179871441Y-109265593D01*
X179869043Y-109254500D01*
X179863166Y-109227315D01*
X179859912Y-109207449D01*
X179856786Y-109179584D01*
X179855546Y-109168528D01*
X179846121Y-109141462D01*
X179839545Y-109118069D01*
X179835841Y-109100935D01*
X179835840Y-109100931D01*
X179833489Y-109090058D01*
X179816939Y-109054566D01*
X179809365Y-109035913D01*
X179805779Y-109025614D01*
X179796485Y-108998927D01*
X179781297Y-108974621D01*
X179769702Y-108953265D01*
X179762294Y-108937379D01*
X179757591Y-108927293D01*
X179749729Y-108917157D01*
X179733590Y-108896352D01*
X179722068Y-108879835D01*
X179707213Y-108856061D01*
X179707209Y-108856056D01*
X179701316Y-108846625D01*
X179693478Y-108838732D01*
X179693474Y-108838727D01*
X179672814Y-108817922D01*
X179672463Y-108817547D01*
X179671901Y-108816823D01*
X179646388Y-108791310D01*
X179645898Y-108790819D01*
X179624191Y-108768960D01*
X179574770Y-108719193D01*
X179573671Y-108718496D01*
X179572719Y-108717641D01*
X173832786Y-102977708D01*
X173785667Y-102902720D01*
X173774500Y-102836994D01*
X173774500Y-100871071D01*
X174792955Y-100871071D01*
X174817914Y-101188207D01*
X174881336Y-101499938D01*
X174982276Y-101801616D01*
X175119229Y-102088743D01*
X175122489Y-102093860D01*
X175122490Y-102093862D01*
X175152121Y-102140373D01*
X175290153Y-102357040D01*
X175294019Y-102361730D01*
X175294022Y-102361734D01*
X175361991Y-102444187D01*
X175492500Y-102602507D01*
X175723254Y-102821484D01*
X175728141Y-102825100D01*
X175929623Y-102974189D01*
X175978975Y-103010708D01*
X175984264Y-103013701D01*
X175984265Y-103013701D01*
X176250563Y-103164366D01*
X176250572Y-103164370D01*
X176255849Y-103167356D01*
X176343754Y-103203768D01*
X176544125Y-103286764D01*
X176544130Y-103286766D01*
X176549751Y-103289094D01*
X176856298Y-103374107D01*
X176862313Y-103375006D01*
X176862318Y-103375007D01*
X177165774Y-103420359D01*
X177165778Y-103420359D01*
X177170921Y-103421128D01*
X177176111Y-103421355D01*
X177176115Y-103421355D01*
X177282641Y-103426006D01*
X177282661Y-103426006D01*
X177284804Y-103426100D01*
X177478799Y-103426100D01*
X177715524Y-103411621D01*
X178028313Y-103353649D01*
X178331707Y-103257990D01*
X178506273Y-103178436D01*
X178615643Y-103128593D01*
X178615645Y-103128592D01*
X178621181Y-103126069D01*
X178626365Y-103122892D01*
X178626371Y-103122889D01*
X178815333Y-103007092D01*
X178892420Y-102959853D01*
X179141381Y-102761821D01*
X179364352Y-102534924D01*
X179368049Y-102530105D01*
X179368055Y-102530099D01*
X179554306Y-102287371D01*
X179554307Y-102287370D01*
X179558009Y-102282545D01*
X179719466Y-102008446D01*
X179759353Y-101916714D01*
X179843892Y-101722287D01*
X179843893Y-101722284D01*
X179846315Y-101716714D01*
X179936665Y-101411697D01*
X179989169Y-101097943D01*
X180003045Y-100780129D01*
X179978086Y-100462993D01*
X179974527Y-100445496D01*
X179933836Y-100245496D01*
X179914664Y-100151262D01*
X179813724Y-99849584D01*
X179682226Y-99573894D01*
X179679386Y-99567939D01*
X179679384Y-99567936D01*
X179676771Y-99562457D01*
X179505847Y-99294160D01*
X179464921Y-99244512D01*
X179307366Y-99053383D01*
X179303500Y-99048693D01*
X179072746Y-98829716D01*
X178890865Y-98695131D01*
X178821912Y-98644108D01*
X178821910Y-98644107D01*
X178817025Y-98640492D01*
X178737909Y-98595730D01*
X178545437Y-98486834D01*
X178545428Y-98486830D01*
X178540151Y-98483844D01*
X178321341Y-98393210D01*
X178251875Y-98364436D01*
X178251870Y-98364434D01*
X178246249Y-98362106D01*
X177939702Y-98277093D01*
X177933687Y-98276194D01*
X177933682Y-98276193D01*
X177630226Y-98230841D01*
X177630222Y-98230841D01*
X177625079Y-98230072D01*
X177619889Y-98229845D01*
X177619885Y-98229845D01*
X177513359Y-98225194D01*
X177513339Y-98225194D01*
X177511196Y-98225100D01*
X177317201Y-98225100D01*
X177080476Y-98239579D01*
X176767687Y-98297551D01*
X176464293Y-98393210D01*
X176297425Y-98469256D01*
X176270515Y-98481520D01*
X176174819Y-98525131D01*
X176169635Y-98528308D01*
X176169629Y-98528311D01*
X176059612Y-98595730D01*
X175903580Y-98691347D01*
X175654619Y-98889379D01*
X175431648Y-99116276D01*
X175427951Y-99121095D01*
X175427945Y-99121101D01*
X175356218Y-99214578D01*
X175237991Y-99368655D01*
X175076534Y-99642754D01*
X175074112Y-99648323D01*
X175074111Y-99648326D01*
X174952108Y-99928913D01*
X174949685Y-99934486D01*
X174859335Y-100239503D01*
X174806831Y-100553257D01*
X174792955Y-100871071D01*
X173774500Y-100871071D01*
X173774500Y-97799465D01*
X173774511Y-97797381D01*
X173775325Y-97719715D01*
X173775325Y-97719711D01*
X173775441Y-97708593D01*
X173768631Y-97677093D01*
X173767166Y-97670315D01*
X173763912Y-97650449D01*
X173760786Y-97622584D01*
X173759546Y-97611528D01*
X173750121Y-97584462D01*
X173743545Y-97561069D01*
X173739841Y-97543937D01*
X173737489Y-97533058D01*
X173720937Y-97497562D01*
X173713365Y-97478913D01*
X173704146Y-97452439D01*
X173704145Y-97452436D01*
X173700485Y-97441927D01*
X173685295Y-97417617D01*
X173673706Y-97396272D01*
X173666295Y-97380380D01*
X173666292Y-97380374D01*
X173661590Y-97370292D01*
X173637586Y-97339346D01*
X173626074Y-97322844D01*
X173605316Y-97289625D01*
X173597477Y-97281731D01*
X173597473Y-97281726D01*
X173576814Y-97260922D01*
X173576463Y-97260547D01*
X173575901Y-97259823D01*
X173550388Y-97234310D01*
X173549898Y-97233819D01*
X173478770Y-97162193D01*
X173477671Y-97161496D01*
X173476719Y-97160641D01*
X167418559Y-91102481D01*
X167371440Y-91027493D01*
X167361842Y-90936826D01*
X167374253Y-90838581D01*
X167374253Y-90838580D01*
X167374949Y-90833071D01*
X167375341Y-90805000D01*
X167356194Y-90609728D01*
X167299484Y-90421894D01*
X167207370Y-90248653D01*
X167083361Y-90096602D01*
X166932180Y-89971535D01*
X166759585Y-89878213D01*
X166750287Y-89875335D01*
X166750285Y-89875334D01*
X166581454Y-89823072D01*
X166581450Y-89823071D01*
X166572152Y-89820193D01*
X166562476Y-89819176D01*
X166562471Y-89819175D01*
X166386695Y-89800700D01*
X166377019Y-89799683D01*
X166181618Y-89817466D01*
X166068383Y-89850793D01*
X166002739Y-89870113D01*
X166002736Y-89870114D01*
X165993393Y-89872864D01*
X165819512Y-89963767D01*
X165811926Y-89969867D01*
X165811925Y-89969867D01*
X165802142Y-89977733D01*
X165666600Y-90086711D01*
X165660342Y-90094169D01*
X165658301Y-90096602D01*
X165540480Y-90237016D01*
X165534083Y-90248653D01*
X165486758Y-90334736D01*
X165427893Y-90400905D01*
X165346147Y-90434980D01*
X165257712Y-90430213D01*
X165180103Y-90387547D01*
X165171659Y-90379581D01*
X164053786Y-89261708D01*
X164006667Y-89186720D01*
X163995500Y-89120994D01*
X163995500Y-82457071D01*
X164015207Y-82370728D01*
X164021471Y-82358776D01*
X164108616Y-82205375D01*
X164108617Y-82205372D01*
X164113425Y-82196909D01*
X164175358Y-82010732D01*
X164199949Y-81816071D01*
X164200341Y-81788000D01*
X164181194Y-81592728D01*
X164124484Y-81404894D01*
X164032370Y-81231653D01*
X163908361Y-81079602D01*
X163757180Y-80954535D01*
X163584585Y-80861213D01*
X163575287Y-80858335D01*
X163575285Y-80858334D01*
X163406454Y-80806072D01*
X163406450Y-80806071D01*
X163397152Y-80803193D01*
X163387476Y-80802176D01*
X163387471Y-80802175D01*
X163211695Y-80783700D01*
X163202019Y-80782683D01*
X163006618Y-80800466D01*
X162893383Y-80833793D01*
X162827739Y-80853113D01*
X162827736Y-80853114D01*
X162818393Y-80855864D01*
X162809762Y-80860376D01*
X162809760Y-80860377D01*
X162650987Y-80943382D01*
X162565340Y-80965920D01*
X162478395Y-80949065D01*
X162464142Y-80942078D01*
X162323148Y-80865843D01*
X162314585Y-80861213D01*
X162305287Y-80858335D01*
X162305285Y-80858334D01*
X162136454Y-80806072D01*
X162136450Y-80806071D01*
X162127152Y-80803193D01*
X162117476Y-80802176D01*
X162117471Y-80802175D01*
X161941695Y-80783700D01*
X161932019Y-80782683D01*
X161736618Y-80800466D01*
X161623383Y-80833793D01*
X161557739Y-80853113D01*
X161557736Y-80853114D01*
X161548393Y-80855864D01*
X161539762Y-80860376D01*
X161539760Y-80860377D01*
X161380987Y-80943382D01*
X161295340Y-80965920D01*
X161208395Y-80949065D01*
X161194142Y-80942078D01*
X161053148Y-80865843D01*
X161044585Y-80861213D01*
X161035287Y-80858335D01*
X161035285Y-80858334D01*
X160866454Y-80806072D01*
X160866450Y-80806071D01*
X160857152Y-80803193D01*
X160847476Y-80802176D01*
X160847471Y-80802175D01*
X160671695Y-80783700D01*
X160662019Y-80782683D01*
X160466618Y-80800466D01*
X160353383Y-80833793D01*
X160287739Y-80853113D01*
X160287736Y-80853114D01*
X160278393Y-80855864D01*
X160269762Y-80860376D01*
X160269760Y-80860377D01*
X160110987Y-80943382D01*
X160025340Y-80965920D01*
X159938395Y-80949065D01*
X159924142Y-80942078D01*
X159783148Y-80865843D01*
X159774585Y-80861213D01*
X159765287Y-80858335D01*
X159765285Y-80858334D01*
X159596454Y-80806072D01*
X159596450Y-80806071D01*
X159587152Y-80803193D01*
X159577476Y-80802176D01*
X159577471Y-80802175D01*
X159401695Y-80783700D01*
X159392019Y-80782683D01*
X159196618Y-80800466D01*
X159083383Y-80833793D01*
X159017739Y-80853113D01*
X159017736Y-80853114D01*
X159008393Y-80855864D01*
X158999762Y-80860376D01*
X158999760Y-80860377D01*
X158840987Y-80943382D01*
X158755340Y-80965920D01*
X158668395Y-80949065D01*
X158654142Y-80942078D01*
X158513148Y-80865843D01*
X158504585Y-80861213D01*
X158495287Y-80858335D01*
X158495285Y-80858334D01*
X158326454Y-80806072D01*
X158326450Y-80806071D01*
X158317152Y-80803193D01*
X158307476Y-80802176D01*
X158307471Y-80802175D01*
X158131695Y-80783700D01*
X158122019Y-80782683D01*
X157926618Y-80800466D01*
X157813383Y-80833793D01*
X157747739Y-80853113D01*
X157747736Y-80853114D01*
X157738393Y-80855864D01*
X157729762Y-80860376D01*
X157729760Y-80860377D01*
X157570987Y-80943382D01*
X157485340Y-80965920D01*
X157398395Y-80949065D01*
X157384142Y-80942078D01*
X157243148Y-80865843D01*
X157234585Y-80861213D01*
X157225287Y-80858335D01*
X157225285Y-80858334D01*
X157056454Y-80806072D01*
X157056450Y-80806071D01*
X157047152Y-80803193D01*
X157037476Y-80802176D01*
X157037471Y-80802175D01*
X156861695Y-80783700D01*
X156852019Y-80782683D01*
X156656618Y-80800466D01*
X156543383Y-80833793D01*
X156477739Y-80853113D01*
X156477736Y-80853114D01*
X156468393Y-80855864D01*
X156459762Y-80860376D01*
X156459760Y-80860377D01*
X156300987Y-80943382D01*
X156215340Y-80965920D01*
X156128395Y-80949065D01*
X156114142Y-80942078D01*
X155973148Y-80865843D01*
X155964585Y-80861213D01*
X155955287Y-80858335D01*
X155955285Y-80858334D01*
X155786454Y-80806072D01*
X155786450Y-80806071D01*
X155777152Y-80803193D01*
X155767476Y-80802176D01*
X155767471Y-80802175D01*
X155591695Y-80783700D01*
X155582019Y-80782683D01*
X155386618Y-80800466D01*
X155273383Y-80833793D01*
X155207739Y-80853113D01*
X155207736Y-80853114D01*
X155198393Y-80855864D01*
X155189762Y-80860376D01*
X155189760Y-80860377D01*
X155030987Y-80943382D01*
X154945340Y-80965920D01*
X154858395Y-80949065D01*
X154844142Y-80942078D01*
X154703148Y-80865843D01*
X154694585Y-80861213D01*
X154685287Y-80858335D01*
X154685285Y-80858334D01*
X154516454Y-80806072D01*
X154516450Y-80806071D01*
X154507152Y-80803193D01*
X154497476Y-80802176D01*
X154497471Y-80802175D01*
X154321695Y-80783700D01*
X154312019Y-80782683D01*
X154116618Y-80800466D01*
X154003383Y-80833793D01*
X153937739Y-80853113D01*
X153937736Y-80853114D01*
X153928393Y-80855864D01*
X153919762Y-80860376D01*
X153919760Y-80860377D01*
X153760987Y-80943382D01*
X153675340Y-80965920D01*
X153588395Y-80949065D01*
X153574142Y-80942078D01*
X153433148Y-80865843D01*
X153424585Y-80861213D01*
X153415287Y-80858335D01*
X153415285Y-80858334D01*
X153246454Y-80806072D01*
X153246450Y-80806071D01*
X153237152Y-80803193D01*
X153227476Y-80802176D01*
X153227471Y-80802175D01*
X153051695Y-80783700D01*
X153042019Y-80782683D01*
X152846618Y-80800466D01*
X152733383Y-80833793D01*
X152667739Y-80853113D01*
X152667736Y-80853114D01*
X152658393Y-80855864D01*
X152649762Y-80860376D01*
X152649760Y-80860377D01*
X152490987Y-80943382D01*
X152405340Y-80965920D01*
X152318395Y-80949065D01*
X152304142Y-80942078D01*
X152163148Y-80865843D01*
X152154585Y-80861213D01*
X152145287Y-80858335D01*
X152145285Y-80858334D01*
X151976454Y-80806072D01*
X151976450Y-80806071D01*
X151967152Y-80803193D01*
X151957476Y-80802176D01*
X151957471Y-80802175D01*
X151781695Y-80783700D01*
X151772019Y-80782683D01*
X151576618Y-80800466D01*
X151463383Y-80833793D01*
X151397739Y-80853113D01*
X151397736Y-80853114D01*
X151388393Y-80855864D01*
X151379762Y-80860376D01*
X151379760Y-80860377D01*
X151220987Y-80943382D01*
X151135340Y-80965920D01*
X151048395Y-80949065D01*
X151034142Y-80942078D01*
X150893148Y-80865843D01*
X150884585Y-80861213D01*
X150875287Y-80858335D01*
X150875285Y-80858334D01*
X150706454Y-80806072D01*
X150706450Y-80806071D01*
X150697152Y-80803193D01*
X150687476Y-80802176D01*
X150687471Y-80802175D01*
X150511695Y-80783700D01*
X150502019Y-80782683D01*
X150306618Y-80800466D01*
X150193383Y-80833793D01*
X150127739Y-80853113D01*
X150127736Y-80853114D01*
X150118393Y-80855864D01*
X149944512Y-80946767D01*
X149936926Y-80952867D01*
X149936925Y-80952867D01*
X149927142Y-80960733D01*
X149791600Y-81069711D01*
X149785342Y-81077169D01*
X149783301Y-81079602D01*
X149665480Y-81220016D01*
X149570956Y-81391954D01*
X149511628Y-81578978D01*
X149510544Y-81588644D01*
X149495731Y-81720705D01*
X149466522Y-81804313D01*
X149438685Y-81839237D01*
X149046694Y-82231228D01*
X149045214Y-82232693D01*
X148981732Y-82294859D01*
X148960515Y-82327782D01*
X148948771Y-82344125D01*
X148924336Y-82374734D01*
X148911860Y-82400541D01*
X148899974Y-82421722D01*
X148884446Y-82445817D01*
X148871053Y-82482614D01*
X148863220Y-82501157D01*
X148846173Y-82536422D01*
X148843670Y-82547262D01*
X148843670Y-82547263D01*
X148839726Y-82564347D01*
X148832826Y-82587640D01*
X148823022Y-82614578D01*
X148821628Y-82625616D01*
X148818113Y-82653436D01*
X148814582Y-82673258D01*
X148805774Y-82711411D01*
X148805735Y-82722535D01*
X148805632Y-82751854D01*
X148805615Y-82752369D01*
X148805500Y-82753283D01*
X148805500Y-82789483D01*
X148805499Y-82790178D01*
X148805147Y-82891000D01*
X148805431Y-82892270D01*
X148805500Y-82893545D01*
X148805500Y-107686535D01*
X148805489Y-107688619D01*
X148804559Y-107777407D01*
X148806910Y-107788280D01*
X148806910Y-107788282D01*
X148812834Y-107815685D01*
X148816088Y-107835551D01*
X148820454Y-107874472D01*
X148824114Y-107884982D01*
X148829879Y-107901536D01*
X148836455Y-107924931D01*
X148842511Y-107952942D01*
X148847213Y-107963025D01*
X148859060Y-107988432D01*
X148866634Y-108007086D01*
X148879515Y-108044073D01*
X148885410Y-108053507D01*
X148885411Y-108053509D01*
X148894703Y-108068379D01*
X148906298Y-108089735D01*
X148918409Y-108115707D01*
X148925227Y-108124497D01*
X148925228Y-108124498D01*
X148942410Y-108146648D01*
X148953932Y-108163165D01*
X148968787Y-108186939D01*
X148968791Y-108186944D01*
X148974684Y-108196375D01*
X148982522Y-108204268D01*
X148982526Y-108204273D01*
X149003186Y-108225078D01*
X149003537Y-108225453D01*
X149004099Y-108226177D01*
X149029612Y-108251690D01*
X149030102Y-108252181D01*
X149101230Y-108323807D01*
X149102329Y-108324504D01*
X149103281Y-108325359D01*
X150066856Y-109288934D01*
X150113975Y-109363922D01*
X150123891Y-109451929D01*
X150094640Y-109535522D01*
X150066856Y-109570362D01*
X149935316Y-109701902D01*
X149860328Y-109749021D01*
X149772321Y-109758937D01*
X149688728Y-109729686D01*
X149654011Y-109702025D01*
X149572314Y-109620470D01*
X149558334Y-109608865D01*
X149395344Y-109497053D01*
X149379480Y-109488187D01*
X149198842Y-109407950D01*
X149181630Y-109402125D01*
X149011807Y-109361511D01*
X148994186Y-109361329D01*
X148990000Y-109379240D01*
X148990000Y-110744000D01*
X148190000Y-110744000D01*
X148190000Y-109378540D01*
X148186088Y-109361401D01*
X148167612Y-109361513D01*
X147996413Y-109402772D01*
X147979217Y-109408626D01*
X147798721Y-109489177D01*
X147782868Y-109498073D01*
X147620068Y-109610172D01*
X147606116Y-109621796D01*
X147460889Y-109767277D01*
X147385941Y-109814461D01*
X147297944Y-109824454D01*
X147214325Y-109795276D01*
X147179965Y-109765250D01*
X147178658Y-109766559D01*
X147032314Y-109620470D01*
X147018334Y-109608865D01*
X146855344Y-109497053D01*
X146839480Y-109488187D01*
X146658842Y-109407950D01*
X146641630Y-109402125D01*
X146471807Y-109361511D01*
X146454186Y-109361329D01*
X146450000Y-109379240D01*
X146450000Y-110744000D01*
X145650000Y-110744000D01*
X145650000Y-109378540D01*
X145646088Y-109361401D01*
X145627612Y-109361513D01*
X145456413Y-109402772D01*
X145439217Y-109408626D01*
X145258721Y-109489177D01*
X145242868Y-109498073D01*
X145080068Y-109610172D01*
X145066116Y-109621796D01*
X144986254Y-109701798D01*
X144911307Y-109748982D01*
X144823309Y-109758975D01*
X144739690Y-109729798D01*
X144704703Y-109701921D01*
X144636644Y-109633862D01*
X144589525Y-109558874D01*
X144579609Y-109470867D01*
X144608860Y-109387274D01*
X144636644Y-109352434D01*
X145085306Y-108903772D01*
X145086787Y-108902306D01*
X145117809Y-108871927D01*
X145150268Y-108840141D01*
X145171485Y-108807218D01*
X145183231Y-108790872D01*
X145183274Y-108790819D01*
X145207664Y-108760266D01*
X145220140Y-108734459D01*
X145232026Y-108713278D01*
X145241526Y-108698537D01*
X145241527Y-108698535D01*
X145247554Y-108689183D01*
X145260949Y-108652381D01*
X145268780Y-108633843D01*
X145280985Y-108608595D01*
X145280986Y-108608593D01*
X145285827Y-108598578D01*
X145292274Y-108570652D01*
X145299174Y-108547360D01*
X145305171Y-108530882D01*
X145308978Y-108520422D01*
X145313887Y-108481564D01*
X145317418Y-108461742D01*
X145323724Y-108434428D01*
X145323724Y-108434425D01*
X145326226Y-108423589D01*
X145326368Y-108383146D01*
X145326385Y-108382631D01*
X145326500Y-108381717D01*
X145326500Y-108345517D01*
X145326501Y-108344822D01*
X145326840Y-108247732D01*
X145326840Y-108247731D01*
X145326853Y-108244000D01*
X145326569Y-108242730D01*
X145326500Y-108241455D01*
X145326500Y-80043006D01*
X145346207Y-79956663D01*
X145384786Y-79902292D01*
X147466292Y-77820786D01*
X147541280Y-77773667D01*
X147607006Y-77762500D01*
X163032607Y-77762500D01*
X163118950Y-77782207D01*
X163129687Y-77787786D01*
X163300513Y-77883257D01*
X163309768Y-77886264D01*
X163309770Y-77886265D01*
X163349897Y-77899303D01*
X163487118Y-77943889D01*
X163496784Y-77945042D01*
X163496786Y-77945042D01*
X163672284Y-77965969D01*
X163672285Y-77965969D01*
X163681946Y-77967121D01*
X163831142Y-77955641D01*
X163867869Y-77952815D01*
X163867870Y-77952815D01*
X163877576Y-77952068D01*
X164066556Y-77899303D01*
X164241689Y-77810837D01*
X164396303Y-77690040D01*
X164524509Y-77541511D01*
X164621425Y-77370909D01*
X164683358Y-77184732D01*
X164707949Y-76990071D01*
X164708178Y-76973651D01*
X164729087Y-76887593D01*
X164785266Y-76819128D01*
X164853643Y-76784758D01*
X164955556Y-76756303D01*
X165130689Y-76667837D01*
X165285303Y-76547040D01*
X165413509Y-76398511D01*
X165510425Y-76227909D01*
X165572358Y-76041732D01*
X165596949Y-75847071D01*
X165597341Y-75819000D01*
X165578194Y-75623728D01*
X165521484Y-75435894D01*
X165457885Y-75316281D01*
X165433940Y-75271247D01*
X165433938Y-75271243D01*
X165429370Y-75262653D01*
X165305361Y-75110602D01*
X165283498Y-75092515D01*
X165197807Y-75021626D01*
X165154180Y-74985535D01*
X164981585Y-74892213D01*
X164972287Y-74889335D01*
X164972285Y-74889334D01*
X164803454Y-74837072D01*
X164803450Y-74837071D01*
X164794152Y-74834193D01*
X164784476Y-74833176D01*
X164784471Y-74833175D01*
X164608695Y-74814700D01*
X164599019Y-74813683D01*
X164403618Y-74831466D01*
X164290383Y-74864793D01*
X164224739Y-74884113D01*
X164224736Y-74884114D01*
X164215393Y-74886864D01*
X164196305Y-74896843D01*
X164050138Y-74973257D01*
X164050135Y-74973259D01*
X164041512Y-74977767D01*
X164033929Y-74983864D01*
X164030637Y-74986018D01*
X163947597Y-75016804D01*
X163921675Y-75018500D01*
X146694465Y-75018500D01*
X146692381Y-75018489D01*
X146614715Y-75017675D01*
X146614711Y-75017675D01*
X146603593Y-75017559D01*
X146592720Y-75019910D01*
X146592718Y-75019910D01*
X146565315Y-75025834D01*
X146545449Y-75029088D01*
X146527400Y-75031113D01*
X146506528Y-75033454D01*
X146496018Y-75037114D01*
X146479464Y-75042879D01*
X146456067Y-75049455D01*
X146428058Y-75055511D01*
X146392557Y-75072066D01*
X146373922Y-75079632D01*
X146336927Y-75092515D01*
X146327492Y-75098410D01*
X146327489Y-75098412D01*
X146312621Y-75107703D01*
X146291270Y-75119295D01*
X146265292Y-75131409D01*
X146256504Y-75138226D01*
X146256502Y-75138227D01*
X146234348Y-75155412D01*
X146217832Y-75166934D01*
X146194055Y-75181791D01*
X146194052Y-75181793D01*
X146184625Y-75187684D01*
X146176734Y-75195520D01*
X146176729Y-75195524D01*
X146155922Y-75216186D01*
X146155547Y-75216537D01*
X146154823Y-75217099D01*
X146129310Y-75242612D01*
X146128819Y-75243102D01*
X146057193Y-75314230D01*
X146056496Y-75315329D01*
X146055641Y-75316281D01*
X142950694Y-78421228D01*
X142949214Y-78422693D01*
X142885732Y-78484859D01*
X142864515Y-78517782D01*
X142852771Y-78534125D01*
X142828336Y-78564734D01*
X142815860Y-78590541D01*
X142803974Y-78611722D01*
X142788446Y-78635817D01*
X142775053Y-78672614D01*
X142767220Y-78691157D01*
X142750173Y-78726422D01*
X142747670Y-78737262D01*
X142747670Y-78737263D01*
X142743726Y-78754347D01*
X142736826Y-78777640D01*
X142727022Y-78804578D01*
X142725628Y-78815616D01*
X142722113Y-78843436D01*
X142718582Y-78863258D01*
X142709774Y-78901411D01*
X142709735Y-78912535D01*
X142709632Y-78941854D01*
X142709615Y-78942369D01*
X142709500Y-78943283D01*
X142709500Y-78979483D01*
X142709499Y-78980178D01*
X142709147Y-79081000D01*
X142709431Y-79082270D01*
X142709500Y-79083545D01*
X142709500Y-103852994D01*
X142689793Y-103939337D01*
X142651214Y-103993708D01*
X137870694Y-108774228D01*
X137869214Y-108775693D01*
X137805732Y-108837859D01*
X137784515Y-108870782D01*
X137772769Y-108887128D01*
X137755378Y-108908913D01*
X137748336Y-108917734D01*
X137735860Y-108943541D01*
X137723974Y-108964722D01*
X137717595Y-108974621D01*
X137708446Y-108988817D01*
X137696275Y-109022256D01*
X137695053Y-109025614D01*
X137687220Y-109044157D01*
X137678001Y-109063228D01*
X137670173Y-109079422D01*
X137667670Y-109090262D01*
X137667670Y-109090263D01*
X137663726Y-109107347D01*
X137656826Y-109130640D01*
X137647022Y-109157578D01*
X137644242Y-109179584D01*
X137642113Y-109196436D01*
X137638582Y-109216258D01*
X137629774Y-109254411D01*
X137629735Y-109265532D01*
X137629696Y-109276799D01*
X137609688Y-109363073D01*
X137554229Y-109432122D01*
X137544268Y-109439515D01*
X137398870Y-109540568D01*
X137398862Y-109540575D01*
X137391587Y-109545631D01*
X137300714Y-109636504D01*
X137225726Y-109683623D01*
X137137719Y-109693539D01*
X137054126Y-109664288D01*
X137019286Y-109636504D01*
X136928413Y-109545631D01*
X136921140Y-109540576D01*
X136921135Y-109540572D01*
X136791560Y-109450516D01*
X136742658Y-109416528D01*
X136536977Y-109322359D01*
X136317870Y-109266102D01*
X136179258Y-109254828D01*
X136179246Y-109254827D01*
X136179245Y-109254827D01*
X136175225Y-109254500D01*
X135890036Y-109254500D01*
X135604776Y-109254501D01*
X135600757Y-109254828D01*
X135600753Y-109254828D01*
X135526137Y-109260897D01*
X135462130Y-109266102D01*
X135243023Y-109322359D01*
X135037342Y-109416528D01*
X134988440Y-109450516D01*
X134858865Y-109540572D01*
X134858860Y-109540576D01*
X134851587Y-109545631D01*
X134837714Y-109559504D01*
X134762726Y-109606623D01*
X134674719Y-109616539D01*
X134591126Y-109587288D01*
X134528502Y-109524664D01*
X134499251Y-109441071D01*
X134498000Y-109418790D01*
X134498000Y-101071071D01*
X134992955Y-101071071D01*
X135017914Y-101388207D01*
X135019125Y-101394160D01*
X135019126Y-101394166D01*
X135035959Y-101476904D01*
X135081336Y-101699938D01*
X135182276Y-102001616D01*
X135221219Y-102083261D01*
X135316273Y-102282545D01*
X135319229Y-102288743D01*
X135490153Y-102557040D01*
X135494019Y-102561730D01*
X135494022Y-102561734D01*
X135625986Y-102721819D01*
X135692500Y-102802507D01*
X135923254Y-103021484D01*
X135928141Y-103025100D01*
X136116348Y-103164366D01*
X136178975Y-103210708D01*
X136184264Y-103213701D01*
X136184265Y-103213701D01*
X136450563Y-103364366D01*
X136450572Y-103364370D01*
X136455849Y-103367356D01*
X136474320Y-103375007D01*
X136744125Y-103486764D01*
X136744130Y-103486766D01*
X136749751Y-103489094D01*
X137056298Y-103574107D01*
X137062313Y-103575006D01*
X137062318Y-103575007D01*
X137365774Y-103620359D01*
X137365778Y-103620359D01*
X137370921Y-103621128D01*
X137376111Y-103621355D01*
X137376115Y-103621355D01*
X137482641Y-103626006D01*
X137482661Y-103626006D01*
X137484804Y-103626100D01*
X137678799Y-103626100D01*
X137915524Y-103611621D01*
X138228313Y-103553649D01*
X138531707Y-103457990D01*
X138719344Y-103372479D01*
X138815643Y-103328593D01*
X138815645Y-103328592D01*
X138821181Y-103326069D01*
X138826365Y-103322892D01*
X138826371Y-103322889D01*
X139015333Y-103207092D01*
X139092420Y-103159853D01*
X139341381Y-102961821D01*
X139564352Y-102734924D01*
X139568049Y-102730105D01*
X139568055Y-102730099D01*
X139754306Y-102487371D01*
X139754307Y-102487370D01*
X139758009Y-102482545D01*
X139919466Y-102208446D01*
X139953432Y-102130331D01*
X140043892Y-101922287D01*
X140043893Y-101922284D01*
X140046315Y-101916714D01*
X140136665Y-101611697D01*
X140189169Y-101297943D01*
X140201162Y-101023255D01*
X140202780Y-100986201D01*
X140202780Y-100986199D01*
X140203045Y-100980129D01*
X140178086Y-100662993D01*
X140114664Y-100351262D01*
X140013724Y-100049584D01*
X139876771Y-99762457D01*
X139866058Y-99745640D01*
X139821234Y-99675281D01*
X139705847Y-99494160D01*
X139503500Y-99248693D01*
X139272746Y-99029716D01*
X139088946Y-98893711D01*
X139021912Y-98844108D01*
X139021910Y-98844107D01*
X139017025Y-98840492D01*
X138977720Y-98818254D01*
X138745437Y-98686834D01*
X138745428Y-98686830D01*
X138740151Y-98683844D01*
X138521341Y-98593210D01*
X138451875Y-98564436D01*
X138451870Y-98564434D01*
X138446249Y-98562106D01*
X138139702Y-98477093D01*
X138133687Y-98476194D01*
X138133682Y-98476193D01*
X137830226Y-98430841D01*
X137830222Y-98430841D01*
X137825079Y-98430072D01*
X137819889Y-98429845D01*
X137819885Y-98429845D01*
X137713359Y-98425194D01*
X137713339Y-98425194D01*
X137711196Y-98425100D01*
X137517201Y-98425100D01*
X137280476Y-98439579D01*
X136967687Y-98497551D01*
X136762943Y-98562106D01*
X136733809Y-98571292D01*
X136664293Y-98593210D01*
X136584491Y-98629578D01*
X136470515Y-98681520D01*
X136374819Y-98725131D01*
X136369635Y-98728308D01*
X136369629Y-98728311D01*
X136237329Y-98809385D01*
X136103580Y-98891347D01*
X135854619Y-99089379D01*
X135631648Y-99316276D01*
X135627951Y-99321095D01*
X135627945Y-99321101D01*
X135553306Y-99418373D01*
X135437991Y-99568655D01*
X135276534Y-99842754D01*
X135274112Y-99848323D01*
X135274111Y-99848326D01*
X135175781Y-100074469D01*
X135149685Y-100134486D01*
X135059335Y-100439503D01*
X135006831Y-100753257D01*
X134992955Y-101071071D01*
X134498000Y-101071071D01*
X134498000Y-73524600D01*
X134517707Y-73438257D01*
X134572926Y-73369016D01*
X134652718Y-73330589D01*
X134697000Y-73325600D01*
X180299000Y-73325600D01*
X180385343Y-73345307D01*
G37*
%TD.AperFunction*%
%TA.AperFunction,Conductor*%
G36*
X154681374Y-83651508D02*
G01*
X154743998Y-83714132D01*
X154773249Y-83797725D01*
X154774500Y-83820006D01*
X154774500Y-91049535D01*
X154774489Y-91051619D01*
X154773559Y-91140407D01*
X154775910Y-91151280D01*
X154775910Y-91151282D01*
X154781834Y-91178685D01*
X154785088Y-91198551D01*
X154789454Y-91237472D01*
X154793114Y-91247982D01*
X154798879Y-91264536D01*
X154805455Y-91287931D01*
X154811511Y-91315942D01*
X154816213Y-91326025D01*
X154828060Y-91351432D01*
X154835634Y-91370086D01*
X154848515Y-91407073D01*
X154854410Y-91416507D01*
X154854411Y-91416509D01*
X154863703Y-91431379D01*
X154875298Y-91452735D01*
X154887409Y-91478707D01*
X154894227Y-91487497D01*
X154894228Y-91487498D01*
X154911410Y-91509648D01*
X154922932Y-91526165D01*
X154937787Y-91549939D01*
X154937791Y-91549944D01*
X154943684Y-91559375D01*
X154951522Y-91567268D01*
X154951526Y-91567273D01*
X154972186Y-91588078D01*
X154972537Y-91588453D01*
X154973099Y-91589177D01*
X154998612Y-91614690D01*
X154999102Y-91615181D01*
X155070230Y-91686807D01*
X155071329Y-91687504D01*
X155072281Y-91688359D01*
X161955214Y-98571292D01*
X162002333Y-98646280D01*
X162013500Y-98712006D01*
X162013500Y-107281994D01*
X161993793Y-107368337D01*
X161955214Y-107422708D01*
X160730694Y-108647228D01*
X160729214Y-108648693D01*
X160665732Y-108710859D01*
X160644515Y-108743782D01*
X160632771Y-108760125D01*
X160608336Y-108790734D01*
X160595860Y-108816541D01*
X160583974Y-108837722D01*
X160577595Y-108847621D01*
X160568446Y-108861817D01*
X160556275Y-108895257D01*
X160555053Y-108898614D01*
X160547220Y-108917157D01*
X160542182Y-108927579D01*
X160530173Y-108952422D01*
X160527670Y-108963262D01*
X160527670Y-108963263D01*
X160523726Y-108980347D01*
X160516826Y-109003640D01*
X160512887Y-109014464D01*
X160507022Y-109030578D01*
X160502897Y-109063228D01*
X160502113Y-109069436D01*
X160498582Y-109089258D01*
X160492298Y-109116479D01*
X160489774Y-109127411D01*
X160489735Y-109138535D01*
X160489632Y-109167854D01*
X160489615Y-109168369D01*
X160489500Y-109169283D01*
X160489500Y-109205483D01*
X160489499Y-109206179D01*
X160489251Y-109277110D01*
X160469242Y-109363383D01*
X160413782Y-109432431D01*
X160403824Y-109439822D01*
X160258873Y-109540566D01*
X160258866Y-109540572D01*
X160251587Y-109545631D01*
X160160714Y-109636504D01*
X160085726Y-109683623D01*
X159997719Y-109693539D01*
X159914126Y-109664288D01*
X159879286Y-109636504D01*
X159788413Y-109545631D01*
X159781140Y-109540576D01*
X159781135Y-109540572D01*
X159635928Y-109439651D01*
X159576275Y-109374191D01*
X159550931Y-109289331D01*
X159550500Y-109276242D01*
X159550500Y-109229465D01*
X159550511Y-109227381D01*
X159551325Y-109149715D01*
X159551325Y-109149711D01*
X159551441Y-109138593D01*
X159549090Y-109127718D01*
X159543166Y-109100315D01*
X159539912Y-109080449D01*
X159536786Y-109052584D01*
X159535546Y-109041528D01*
X159526121Y-109014462D01*
X159519545Y-108991069D01*
X159515841Y-108973935D01*
X159515840Y-108973931D01*
X159513489Y-108963058D01*
X159496939Y-108927566D01*
X159489365Y-108908913D01*
X159485779Y-108898614D01*
X159476485Y-108871927D01*
X159461297Y-108847621D01*
X159449702Y-108826265D01*
X159442294Y-108810379D01*
X159437591Y-108800293D01*
X159413590Y-108769352D01*
X159402068Y-108752835D01*
X159387213Y-108729061D01*
X159387209Y-108729056D01*
X159381316Y-108719625D01*
X159373478Y-108711732D01*
X159373474Y-108711727D01*
X159352814Y-108690922D01*
X159352463Y-108690547D01*
X159351901Y-108689823D01*
X159326388Y-108664310D01*
X159325898Y-108663819D01*
X159275013Y-108612578D01*
X159254770Y-108592193D01*
X159253671Y-108591496D01*
X159252719Y-108590641D01*
X153512786Y-102850708D01*
X153465667Y-102775720D01*
X153454500Y-102709994D01*
X153454500Y-100779800D01*
X154392908Y-100779800D01*
X154393326Y-100785423D01*
X154393326Y-100785431D01*
X154416996Y-101103942D01*
X154419004Y-101130958D01*
X154420057Y-101136503D01*
X154420057Y-101136505D01*
X154468976Y-101394166D01*
X154484684Y-101476904D01*
X154589104Y-101813192D01*
X154591379Y-101818363D01*
X154591380Y-101818365D01*
X154637107Y-101922287D01*
X154730921Y-102135497D01*
X154733760Y-102140365D01*
X154733764Y-102140373D01*
X154880761Y-102392431D01*
X154908313Y-102439676D01*
X155118999Y-102721819D01*
X155360270Y-102978297D01*
X155629024Y-103205814D01*
X155921807Y-103401445D01*
X155969318Y-103425915D01*
X156229831Y-103560089D01*
X156229838Y-103560092D01*
X156234853Y-103562675D01*
X156240132Y-103564675D01*
X156558870Y-103685434D01*
X156558874Y-103685435D01*
X156564139Y-103687430D01*
X156905430Y-103774107D01*
X156911013Y-103774867D01*
X156911019Y-103774868D01*
X157105502Y-103801336D01*
X157254340Y-103821592D01*
X157290483Y-103823012D01*
X157367136Y-103826024D01*
X157367157Y-103826024D01*
X157369081Y-103826100D01*
X157587198Y-103826100D01*
X157849560Y-103811202D01*
X157855112Y-103810248D01*
X157855121Y-103810247D01*
X158110196Y-103766417D01*
X158196600Y-103751570D01*
X158287801Y-103724987D01*
X158529236Y-103654615D01*
X158529241Y-103654613D01*
X158534659Y-103653034D01*
X158539870Y-103650849D01*
X158854180Y-103519048D01*
X158854184Y-103519046D01*
X158859390Y-103516863D01*
X159166619Y-103344807D01*
X159171193Y-103341514D01*
X159171198Y-103341511D01*
X159447818Y-103142372D01*
X159452395Y-103139077D01*
X159456561Y-103135293D01*
X159456567Y-103135288D01*
X159708869Y-102906113D01*
X159713046Y-102902319D01*
X159770335Y-102836994D01*
X159941503Y-102641815D01*
X159941508Y-102641808D01*
X159945219Y-102637577D01*
X159966648Y-102606688D01*
X160056402Y-102477306D01*
X160145929Y-102348253D01*
X160312598Y-102038068D01*
X160400251Y-101818365D01*
X160440987Y-101716259D01*
X160440988Y-101716257D01*
X160443081Y-101711010D01*
X160505438Y-101482286D01*
X160534216Y-101376731D01*
X160534217Y-101376726D01*
X160535701Y-101371283D01*
X160576849Y-101103942D01*
X160588409Y-101028839D01*
X160588410Y-101028831D01*
X160589268Y-101023255D01*
X160590963Y-100980129D01*
X160595486Y-100864999D01*
X160603092Y-100671400D01*
X160602468Y-100662993D01*
X160577415Y-100325874D01*
X160577414Y-100325866D01*
X160576996Y-100320242D01*
X160531369Y-100079917D01*
X160512367Y-99979830D01*
X160512366Y-99979824D01*
X160511316Y-99974296D01*
X160406896Y-99638008D01*
X160371401Y-99557338D01*
X160267352Y-99320869D01*
X160265079Y-99315703D01*
X160262240Y-99310835D01*
X160262236Y-99310827D01*
X160090527Y-99016394D01*
X160087687Y-99011524D01*
X159877001Y-98729381D01*
X159635730Y-98472903D01*
X159366976Y-98245386D01*
X159074193Y-98049755D01*
X159025281Y-98024564D01*
X158766169Y-97891111D01*
X158766162Y-97891108D01*
X158761147Y-97888525D01*
X158721281Y-97873421D01*
X158437130Y-97765766D01*
X158437126Y-97765765D01*
X158431861Y-97763770D01*
X158090570Y-97677093D01*
X158084987Y-97676333D01*
X158084981Y-97676332D01*
X157890498Y-97649864D01*
X157741660Y-97629608D01*
X157705517Y-97628188D01*
X157628864Y-97625176D01*
X157628843Y-97625176D01*
X157626919Y-97625100D01*
X157408802Y-97625100D01*
X157146440Y-97639998D01*
X157140888Y-97640952D01*
X157140879Y-97640953D01*
X156885804Y-97684783D01*
X156799400Y-97699630D01*
X156793988Y-97701207D01*
X156793990Y-97701207D01*
X156466764Y-97796585D01*
X156466759Y-97796587D01*
X156461341Y-97798166D01*
X156456132Y-97800350D01*
X156456130Y-97800351D01*
X156141820Y-97932152D01*
X156141816Y-97932154D01*
X156136610Y-97934337D01*
X155829381Y-98106393D01*
X155824807Y-98109686D01*
X155824802Y-98109689D01*
X155590003Y-98278721D01*
X155543605Y-98312123D01*
X155539439Y-98315907D01*
X155539433Y-98315912D01*
X155327658Y-98508275D01*
X155282954Y-98548881D01*
X155279233Y-98553124D01*
X155279231Y-98553126D01*
X155054497Y-98809385D01*
X155054492Y-98809392D01*
X155050781Y-98813623D01*
X155047571Y-98818250D01*
X155047568Y-98818254D01*
X154996862Y-98891347D01*
X154850071Y-99102947D01*
X154683402Y-99413132D01*
X154681311Y-99418372D01*
X154681311Y-99418373D01*
X154570946Y-99695006D01*
X154552919Y-99740190D01*
X154551434Y-99745637D01*
X154551433Y-99745640D01*
X154466998Y-100055347D01*
X154460299Y-100079917D01*
X154459440Y-100085499D01*
X154417617Y-100357227D01*
X154406732Y-100427945D01*
X154392908Y-100779800D01*
X153454500Y-100779800D01*
X153454500Y-84742006D01*
X153474207Y-84655663D01*
X153512786Y-84601292D01*
X154434786Y-83679292D01*
X154509774Y-83632173D01*
X154597781Y-83622257D01*
X154681374Y-83651508D01*
G37*
%TD.AperFunction*%
%TD*%
M02*
